<?xml version="1.0" encoding="UTF-8"?><svg id="Layer_2" xmlns="http://www.w3.org/2000/svg" xmlns:xlink="http://www.w3.org/1999/xlink" viewBox="0 0 100 100"><defs><style>.cls-1{fill:none;}.cls-2{clip-path:url(#clippath);}.cls-3{fill:#f8a77e;}.cls-4{fill:#f4e1d3;}.cls-5{fill:#fff3dd;}.cls-6{fill:#e5ded8;}.cls-7{fill:#848369;}.cls-8{fill:#aa392b;}.cls-9{fill:#cd7f2e;}.cls-10{fill:#d3ccba;}.cls-11{fill:#ad7042;}</style><clipPath id="clippath"><circle class="cls-1" cx="50" cy="50" r="49.45"/></clipPath></defs><g class="cls-2"><g><rect class="cls-5" y=".55" width="100" height="100"/><path class="cls-11" d="M50.44,57c-.09,.09-.12,.17-.15,.24-5.24,10.87-10.47,21.73-15.71,32.6-.05,.1-.1,.21-.16,.31-.16,.23-.42,.31-.66,.19-.23-.11-.34-.38-.24-.64,.11-.29,.22-.57,.35-.85,1.68-3.49,3.36-6.98,5.03-10.46,3.68-7.64,7.35-15.29,11.03-22.93,.04-.08,.08-.17,.13-.24,.17-.26,.46-.26,.62,0,.07,.11,.12,.22,.18,.33,5.95,11.21,11.93,22.39,17.91,33.58,.1,.19,.16,.4,.24,.6,.09,.22-.11,.42-.35,.36-.08-.02-.16-.04-.24-.04-.21,0-.37-.09-.48-.27-.03-.05-.06-.1-.09-.15-5.75-10.77-11.51-21.54-17.26-32.32-.05-.09-.1-.19-.17-.3Z"/><path class="cls-7" d="M60.59,81.51c0,2.53,0,5.06,0,7.6,0,.27,.02,.53,.03,.8,0,.33-.15,.49-.47,.5-1.15,.03-2.29,.12-3.43,.22-.49,.04-.98,.06-1.47,.08-1.31,.03-2.62,.09-3.93,.14-1.91,.08-3.82,.09-5.73,.04-1.05-.03-2.09-.14-3.13-.26-.58-.06-1.16-.11-1.74-.17-.22-.02-.44-.07-.65-.13-.2-.06-.28-.18-.31-.39-.12-.91-.15-1.82-.2-2.74-.07-1.32-.14-2.64-.18-3.97-.07-2.36-.1-4.73-.08-7.1,0-.82,.02-1.65,.09-2.47,0-.12,.02-.23,.04-.35,.02-.16,.11-.28,.22-.38,.2-.17,.43-.3,.67-.41,.96-.43,1.95-.72,2.98-.91,1.47-.28,2.96-.4,4.45-.47,1.4-.07,2.8-.09,4.2-.05,1.82,.06,3.63,.19,5.42,.57,.99,.21,1.95,.5,2.86,.95,.23,.11,.31,.25,.31,.5-.04,1.98,0,3.97,0,5.95,0,.82,0,1.63,0,2.45h.06Z"/><path d="M50.07,73.41c.1,.08,.07,.19,.07,.28,.03,1.51,.05,3.01,.08,4.52,.04,1.98,.12,3.96,.1,5.94-.02,2.09-.03,4.18-.05,6.27,0,.08,0,.17-.02,.25,0,.04-.03,.08-.08,.07-.05,0-.08-.03-.08-.08,0-.06,0-.12,0-.17,0-.28,.02-.57,.03-.85,.01-2.2,.03-4.4,.03-6.59,0-1.76-.07-3.51-.11-5.27-.03-1.38-.05-2.76-.07-4.15,0-.08-.03-.17,.1-.23Z"/><path class="cls-4" d="M69.16,35.83c-.03,8.12-.06,13.8-.08,19.48,0,.06,0,.12,0,.17-.02,.19-.15,.3-.34,.27-.49-.07-.98-.09-1.47-.12-.22-.01-.43-.02-.65-.02-1.26-.02-2.52,.03-3.77,.03-2.14,.01-4.28-.06-6.42-.13-1.31-.04-2.61-.06-3.92-.07-2.59-.02-5.18,0-7.77,.03-2.47,.03-4.95,.01-7.42,.03-1.34,.01-2.68,.08-4.01,.22-.48,.05-.96,.09-1.44,.11-.16,0-.33,.05-.49,.08-.39,.06-.61-.2-.49-.57,.02-.06,.04-.11,.03-.17-.05-.57-.04-1.15-.04-1.72,.03-3.51,0-7.01,.02-10.52,0-2.1,.04-4.2,.06-6.3,.03-2.55-.02-5.1-.05-7.65-.03-2.18-.05-4.36-.08-6.55,0-.48-.02-.97-.03-1.45,0-.33,.1-.43,.43-.4,.08,0,.17,0,.25,0,12.33,0,24.66,0,36.99,.01,.1,0,.2,0,.3,0,.27,0,.45,.18,.47,.45,0,.07,0,.15,0,.22-.02,5.66-.04,11.31-.06,14.53Z"/><path class="cls-11" d="M41.35,27.29c1.66,.93,1.97,2.91,.65,4.29-.57,.6-1.28,1-2.03,1.34-.87,.4-1.57,.99-2.06,1.83-.3,.51-.71,.91-1.23,1.19-1.07,.59-2.32,.39-3.08-.49-.77-.89-.79-2.26-.05-3.21,.34-.44,.76-.8,1.27-1.02,1.09-.47,.25-4.93,2.69-6.5,1.72-1.1,4.02-.65,5.47,.79,2.03,2.03-2.52,1.29-1.63,1.78Z"/><path class="cls-8" d="M50.74,35.59c.91,.46,1.86,.79,2.8,1.16,.81,.33,1.62,.66,2.47,.84,.86,.19,1.71,.15,2.53-.16,1.08-.41,1.78-1.18,2.09-2.31,.11-.41,.21-.83,.31-1.25,.16-.66,.48-1.26,1.08-1.58,6.74-3.58,.4-8.92-.72-9.34-.35-.13-.71-.2-1.08-.23-1.15-.12-2.27,.08-3.37,.4-.97,.29-1.9,.68-2.78,1.15-.59,.68-1.26,1.29-2.01,1.81-.05,.35-.09,.71-.14,1.06-.38,2.82-.77,5.63-1.17,8.45Z"/><path class="cls-7" d="M47.9,27.97c-.08-.43-.07-.85-.08-1.26,0-.27,0-.27,.27-.31,.33-.06,.67,0,.99,.05,1.01,.16,2.01,.12,3.01-.04,.34-.05,.68-.09,1.02-.11,.17,0,.33,0,.5,.03,.23,.04,.29,.1,.3,.32,.02,.33,.03,.67,.04,1,0,.17,0,.33,.04,.51,.22,.08,.45,.08,.68,.12,.48,.09,.96,.19,1.42,.38,.24,.1,.25,.12,.21,.37-.37,2.35-2.34,4.42-4.68,4.96-1.8,.41-3.4-.04-4.83-1.14-.74-.57-1.15-1.37-1.39-2.26-.16-.57-.22-1.16-.21-1.75,0-.29,.05-.43,.41-.52,.69-.17,1.39-.26,2.1-.31,.06,0,.12-.01,.21-.02Z"/><g><path class="cls-7" d="M40.86,37.84c-.1,.08-.1,.18-.12,.26-.14,.44-.27,.87-.41,1.31-.02,.06-.04,.13-.07,.19-.09,.2-.19,.24-.4,.18-.06-.02-.11-.04-.16-.07-.7-.36-1.43-.68-2.14-1.02-.71-.34-1.39-.73-2.03-1.17-.09-.06-.16-.13-.29-.09-.1,.03-.16-.04-.16-.14,0-.09,0-.18,.02-.27,.11-.62,.36-1.18,.67-1.71,.75-1.3,1.71-2.44,2.83-3.44,1.57-1.4,3.34-2.48,5.28-3.28,.14-.06,.28-.09,.43-.14,.1-.04,.16,0,.19,.1,.02,.06,.03,.13,.03,.2,.08,1.5,.23,3.01,.29,4.51,0,.22,.01,.43,.01,.65,0,2.22,.04,4.43-.05,6.64-.06,1.47-.24,2.92-.52,4.36-.21,1.1-.44,2.19-.83,3.24-.41,1.09-.86,2.16-1.44,3.18-.28,.49-2.16,3.29-2.16,3.05-.01-.58,.1-2.43,.12-3.02,.03-.75,.06-1.5,.09-2.25,.02-.42,0-.85,.06-1.27,.08-.52,.13-1.04,.2-1.56,.12-.9,.19-1.8,.23-2.71,.08-1.65,.14-3.31,.28-4.96,.02-.25,.04-.5,.05-.77Z"/><path class="cls-7" d="M59.11,37.37c.04,.37,.08,.7,.12,1.02,.13,1.05,.24,2.1,.34,3.15,.09,.94,.17,1.87,.22,2.81,.04,.81,.05,1.62,.03,2.42-.06,2.1-.12,4.2-.09,6.3,0,.22,.01,.87,.04,1.09,.01,.09-.02-.25-.12-.21-.09,.03-.14-.02-.18-.09-.03-.05-.07-.07-.11-.09-.36-.2-.62-.5-.86-.83-.65-.87-1.1-1.84-1.44-2.87-.46-1.39-.77-2.83-1-4.27-.2-1.26-.35-2.52-.44-3.79-.1-1.36-.13-2.73-.07-4.09,.09-2.02,.29-4.02,.66-6,.17-.92,.42-1.81,.71-2.7,.03-.11,.08-.21,.05-.34-.03-.11,.05-.17,.17-.15,.06,.01,.13,.04,.19,.07,1.29,.56,2.46,1.33,3.58,2.17,.78,.58,1.51,1.21,2.14,1.95,.79,.93,1.41,1.96,1.79,3.12,.08,.24,.05,.4-.14,.57-.45,.39-.84,.83-1.26,1.25-.58,.59-1.17,1.18-1.8,1.73-.3,.26-.6,.5-.93,.71-.06,.04-.11,.08-.17,.1-.11,.04-.22-.04-.18-.15,.02-.09,.03-.15-.01-.23-.39-.78-.7-1.6-1.06-2.4-.03-.07-.05-.16-.15-.25Z"/></g><path class="cls-9" d="M60.61,73.17c-.15,.05-.31,.08-.46,.09-1.04,.05-2.08,.12-3.12,.16-2.44,.09-4.88,.15-7.32,.17-1.81,.02-3.61-.02-5.42-.07-.87-.02-1.73-.04-2.6-.08-.73-.03-1.46-.1-2.19-.15-.09,0-.15-.01-.19-.03-.02-.03-.05-.07-.07-.11,0-.04,0-.08,0-.15,0-1.23,.04-2.47,.06-3.7,.02-1.18,.05-2.37,.09-3.55,.04-1.19,.09-2.38,.14-3.57,.07-1.63,.14-3.26,.22-4.89,.06-1.28,.03-2.01,.1-3.28,.85-.73,1.62-2.18,2.13-3.22,.79-1.61,1.33-3.3,1.65-5.06,.32-1.75,.56-3.5,.74-5.27,.18-1.77,.19-3.54,.14-5.32-.06-2.06-.18-4.13-.19-6.19,0-.09,0-.18,0-.27,0-.03,0-.07,0-.1,0-.37,0-.37,.35-.5,.11-.04,.22-.07,.34-.09,.2-.03,.34,.07,.38,.27,0,.04,.01,.07,.02,.11,.01,.09,.01,.18,.01,.26-.02,.44,0,.89,.11,1.32,.48,2.02,1.73,3.27,3.76,3.71,.95,.21,1.89,.21,2.8-.15,.92-.37,1.71-.94,2.32-1.72,.4-.51,.73-1.06,1.01-1.63,.16-.31,.27-.64,.35-.99,.04-.18,.07-.36,.22-.49,.03-.02,.04-.07,.05-.11,0-.04,.02-.08,.03-.12,.12-.46,.29-.54,.73-.36,.47,.19,.51,.27,.41,.75l-.03,.13c-.3,1.45-.56,2.91-.74,4.38-.31,2.57-.45,5.14-.35,7.73,.08,1.9,.24,3.79,.58,5.66,.31,1.7,.77,3.36,1.44,4.95,.18,.43,.4,.83,.65,1.2,.29,.42,.62,.8,1.01,1.14,0,.2,0,.4,.01,.6,.03,1.6,.08,3.2,.12,4.8,.02,.62,.03,1.23,.05,1.85,.03,1.15,.07,2.3,.13,3.45,.06,1.17,.15,2.34,.22,3.51,.05,.77,.1,1.55,.16,2.32,.05,.64,.11,1.28,.17,1.92,.01,.16,.04,.31,.1,.46,.05,.14,.02,.19-.13,.24Z"/><g><path class="cls-3" d="M51.49,41.36c.06,.25,.06,.4-.02,.5-.07,.09-.21,.14-.42,.18-.03,.13,0,.28-.09,.4-.1,.11-.23,.15-.36,.2-.05,.35-.12,.44-.47,.51-.2,.04-.4,.05-.6,.06-.12,0-.22,.04-.31,.14-.33,.37-.76,.53-1.25,.53-.23,0-.41,.06-.6,.19-.23,.16-.5,.26-.75,.4-.87,.49-1.74,.99-2.6,1.49-1.21,.7-2.48,1.29-3.74,1.9-.78,.38-1.6,.68-2.46,.79-1.19,.16-2.32-.05-3.36-.68-.79-.49-1.31-1.18-1.53-2.08-.48-1.91-.37-3.78,.47-5.58,.21-.45,.48-.85,.75-1.27,.12-.19,.33-.24,.55-.23,.18,.02,.36,.06,.53,.12,1.47,.56,2.27,1.19,3.53,2.14,.19,.14,.21,.32,.15,.54-.04,.15-.33,.97-.39,1.15,.65-.18,2.02-.43,2.63-.56,1.1-.23,2.2-.47,3.31-.61,.61-.07,1.22-.16,1.84-.18,.19,0,.35-.08,.51-.18,.2-.14,.36-.32,.5-.52,.1-.14,.19-.29,.3-.43,.09-.13,.19-.24,.29-.33,.35-.31,.78-.44,1.27-.41,.04,0,.07,0,.11,0,.3,.03,.59,.09,.88,.18,.13,.04,.23,.06,.34-.04,.12-.1,.28-.12,.45-.12,.31,0,.6,.29,.48,.62,0,.02,0,.05-.01,.09,.15,.15,.32,.29,.35,.52v.02c.02,.24-.09,.42-.28,.54Z"/><path class="cls-3" d="M61.7,48.02c-.44-.03-1.02-.07-1.6-.12-.05,0-.1,0-.15-.03-.24-.12-.47-.09-.73-.02-.72,.2-1.42,.1-2.07-.29-.68-.41-1.22-.98-1.7-1.6-.04-.05-.07-.11-.09-.18-.06-.17,0-.3,.16-.36,.11-.05,.22-.06,.34-.06,.64-.05,1.28-.04,1.92-.09,.94-.07,1.87-.2,2.78-.45,.12-.03,.24-.05,.37-.04,.23,.02,.47-.01,.68-.12,.25-.12,.37-.32,.37-.6,0-.22-.06-.43-.14-.63-.17-.45-.67-1.42-.92-1.84-.19-.32,.09,.17,.38-.04,.96-.69,1.91-1.39,2.84-2.12,.28-.22,.56-.45,.84-.67,.12-.09,.24-.18,.38-.25,.24-.12,.44-.05,.52,.2,.33,1.09,.78,2.14,.96,3.28,.13,.87,.21,1.74,0,2.61-.35,1.51-1.28,2.53-2.75,3.04-.64,.23-1.57,.36-2.4,.36Z"/></g><g><path d="M49.08,40.73c-.06,0-.06-.1,0-.11,.37-.01,.71,.08,1.05,.17,.45,.12,.9,.25,1.33,.47,.05,.02,.03,.1-.02,.1-.07,0-.12-.04-.17-.06-.55-.23-1.11-.4-1.69-.51-.16-.03-.33-.05-.49-.07h-.02Z"/><path d="M48.89,41.42c.8,0,1.53,.15,2.19,.54,.03,.02,.04,.05,.03,.09-.01,.03-.04,.03-.07,.02-.02,0-.05-.02-.07-.03-.63-.35-1.31-.48-2.01-.5-.03,0-.07,0-.1-.02h0s0-.09,.04-.09Z"/><path d="M48.92,42.39c.56-.12,1.09-.05,1.62,.16,.07,.03,.03,.14-.04,.11-.02,0-.04-.02-.06-.02-.27-.1-.55-.18-.85-.18-.2,0-.4,0-.59,.03-.02,0-.04,0-.07,.01-.08,.01-.1-.1-.02-.12Z"/><path d="M51.37,40.22s-.05,.02-.07,.01c-.29-.15-.58-.28-.88-.41h0s.01-.09,.06-.08c.35,.08,.63,.25,.91,.41l-.02,.06Z"/></g><g><path class="cls-8" d="M56.18,43.91c-.17,.25-.25,.27-.52,.11-.7-.41-3.88-2-4.16-2.15-.01,0-.03-.01-.04-.02,.08-.1,.08-.26,.02-.5,.19-.12,.3-.3,.28-.54v-.02s.07,.03,.1,.05c1.4,.79,2.8,1.57,4.17,2.41,.38,.24,.4,.28,.14,.65Z"/><path class="cls-8" d="M49.18,39.53c-.5-.03-.93,.1-1.27,.41-.02,0-.04-.02-.06-.03l-.04-.03c-1.3-.92-2.69-1.69-4.05-2.51-.23-.14-.27-.21-.17-.41,.05-.11,.13-.16,.26-.12,.14,.04,.27,.09,.4,.15,1.09,.49,2.15,1.04,3.21,1.6,.52,.27,1.03,.55,1.54,.82,.07,.04,.14,.06,.18,.13Z"/></g><path class="cls-7" d="M33.76,37.73c-.02-.1-.05-.18-.07-.27-.06-.33,.06-.56,.37-.69,.22-.09,.44-.09,.67-.08,.31,.03,.61,.11,.9,.22,.19,.07,.38,.14,.57,.23,1.38,.66,2.73,1.37,3.99,2.22q.27,.18,.28,.53c0,.23-.08,.42-.26,.55-.09,.06-.18,.11-.28,.15-.15,.07-.23,.17-.28,.33-.08,.33-.23,.45-.57,.47-.24,.02-.47-.02-.7-.07-.53-.12-1.04-.31-1.55-.51-.87-.36-1.72-.77-2.54-1.25-.25-.15-.5-.31-.73-.5-.12-.1-.22-.2-.31-.33-.21-.31-.15-.59,.15-.8,.1-.07,.23-.11,.34-.22Z"/><path class="cls-7" d="M60.21,40.95c-.11-.05-.22-.1-.32-.16-.21-.13-.27-.34-.14-.54,.12-.2,.24-.39,.44-.54,1.36-1.03,2.63-2.16,3.8-3.41,.21-.22,.43-.43,.66-.62,.18-.14,.36-.27,.59-.32,.38-.09,.68,.08,.79,.46,.03,.11,.04,.23,.04,.35-.01,.19,.04,.32,.24,.36,.02,0,.03,0,.04,.02,.31,.14,.43,.4,.34,.73-.05,.18-.14,.34-.26,.49-.17,.23-.37,.44-.58,.63-1.04,.94-2.14,1.81-3.32,2.57-.38,.25-.78,.48-1.22,.64-.2,.07-.4,.13-.61,.13-.37,0-.54-.2-.51-.56,0-.07,.03-.14,0-.22Z"/><path class="cls-10" d="M55.83,44.08c.11-.19,.31-.3,.43-.49,.02-.09-.12-.08-.11-.17,.01-.03,.03-.05,.05-.04,.08,.03,.15,.06,.22,.11,.45,.27,.89,.55,1.34,.82,.06,.03,.12,.07,.14,.13-.15,.31-.3,.38-.61,.28-.41-.14-.82-.27-1.21-.45-.09-.04-.19-.07-.25-.19Z"/><path d="M62.5,39.76s0-.02,0-.02c0-.02,.01-.05,.03-.06,1.3-.88,2.41-1.97,3.43-3.16,.05-.05,.13,.01,.09,.07,0,.01-.02,.02-.03,.03-.18,.21-.36,.43-.55,.63-.83,.9-1.72,1.73-2.74,2.43-.1,.07-.1,.07-.22,.08Z"/><path d="M37.41,39.53c-.87-.21-2.93-1.16-3.57-1.65-.05-.04,0-.12,.06-.09,.07,.04,.13,.1,.2,.13,.15,.08,.29,.17,.43,.25,.14,.08,.29,.16,.44,.24,.15,.08,.3,.15,.45,.22,.16,.07,.31,.15,.47,.21,.15,.07,.31,.13,.46,.19,.15,.06,.31,.12,.47,.17,.16,.06,.31,.11,.47,.16,.05,.02,.11,.04,.16,.05,.06,.02,.04,.12-.03,.1Z"/><path d="M59.7,47.59c.54-.77,.84-1.63,.93-2.59,.24,.36-.43,2.21-.93,2.59Z"/><path class="cls-11" d="M52.16,45.62c-.09,0-.14,0-.19,0-.11,0-.19-.07-.2-.18,0-.12,.07-.19,.18-.21,.16-.03,.33-.04,.5-.05,.89-.04,1.78-.08,2.67-.12,1.34-.05,2.67-.14,4.01-.27,.87-.08,1.73-.22,2.61-.23,.09,0,.18-.03,.27-.03,.14,0,.23,.05,.25,.16,.02,.1-.04,.2-.17,.23-.1,.03-.2,.05-.29,.05-.87,0-1.72,.14-2.58,.23-.7,.07-1.41,.13-2.11,.18-1.22,.09-2.44,.1-3.67,.17-.43,.02-.87,.03-1.26,.08Z"/><path class="cls-8" d="M53.3,44.9l.06-.16c.34-.05,.67,0,.98,.13,.06,.02,.11,0,.17,0,.14,.02,.28,.03,.4,.13-.01,.12-.05,.21-.18,.17-.16-.05-.29,.02-.43,.05-.15,.03-.27,.06-.42-.02-.08-.04-.2-.05-.29-.02-.4,.15-.81,.07-1.21,.09-.1,0-.19-.04-.26,.07-.03,.04-.09,.05-.13,0-.03-.04-.02-.08,0-.12,.11-.15,.25-.26,.44-.31,.21-.05,.43-.03,.65-.02,.07,0,.13,0,.22,0Z"/><path class="cls-10" d="M58.96,44.74c0-.07,.05-.11,.08-.1,.12,.05,.23-.02,.34-.04,.19-.04,.37-.1,.57-.1,.11,0,.22-.08,.33,0,.11-.01,.05-.13,.13-.16,0,0,.02-.01,.03,0,.16,.08,.32,.09,.49,.03,.09-.04,.19-.03,.29-.01,.18,.02,.36,.02,.54,.03,.09,.25,.04,.32-.2,.29-.17-.02-.33,0-.45,.13-.04,0-.06,0-.09-.02-.24-.13-.49-.14-.75-.09-.1,.02-.2,.01-.3,.01-.09,0-.18,0-.25,.09-.04,.05-.1,.05-.16,.06-.07,0-.15,0-.22,.03-.25,.07-.23,.08-.42-.14Z"/><path class="cls-8" d="M56.23,45.18c-.17-.05-.31-.11-.4-.23,.04-.1,.1-.11,.15-.08,.12,.08,.22,.04,.34,0,.18-.07,.38-.13,.58-.06,.03,.01,.06,.02,.08,.08-.02,.11-.1,.15-.22,.16-.05,0-.1,0-.15-.02-.15-.03-.3-.03-.37,.14Z"/><path class="cls-10" d="M57.2,44.83c.12,.04,.24,.07,.32,.16,.03,.03,.05,.07,.02,.11-.03,.04-.06,.05-.11,.03-.1-.05-.19-.09-.29-.14-.04-.02-.06-.06-.05-.1,.01-.04,.05-.06,.1-.06Z"/><g><g><path class="cls-6" d="M56.04,19.6c-.03-.7-.09-1.03-.34-1.69-.8-2.12-3.18-2.79-4.89-2.35-.17,.04-.3,.03-.44-.05-.56-.29-1.14-.31-1.74-.1-.35,.12-1.15,.39-1.44,.62-1.57,1.23-1.86,2.78-1.81,4.8,0,.28,.06,.55,.15,.8,0-.05,0-.09,0-.14,.02-.5,.06-1.02,.14-1.53h0c.23-1.41,.78-2.77,2.11-3.56,.02-.01,.05-.03,.07-.04,.5-.28,1.1-.48,1.83-.58h.09c.33-.05,.68-.07,1.05-.07,.13,0,.25,0,.37,0h.09c3.12,.17,4.08,1.91,4.24,4.21,.04,.51,.04,1.05,0,1.61,0,.06,0,.12,0,.18,.03-.07,.07-.14,.1-.21,.21-.52,.43-1.34,.4-1.9Z"/><path class="cls-3" d="M55.54,19.93c-.17-2.31-1.13-4.04-4.24-4.21h-.09c-.12,0-.24-.01-.37-.01-.38,0-.73,.02-1.05,.06h-.09c-.73,.11-1.33,.31-1.83,.59-.02,.01-.05,.03-.07,.04-1.34,.79-1.89,2.14-2.11,3.56h0c-.08,.51-.12,1.03-.14,1.53,0,.04,0,.09,0,.14-.05,2.2,.87,5.75,5.21,5.73,3.89-.02,4.64-2.95,4.79-5.63,0-.06,0-.12,0-.18,.03-.56,.03-1.1,0-1.61Z"/></g><path class="cls-3" d="M53.03,30.75c-.62,.43-1.48,.85-2.45,.81-1.23-.05-2.3-.7-2.89-1.14-.31-.23-.49-.59-.48-.97l.03-3.11h0v-1.45l.02-.38v-.14h6.61l.16,4.4c.03,.79-.34,1.53-.99,1.98Z"/><path class="cls-3" d="M55.54,19.93h0c-.17-2.31-1.13-4.04-4.24-4.21h-.09c-.12,0-.24-.01-.37-.01-.38,0-.73,.02-1.05,.06h-.09c-.73,.11-1.33,.31-1.83,.59-.02,.01-.05,.03-.07,.04-1.34,.79-1.89,2.14-2.11,3.56h0c-.08,.51-.12,1.03-.14,1.53-.09,2.19,.78,5.88,5.2,5.86,3.97-.02,4.67-3.09,4.8-5.81,.03-.56,.03-1.1,0-1.61Z"/><path d="M50.34,23.96c-.15,0-.31-.03-.43-.11-.14-.1-.21-.25-.2-.46,0-.24,.09-.41,.24-.53,.21-.16,.49-.15,.6-.14v-1.15s.03-.04,.06-.04h0s.04,.02,.04,.04l-.02,1.19s0,.02-.02,.03c0,0-.02,.01-.04,0,0,0-.35-.06-.59,.12-.13,.1-.21,.26-.21,.47,0,.18,.05,.32,.17,.4,.26,.18,.74,.05,.75,.05,.02,0,.05,0,.05,.03,0,.02,0,.04-.03,.05-.01,0-.19,.05-.39,.05Z"/><path d="M50.42,25.23c-.08,0-.16-.02-.23-.05l-.06-.03s-.04-.04-.02-.06c.01-.02,.04-.03,.07-.02l.06,.03c.12,.06,.27,.05,.39-.01l.07-.04s.06,0,.07,.02c.01,.02,0,.05-.02,.07l-.07,.04c-.08,.04-.17,.07-.26,.07Z"/><path d="M53.58,21.17s-.02,0-.04,0c-.45-.15-1.28-.11-1.29-.11-.04,0-.08-.02-.08-.05,0-.03,.03-.05,.07-.06,.04,0,.89-.04,1.37,.12,.04,.01,.05,.04,.03,.07-.01,.02-.04,.03-.07,.03Z"/><path d="M47.64,21.23s.02,0,.04,0c.45-.15,1.28-.11,1.29-.11,.04,0,.08-.02,.08-.05,0-.03-.03-.05-.07-.06-.04,0-.89-.04-1.37,.12-.04,.01-.05,.04-.03,.07,.01,.02,.04,.03,.07,.03Z"/><g><ellipse class="cls-3" cx="45.22" cy="22.47" rx=".97" ry=".89"/><g><path d="M45.38,23.07s-.04-.02-.04-.04v-1.12s.02-.04,.04-.04,.04,.02,.04,.04v1.12s-.02,.04-.04,.04Z"/><path d="M45.38,22.51s-.02,0-.02,0l-.59-.39s-.02-.04-.01-.06c.01-.02,.04-.02,.06-.01l.59,.39s.02,.04,.01,.06c0,.01-.02,.02-.03,.02Z"/></g></g><g><ellipse class="cls-3" cx="55.57" cy="22.47" rx=".97" ry=".89"/><g><path d="M55.41,23.07s-.04-.02-.04-.04v-1.12s.02-.04,.04-.04,.04,.02,.04,.04v1.12s-.02,.04-.04,.04Z"/><path d="M55.41,22.51s-.03,0-.03-.02c-.01-.02,0-.04,.01-.06l.59-.39s.04,0,.06,.01c.01,.02,0,.04-.01,.06l-.59,.39s-.01,0-.02,0Z"/></g></g><path class="cls-6" d="M45.59,21.65l.6-.07,.46-4.29s-2.56,1.64-1.06,4.35Z"/><path class="cls-6" d="M55.53,21.65l-.6-.07-.15-4.49s2.25,1.85,.76,4.56Z"/><path class="cls-6" d="M52.05,19.97v.44s1.63-.21,2.1,.12c.46,.33-.33-.93-2.1-.56Z"/><path class="cls-6" d="M49.21,19.97v.44s-1.63-.21-2.1,.12c-.46,.33,.33-.93,2.1-.56Z"/><path d="M50.1,27.29v.1c-1.37-.08-2.45-.76-2.87-1.07v-.12c.36,.27,1.46,1.02,2.87,1.09Z"/></g><path class="cls-10" d="M59.91,59.43c-.53,.2-1.09,.32-1.64,.48-.47,.13-.95,.27-1.44,.32-.49,.05-.96-.02-1.41-.25-.58-.3-.92-.77-1.02-1.42-.04-.24-.06-.48-.09-.72-.05-.38-.22-.69-.5-.95-.18-.17-.39-.31-.59-.46-.17-.13-.35-.26-.49-.43-.24-.3-.24-.61,0-.91,.12-.16,.28-.29,.44-.4,.19-.13,.39-.26,.58-.39,.37-.27,.43-.43,.32-.88-.03-.14-.07-.27-.1-.41-.13-.66,.17-1.13,.82-1.29,.2-.05,.41-.07,.62-.06,.65,0,1.26,.19,1.86,.43,.53,.22,1.02,.5,1.48,.82,.29,.42,.62,.8,1.01,1.14,0,.2,0,.4,.01,.6,.03,1.6,.08,3.2,.12,4.8Z"/><path class="cls-11" d="M46.34,45.95c1.07,.02,1.74,.92,1.46,1.95-.12,.45-.37,.83-.65,1.2-.32,.43-.51,.91-.53,1.45-.01,.33-.11,.64-.29,.92-.37,.57-1.05,.81-1.66,.57-.62-.24-.99-.91-.88-1.57,.05-.31,.16-.6,.36-.84,.41-.52,.58-1.11,.57-1.77,0-.27,.04-.53,.11-.79,.21-.7,.8-1.13,1.51-1.12Z"/><path class="cls-8" d="M53.02,39.28c-.52,.02-1.14-.4-1.21-.98-.02-.16-.06-.31-.08-.47-.04-.29-.17-.54-.34-.76-.22-.29-.38-.6-.5-.94-.1-.31-.04-.54,.21-.76,.75-.63,2.05-.36,2.44,.54,.25,.57,.43,1.17,.61,1.76,.05,.18,.06,.38,.04,.57-.07,.61-.55,1.04-1.17,1.04Z"/></g></g></svg>