<?xml version="1.0" encoding="UTF-8"?><svg id="Layer_2" xmlns="http://www.w3.org/2000/svg" viewBox="0 0 100 100"><defs><style>.cls-1{fill:#f57356;}.cls-2{fill:#fac855;}.cls-3{fill:#fc5954;}.cls-4{fill:#ffa182;}.cls-5{fill:#edb648;}.cls-6{fill:#ff926e;}.cls-7{fill:#ff8d6a;}.cls-8{fill:#ff8f6a;}.cls-9{fill:#adcdc9;}.cls-10{fill:#d7efff;}.cls-11{fill:#32285f;}.cls-12{stroke:#f57356;stroke-width:.72px;}.cls-12,.cls-13{fill:none;stroke-miterlimit:10;}.cls-13{stroke:#281923;stroke-width:.5px;}</style></defs><circle class="cls-9" cx="50" cy="50" r="49.45"/><g><circle class="cls-10" cx="51.47" cy="40.66" r="26.55"/><g><ellipse class="cls-10" cx="50" cy="75.86" rx="30.44" ry="8.19"/><path class="cls-8" d="M58.48,34.28s1.63-2.28,6.1-.81c3.51,1.15,16.25,11.77,15.85,16.29-.4,4.52-11.47-.53-14.35-3.09-1.45-1.29-10.78-8.8-7.6-12.39Z"/><path class="cls-3" d="M64.58,33.48c-4.47-1.47-6.1,.81-6.1,.81-3.18,3.58,6.15,11.1,7.6,12.39l8.58-5.65c-3.73-3.63-8.21-6.93-10.08-7.54Z"/><path class="cls-5" d="M48.27,76.78s5.08-1.82,9.75,0c4.67,1.82,20.39,.42,20.8-4.75,.42-5.17-16.2-10.53-22.52-11.39-6.33-.86-28.16,4.21-29.6,4.31-1.44,.1-1.42,1.82,4.97,6.1,10.72,7.19,16.59,5.73,16.59,5.73Z"/><path class="cls-7" d="M45.14,78.98l-6.09,.57s-3.66-1.12-4.88-.57c-1.11,.5-3.39,4.4-2.73,5.61,.58,1.07,4.88,.05,4.88,.05l9.33-1.55s2.92-2.71-.5-4.12Z"/><path class="cls-7" d="M54.62,82.23s5.48,3.24,6.78,4.69c1.31,1.45,6.31-.97,6.88-1.67,.58-.7-2.15-3.39-4.18-3.92-2.03-.53-6.28-1.49-8.07-2.7s-3.29,3.13-1.42,3.6Z"/><path class="cls-2" d="M25.7,65.22s5.07-1.92,11.3,1.38c6.23,3.3,19.03,12.03,19.03,12.03,0,0,1.5,2.9-1.42,3.6,0,0-12.3-3.81-18.29-4.69-5.99-.88-11.22-5.94-11.86-8.95-.64-3.01,1.23-3.37,1.23-3.37Z"/><path class="cls-2" d="M45.14,78.98c2.16-.15,4.27-.74,6.2-1.73,1.48-.76,3.27-1.8,5.03-3.13,4.15-3.13,16.44-7.22,19.15-6.33,2.71,.88,5.64,5.07,.44,8.4-5.2,3.33-17.15,5.69-23.4,6.13-6.25,.44-6.92,.79-6.92,.79,0,0-4.09-1.94-.5-4.12h0Z"/><path class="cls-3" d="M64.67,62.7c-7.3,6.34-16.77,5.5-25.65-.15v-28.93s9.69-2.72,13.02-2.71c3.23,0,12.63,2.71,12.63,2.71v29.08Z"/><path class="cls-8" d="M46.05,31.85c-.32,.74-.5,1.55-.5,2.4,0,3.31,2.68,9.04,5.99,9.04s5.99-5.73,5.99-9.04c0-.93-.21-1.81-.59-2.6-1.94-.42-3.79-.74-4.9-.75-1.32,0-3.66,.43-5.99,.94Z"/><g><path class="cls-8" d="M51.83,36.07h0c-1.32,0-2.38-1.07-2.38-2.38v-5h4.76v5c0,1.32-1.07,2.38-2.38,2.38Z"/><path class="cls-11" d="M49.44,31.24c.44,.6,2.16,1.68,2.94,1.72,.44,.02,.9-.26,1.83-.87v-3.4h-4.76v2.55Z"/><path class="cls-6" d="M58.58,24.21c0,1.09-.97,2.03-2.28,2.1l-.18-3.95c1.31-.07,2.46-.11,2.46,1.85Z"/><path class="cls-1" d="M57.22,23.59c-.02-.15,.17-.22,.26-.1,.15,.2,.26,.48,.14,.84-.18,.51-.56,1.02-.76,.82-.2-.2,0-.16,.27-.82,.11-.26,.11-.53,.09-.74Z"/><path class="cls-1" d="M55.73,27.59c0-.12,.1-.23,.23-.23s.23,.1,.23,.23-.1,.23-.23,.23-.23-.1-.23-.23Z"/><path class="cls-1" d="M56.55,26.73c0,.07-.06,.13-.13,.13s-.13-.06-.13-.13,.06-.13,.13-.13,.13,.06,.13,.13Z"/><path class="cls-8" d="M51.94,31.53h0c-2.54-.12-6.18-3.67-6.05-6.21,0,0-.24-3.91,.53-5.07,1.34-2.03,6.44-1.98,8.44-1.52,3.07,.7,2.23,6.41,2.23,6.41,0,4.75-4.04,6.45-5.15,6.4Z"/><path class="cls-8" d="M51.94,31.53h0c-2.54-.12-6.18-3.67-6.05-6.21,0,0-.24-3.91,.53-5.07,1.34-2.03,6.83-3.18,8.44-1.52,2.2,2.26,2.23,6.41,2.23,6.41,0,4.75-4.04,6.45-5.15,6.4Z"/><path class="cls-6" d="M44.2,24.21c0,1.09,.97,2.03,2.28,2.1l.18-3.95c-1.31-.07-2.46-.11-2.46,1.85Z"/><path class="cls-1" d="M45.57,23.59c.02-.15-.17-.22-.26-.1-.15,.2-.26,.48-.14,.84,.18,.51,.56,1.02,.76,.82,.2-.2,0-.16-.27-.82-.11-.26-.11-.53-.09-.74Z"/><path class="cls-13" d="M50.37,24.7c0,.32-.19,.58-.42,.58s-.42-.26-.42-.58"/><path class="cls-13" d="M55,24.7c0,.32-.19,.58-.42,.58s-.42-.26-.42-.58"/><path class="cls-12" d="M51.02,28.83s.89,.66,1.8-.11"/><path class="cls-8" d="M52.64,24.85l.42,1.51s.62,.95-.93,.95l.51-2.46Z"/><path class="cls-12" d="M53.55,23.44c-.62,.4-1,1.13-.85,1.92,.02,.09,.04,.18,.08,.28,.4,1.12,.78,1.46-.04,1.56"/><path class="cls-11" d="M53.81,22.34s-.39,.48-.22,.75l3.39,.11s-1.58-1.09-3.17-.86Z"/><path class="cls-11" d="M50.9,22.23s.39,.48,.22,.75l-3.39,.11s1.58-1.09,3.17-.86Z"/><path class="cls-11" d="M57.36,17.62l1.38-1.52-1.4,.99c.73-1.05,.81-2.62,.81-2.62,0,.02-.58,1.66-1.4,2.68,.18-1.06,.35-2.34,.4-3.58,.11-2.77-9.78,1.2-12.12,3.15-2.34,1.96,1.33,6.7,1.33,6.7l1.55-4.27c1.65,4.5,7.05,1.18,8.17,.43l1.03,4.75s2.31-3.53,2.37-5.18c.03-.92-1.11-1.34-2.13-1.54Z"/><g><path class="cls-11" d="M57.35,23.97l-.2-.26s-.46,1.67-.59,2.39c-.7,2.3-3.11,4.26-6.49,3.08-.47-.16-.88-.33-1.24-.51-1.62-.79-2.59-2.55-2.23-4.32,.27-1.33,1-1.12,1-1.12v-3.8l-1.38,1.8,.06,3.34c.02,.86-.1,1.71-.31,2.55-1.3,5.25,3.06,6.82,3.06,6.82-.13,1.76,3.59,3.12,3.59,3.12-.33-.83,.87-1.45,.87-1.45,4.02-.23,3.04-4.91,3.04-4.91,1.23-1.04,1.07-2.76,.74-3.99-.15-.56-.22-1.14-.19-1.71,.02-.36,.12-.71,.27-1.03h0Z"/><path class="cls-11" d="M53.38,27.41c-1.25-.24-2.56-.11-3.73,.4-.85,.37-1.65,.91-1.43,1.62,.45,1.42,1.72-1.08,3.5-1.25,1.83-.18,3.1,1.22,3.1,1.22,0,0,1.18-1.49-1.45-1.98Z"/><path class="cls-11" d="M51.54,27.92c-.93-.25-1.98-.34-2.94-.09,.92-.55,1.98-.75,3.06-.78l-.13,.86h0Z"/><path class="cls-11" d="M52.02,27.07c.93,.04,1.88,.1,2.74,.45-.45-.05-.89,.02-1.33,.1-.43,.08-.88,.19-1.29,.31l-.12-.86h0Z"/></g></g><path class="cls-4" d="M52.25,53.99l.83-.12,5.77-.66-.12-3.33-2.29-.64s-4.09-1.9-4.29-1.82l-1.86,.33c-.26,.1-.28,.46-.04,.59,.4,.22,.52,.31,.97,.24l.4-.07,1,.5-2.7-.14-1.22,.12c-.31,.04-.59,.18-.81,.4,0,0-.1,.15-.09,.23,.01,.08,.06,.15,.13,.19,0,0,.26,.21,.9,.19l1.09-.11,1.81,.07c.46,.09,.13,.18,.02,.18h-2.12l-1.64,.19c-.31,.04-.59,.18-.81,.4h-.02c-.06,.07-.08,.15-.07,.23,.01,.08,.06,.15,.13,.19h.02c.27,.16,.58,.23,.88,.19l1.51-.19,2.51,.21c.44,.1,.19,.24-.01,.23l-1.62-.1-1.65,.11c-.31,.02-.6,.14-.83,.35h-.02c-.06,.07-.09,.14-.09,.22,0,.08,.05,.15,.11,.2h.02c.26,.18,.56,.26,.87,.24l1.51-.11,2.01,.22c.07,0,.08,.1,.02,.13l-.21,.08-1.64,.12-1.16-.24c-.36-.03-.61,.1-.77,.43-.07,.13,.02,.29,.17,.31l1.55,.41,1.87,.05Z"/><path class="cls-4" d="M56.37,49.8s15.36-4.06,18.43-4.17c6.22-.23,7.32,5.22,2.79,7.41-3.08,1.49-5.08,.96-5.08,.96l-13.67-.78c-.78,.09-2.28,.06-2.28,.06,0,0-.82-.98-.2-3.47Z"/><path class="cls-8" d="M42.93,34.5s-1.66-1.93-5.75-.35c-3.2,1.23-14.44,11.42-13.78,15.41,.66,3.99,10.68-1.15,13.21-3.6,1.27-1.23,9.52-8.46,6.32-11.45Z"/><path class="cls-3" d="M37.18,34.15c4.09-1.57,5.75,.35,5.75,.35,3.2,2.99-5.05,10.22-6.32,11.45l-8.37-4.51c3.25-3.45,7.24-6.64,8.94-7.3Z"/><path class="cls-4" d="M51.07,47.23l-.83-.08-5.79-.37-.05-3.33,2.25-.76s3.99-2.1,4.2-2.03l1.88,.23c.26,.09,.31,.44,.07,.59-.39,.24-.5,.34-.95,.28l-.4-.05-.98,.55,2.69-.27,1.22,.06c.31,.02,.6,.15,.83,.35,0,0,.11,.15,.1,.22,0,.08-.05,.15-.12,.19,0,0-.25,.22-.89,.23l-1.09-.05-1.81,.16c-.46,.11-.12,.19,0,.18l2.12-.12,1.65,.12c.31,.02,.6,.15,.83,.35h.02c.06,.07,.09,.15,.08,.22,0,.08-.05,.15-.12,.19h-.02c-.26,.18-.57,.26-.87,.23l-1.51-.12-2.49,.34c-.43,.12-.18,.25,.02,.23l1.62-.18,1.65,.03c.31,0,.61,.11,.85,.31h.02c.06,.06,.1,.14,.1,.22s-.04,.15-.1,.2h-.02c-.25,.19-.55,.29-.86,.28l-1.52-.03-2,.32c-.07,.01-.08,.11-.01,.13l.22,.07,1.64,.04,1.15-.29c.36-.05,.61,.07,.79,.39,.07,.13,0,.29-.15,.32l-1.53,.49-1.86,.14Z"/><path class="cls-4" d="M46.64,43.25s-15.88,.49-18.86,1.25c-6.03,1.55-5.53,7.09-.57,7.9,3.38,.55,5.14-.53,5.14-.53l12.88-4.64c.78-.14,2.2-.6,2.2-.6,0,0,.51-1.17-.8-3.38Z"/></g></g></svg>