<?xml version="1.0" encoding="UTF-8"?><svg xmlns="http://www.w3.org/2000/svg" xmlns:xlink="http://www.w3.org/1999/xlink" viewBox="0 0 100 100"><defs><style>.cls-1,.cls-2{fill:none;}.cls-3{clip-path:url(#clippath);}.cls-4{fill:#f6e4ed;}.cls-5{fill:#f7e4d3;}.cls-6{fill:#ebb9d4;}.cls-7,.cls-8{fill:#f5cec3;}.cls-9{fill:#86c2ba;}.cls-10{fill:#2a120c;}.cls-2{stroke:#854b61;stroke-linecap:round;stroke-linejoin:round;stroke-width:.47px;}.cls-11{fill:url(#linear-gradient);mix-blend-mode:screen;opacity:.49;}.cls-12{isolation:isolate;}.cls-8{opacity:.36;}</style><clipPath id="clippath"><circle class="cls-1" cx="-70" cy="50" r="50.25"/></clipPath><linearGradient id="linear-gradient" x1="-19.73" y1="102.5" x2="-40.56" y2="-14.44" gradientTransform="matrix(1, 0, 0, 1, 0, 0)" gradientUnits="userSpaceOnUse"><stop offset=".01" stop-color="#f7e4d3" stop-opacity="0"/><stop offset="1" stop-color="#f7e4d3" stop-opacity=".7"/></linearGradient></defs><g class="cls-12"><g id="Layer_2"><g class="cls-3"><g><rect class="cls-5" x="-146.26" y=".08" width="152.63" height="101.75"/><g><rect class="cls-8" x="-146.24" y=".08" width="152.61" height="77"/><g><rect class="cls-7" x="-2.41" y="14.47" width="8.78" height=".18"/><rect class="cls-7" x="-2.41" y="18.9" width="8.78" height=".18"/><rect class="cls-7" x="-2.41" y="23.4" width="8.78" height=".18"/><path class="cls-7" d="M2.8,19.03s-.09-.04-.09-.09v-4.38s.04-.09,.09-.09,.09,.04,.09,.09v4.38s-.04,.09-.09,.09Z"/><path class="cls-7" d="M2.8,27.98s-.09-.04-.09-.09v-4.38s.04-.09,.09-.09,.09,.04,.09,.09v4.38s-.04,.09-.09,.09Z"/><path class="cls-7" d="M2.8,27.92s-.09-.04-.09-.09v-4.38s.04-.09,.09-.09,.09,.04,.09,.09v4.38s-.04,.09-.09,.09Z"/></g></g><path class="cls-11" d="M6.36,77.09H-43.85l14.47,27.73h-8.63l-17.63-27.73-3.32-5.23-4.04-6.36-.02-.03-.5-.78-1.37-2.15V8.76c-.02,.05,15.67,.09,31.2,.11,.14,0,.27,0,.41,0,15.04,.02,29.78,.03,29.78,.03l.29,.79,.81,2.19,.96,2.59,.07,.18L.22,18.9l.07,.18,1.61,4.32,.07,.18,.75,2.02,.18,.48,3.47,9.33v41.67Z"/><g><ellipse class="cls-7" cx="-8.29" cy="97.05" rx="9.04" ry="1.48"/><g><path class="cls-9" d="M-6.86,76.83s1.18-4.39,2.29-8.52c1.11-4.13,4-11.27,5.31-11.08,1.31,.2,.26,6.03-.85,9.31-1.11,3.28-6.62,10.55-6.62,10.55"/><g><path class="cls-9" d="M-1,75.68c.38-.15,.78-.29,1.19-.29,.41,0,.84,.12,1.11,.43,.42,.48,.35,1.24,0,1.78-.35,.53-.9,.89-1.44,1.23-.75,.47-7.4,4.96-7.67,4.63-.18-.22,.43-1.39,.54-1.63,.23-.51,.5-1.01,.8-1.49,.61-.98,1.37-1.87,2.23-2.63,.93-.82,2.06-1.62,3.24-2.01Z"/><path class="cls-2" d="M-9.3,88.97s.54-4.23,2.21-6.88c0,0,2.77-4.51,7.03-5.82"/></g></g></g></g></g><circle class="cls-4" cx="49.45" cy="50" r="49.45"/><path class="cls-6" d="M49.45,.55V99.45c27.31,0,49.45-22.14,49.45-49.45S76.76,.55,49.45,.55Z"/><path class="cls-10" d="M18.86,30.11c.07,.44,.15,.87,.22,1.3,.03,.21-.01,.47,.14,.65,.11,.13,.4,.22,.54,.08,.22,.28,.49,0,.55-.35,.26,.07,.43-.18,.53-.49,.65-.18,.51-1.57,.88-2.01,.25-.31,.64-.48,.91-.78,.17-.2,.36-.6,.4-.91,.39-.04,.9-.08,1.25-.02,0,.75-.02,1.51,.06,2.24,.1,.97,.55,1.28,1.56,1.34,1.72,.1,3.48,.66,5.04,1.38,1.79,.83,3.7,1.29,5.64,1.47,1.03,.09,1.99,.43,3,.58,.82,.12,1.72-.08,2.52-.07,0,.88-.06,1.74-.06,2.63,0,1.02,.32,1.93,.47,2.91,.15,.94,.22,2.01,.07,2.96-.14,.91-.51,1.71-.73,2.62-.15,.63-.51,1.77-.56,2.71-.45,.35-1.07,.67-1.28,.89-.74,.76-.66,1.81-.66,2.79s.03,1.93,.23,2.86c.18,.86,.57,1.71,.61,2.6,.01,.31-.15,1.1,.06,1.33,.18,.2,.93,.15,1.19,.11,.36-.06,.73-.26,1.09-.34,.34-.07,.7-.06,1.06-.04,.71,.8,1.66,1.33,2.72,1.5,.44,.07,1.93,.13,2.42-.33,.27,.25,.57,.44,.88,.52,.02,0,.03,0,.05,.01,.13,1.05,.17,2.13,.18,3.21-.79,.86-1.51,1.79-1.31,2.98,.2,1.18,.63,2.36,.9,3.56-.17,.67-.48,1.3-.72,1.96-.31,.85-.55,1.72-.85,2.55-.63,1.71-1.33,3.48-1.83,5.24-.44,1.57-.85,3.08-1.27,4.6-.19,.7-.59,1.52-.05,2.25,.36,.48,1.15,1.08,1.8,1.46-.1,.59-.26,1.16-.44,1.69-.22,.68-.57,1.3-.4,2.06,.31,1.4,1.73,1.22,2.92,1.16,.34-.02,.66-.07,1,.01,.29,.07,.58,.2,.85,.29,.53,.16,1.09,.24,1.62,.06,.16,.09,.36,.13,.54,.14,.52,.04,1.41,.12,1.65-.42,.25-.58-.53-.81-.97-.94-.91-.26-2.24-.93-2.65-1.9,.65-.01,1.29-.11,1.68-.59,.44-.56,.66-1.44,.9-2.09,.55-1.52,.98-3.1,1.53-4.64,.64-1.79,1.08-3.53,1.43-5.35,.18-.92,.26-1.89,.31-2.85,.02-.35,.01-.79,.03-1.23,.54-1.24,1.09-2.48,1.29-3.77,.27-1.73,.64-3.47,.7-5.23,.58,.04,1.01-.39,1.46-1.15,.2-.34,.83-1.12,1.09-1.71,.55,.4,1.1,.82,1.36,1.41,.23,.53,.27,1.15,.69,1.59,.56,.59,1.04,.08,1.67,0,.35-.04,1.67,.26,1.72-.27,.27,.04,.54-.05,.63-.33l.02-.07c.3,.05,.6-.07,.63-.45,.39,.13,.82-.26,.75-.65,.37-.06,.79-.23,.64-.57,.6,.02,1.31-.33,1.33-.91,.02-.46-.34-.56-.72-.54-.41,.02-.74-.04-1.12-.08-.66-.07-1.3,0-1.92-.12-.6-.12-1.18-.31-1.72-.61-.64-.36-1.53-.96-2.03-1.61-.21-1.14-1.46-2.21-2.06-3.12-.49-.76-1-1.61-1.34-2.47,.33-.64,.57-1.11,.43-1.82-.09-.44-.31-.98-.49-1.45-.39-1.03-.73-2.09-.89-3.2-.27-1.93-.36-3.87-.36-5.87,0-.99,.14-1.93,.24-2.91,.05-.5,.07-1,.12-1.51,0-.04,.01-.09,.02-.14,.2-.13,.42-.24,.64-.34,.92-.44,1.76-.85,2.52-1.5,.66-.57,1.23-1.2,1.92-1.7,1.22-.89,3.19-1.94,3.41-3.54,.48-.56,.74-1.54,.74-2.14,.48-.41,.71-1.15,.83-1.69,.2-.84,.45-1.66,.85-2.44,.38-.74,1.05-1.5,.03-2.02-.44-.23-.98-.38-1.49-.51l.06-2.05c.74-.66,.86-1.86,.75-2.75,.08-.28,.23-.6,.28-.78,.1-.38,.23-.93,.15-1.34-.05-.25-.19-.37-.39-.12-.12,.16-.09,.46-.12,.64-.06,.34-.22,.64-.37,.96-.17-.47-.02-1.25-.05-1.75-.01-.28,.08-.64,.03-.9-.05-.23-.19-.28-.32-.2,0-.23-.06-.6-.25-.68-.36-.15-.4,.14-.44,.39h-.02c-.48-.56-.62,1.02-.66,1.25-.1,.6-.21,1.2-.37,1.81h-.02c-.42,.02-.38-.87-.43-1.13-.1-.63-.59-.5-.62,.08-.02,.47,.02,.94-.06,1.4-.07,.44-.18,.91-.06,1.37,.13,.51,.36,1.07,.75,1.49,0,.5-.04,1.54-.27,2.59-.31,.16-.84,.1-1.15,.41-.37,.36-.37,.91-.39,1.38-.04,.86-.15,1.71-.33,2.54-.58,.27-.96,.73-1.48,1.11-.2,.15-.56,.25-.72,.47-.16,.22-.26,.53-.36,.83-.65,.38-2.04,.3-2.57,.38-.56,.08-1-.16-1.56-.1-.28,.03-.49,.14-.67,.29-.52-.04-1-.26-1.49-.23-.3,.02-.52,.17-.71,.34-.31-1.01-.23-2.01-.24-3.06,2.32-1.34,2.26-3.85,1.48-6.08,.87-.89,.66-2.85,0-3.68-.52-.65-1.06-.97-1.91-1-.57-.02-1.48,.29-1.62,.91-.26,0-.58-.18-.84-.22-.42-.06-.83-.04-1.26-.06-.89-.03-1.69-.01-2.46,.36-.78,.38-1.26,.95-1.32,1.79-.06,.77,.21,1.33,.54,1.92-.06,.01-.12,.03-.18,.03-.17,.01-.34-.02-.46-.07-.06-.02-.11-.04-.15-.06-.03-.02-.05-.03-.05-.03l.04,.04s.07,.06,.12,.11c.11,.08,.27,.18,.47,.23,.03,0,.07,.01,.1,.02-.06,.03-.13,.07-.21,.12-.18,.12-.38,.3-.51,.53-.13,.22-.16,.46-.16,.63v.2l.02,.08v-.07l.02-.09s.02-.07,.03-.11c.04-.16,.13-.36,.28-.51,.09-.09,.19-.16,.29-.22,0,.02-.02,.03-.03,.05-.03,.06-.06,.14-.09,.21-.02,.08-.05,.16-.07,.24-.04,.17-.05,.35-.02,.52,.04,.17,.1,.33,.19,.46l.06,.09,.07,.08s.05,.05,.07,.07l.07,.06s.09,.08,.13,.1h.01c0,.29,0,.57,0,.84,0,1.24,.38,2.18,.87,3.26,.15,.33,.31,.7,.62,.91,.26,.18,.58,.19,.91,.17,.12,.39,.09,.85,0,1.26-1.14-.13-2.54-.27-3.78-.39-1.2-.12-2.1,0-2.94,.52-.76,.01-1.46,.27-2.22,.23-.64-.03-1.13-.19-1.61,.1v-.1c-.55,0-1.04-.11-1.57-.12-.4,0-.7,.12-1.02,.25-1.1-.48-2.08-.9-3.25-1.07-.96-.14-1.8-.42-2.73-.57-1.07-.62-2.25-.42-3.33-.94-.77-.38-1.3-.48-1.72-.03-.33-.1-.95-.07-1.22-.07-.48,0-1-.12-1.44,.06-.74,.29-1.53,.73-2.13,1.23-.15,.13-.37,.23-.5,.38-.09,.09-.13,.21-.16,.33-.03,.02-.06,.05-.08,.08-.24,.29-.24,.87-.34,1.21-.14,.47-.23,.76-.15,1.26Zm27.42-9.69c0-.25,.11-.49,.24-.68,0,.2,.01,.39,.05,.56,.06,.31,.09,.63,.09,.96-.03-.03-.06-.07-.09-.1-.14-.17-.29-.45-.29-.74Z"/></g></g></svg>