<?xml version="1.0" encoding="UTF-8"?><svg id="Layer_2" xmlns="http://www.w3.org/2000/svg" xmlns:xlink="http://www.w3.org/1999/xlink" viewBox="0 0 100 100"><defs><style>.cls-1{fill:none;}.cls-2{clip-path:url(#clippath);}.cls-3{fill:#f2efde;}.cls-4{fill:#6b3b55;}.cls-5{fill:#ff97ff;}.cls-6{fill:#ff7cff;}.cls-7{fill:#806167;}.cls-8{fill:#d3478e;}.cls-9{fill:#e2d8d6;}.cls-10{fill:#9a8692;}.cls-11{fill:#5b424c;}.cls-12{clip-path:url(#clippath-1);}.cls-13{fill:#1d000e;}.cls-13,.cls-14{opacity:.2;}.cls-14{fill:#f26dde;}</style><clipPath id="clippath"><circle class="cls-1" cx="50" cy="50" r="49.45"/></clipPath><clipPath id="clippath-1"><path class="cls-1" d="M63.26,45.09c1.06-4.87,1.25-10.73,1.25-10.73,0,0-5.68,2.69-9.77,5.71-1.71-4.79-4.94-10.19-4.94-10.19,0,0-3.32,5.31-5.12,10.07-4.08-2.97-9.61-5.59-9.61-5.59,0,0,.19,5.86,1.25,10.73-4.93-.29-10.62,.36-10.62,.36,0,0,6.55,9.81,10.97,11.8,4.41,1.99,13.11-.94,13.11-.94v-.02h.02v.02s8.69,2.93,13.1,.94c4.41-1.99,10.97-11.8,10.97-11.8,0,0-5.7-.66-10.62-.36Z"/></clipPath></defs><g class="cls-2"><g><rect class="cls-3" x="-6.25" y="-6.25" width="112.5" height="112.5"/><circle class="cls-9" cx="50.24" cy="46.58" r="37.91"/></g><g><path class="cls-11" d="M31.51,22.4c-2.43,3.47-3.41,9.16-3.41,12.69,0,7.54,.08,11.88,.08,11.88l3.18,.17s-.5-5.58-.19-11.32c.31-5.84,1.3-8.24,2.65-10.74,3.22-5.96,11.62-7.24,16.04-7.28v-3.28s-12.05-1.09-18.34,7.88Z"/><path class="cls-7" d="M49.84,14.52v3.28c4.42,.04,12.81,1.32,16.04,7.28,1.35,2.5,2.34,4.9,2.65,10.74,.3,5.74-.19,11.32-.19,11.32l3.18-.17s.08-4.35,.08-11.88c0-3.54-.98-9.22-3.41-12.69-6.29-8.97-18.33-7.88-18.33-7.88Z"/><path class="cls-7" d="M22.5,40.62c-.73,0-1.32,.59-1.32,1.32v12.12c0,.73,.59,1.32,1.32,1.32s1.32-.59,1.32-1.32v-12.12c0-.73-.59-1.32-1.32-1.32Z"/><path class="cls-10" d="M77.19,39.77c-.73,0-1.32,.59-1.32,1.31v12.12c0,.73,.59,1.32,1.32,1.32s1.31-.59,1.31-1.32v-12.12c0-.73-.59-1.31-1.31-1.31Z"/><path d="M28.09,35.27c-3.09,0-5.59,2.21-5.59,4.94v15.59c0,2.73,2.5,4.94,5.59,4.94s5.6-2.21,5.6-4.94v-15.59c0-2.73-2.5-4.94-5.6-4.94Z"/><path d="M71.59,35.27c-3.09,0-5.59,2.21-5.59,4.94v15.59c0,2.73,2.5,4.94,5.59,4.94s5.6-2.21,5.6-4.94v-15.59c0-2.73-2.5-4.94-5.6-4.94Z"/><path class="cls-4" d="M70.31,66.06H31.78s-1.6,.09-2.43-.91c-.95-1.14-.76-2.39-.75-2.53v-1.9h-1v1.82c0,.07-.26,1.75,.98,3.25,.99,1.19,2.61,1.28,3.09,1.28,.08,0,.13,0,.14,0h39.51v-6.4h-1v5.39Z"/><path class="cls-4" d="M72.2,66.06h-1.39v1h1.39c.18,0,1.76,.05,1.76,1.92s-1.35,1.87-1.62,1.87H31.24c-.18,0-1.83-.03-2.72,.88-.94,.97-.92,2.34-.92,2.39v2.05h1v-2.06s0-1.02,.64-1.68c.49-.51,1.58-.6,1.99-.58h41.11s1.08,0,1.85-.76c.51-.51,.78-1.22,.78-2.11,0-2.31-1.81-2.92-2.76-2.92Z"/><rect x="27.08" y="75.64" width="2.06" height="6.54"/><rect class="cls-7" x="27.55" y="82.18" width="1.09" height="3.34"/><path class="cls-14" d="M29.84,37.05c-1.24,0-2.25,1.01-2.25,2.25v16.72c0,1.24,1.01,2.25,2.25,2.25s2.25-1.01,2.25-2.25v-16.72c0-1.24-1.01-2.25-2.25-2.25Z"/><path class="cls-14" d="M73.56,37.05c-1.24,0-2.25,1.01-2.25,2.25v16.72c0,1.24,1.01,2.25,2.25,2.25s2.25-1.01,2.25-2.25v-16.72c0-1.24-1.01-2.25-2.25-2.25Z"/><g><path class="cls-8" d="M35.08,34.36s.39,11.79,3.09,15.82c2.7,4.02,11.63,6.12,11.63,6.12,0,0,1.22-8.91-1.48-12.93-2.7-4.02-13.24-9-13.24-9Z"/><path class="cls-5" d="M41.71,46.1c-4.41-1.99-16-.66-16-.66,0,0,6.55,9.81,10.97,11.8,4.41,1.99,13.11-.94,13.11-.94,0,0-3.67-8.21-8.08-10.21Z"/><path class="cls-8" d="M51.27,43.36c-2.7,4.02-1.48,12.93-1.48,12.93,0,0,8.93-2.1,11.63-6.12,2.7-4.02,3.09-15.82,3.09-15.82,0,0-10.54,4.98-13.24,9Z"/><path class="cls-5" d="M57.88,46.1c-4.41,1.99-8.08,10.21-8.08,10.21,0,0,8.7,2.93,13.11,.94,4.41-1.99,10.97-11.8,10.97-11.8,0,0-11.58-1.34-16,.66Z"/><path class="cls-6" d="M43.56,44.73c0,4.84,6.25,11.56,6.25,11.56,0,0,5.98-6.72,5.98-11.56s-5.98-14.85-5.98-14.85c0,0-6.25,10.01-6.25,14.85Z"/><g class="cls-12"><rect class="cls-13" x="24.9" y="29.39" width="24.87" height="36.67"/></g></g></g></g></svg>