<?xml version="1.0" encoding="UTF-8"?><svg xmlns="http://www.w3.org/2000/svg" xmlns:xlink="http://www.w3.org/1999/xlink" viewBox="0 0 100 100"><defs><style>.cls-1,.cls-2,.cls-3,.cls-4,.cls-5,.cls-6,.cls-7,.cls-8,.cls-9,.cls-10,.cls-11,.cls-12,.cls-13,.cls-14,.cls-15,.cls-16,.cls-17,.cls-18,.cls-19,.cls-20,.cls-21,.cls-22,.cls-23,.cls-24,.cls-25,.cls-26,.cls-27,.cls-28{fill:none;}.cls-2,.cls-3,.cls-4,.cls-5,.cls-6,.cls-7,.cls-8,.cls-9,.cls-11,.cls-12,.cls-13,.cls-14,.cls-15,.cls-16,.cls-17,.cls-18,.cls-19,.cls-20,.cls-23,.cls-24,.cls-25,.cls-26,.cls-27,.cls-28{stroke-linecap:round;stroke-linejoin:round;}.cls-2,.cls-7{stroke:#75597c;}.cls-2,.cls-26{stroke-width:.54px;}.cls-3{stroke-width:.55px;}.cls-3,.cls-5,.cls-6,.cls-9,.cls-10,.cls-12,.cls-13,.cls-14,.cls-15,.cls-16,.cls-17,.cls-18,.cls-19,.cls-20,.cls-21,.cls-22,.cls-23,.cls-24,.cls-25,.cls-28{stroke:#3a2049;}.cls-4{stroke:#d05d6a;}.cls-4,.cls-5,.cls-27{stroke-width:.28px;}.cls-6,.cls-7{stroke-width:.56px;}.cls-8{stroke-width:.37px;}.cls-8,.cls-26{stroke:#854b61;}.cls-29{clip-path:url(#clippath);}.cls-9{stroke-width:.38px;}.cls-30{fill:#f7e4d3;}.cls-31,.cls-32{fill:#f5cec3;}.cls-33{fill:#ef8d9c;}.cls-34{fill:#fed1a9;}.cls-35{fill:#feae8b;}.cls-36{fill:#664e6f;}.cls-37{fill:#854b61;}.cls-38{fill:#d05d6a;}.cls-39{fill:#cc6577;}.cls-40{fill:#86c2ba;}.cls-41{fill:#3a2049;}.cls-42{fill:#75597c;}.cls-43{fill:#783f56;}.cls-10,.cls-21,.cls-22{stroke-miterlimit:10;}.cls-10,.cls-25{stroke-width:2.25px;}.cls-11{stroke:#f5cec3;}.cls-11,.cls-12{stroke-width:.27px;}.cls-13{stroke-width:.31px;}.cls-44{fill:url(#linear-gradient);}.cls-44,.cls-45,.cls-46,.cls-47,.cls-48,.cls-49,.cls-50,.cls-51,.cls-52,.cls-53,.cls-54,.cls-55,.cls-56,.cls-57{mix-blend-mode:multiply;}.cls-44,.cls-56{opacity:.56;}.cls-14{stroke-width:.31px;}.cls-15{stroke-width:.3px;}.cls-45{fill:url(#linear-gradient-10);}.cls-45,.cls-46,.cls-47,.cls-48,.cls-54,.cls-55{opacity:.76;}.cls-46{fill:url(#linear-gradient-12);}.cls-47{fill:url(#linear-gradient-13);}.cls-48{fill:url(#linear-gradient-11);}.cls-16{stroke-width:.27px;}.cls-49{fill:url(#linear-gradient-7);}.cls-49,.cls-50,.cls-51,.cls-52,.cls-53{opacity:.57;}.cls-50{fill:url(#linear-gradient-5);}.cls-51{fill:url(#linear-gradient-9);}.cls-52{fill:url(#linear-gradient-8);}.cls-53{fill:url(#linear-gradient-4);}.cls-58{fill:url(#linear-gradient-15);}.cls-58,.cls-59{mix-blend-mode:screen;opacity:.49;}.cls-59{fill:url(#linear-gradient-14);}.cls-54{fill:url(#linear-gradient-6);}.cls-55{fill:url(#linear-gradient-3);}.cls-56{fill:url(#linear-gradient-2);}.cls-17{stroke-width:.26px;}.cls-18{stroke-width:.52px;}.cls-19{stroke-width:.26px;}.cls-20{stroke-width:.53px;}.cls-21,.cls-24{stroke-width:2.14px;}.cls-22{stroke-width:2.1px;}.cls-23{stroke-width:.22px;}.cls-60{isolation:isolate;}.cls-57{opacity:.44;}.cls-27{stroke:#feae8b;}.cls-28{stroke-width:2.24px;}.cls-32{opacity:.36;}</style><clipPath id="clippath"><circle class="cls-1" cx="50" cy="50" r="50.25"/></clipPath><linearGradient id="linear-gradient" x1="13.94" y1="74.04" x2="13.94" y2="58.4" gradientTransform="matrix(1, 0, 0, 1, 0, 0)" gradientUnits="userSpaceOnUse"><stop offset="0" stop-color="#ef8d9c" stop-opacity="0"/><stop offset="1" stop-color="#ef8d9c" stop-opacity=".4"/></linearGradient><linearGradient id="linear-gradient-2" x1="86.27" x2="86.27" xlink:href="#linear-gradient"/><linearGradient id="linear-gradient-3" x1="-245.04" y1="21.89" x2="-244.94" y2="18.74" gradientTransform="translate(-219.53 -3.47) rotate(-178.64) scale(1 -1)" gradientUnits="userSpaceOnUse"><stop offset="0" stop-color="#ef8d9c" stop-opacity="0"/><stop offset="1" stop-color="#cc6577" stop-opacity=".4"/></linearGradient><linearGradient id="linear-gradient-4" x1="26.14" y1="26.83" x2="31.16" y2="22.37" gradientTransform="translate(-5.08 -4.97) rotate(-2.19)" xlink:href="#linear-gradient-3"/><linearGradient id="linear-gradient-5" x1="31.46" y1="26.14" x2="35.26" y2="22.77" gradientTransform="translate(-5.08 -4.97) rotate(-2.19)" xlink:href="#linear-gradient-3"/><linearGradient id="linear-gradient-6" x1="46.83" y1="36.07" x2="46.91" y2="33.51" gradientTransform="matrix(1, 0, 0, 1, 0, 0)" xlink:href="#linear-gradient-3"/><linearGradient id="linear-gradient-7" x1="32.47" y1="18.64" x2="28.93" y2="15.1" gradientTransform="translate(20.64 7.31) rotate(12.58)" xlink:href="#linear-gradient-3"/><linearGradient id="linear-gradient-8" x1="33.79" y1="19.7" x2="30.83" y2="16.74" gradientTransform="translate(14.56 5.51) rotate(11.07)" xlink:href="#linear-gradient-3"/><linearGradient id="linear-gradient-9" x1="91.74" y1="34.58" x2="88.05" y2="30.89" gradientTransform="translate(6.34 1.33) rotate(1.51)" xlink:href="#linear-gradient-3"/><linearGradient id="linear-gradient-10" x1="97.07" y1="40.39" x2="95.67" y2="38.99" gradientTransform="matrix(1, 0, 0, 1, 0, 0)" xlink:href="#linear-gradient-3"/><linearGradient id="linear-gradient-11" x1="68.32" y1="43.84" x2="68.32" y2="42.93" gradientTransform="matrix(1, 0, 0, 1, 0, 0)" xlink:href="#linear-gradient-3"/><linearGradient id="linear-gradient-12" x1="61.46" y1="65.46" x2="63.27" y2="57.02" gradientTransform="matrix(1, 0, 0, 1, 0, 0)" gradientUnits="userSpaceOnUse"><stop offset="0" stop-color="#ef8d9c" stop-opacity="0"/><stop offset=".21" stop-color="#ed8a99" stop-opacity=".02"/><stop offset=".44" stop-color="#e78493" stop-opacity=".09"/><stop offset=".68" stop-color="#dd7989" stop-opacity=".2"/><stop offset=".93" stop-color="#d0697b" stop-opacity=".35"/><stop offset="1" stop-color="#cc6577" stop-opacity=".4"/></linearGradient><linearGradient id="linear-gradient-13" x1="61.14" y1="58.39" x2="65.48" y2="35.13" xlink:href="#linear-gradient-12"/><linearGradient id="linear-gradient-14" x1="72.54" y1="106.71" x2="-15.83" y2="1.23" gradientTransform="matrix(1, 0, 0, 1, 0, 0)" gradientUnits="userSpaceOnUse"><stop offset=".01" stop-color="#f7e4d3" stop-opacity="0"/><stop offset="1" stop-color="#f7e4d3" stop-opacity=".7"/></linearGradient><linearGradient id="linear-gradient-15" x1="100.27" y1="102.5" x2="79.44" y2="-14.44" xlink:href="#linear-gradient-14"/></defs><g class="cls-60"><g id="Layer_2"><g class="cls-29"><g><rect class="cls-30" x="-26.26" y=".08" width="152.63" height="101.75"/><g><rect class="cls-32" x="-26.24" y=".08" width="152.61" height="77"/><g><g class="cls-57"><path class="cls-31" d="M-17.21,7.79v57.71H46.11V7.79H-17.21Zm.81,26.52v-14.4H14.81v14.4H-16.4Zm31.21,.41v14.4H-16.4v-14.4H14.81Zm-31.21-15.21V8.61H14.81v10.9H-16.4Zm61.69,45.18H-16.4v-15.16H14.81v15.02h.41v-15.02h30.07v15.16Zm0-15.56H15.22v-14.4h30.07v14.4Zm0-14.81H15.22v-14.4h30.07v14.4Zm0-14.81H15.22V8.61h30.07v10.9Z"/><path class="cls-31" d="M54.28,7.79v57.71h63.32V7.79H54.28Zm.81,.81h31.21v10.9h-31.21V8.61Zm0,56.08v-15.16h31.21v15.02h.41v-15.02h30.07v15.16H55.1Zm31.62-15.56v-14.4h30.07v14.4h-30.07Zm0-14.81v-14.4h30.07v14.4h-30.07Zm-31.62-14.4h31.21v14.4h-31.21v-14.4Zm0,14.81h31.21v14.4h-31.21v-14.4Zm61.69-15.21h-30.07V8.61h30.07v10.9Z"/></g><rect class="cls-44" x="-17.39" y="65.47" width="62.66" height="6.39"/><rect class="cls-56" x="54.94" y="65.47" width="62.66" height="6.39"/></g><g><path class="cls-31" d="M11.05,2.09H-23.78s-.09-.04-.09-.09,.04-.09,.09-.09H11.05s.09,.04,.09,.09-.04,.09-.09,.09Z"/><path class="cls-31" d="M11.05,6.59H-19.71s-.09-.04-.09-.09,.04-.09,.09-.09H11.05s.09,.04,.09,.09-.04,.09-.09,.09Z"/><path class="cls-31" d="M6.53,6.48s-.09-.04-.09-.09V2.01s.04-.09,.09-.09,.09,.04,.09,.09V6.39s-.04,.09-.09,.09Z"/></g></g><ellipse class="cls-31" cx="49.93" cy="89.18" rx="61.1" ry="8.73"/><g><g><g><polygon class="cls-39" points="24.47 79.68 24.52 81.13 26.93 80.95 26.95 79.44 24.47 79.68"/><path class="cls-42" d="M24.35,80.96l.6,.12s1.08-.72,1.68-.58c.6,.15,.58,.35,.91,.84,.33,.5,3.71,2.84,3.94,3.6,.23,.76-.27,.98-.87,1.05-.59,.08-4.72-.84-5.14-.82s-1.9,.1-1.98-.58c-.08-.68,.85-3.64,.85-3.64Z"/></g><g><polygon class="cls-39" points="15.78 78.69 15.83 80.14 13.42 80.14 13.28 78.64 15.78 78.69"/><path class="cls-42" d="M15.99,79.96l-.59,.16s-1.13-.64-1.72-.44c-.59,.19-.55,.39-.84,.91-.29,.52-3.49,3.11-3.65,3.89-.17,.77,.35,.95,.95,.99s4.64-1.2,5.06-1.22c.43-.02,1.9-.04,1.93-.73,.03-.68-1.13-3.56-1.13-3.56Z"/></g><g><path class="cls-37" d="M16.55,44.9s-3.3,16.47-3.42,19.51c-.11,3.03-.51,14.48-.51,14.48h3.78s2.03-12.18,2.43-13.48c.4-1.3,3.7-12.02,3.7-12.02,0,0,1.62,12.58,1.58,13.49-.04,.91-.11,13.02-.11,13.02l3.62-.21s1.74-15.88,1.69-19.06c-.05-3.18,.12-14.76,.12-14.76l-12.9-.94Z"/><g><path class="cls-3" d="M24.89,49.21s-2.08,3.37-2.29,3.95l-.2,.58s-3.74,12.01-3.88,12.92c-.14,.91-2.1,12.23-2.1,12.23"/><path class="cls-3" d="M24.41,44.82c-.04,.96-.04,1.91,.01,2.87,0,.15,.02,.29,.08,.43s.2,.24,.34,.23c.13,0,.24-.11,.3-.23,.06-.12,.07-.25,.08-.38,.07-.94,.08-1.89,.04-2.83"/><path class="cls-12" d="M23.28,51.78c1.97,9.16,2.48,18.72,1.51,28.04"/><path class="cls-12" d="M27.12,45.54c.29,1.99,1.08,3.91,2.26,5.54"/><path class="cls-12" d="M15.64,50.29c2.01-1.08,3.51-3.07,3.99-5.3"/></g></g></g><g><g><g><g><path class="cls-39" d="M34.02,35.68c.4-.29,.68-.71,.94-1.14,.26-.42,.51-.71,.89-1.02,.39-.32,1.33-.6,1.41-.43,.47,.95,2.08-.17,3.11-.43,.19-.05,.41-.09,.55,.04,.12,.11,.12,.31,.08,.47-.08,.33-.3,.63-.6,.82-.82,.51-1.82,.68-2.72,1.03-1.09,.41-1.8,1.51-2.64,2.34-.53-.41-.77-1.06-1.04-1.67Z"/><path class="cls-39" d="M37.89,31.31c.03-.08,.08-.17,.17-.16,.08,0,.17,.09,.19,.17,.13,.52,0,1.05-.04,1.59-.01,.29-.11,.65-.24,.91-.13,.26-.21,.45-.5,.48-.21,.02-.53-.12-.58-.35-.05-.22,.19-.58,.27-.78l.73-1.85Z"/><path class="cls-39" d="M39.54,30.94c.28-.47,.75-.78,1.21-1.08,.1-.07,.23-.14,.35-.1,.15,.04,.2,.22,.23,.37,.12,.81-.08,1.62-.19,2.43-.07,.47-.13,1-.49,1.31-.23,.2-.53,.28-.83,.34-.46,.09-1.4,.03-1.24-.69,.05-.23,.24-.43,.34-.64,.14-.29,.21-.6,.28-.91,.08-.35,.16-.71,.35-1.03Z"/></g><path class="cls-13" d="M40.15,30.27s.05,1.83-.21,2.6-.44,.98-.44,.98"/><path class="cls-13" d="M40.77,29.87s.02,2.11-.12,2.78-.31,.99-.31,.99"/></g><path class="cls-13" d="M37.21,33.07s-.17,.59-.27,.78"/></g><path class="cls-40" d="M32.01,26.71l1.58,7.66,1.22-.8,1.88,3.67s-4.51,3.81-5.12,3.6c-.61-.2-2.38-2.94-2.38-2.94l2.83-11.2Z"/><g><line class="cls-12" x1="34.81" y1="33.56" x2="31.17" y2="36.14"/><line class="cls-12" x1="34.21" y1="33.98" x2="36.11" y2="37.71"/><path class="cls-12" d="M30.17,39.32c.49-.27,1.08-.35,1.62-.21,.54,.14,1.02,.5,1.31,.98"/></g></g><g><g><path class="cls-39" d="M22.72,20.67c.01,.42-.29,1.16-.35,1.49,0,0,.85,4.1,2.89,4.12,1.42,0,2.11-2.01,2.11-2.01l-.21-1.59-.21-1.6-3.97-1.93-.42-.2s.02,.11,.04,.29c.04,.32,.09,.87,.11,1.42Z"/><path class="cls-55" d="M22.61,19.25c.04,.32,.09,.87,.11,1.42,.44,.74,1.03,1.38,1.72,1.86,.41,.28,.86,.51,1.34,.58,.48,.07,1-.05,1.37-.4,.01-.01,.02-.02,.03-.03l-.21-1.6-3.97-1.93c-.13,.01-.27,.03-.38,.09Z"/></g><g><path class="cls-42" d="M29.45,18.25c.08-.18,.06-.38,.08-.57,.03-.29,.15-.57,.24-.85,.09-.28,.16-.59,.08-.87s-.35-.53-.65-.5c-.3,.03-.5,.33-.6,.61-.19,.51-.18,1.09-.01,1.61,.09,.28,.55,1.29,.86,.57Z"/><path class="cls-42" d="M21.36,12.6c-.19,.36-.08,.79-.14,1.19-.06,.45-.31,.85-.51,1.26-.2,.41-.35,.89-.19,1.31,.15,.39,.54,.68,.64,1.09,.06,.25,0,.52,0,.78,.01,.41,.23,.8,.54,1.09,.31,.28,.71,.46,1.12,.57,.3,.07,.64,.1,.9-.06,.33-.19,.43-.59,.5-.95,.22-1.13,.34-2.28,.22-3.42-.1-.88-.35-1.72-.78-2.5-.28-.51-.5-1-1.18-.95-.44,.03-.92,.21-1.12,.61Z"/></g><path class="cls-39" d="M29.33,16.93c0,.13,0,.26,0,.39-.02,.82-.2,1.93-.54,2.7,0,.02-.02,.04-.03,.07-.37,.82-.71,1.4-1.54,1.78-.76,.35-1.75,.19-2.52-.11-1.67-.64-2.5-2.48-2.66-4.12-.02-.23-.03-.46-.03-.7,.01-1.38,.48-2.79,1.59-3.66,.89-.7,2.09-.91,3.17-.58,.88,.27,1.6,.99,2.01,1.8,.18,.35,.3,.72,.38,1.1,.03,.12,.05,.25,.07,.37,.02,.13,.04,.27,.05,.41,.02,.19,.03,.37,.03,.56Z"/><g><g><path class="cls-39" d="M22.9,17.51s-.93-1.45-1.81-1.18c-.87,.27-.14,2.55,.7,2.63,.84,.09,1.18-.48,1.18-.48l-.07-.98Z"/><g><path class="cls-14" d="M21.31,16.96c.35,.37,.58,.83,.68,1.33"/><path class="cls-14" d="M21.65,17.46c-.15,.17-.22,.37-.24,.6"/></g></g><g><g><g><path class="cls-41" d="M27.84,16.4c-.33,.65,.22,1.19,.4,1.79,.23,.62-.48,1.17-1,1.1-.17,0-.24-.22-.12-.32,.2-.17,.4-.36,.42-.46,.08-.27-.38-1.03-.27-1.4-.03-.23,.3-.98,.57-.79,.01,.03,.01,.06,0,.09h0Z"/><path class="cls-41" d="M26.58,18.71l-.07,.15s.01,.07,.02,.05c0-.02-.03-.02,0-.04,.13-.13,.36-.29,.46-.03,.01,.04,.05,.19,.06,.23,.08,.3-.38,.42-.46,.12-.01-.04,0-.19-.01-.23l.32,.15c-.15,.08-.44,.24-.62,.01-.21-.2,.13-.72,.3-.59,.05,.05,.04,.12,0,.17h0Z"/></g><path class="cls-41" d="M26.2,17.2c-.02,.18-.18,.3-.36,.28-.18-.02-.3-.18-.28-.36,.02-.18,.18-.3,.36-.28,.18,.02,.3,.18,.28,.36Z"/><path class="cls-41" d="M28.64,17.16c-.02,.17-.17,.28-.34,.26-.17-.02-.28-.17-.26-.34,.02-.17,.17-.28,.34-.26,.17,.02,.28,.17,.26,.34Z"/></g><g><path class="cls-41" d="M24.7,16.14c-.06,.11-.08,.26,.03,.34,.11,.09,.28,.07,.43,.05l1.16-.15c.08-.01,.17-.02,.22-.08,.07-.07,.04-.18-.02-.26-.17-.25-.58-.45-.94-.44-.36,0-.74,.29-.87,.54Z"/><path class="cls-41" d="M29.29,16.37c-.33-.02-.67-.04-1.01-.06-.07,0-.15-.01-.2-.05-.07-.06-.05-.16,0-.24,.14-.24,.49-.44,.82-.46,.09,0,.18,0,.27,.03,.03,.12,.05,.25,.07,.37,.02,.13,.04,.27,.05,.41Z"/></g><g><path class="cls-20" d="M25.27,19.48s1.2,.85,2.34,.3"/><path class="cls-19" d="M26.03,20.38s.49,.2,.91,.12"/></g><path class="cls-53" d="M25.89,18.74c.04,.94-.7,1.73-1.64,1.77-.94,.04-1.73-.7-1.77-1.64-.04-.94,.7-1.73,1.64-1.77,.94-.04,1.73,.7,1.77,1.64Z"/><path class="cls-50" d="M29.33,16.93c0,.13,0,.26,0,.39-.02,.82-.2,1.93-.54,2.7-.45-.29-.75-.79-.77-1.36-.03-.83,.54-1.54,1.32-1.72Z"/></g></g><path class="cls-42" d="M30.57,13.25c-.31-.41-.84-.63-1.08-1.08-.15-.29-.16-.64-.27-.95-.26-.72-1.03-1.13-1.76-1.37-.47-.16-1.01-.27-1.46-.04-.19,.1-.35,.26-.55,.33-.4,.14-.82-.09-1.24-.11-.62-.02-1.17,.45-1.38,1.03-.17,.48-.17,1.18,.02,1.69-.33,.08-.63,.32-.76,.64-.14,.36-.07,.77-.18,1.15-.1,.35-.35,.65-.4,1.01-.04,.3,.08,.61,.26,.85,.11,.16,.28,.38,.48,.49,.05,.3,.15,.6,.29,.81,.06,.09,.14,.17,.25,.17,.15,0,.23-.17,.28-.31,.11-.32,.23-.65,.28-.99,.04-.23,.04-.48-.01-.71,.01-.1,.03-.2,.07-.3,.12-.29,.4-.49,.59-.74,.24-.32,.35-.74,.26-1.13,.02,0,.04,0,.05,0,.38-.08,.67-.37,1.02-.54,.35-.17,.86-.17,1.03,.17,.15,.31-.05,.71,.13,1,.13,.2,.41,.26,.65,.23,.24-.03,.47-.12,.71-.15s.52,.05,.63,.27c.17,.32-.14,.72-.03,1.07,.11,.35,.54,.45,.9,.49,.33,.04,.74,.04,.91-.25,.1-.18,.06-.41,.1-.62,.05-.29,.25-.53,.37-.8,.18-.43,.11-.96-.17-1.33Z"/></g><g><path class="cls-40" d="M22.57,21.17s.96,1.38,1.42,2.24c.39,.73,1.27,2.02,1.27,2.02l1.91-2.76,1.03,1.71-3.11,7.64-4.65-8.85,1.1-1.01,1.04-1Z"/><polyline class="cls-12" points="23.34 27.11 25.25 25.44 26.73 27.08"/></g><path class="cls-41" d="M21.53,22.18l3.54,9.43,2.88-7.77,4.06,2.87s-2.2,10.17-2.27,11.36c-.07,1.19-.15,8.07-.15,8.07l-13.72-1.06s1.76-7.45,1.67-8.35c-.09-.9-.07-3.35-.07-3.35,0,0-.79-7.29-1.05-8.02l5.1-3.18Z"/><g><path class="cls-11" d="M16.83,25.08c1.59,3.81,1.46,8.1,1.13,12.21-.2,2.54-.47,5.08-.79,7.61"/><path class="cls-11" d="M30.27,34.93c.42-2.93,.84-5.77,1.26-8.7"/><path class="cls-11" d="M21.05,22.47l2.16,6.47c.45,1.35,.91,2.72,1.75,3.87,1.4-2.76,2.53-5.66,3.36-8.64"/></g><g><g><path class="cls-39" d="M18.92,37.21s1.05,.1,1.31,.06,2.85-1.27,3.22-1.09c.38,.18-1.3,1.55-1.3,1.55,0,0,.66,.06,1.05,.02,.4-.04,2.81-.42,2.91-.2,0,0,.18,.23-.09,.47,0,0,.22,.2,.14,.75-.07,.46-.63,.59-.63,.59,0,0,.12,.08,.06,.24-.06,.15-1.09,.72-2.29,.68-1.26-.04-2.87-.53-2.87-.53l-2.06-.46,.56-2.15"/><g><path class="cls-12" d="M23.28,38.4s2.27-.1,2.79-.37"/><path class="cls-12" d="M23.35,39.05s2.35-.2,2.81-.44"/><path class="cls-12" d="M25.53,39.37s-1.4,.37-2.02,.3"/></g></g><g><path class="cls-40" d="M16.42,25.35s-4.94,6.91-5.03,10.54c0,0-.46,1.95,3.14,2.87,3.59,.92,3.78,.76,3.78,.76l.72-2.83-2.6-1.64,1.22-1.71s.06-6.36-1.23-7.99Z"/><g><line class="cls-12" x1="14.65" y1="33.97" x2="19.04" y2="36.7"/><line class="cls-12" x1="18.52" y1="36.4" x2="17.48" y2="39.48"/><path class="cls-12" d="M11.51,34.99c1.13,.62,1.76,1.99,1.65,3.28"/></g></g></g></g><g><g><path class="cls-41" d="M56.1,58.78c-.03-.06-.08-.1-.13-.15-.05-.05-.1-.11-.15-.16l-.41-.42-.44-.46-.36-.37-.15-.16s-13.21-.18-13.16-.14l-3.03,1.62c-.27,.15-.44,.4-.44,.66v.51c0,.39,.39,.71,.88,.71h16.55c.48,0,.88-.32,.88-.71l-.02-.63c0-.09,0-.18-.01-.27,0-.01,0-.02-.01-.04Z"/><path class="cls-41" d="M46.3,34h2.16c3.71,0,6.72,3.01,6.72,6.72v13.24c0,1.04-.84,1.88-1.88,1.88h-11.84c-1.04,0-1.88-.84-1.88-1.88v-13.24c0-3.71,3.01-6.72,6.72-6.72Z"/><g><line class="cls-24" x1="39.95" y1="60.04" x2="38.22" y2="79.32"/><line class="cls-24" x1="54.72" y1="60.04" x2="56.45" y2="79.32"/></g></g><g><g><path class="cls-42" d="M58,47.23s0-.05-.01-.07c-.21-1.28-.66-2.89-1.21-4.95-.62-2.35-1.53-3.77-2.1-4.49h0s-.06-.08-.09-.11c-.26-.32-.43-.47-.43-.47,0,0-2.23-1.56-3.68-2.12l-1.45-.56-4.23,.56s-2.81,1.07-4.12,2.44c-.03,.03-.06,.07-.09,.1-.13,.14-.24,.29-.33,.43-.43,.65-1.63,2.69-2.09,5.59-.27,1.7-.48,3.01-.58,4.03,0,.04,0,.08-.01,.12h0c-.1,1.05-.06,1.78,.18,2.32,.48,1.08,5.16,2.78,5.16,2.78l.34-.57c1.11,.73,2.97,1.39,5.05,1.25,1.98-.14,3.35-.85,4.13-1.4l.05-.03,1.1,1.05,.05-.02c.31-.16,2.06-1.07,3.25-2.1,.03-.02,.05-.05,.08-.07,.49-.44,.88-.9,1-1.33,.19-.65,.18-1.42,.03-2.37Zm-16.28,.89l-.05-.04-.39-.34,.03-.07,.24-.6c.03,.17,.06,.35,.09,.52h0c.02,.15,.04,.28,.07,.42h0s.01,.08,.02,.12Zm12.02-1.8l.03,.1,.43,1.59,.02,.07-.64,.64-.09,.09s0-.07,.01-.1c.07-.74,.16-1.56,.24-2.39Z"/><g><path class="cls-41" d="M41.73,48.17s-.05-.02-.05-.05l-.59-7.08s.02-.06,.05-.06c.03,0,.06,.02,.06,.05l.59,7.08s-.02,.06-.05,.06h0Z"/><path class="cls-41" d="M41.34,43.77s-.05-.02-.05-.04l-.5-1.7s0-.06,.04-.07c.03,0,.06,0,.07,.04l.5,1.7s0,.06-.04,.07h-.02Z"/><path class="cls-41" d="M45.22,51.18s-.03,0-.04-.01c-1.19-1.04-4.32-3.76-4.45-3.84-.03,0-.04-.04-.03-.07,0-.03,.04-.04,.07-.03,.08,.03,3.16,2.71,4.48,3.86,.02,.02,.03,.05,0,.08-.01,.01-.03,.02-.04,.02Z"/><path class="cls-41" d="M53.52,48.84h0s-.05-.03-.05-.06l.61-7.49s.03-.05,.06-.05c.03,0,.05,.03,.05,.06l-.61,7.49s-.03,.05-.05,.05Z"/><path class="cls-41" d="M53.58,53.19s-.03,0-.04-.01l-2.27-2.15s-.02-.02-.02-.04c0-.01,0-.03,.02-.04l3.45-3.47s.06-.02,.08,0c.02,.02,.02,.06,0,.08l-3.42,3.43,2.23,2.12s.02,.06,0,.08c-.01,.01-.03,.02-.04,.02Z"/><path class="cls-41" d="M56.91,51.01s-.05-.02-.05-.05c-.05-1.33,.32-2.68,1.05-3.79,.02-.03,.05-.03,.08-.02,.03,.02,.03,.05,.02,.08-.71,1.1-1.08,2.42-1.03,3.73,0,.03-.02,.06-.05,.06h0Z"/><path class="cls-41" d="M39.09,50.02s-.05-.02-.05-.04c-.25-.88-.78-1.69-1.49-2.27-.02-.02-.03-.05,0-.08,.02-.02,.05-.03,.08,0,.73,.59,1.27,1.42,1.53,2.32,0,.03,0,.06-.04,.07h-.01Z"/><path class="cls-41" d="M53.96,43.63s-.02,0-.03,0c-.03-.01-.04-.05-.02-.07l.61-1.14s.05-.04,.07-.02c.03,.01,.04,.05,.02,.07l-.61,1.14s-.03,.03-.05,.03Z"/><path class="cls-41" d="M41.03,39.47s-.01,.06-.04,.06h0s-.05-.02-.05-.04l-.34-1.93s.06-.07,.09-.1l.36,2.01Z"/><path class="cls-41" d="M54.68,37.72h0c-.15,.69-.29,1.38-.39,2.08,0,.03-.03,.05-.05,.05h0s-.05-.03-.05-.06c.11-.72,.25-1.45,.41-2.17,.03,.03,.06,.07,.09,.11Z"/></g><path class="cls-38" d="M51.62,51.34s-.28,.39-.53,.53c-.25,.14-1.45,.53-1.92,1.48-.47,.95-1.56,2.23-1.28,2.59s1.45,1,1.81,.78c.36-.22,.75-1.06,.95-1.25,.2-.2,.86-.84,1.11-1.5s.64-.98,.64-.98l.42-.51-1.2-1.14Z"/></g><g><path class="cls-41" d="M50.4,31.97c.59-.53,.79-1.36,.96-2.14,.06-.28,.12-.59,.02-.86-.1-.24-.31-.42-.55-.52-.49-.2-1.07-.11-1.52,.17s-.77,.73-.96,1.23c-.28,.73-.44,1.76-.2,2.52,.19,.6,.79,1.2,1.31,.54,.14-.18,.25-.37,.43-.53,.16-.15,.35-.26,.51-.41Z"/><path class="cls-41" d="M51.15,26.41c.03,.45-.19,.94,0,1.34,.1,.2,.28,.34,.4,.54,.15,.26,.15,.59,.08,.88-.08,.29-.23,.55-.38,.81-.37,.63-.81,1.32-1.49,1.5-.16,.04-.36,.04-.45-.11-.04-.07-.05-.15-.05-.23-.06-.81-.11-1.62-.17-2.43-.04-.6-.08-1.21,.03-1.8,.1-.5,.43-1.31,.95-1.48,.52-.17,1.05,.52,1.09,1Z"/></g><g><g><path class="cls-38" d="M48.84,33.22c-.02,.34,.23,.95,.28,1.22,0,0-.84,3.32-2.65,3.29-1.25-.02-1.83-1.67-1.83-1.67l.22-1.28,.22-1.29,3.55-1.49,.37-.16s-.02,.09-.04,.24c-.04,.26-.1,.71-.13,1.15Z"/><path class="cls-54" d="M48.97,32.07c-.04,.26-.1,.71-.13,1.15-.41,.6-.94,1.1-1.56,1.48-.37,.22-.77,.4-1.2,.44-.43,.04-.88-.06-1.2-.35,0,0-.02-.02-.02-.03l.22-1.29,3.55-1.49c.11,.01,.23,.03,.33,.08Z"/></g><g><path class="cls-38" d="M49.79,30.04c-.13,.51-.35,1.01-.61,1.48-.08,.15-.17,.3-.27,.44-.02,.02-.03,.05-.04,.07h0c-.23,.35-.47,.67-.73,.94-.16,.17-.32,.31-.5,.44-.66,.46-1.51,.68-2.4,.5-.86-.17-1.39-.69-1.78-1.25-.12-.18-.23-.37-.31-.58-.11-.25-.19-.53-.24-.81-.06-.3-.09-.6-.1-.92,0-.06,0-.12,0-.18,0-.05,0-.1,0-.15,0,0,0-.02,0-.03,0-.25,.02-.5,.05-.75,.03-.25,.07-.49,.11-.72,0-.05,.02-.11,.03-.16,.04-.2,.09-.4,.16-.6,.42-1.26,1.29-2.39,2.57-2.76,.24-.07,.48-.11,.73-.12,1.08-.03,2.14,.47,2.78,1.34,.81,1.09,.89,2.48,.54,3.79Z"/><g><path class="cls-38" d="M48.81,30.34s1.23-1.1,1.97-.63c.73,.47-.51,2.39-1.32,2.26-.8-.13-.97-.74-.97-.74l.32-.89Z"/><g><path class="cls-15" d="M50.42,30.24c-.41,.25-.75,.62-.96,1.06"/><path class="cls-15" d="M49.98,30.61c.1,.2,.11,.4,.07,.62"/></g></g><g><g><g><path class="cls-49" d="M48.67,31.35c-.17,.76-.92,1.23-1.68,1.07-.76-.17-1.23-.92-1.07-1.68,.17-.76,.92-1.23,1.68-1.07,.76,.17,1.23,.92,1.07,1.68Z"/><path class="cls-52" d="M43.98,30.43c-.12,.56-.56,.96-1.09,1.07-.06-.3-.09-.6-.1-.92,0-.06,0-.12,0-.18,0-.05,0-.1,0-.15,0,0,0-.02,0-.03,0-.25,.02-.5,.05-.75,.03-.25,.07-.49,.11-.72,.74,.18,1.2,.92,1.03,1.67Z"/></g><g><g><path class="cls-41" d="M45.14,28.27c-.22,.76-.85,1.75-.55,2.48,.06,.11-.04,.24-.16,.22-.32-.05-.59-.39-.64-.73-.08-.88,.34-1.69,.98-2.25,.18-.16,.47,.06,.38,.28h0Z"/><path class="cls-41" d="M45.31,30.43c.17,.12,.22,.29,.13,.49-.14,.18-.33,.07-.36,.08l-.18-.03s.3-.27,.3-.27c.05,.37-.19,.45-.33,.28-.09-.12-.21-.32-.04-.43,.13-.09,.29,.04,.4,.11,.08,.05,.03,.01-.02,.08,0,.03,.03-.02,.03-.06,0-.04,0-.09,0-.1-.02-.06-.03-.18,.07-.15h0Z"/></g><g><path class="cls-41" d="M46.41,29.35c-.03,.15-.18,.25-.33,.22-.15-.03-.25-.18-.22-.33,.03-.15,.18-.25,.33-.22,.15,.03,.25,.18,.22,.33Z"/><path class="cls-41" d="M44.11,28.82c-.03,.16-.18,.26-.34,.23-.16-.03-.26-.18-.23-.34,.03-.16,.18-.26,.34-.23,.16,.03,.26,.18,.23,.34Z"/></g><g><path class="cls-41" d="M45.92,28.2c-.05,.07-.07,.16-.02,.23,.05,.07,.16,.09,.25,.1,.27,.04,.53,.14,.75,.29,.08,.05,.15,.11,.23,.14s.19,.05,.27,.02c.09-.03,.14-.12,.15-.2,0-.09-.02-.17-.06-.25-.25-.49-1.2-.9-1.58-.33Z"/><path class="cls-41" d="M44.64,27.9c0,.08-.02,.17-.09,.2-.07,.04-.15,0-.22-.02-.2-.08-.42-.1-.64-.07-.07,.01-.15,.03-.22,.02-.07,0-.15-.03-.19-.1-.04-.07-.04-.16-.01-.23,.03-.08,.09-.14,.15-.19,.38-.31,1.21-.25,1.21,.38Z"/></g></g></g><g><path class="cls-9" d="M43.84,31.46s1.21,.49,2.24-.06"/><path class="cls-23" d="M44.56,32.11s.44,.16,.82-.07"/></g></g></g></g><g><path class="cls-41" d="M44.08,23.79c-.57,.17-1.05,.58-1.33,1.1-.11,.21-.19,.46-.13,.69,.06,.23,.3,.43,.54,.37-.16,.22-.32,.45-.38,.72-.05,.27,.04,.59,.28,.71,.24,.12,.53,.02,.78-.08l1.35-.55c-.04,.31-.08,.65,.11,.9,.19,.24,.54,.31,.83,.23s.55-.26,.79-.44c.17-.13,.42-.26,.59-.13,.1,.08,.12,.21,.13,.34,.02,.2,.03,.41,.08,.6,.05,.2,.16,.39,.33,.49,.28,.18,.66,.09,.92-.13,.25-.21,.41-.51,.56-.81,.17-.35,.29-.76,.42-1.13,.13-.37,.23-.76,.18-1.15-.05-.39-.28-.77-.64-.92-.16-.07-.35-.08-.51-.16-.31-.15-.47-.48-.67-.77-.19-.28-.44-.53-.74-.7-.3-.16-.66-.23-.99-.14-.35,.09-.64,.34-.95,.53-.44,.26-1.06,.27-1.55,.42Z"/><path class="cls-41" d="M49.33,28.78c-.03,.26-.18,.48-.28,.72-.11,.26-.15,.54-.14,.81,0,.12,.05,.26,.17,.27,.07,0,.14-.05,.19-.1,.46-.46,.93-.93,1.21-1.51,.28-.58,.35-1.31,0-1.87-.25-.4-1.06-.79-1.33-.19-.28,.64,.24,1.25,.17,1.87Z"/></g><g><g><path class="cls-41" d="M49.37,77.74s-.28,.22-.33,.86-.5,1.62-.28,2.09c.22,.47,1.14,.75,1.78,1.39,.64,.64,1.92,2.01,2.54,2.09,.61,.08,2.03,0,2.03-.72s-1.56-3.01-1.76-3.54c-.2-.53-.89-2.06-.89-2.06l-.72-.72-2.37,.61Z"/><path class="cls-38" d="M49.42,76.09l-.06,1.64s.53,.45,1,.36c.47-.08,.62-.49,1.26-.52s.83,.27,.83,.27l-.11-1.31-2.93-.45Z"/></g><g><path class="cls-41" d="M56.48,54.78s.29-.17,.87,0c.58,.17,1.58,.1,1.92,.46,.34,.35,.28,1.25,.62,2.03,.35,.78,1.11,2.35,.98,2.92-.13,.56-.68,1.78-1.31,1.54-.63-.24-2.11-2.37-2.51-2.72-.4-.35-1.51-1.47-1.51-1.47l-.39-.88,1.33-1.87Z"/><path class="cls-38" d="M54.86,54.5l1.62,.28s.21,.61-.02,1c-.23,.39-.64,.38-.88,.93-.24,.55-.04,.81-.04,.81l-1.11-.54,.43-2.49Z"/></g><g><path class="cls-35" d="M55.74,54.51l-.69,2.48v.04l-.07,.21-.02,.05-1.61-.21s.01,.04,.03,.11c.16,.51,.83,2.77,.87,4.37,.04,1.82-1.71,15.42-1.71,15.42-1.3,.59-3.38-.15-3.38-.15-.56-4.01-.11-11.67-.04-12.67,.07-.93-.79-3.84-.91-4.26-.01-.03-.02-.05-.02-.05h-.06c-.28-.07-1.5-.34-2.06-.41-.63-.07-1.75,.3-2.94,.19-.76-.07-2.86-1.4-4.48-3.03-.04-.04-.08-.08-.12-.12-.85-.88-1.55-1.83-1.83-2.72-.82-2.6,1.3-3.68,1.3-3.68,0,0,1.41-.56,7.51,1.19,4.82,1.38,10.21,3.23,10.21,3.23Z"/><g><path class="cls-37" d="M46.55,56.45s0,.07-.01,.11c-.02,.22-.05,.44-.1,.65-.05,.26-.17,.41-.33,.41h0c-.1,0-.2-.07-.26-.17-.04-.09-.06-.18-.07-.28-.02-.23-.03-.45-.03-.68,0-.04,0-.07,0-.11,.04,0,.07,0,.11,.01,0,.04,0,.07,0,.11,0,.22,.01,.44,.03,.66,0,.09,.02,.17,.05,.24,.03,.06,.09,.11,.16,.11h0c.15,0,.21-.24,.22-.32,.04-.21,.07-.43,.09-.64,0-.04,0-.07,.01-.11,.04,0,.07,0,.11,.01Z"/><path class="cls-37" d="M55.01,57.3s-.03,.05-.05,.05h0c-1.32-.13-5.04-.48-8.41-.79-.04,0-.07,0-.11-.01-.19-.02-.37-.03-.56-.05-.03,0-.07,0-.11,0-3.01-.28-5.57-.51-5.62-.52-.03,0-.05-.03-.05-.06,0-.03,.03-.05,.06-.05,.06,0,2.61,.24,5.61,.51,.04,0,.07,0,.11,.01,.19,.02,.38,.03,.57,.05,.04,0,.07,0,.11,.01,3.38,.31,7.09,.66,8.41,.79,.03,0,.05,.03,.05,.06Z"/><path class="cls-37" d="M40.93,56.59s-.04-.01-.05-.04c0-.03,0-.06,.03-.07,.27-.09,.52-.23,.73-.42,.02-.02,.06-.02,.08,0,.02,.02,.02,.06,0,.08-.22,.19-.49,.34-.77,.44h-.02Z"/><path class="cls-37" d="M48.2,59.91s-.05-.02-.05-.05c-.22-1.83,.38-2.58,.4-2.61,.02-.02,.05-.03,.08,0,.02,.02,.03,.05,0,.08,0,0-.59,.75-.38,2.53,0,.03-.02,.06-.05,.06h0Z"/><path class="cls-37" d="M55.05,57.01s0,.02-.02,.02c0,0,0,0-.01,0-6.01-.93-10.68-1.52-15.13-1.89-.46-.04-.92-.03-1.2,.26-.23,.25-.24,.62-.16,.88,.03,.11,.08,.22,.14,.32-.04-.04-.08-.08-.12-.12-.03-.06-.05-.12-.07-.18-.1-.35-.04-.71,.17-.94,.29-.31,.77-.32,1.24-.28,4.45,.38,9.12,.96,15.14,1.89,0,0,.01,0,.02,0,0,0,0,.01,0,.02Z"/><path class="cls-37" d="M49.51,76.84s-.03-.01-.03-.02c-.16-1.91,.03-3.86,.21-5.75,.25-2.58,.5-5.24-.13-7.78-.15-.61-.36-1.22-.55-1.81-.35-1.04-.71-2.12-.79-3.23,0-.02,.01-.03,.03-.03,.02,0,.03,.01,.03,.03,.08,1.1,.44,2.18,.79,3.21,.2,.59,.4,1.2,.56,1.81,.63,2.54,.38,5.21,.13,7.79-.18,1.89-.37,3.84-.21,5.74,0,.02,0,.03-.02,.03h0Z"/></g></g></g></g></g><g><line class="cls-25" x1="82.61" y1="72.01" x2="79.88" y2="85.58"/><g><path class="cls-33" d="M102,36.98c-.25,.6-.55,1.28-.92,1.8-.08,.11-.74,.55-.74,.68l.32,1.3s-4.45,1.43-4.45,1.43l-.11-1.08v-.03l-.13-1.38v-.02c-.69,.22-2.06,.61-2.29-.36-.09-.36-.13-.73-.14-1.1,0-.03,0-.05,0-.08v-.06c0-.14,0-.29,0-.44v-.05c0-.21,0-.4-.01-.49,0-.07-.57-.3-.7-.76-.13-.47,.6-.62,.94-1.12,.53-.79,.58-1.93,.88-2.81,.22-.66,.6-.99,1.17-1.39,1.25-.88,2.78-.96,4.08-.19,.08,.05,.17,.1,.25,.16,2,1.37,2.73,3.84,1.85,6.01Z"/><path class="cls-41" d="M94.01,30.44c-.29,.44-.43,1-.29,1.5,.14,.51,.59,.94,1.12,.97,.16,0,.33-.02,.48,.05,.26,.11,.35,.43,.38,.7,.03,.28,.06,.59,.27,.77,.2,.17,.52,.18,.69,.38,.19,.22,.13,.54,.11,.83-.02,.29,.07,.66,.36,.7,.24,.04,.44-.19,.53-.41,.09-.22,.12-.48,.28-.66,.26-.31,.8-.27,1.09,.02,.28,.29,.34,.76,.22,1.15-.12,.39-.38,.72-.66,1.03-.13,.14-.27,.28-.35,.45-.09,.17-.11,.39-.01,.55,.12,.21,.38,.27,.58,.41,.37,.26,.51,.79,.92,1,.43,.22,.95,0,1.37-.24,.46-.25,.96-.53,1.17-1.01,.12-.26,.14-.56,.31-.79,.17-.22,.45-.32,.66-.5,.42-.37,.46-1,.4-1.55-.07-.55-.22-1.11-.09-1.65,.11-.45,.41-.93,.19-1.35-.16-.31-.58-.46-.65-.8-.06-.26,.11-.55-.04-.77-.12-.18-.39-.19-.59-.28-.62-.27-.63-1.26-1.24-1.56-.53-.25-1.21,.18-1.74-.08-.34-.17-.52-.59-.89-.7-.42-.12-.84,.24-1.28,.25-.31,0-.59-.16-.9-.2-.57-.09-.93,.25-1.24,.66-.15,.19-.38,.3-.57,.46-.23,.18-.43,.4-.59,.64Z"/><g><g><path class="cls-33" d="M97.31,36.31s.43-1.81,1.5-1.42c1.07,.39,.94,2.48-.02,2.85-.96,.37-1.75-.47-1.75-.47l.27-.96Z"/><path class="cls-41" d="M96.69,36.63c0,.08,0,.17,.03,.25,.03,.08,.11,.14,.2,.13,.09-.02,.14-.11,.18-.2l.71-1.65c.04-.09,.08-.19,.08-.3-.01-.17-.16-.31-.32-.35-1.06-.23-.84,1.58-.86,2.11Z"/></g><g><path class="cls-6" d="M98.27,35.61c.17,0,.31,.14,.4,.29,.19,.33,.21,.75,.07,1.1"/><path class="cls-6" d="M98.69,36c-.25,.2-.46,.46-.6,.75"/></g></g><g><g><path class="cls-41" d="M94.55,34.05c.09,.18,.31,.24,.46,.37,.08,.07,.14,.16,.22,.22,.08,.07,.2,.11,.29,.06,.08-.04,.12-.15,.13-.24,.05-.37-.16-.78-.49-.95-.31-.16-.79,.19-.62,.54Z"/><path class="cls-41" d="M94.34,35.11c-.02,.19,.08,.35,.23,.37,.15,.02,.28-.12,.3-.31,.02-.19-.08-.35-.23-.37-.15-.02-.28,.12-.3,.31Z"/><g><path class="cls-41" d="M93.65,36.65l.21,.22c.08,0,.13-.14,.15-.24,0,0,.01-.02,.02-.02,.01,0,.02,0,.02,.02,0,.06-.01,.12-.03,.18-.02,.06-.07,.13-.15,.14h-.01s-.03,0-.04,0l-.17-.18-.02,.1s-.03,.04-.05,.03c-.02,0-.03-.02-.03-.03,0,0,0-.01,0-.02l.04-.18s.02-.03,.03-.03c.02,0,.03,0,.04,.01Z"/><path class="cls-41" d="M94.62,37.31c-.33,.28-.74,.33-.99,.33-.03,0-.06,0-.08,0v-.05c.21,0,.67,0,1.04-.31,.01,0,.03,0,.04,0,0,.01,0,.03,0,.04Z"/><path class="cls-41" d="M94.01,38.1c-.06,.04-.16,.05-.25,.05-.09,0-.18-.01-.22-.02v-.06c.06,0,.31,.05,.43-.02,.01,0,.03,0,.04,0,0,.01,0,.03,0,.04Z"/></g></g><path class="cls-51" d="M97.3,36.98c-.02,.81-.69,1.45-1.5,1.42s-1.45-.69-1.42-1.5c.02-.81,.69-1.45,1.5-1.42,.81,.02,1.45,.69,1.42,1.5Z"/></g><path class="cls-45" d="M97.33,39.01s-.59,1.7-1.23,2.06l-.13-1.38v-.02c.17-.07,1.01-.44,1.36-.66Z"/><g><path class="cls-34" d="M95.77,42.06s4.66-2.02,5.31-2.41c0,0,.71,.92,.81,1.65,.1,.72,1.81,2.59,1.68,4.91-.14,2.32-1.38,6.82-2.77,9.42-1.38,2.59-4.08,7.06-4.08,7.06,0,0-2.52-.12-4.5-1.36-1.99-1.25-3.69-3.69-3.69-3.69,0,0,4.08-4.45,4.54-5.58,.47-1.13,1.7-5.42,1.99-6.2,.29-.78,.35-1.15,.35-1.15,0,0-.32-2.2-.28-2.26,.04-.06,.63-.39,.63-.39Z"/><g><g><g><path class="cls-36" d="M81.9,84.6s0,.04,0,.06c0,.04,0,.08,0,.12-.02,.46-1.56,1.46-2.32,1.69-.75,.23-3.43,1.59-4.3,2.04-.81,.42-2.68,.9-3.2,.41-.02-.02-.04-.03-.05-.05-.02-.02-.04-.05-.05-.08-.33-.69,.78-1.82,1.51-2.5,.07-.07,.17-.16,.29-.28,.01-.01,.02-.03,.04-.04,.27-.27,.64-.65,1.03-1.05l.04-.04c.2-.2,.4-.41,.6-.62,.01-.01,.03-.03,.04-.04,.17-.18,.34-.35,.5-.52,.01-.01,.03-.03,.04-.04,.6-.62,1.06-1.11,1.06-1.11l2.77-1.1s1.82,2.06,2,3.14Z"/><path class="cls-31" d="M81.9,84.6s0,.04,0,.06c-.8,.68-1.76,1.13-2.69,1.56-1.03,.48-2.05,.96-3.08,1.43-.11,.05-.22,.1-.34,.16h0s-.03,.01-.04,.02c-.39,.18-.79,.36-1.21,.52-.78,.3-1.61,.54-2.46,.58-.02-.02-.04-.03-.05-.05,1.31-.04,2.56-.57,3.69-1.08,.02,0,.03-.01,.05-.02,.11-.05,.23-.11,.34-.16,1.02-.48,2.05-.95,3.08-1.43,.39-.18,.78-.36,1.16-.56,.01,0,.03-.01,.04-.02,.53-.28,1.05-.6,1.5-.99Z"/><path class="cls-31" d="M80.38,85.62h0s-.03,0-.03-.02c-.16-1.06-.06-2.17,.27-3.19,0-.01,.02-.02,.03-.02,.01,0,.02,.02,.02,.03-.33,1.01-.43,2.11-.27,3.17,0,.01,0,.02-.02,.03Z"/><path class="cls-31" d="M75.81,87.8s0,.01,0,.02h0s0,.01,0,.02h0s-.02,0-.02,0c0,0,0,0,0,0,0-.01-.02-.03-.03-.04-.49-.74-1.16-1.35-1.94-1.77,.01-.01,.02-.03,.04-.04,.79,.43,1.46,1.04,1.96,1.79,0,0,.01,.02,.02,.03Z"/><path class="cls-31" d="M75.96,85.58h0s-.02,0-.03,0c-.29-.31-.66-.53-1.06-.65l.04-.04c.4,.13,.77,.35,1.05,.66,.01,0,.01,.03,0,.04Z"/><path class="cls-31" d="M76.59,84.99h0s-.02,0-.03,0c-.3-.3-.66-.55-1.05-.72,.01-.01,.03-.03,.04-.04,.39,.17,.75,.42,1.05,.72,.01,0,.01,.03,0,.04Z"/><path class="cls-31" d="M77.22,84.4h-.01s-.02,0-.03,0c-.35-.28-.74-.51-1.15-.69,.01-.01,.03-.03,.04-.04,.41,.18,.79,.41,1.14,.69,.01,0,.01,.03,0,.04Z"/></g><path class="cls-33" d="M75.89,80.02l1.25,2.54s.94,.46,2.01-.09c.72-.37,.85-.87,.85-.87l-1.65-2.74-2.46,1.15Z"/></g><g><g><path class="cls-42" d="M76.35,89.2s0,.05-.02,.07c-.01,.04-.03,.08-.04,.12-.2,.46-2.14,.86-2.99,.8-.85-.06-4.06,.26-5.12,.38-.98,.11-3.04-.14-3.37-.83-.01-.02-.02-.05-.03-.07,0-.03-.02-.06-.02-.1-.06-.82,1.49-1.52,2.49-1.93,.1-.04,.24-.1,.39-.17,.02,0,.03-.02,.05-.03,.38-.17,.9-.4,1.44-.65,.02,0,.04-.02,.06-.03,.28-.13,.56-.26,.84-.39,.02,0,.04-.02,.05-.03,.24-.11,.47-.22,.7-.33,.02,0,.04-.02,.06-.03,.85-.39,1.49-.7,1.49-.7l3.21-.03s1.03,2.78,.79,3.93Z"/><path class="cls-31" d="M76.35,89.2s0,.05-.02,.07c-1.07,.38-2.2,.45-3.31,.53-1.22,.08-2.43,.16-3.65,.25-.13,0-.27,.02-.4,.03h0s-.03,0-.04,0c-.46,.03-.93,.05-1.41,.05-.9,0-1.83-.08-2.7-.38-.01-.02-.02-.05-.03-.07,1.33,.46,2.79,.42,4.13,.34,.02,0,.04,0,.06,0,.14,0,.27-.02,.4-.03,1.21-.08,2.43-.16,3.65-.25,.46-.03,.92-.06,1.38-.12,.02,0,.03,0,.05,0,.65-.07,1.29-.19,1.9-.41Z"/><path class="cls-31" d="M74.43,89.63h0s-.03-.02-.02-.03c.26-1.13,.78-2.2,1.51-3.1,.01-.01,.03-.01,.04,0,.01,.01,.01,.03,0,.04-.73,.89-1.25,1.95-1.5,3.08,0,.01-.01,.02-.03,.02Z"/><path class="cls-31" d="M68.98,90.04s0,.02,0,.02h0s0,.01-.02,.01h0s-.02,0-.02-.01c0,0,0,0,0,0,0-.02,0-.03-.01-.05-.21-.94-.64-1.81-1.26-2.54,.02,0,.03-.02,.05-.03,.62,.74,1.06,1.61,1.27,2.56,0,.01,0,.03,0,.04Z"/><path class="cls-31" d="M69.99,87.88h0s-.02,0-.03-.02c-.17-.42-.45-.79-.81-1.07,.02,0,.04-.02,.06-.03,.36,.28,.63,.65,.8,1.07,0,.01,0,.03-.02,.04Z"/><path class="cls-31" d="M70.86,87.52h-.01s-.02,0-.03-.01c-.19-.42-.45-.81-.78-1.13,.02,0,.04-.02,.05-.03,.32,.32,.59,.71,.77,1.13,0,.01,0,.03-.02,.04Z"/><path class="cls-31" d="M71.72,87.18s0,0-.01,0c0,0-.02,0-.03-.02-.25-.42-.54-.8-.88-1.14,.02,0,.04-.02,.06-.03,.34,.34,.63,.72,.88,1.14,0,.01,0,.03-.01,.04Z"/></g><path class="cls-33" d="M72.08,82.26l.27,3.04s.76,.83,2.05,.69c.87-.09,1.19-.55,1.19-.55l-.59-3.39-2.92,.2Z"/></g><path class="cls-37" d="M96.76,62.65s-1.05,6.06-3.51,7.18-6.67,.18-10.41,.12c-3.74-.06-7.84,.06-7.84,.06,0,0,.82,7.31,.41,12.28l-3.98,.35s-.88-5.21-1.29-7.49c-.41-2.28-2.22-7.72-.12-9.3,2.11-1.58,14.1-3.63,14.1-3.63l5.67-2.57,6.96,3Z"/><path class="cls-37" d="M84.44,62.15s-6.87,.9-7.52,1.01c-1.26,.21-2.52,.47-3.76,.78-1.07,.27-2.34,.51-3.04,1.46-.7,.96-.65,2.3-.35,3.39,.51,1.83,6.41,12.75,6.41,12.75l3.3-2.07s-1.83-7.06-2.18-8.07c-.35-1.01-.62-1.99-.62-1.99l7.49-.08,.27-7.18Z"/><path class="cls-5" d="M75.24,69.93c1.34,3.24,2.56,6.53,3.64,9.87"/><g><path class="cls-6" d="M75.41,82.29s.32-3.71,.35-5.29-.56-7.14-.56-7.14c0,0,1.58,.15,4.94,.06"/><g><path class="cls-6" d="M74.13,69.01c.42,.17,.79,.47,1.06,.84"/><path class="cls-6" d="M75.25,69.86c.09-.39,.09-.81-.01-1.2"/></g><path class="cls-6" d="M69.77,66.09s.97-1.23,4.01-1.73c3.04-.5,10.67-2.21,10.67-2.21l3.84-1.76"/><path class="cls-5" d="M74.8,82.43c.13-3.54-.11-7.09-.71-10.58-.15-.88-.3-1.85,.17-2.6,.36-.57,1.03-.88,1.69-.98,.66-.1,1.34-.02,2.01,.05,3.74,.37,7.53,.23,11.24-.41,.95-.17,1.93-.38,2.73-.91,1.66-1.1,2.2-3.25,2.61-5.19"/><path class="cls-5" d="M92.34,60.8c-.37,1.69-.09,3.51,.77,5.01"/></g></g><g><path class="cls-33" d="M88.81,58.4l-5.69,3.39s-3.35,.08-4.17,.39c-.82,.31-3.82,.82-3.86,1.17-.04,.35,.08,.47,.08,.47,0,0-.06,.43,.21,.86,.27,.43,1.42,.04,1.42,.04,0,0-.16,.35,.19,.43,.35,.08,2.14-.35,2.57-.39s3.04,.16,3.7-.39c.66-.55,7.37-3.43,7.37-3.43l-1.83-2.53Z"/><path class="cls-5" d="M75.16,63.82s2.28-.67,3.51-.94"/><line class="cls-5" x1="75.23" y1="64.39" x2="78.83" y2="63.59"/><line class="cls-5" x1="76.8" y1="64.72" x2="78.94" y2="64.15"/></g><path class="cls-34" d="M95.44,47.13s-1.83,4.45-2.77,5.65c-.94,1.21-4.87,5.62-4.87,5.62l3.04,3.35s2.57-1.01,4.56-3.39c1.99-2.38,5.77-6.9,6.12-8.42,.35-1.52,1.33-4.68-.9-5.97s-5.19,3.16-5.19,3.16Z"/><g><path class="cls-27" d="M99.92,52.77c-1.27,3.23-2.96,6.3-5.02,9.09"/><g><path class="cls-4" d="M90.84,61.76s1.07-.32,3.12-2.05c2.05-1.73,6.43-7.49,6.7-8.13"/><path class="cls-4" d="M99.14,53.76c.48-.26,.93-.57,1.33-.93"/></g><path class="cls-4" d="M95.14,42.45s1.2,.74,1.61,2.09l5.17-3.1"/><path class="cls-4" d="M96.41,43.8s-.82,.62-1.01,1.15"/><path class="cls-4" d="M99.34,43c.95,.5,1.72,1.33,2.15,2.32,.43,.98,.52,2.11,.25,3.15"/><path class="cls-4" d="M87.79,58.4s2.73-3,4.17-4.74c1.44-1.74,2.53-3.78,2.89-4.78,.35-.99,1.23-3.12,1.23-3.12"/><path class="cls-4" d="M89.12,56.97c1.49,.88,2.7,2.23,3.4,3.82"/></g></g></g><g><g><line class="cls-25" x1="80.11" y1="72.17" x2="75.74" y2="91.28"/><line class="cls-25" x1="94.77" y1="72.71" x2="98.05" y2="90.5"/><line class="cls-25" x1="96.8" y1="72.71" x2="100.31" y2="88.24"/></g><g><path class="cls-41" d="M105.46,48.89c-.31,3.98-5.09,17.32-6.05,17.9-.25,.15-.79,.17-1.38,.08-.04,0-.08-.01-.11-.02-1.02-.18-2.13-.69-2.06-1.39,.1-1,5.98-16.29,7.38-19.93,.15-.38,.56-.58,.92-.49,.04,.01,.08,.02,.11,.04,.07,.03,.14,.07,.21,.13,.56,.49,1.13,1.53,.96,3.68Z"/><rect class="cls-41" x="76.99" y="69.92" width="21.25" height="3.24" rx="1.39" ry="1.39" transform="translate(1.47 -1.76) rotate(1.16)"/><line class="cls-10" x1="97.49" y1="65.97" x2="96.18" y2="70.76"/><g><line class="cls-7" x1="77.07" y1="72.01" x2="98.09" y2="72.52"/><path class="cls-42" d="M104.29,45.08c0,2.67-.73,5.32-1.56,8.01-1.44,4.7-3.02,9.34-4.69,13.77-.04,0-.08-.01-.11-.02,1.67-4.44,3.25-9.08,4.7-13.79,.83-2.7,1.56-5.34,1.55-8.02,.04,.01,.08,.02,.11,.04Z"/></g></g></g></g><g><g><g><path class="cls-33" d="M73.02,40.98c-.07,.13-.41,.75-.39,.89l.42,1.89s-4.71,1.28-4.71,1.28l-.62-1.46-.35-.84s0-.02,0-.02h0c-.07,.04-1.46,.69-2.2,.45-.32-.1-.43-.47-.53-.75-.11-.28-.16-.62-.22-.93,0-.02,0-.05-.01-.07-.01-.08-.03-.15-.04-.22,0-.04-.01-.08-.02-.12,0-.02,0-.03,0-.05,0-.02-.01-.04-.01-.06,0-.02,0-.04,0-.05-.03-.25-.07-.53-.14-.68-.03-.07-.65-.35-.87-.86-.21-.51,.38-.81,.68-1.42,.48-.97,.14-2.04,.35-3.08,.15-.78,.55-1.5,1.15-2.04,1.29-1.17,3.45-1.4,5.03-.72,.1,.05,.21,.09,.31,.14,2.46,1.26,3.65,3.96,2.96,6.54-.19,.71-.43,1.52-.78,2.17Z"/><g><path class="cls-41" d="M64.44,38.04c-.02,.18,.08,.34,.22,.35,.14,.02,.27-.12,.29-.29,.02-.18-.08-.34-.22-.35-.14-.02-.27,.12-.29,.29Z"/><path class="cls-41" d="M64.31,39.8l.2,.21c.08,0,.13-.13,.14-.23,0,0,.01-.02,.02-.02,.01,0,.02,0,.02,.02,0,.06-.01,.11-.03,.17-.02,.05-.06,.12-.14,.13h-.01s-.03,0-.04,0l-.16-.17-.02,.09s-.03,.04-.05,.03c-.02,0-.03-.02-.03-.03,0,0,0-.01,0-.02l.04-.17s.02-.03,.03-.03c.02,0,.03,0,.04,.01Z"/><path class="cls-37" d="M64.75,37.47c.14,.04,.29,.05,.44,.09,.12,.03,.27,.08,.36-.02,.07-.08,.04-.2-.02-.29-.16-.28-.56-.54-.9-.47-.46,.09-.21,.59,.12,.69Z"/></g><g><path class="cls-37" d="M64.72,31.96s-1.39,.89-1.2,2.26c.2,1.37,1.39,2.51,2.79,2.79,0,0,1.64,1.84,2.12,2.7,.47,.86,1.67,2.4,3.62,2.17,1.95-.22,2.82-2.22,2.86-4.92,.04-2.61-1.36-3.49-1.77-4.5-.42-1-2.76-2.62-4.76-2.12-2.01,.5-3.65,1.62-3.65,1.62Z"/><path class="cls-37" d="M71.42,32.23c-.23,.64-.15,1.39,.22,1.96,.2,.31,.48,.57,.68,.88,.27,.44,.39,.98,.75,1.35,.29,.3,.71,.45,1.13,.44,.57-.01,1.1-.31,1.55-.65,.42-.32,.81-.69,1.03-1.17,.21-.45,.26-.96,.25-1.46-.01-.6-.12-1.22-.46-1.71-.36-.54-.97-.88-1.6-1.01-.43-.09-.87-.08-1.3-.04-.27,.03-.56,0-.83,.06-.64,.13-1.2,.75-1.42,1.34Z"/></g><path class="cls-48" d="M69.26,41.52c-.04,.09-.75,1.51-1.53,2.07l-.35-.84s0-.02,0-.02c0,0,1.57-.85,1.89-1.21Z"/><g><path class="cls-33" d="M66.7,38.53s.38-2.08,1.37-1.76c.99,.32,1.09,1.95,.91,2.46-.18,.51-.95,1.35-1.48,1.14-.53-.2-.8-1.84-.8-1.84Z"/><g><path class="cls-26" d="M67.67,37.7c.38,.31,.62,.8,.64,1.29"/><path class="cls-26" d="M68,38.1c-.22,.3-.35,.66-.37,1.03"/></g></g><path class="cls-37" d="M66.26,39.04c.04,.15,.14,.33,.28,.28,.08-.03,.12-.14,.14-.23l.38-1.55c.07-.28,.14-.57,.07-.85-.08-.3-.33-.54-.61-.57-.19-.02-.49,.07-.58,.29-.07,.16,0,.41,.02,.58,.04,.7,.11,1.38,.31,2.05Z"/></g><g><path class="cls-38" d="M67.84,43.83s1.7-1.42,4.79-1.5c0,0,.78,.59,.95,1.17,.17,.59,2.42,1.78,3.37,5.52,.95,3.73,.33,5.71-.5,9.75l-1.62,5.07-10.31-.78s.22-5.07,.14-5.6c-.08-.53-2.15-2.9-.59-5.82,1.56-2.93,3.12-5.13,3.12-5.13,0,0,1-1.39,1-1.64s-.5-.78-.36-1.03Z"/><g><path class="cls-26" d="M68.19,44.87c.85-.49,1.8-.81,2.77-.93"/><path class="cls-26" d="M72.25,43.67c.43-.11,.87-.16,1.31-.17"/></g></g><g><g><g><path class="cls-33" d="M55.91,87.8l.21,2.06s.73,.37,1.85,.17c1.01-.17,1.05-.63,1.05-.63l-.31-2.06-2.8,.45Z"/><g><path class="cls-36" d="M60.34,93.3c0,.21-.02,.37-.08,.45-.2,.27-.72,.28-1.02,.3-1.6,.12-3.21-.02-4.8-.23-1.03-.13-2.03-.25-3.02-.57-.44-.14-1.6-.48-1.64-1.1,0-.02,0-.05,0-.07,0,0,0-.01,0-.02,.1-.98,1.81-1.3,2.41-1.35,.17-.01,.39-.05,.64-.1l.08-.02c.33-.07,.71-.17,1.09-.28,.02,0,.04-.01,.06-.02,.3-.09,.61-.18,.89-.27l.06-.02h0c.65-.2,1.13-.36,1.13-.36,0,0,1.36,.32,1.47,.32s.88-.63,1.43-.74,.66,.88,.73,1.26c.02,.12,.1,.43,.2,.82,0,.02,.01,.04,.01,.06,.15,.6,.32,1.37,.34,1.88,0,.02,0,.03,0,.05Z"/><path class="cls-31" d="M60.34,93.3c-1.04,.23-2.16,.34-3.39,.34-1.15,0-2.39-.1-3.76-.29-1.23-.17-2.48-.44-3.4-1.19,0-.02,0-.05,0-.07,.63,.53,1.42,.82,2.26,1.01,.02,0,.03,0,.05,.01,.36,.08,.73,.14,1.1,.19,1.94,.28,3.63,.36,5.14,.24,.02,0,.03,0,.05,0,.68-.05,1.33-.15,1.95-.28,0,.02,0,.03,0,.05Z"/><path class="cls-31" d="M60.01,91.37c-.19-.05-.4-.03-.6,.04-.35,.14-.65,.47-.82,.9-.15,.39-.18,.81-.2,1.22,0,.01,0,.02,0,.03h-.05s0-.02,0-.02c.02-.41,.05-.84,.2-1.24,.17-.45,.48-.79,.85-.93,.2-.08,.41-.09,.6-.05,0,.02,.01,.04,.01,.06Z"/><path class="cls-31" d="M52.1,93.1h-.05c-.05-.9,.24-1.79,.8-2.49l.08-.02c-.58,.69-.88,1.6-.82,2.5Z"/><path class="cls-31" d="M54,91.37v.05h-.05c-.07-.36-.04-.74,.07-1.09,.02,0,.04-.01,.06-.02-.11,.34-.14,.71-.08,1.06h0Z"/><path class="cls-31" d="M54.95,91.07v.05h-.05c-.07-.35-.05-.73,.07-1.08l.06-.02c-.11,.34-.14,.7-.08,1.05h0Z"/></g></g><polygon class="cls-40" points="48.98 73.25 55.5 87.93 59.2 87.35 56.56 74.31 48.98 73.25"/><path class="cls-2" d="M52.1,74.11c1.83,4.51,3.48,8.97,5.31,13.49"/></g><g><path class="cls-33" d="M48.05,89.33l.22,2.19s.77,.39,1.97,.19c1.08-.19,1.11-.67,1.11-.67l-.33-2.19-2.97,.48Z"/><g><path class="cls-42" d="M52.76,95.17c0,.22-.02,.39-.08,.48-.22,.29-.76,.3-1.08,.32-1.7,.12-3.41-.02-5.1-.24-1.09-.14-2.16-.27-3.21-.61-.47-.15-1.7-.51-1.74-1.17,0-.02,0-.05,0-.07,0,0,0-.01,0-.02,.11-1.04,1.92-1.38,2.56-1.43,.18-.02,.41-.05,.68-.11l.09-.02c.36-.08,.76-.19,1.16-.3,.02,0,.04-.01,.06-.02,.32-.09,.65-.19,.94-.28l.06-.02h0c.69-.21,1.2-.39,1.2-.39,0,0,1.45,.34,1.56,.34s.93-.67,1.52-.78c.59-.11,.7,.93,.78,1.34,.02,.12,.11,.46,.21,.87,0,.02,.01,.04,.02,.06,.15,.64,.34,1.45,.36,2,0,.02,0,.04,0,.05Z"/><path class="cls-31" d="M52.76,95.17c-1.11,.24-2.3,.36-3.6,.36-1.22,0-2.54-.1-4-.31-1.31-.18-2.64-.47-3.61-1.27,0-.02,0-.05,0-.07,.67,.56,1.51,.87,2.4,1.07,.02,0,.04,0,.06,.01,.38,.09,.77,.15,1.17,.2,2.06,.29,3.85,.38,5.46,.25,.02,0,.04,0,.05,0,.72-.05,1.41-.15,2.07-.3,0,.02,0,.04,0,.05Z"/><path class="cls-31" d="M52.4,93.12c-.21-.05-.43-.04-.64,.04-.38,.15-.69,.5-.87,.96-.16,.41-.19,.86-.21,1.29,0,.01,0,.02,0,.03h-.05s0-.02,0-.03c.02-.43,.05-.89,.22-1.32,.18-.48,.51-.84,.9-.99,.21-.08,.43-.1,.64-.05,0,.02,.01,.04,.02,.06Z"/><path class="cls-31" d="M44,94.97h0l-.05,.02v-.03c-.06-.94,.26-1.89,.84-2.63l.09-.02c-.61,.74-.94,1.7-.88,2.66Z"/><path class="cls-31" d="M46.02,93.12v.05h-.05c-.07-.38-.05-.79,.07-1.16,.02,0,.04-.01,.06-.02-.12,.36-.15,.76-.09,1.13h0Z"/><path class="cls-31" d="M47.02,92.81v.05h-.05c-.07-.38-.05-.78,.07-1.15l.06-.02c-.12,.36-.15,.75-.09,1.12h0Z"/></g></g><path class="cls-40" d="M74.83,63.83s.28,8.53-2.01,10.7c-2.28,2.17-11.03,1.56-11.53,.5-.5-1.06,3.23-11.98,3.23-11.98l10.31,.78Z"/><path class="cls-40" d="M64.69,64.78s-10.92,1.78-13.6,2.4c-2.67,.61-6.58,.5-7.24,4.12s3.9,18.44,3.9,18.44l3.73-.67-1.82-15.55s11.03,2.92,17.48,2.41c4.84-.38,6.02-1.75,6.02-1.75l.45-7.19-8.92-2.23Z"/><g><path class="cls-2" d="M51.5,89.06l-1.85-15.66s6.84,2.19,14.38,2.45"/><path class="cls-2" d="M63.89,64.91l1.78-.33"/><path class="cls-2" d="M48.57,72.73c.38,.17,.74,.39,1.07,.65-.03-.34-.11-.67-.23-.99"/><path class="cls-2" d="M64.23,63.96c3.53,.39,7.08,.58,10.64,.57"/><path class="cls-2" d="M49.93,89.31c-1.11-4.98-1.9-9.84-2.5-14.91-.1-.82-.17-1.72,.3-2.4,.43-.63,1.24-.91,2.01-.9,.76,0,1.5,.24,2.24,.46,2.99,.88,6.09,1.38,9.2,1.48,1.54,.05,3.18-.03,4.47-.87,1.2-.79,1.92-2.14,2.24-3.54,.32-1.39,.28-2.84,.24-4.27"/><path class="cls-2" d="M66.05,64.19c-.22,.85-.16,1.77,.18,2.59,.33,.81,.87,1.48,1.62,1.94"/></g></g><g><g><path class="cls-33" d="M65.18,58.52l-.46-.57-2.31,.75-2.34,2.9s-.36,1.31-.36,1.81,.45,2.87,.84,2.93,1.92,0,2.06-.56c.1-.4,.27-1.84,.36-2.63,.02,.27,.06,.53,.13,.75,.02,.05,.04,.11,.08,.14,.07,.06,.18,.04,.25-.03,.07-.06,.11-.15,.14-.24,.19-.54,.29-1.1,.35-1.67,.03-.34,.11-.78,.11-1.18,.45-.86,1.15-2.41,1.15-2.41Z"/><path class="cls-46" d="M65.18,58.52l-.46-.57-2.31,.75-2.34,2.9s-.36,1.31-.36,1.81,.45,2.87,.84,2.93,1.92,0,2.06-.56c.1-.4,.27-1.84,.36-2.63,.02,.27,.06,.53,.13,.75,.02,.05,.04,.11,.08,.14,.07,.06,.18,.04,.25-.03,.07-.06,.11-.15,.14-.24,.19-.54,.29-1.1,.35-1.67,.03-.34,.11-.78,.11-1.18,.45-.86,1.15-2.41,1.15-2.41Z"/><g><path class="cls-16" d="M62.17,62.29s-.31,1.22-.29,1.76c.02,.54,.07,2.16,.07,2.16"/><path class="cls-16" d="M61.25,62.37s-.24,1.5-.22,1.85c.01,.35,.25,2.13,.25,2.13"/><path class="cls-16" d="M60.29,62.79s-.08,1.24,0,1.78c.08,.54,.45,1.77,.45,1.77"/></g></g><g><path class="cls-33" d="M66.54,39.32c-.38-.16-.59,.21-.59,.21,0,0,.06-.53-.25-.53s-.47,.39-.47,.39c0,0,.06-.56-.33-.5-.39,.06-.89,2.09-.89,2.09,0,0,.06-.89-.2-.95-.25-.06-.81,1.73-.86,2.23-.06,.5-.59,1.59-.75,2.73-.17,1.14-.09,2.92-.09,2.92,0,0-2.04,5.13-3.01,8.21-.97,3.08-.67,5.31-.67,5.31,0,0,2.04,1.08,3.9-.26s1.82-12.63,1.82-12.63c0,0,.89-.93,1.53-1.82,.64-.89,.42-1.59,.42-2.03s.28-2.65,.31-3.09c.03-.45,.53-2.12,.15-2.27Z"/><g><path class="cls-33" d="M62.43,54.3s-4.09,4.87-4.05,6.65c.04,1.78,1.3,2.49,2.6,1.89,1.3-.59,5.2-4.9,5.2-4.9l-3.75-3.64Z"/><path class="cls-47" d="M66.54,39.32c-.38-.16-.59,.21-.59,.21,0,0,.06-.53-.25-.53s-.47,.39-.47,.39c0,0,.06-.56-.33-.5-.39,.06-.89,2.09-.89,2.09,0,0,.06-.89-.2-.95-.25-.06-.81,1.73-.86,2.23-.06,.5-.59,1.59-.75,2.73-.17,1.14-.09,2.92-.09,2.92,0,0-2.04,5.13-3.01,8.21-.97,3.08-.67,5.31-.67,5.31,0,0,2.04,1.08,3.9-.26s1.82-12.63,1.82-12.63c0,0,.89-.93,1.53-1.82,.64-.89,.42-1.59,.42-2.03s.28-2.65,.31-3.09c.03-.45,.53-2.12,.15-2.27Z"/><line class="cls-16" x1="62.24" y1="54.27" x2="59.54" y2="58.54"/><g><path class="cls-38" d="M62.24,54.27s3.31-7.58,4.96-7.76c1.65-.19,2.84,3.71,2.25,5.98s-3.12,6.09-3.12,6.09l-4.09-4.31Z"/><g><g><path class="cls-26" d="M67.2,46.5s1.87,.03,2.17,3.12"/><line class="cls-26" x1="62.57" y1="53.66" x2="66.31" y2="57.2"/></g><line class="cls-26" x1="66" y1="58.23" x2="68.84" y2="54.67"/><line class="cls-26" x1="67.53" y1="56.39" x2="68.96" y2="55.53"/><path class="cls-26" d="M68.67,55.7c.08,2.51,.07,5.02,0,7.52"/></g></g><g><path class="cls-16" d="M63.98,40.96s-.5,1.76-.63,2.7"/><path class="cls-16" d="M65.22,39.4s-.81,2.7-1.07,4.32"/><path class="cls-16" d="M65.96,39.48s-.81,3.4-.98,4.28"/></g></g></g></g></g><g><g><path class="cls-41" d="M80.18,52.46c.08,6.53-1.89,12.72-4.14,18.78-.19,.51-.66,.86-1.21,.89l-1.38,.08-8.1,.49-.76,.05c-.38,.02-.72-.11-.98-.33-.03-.03-.06-.06-.09-.09-.3-.31-.45-.76-.36-1.23,.57-2.77,1.18-5.53,1.83-8.27,1.09-4.56,2.14-9.7,5.3-13.31,.16-.19,.33-.37,.51-.55,.47-.48,.99-.93,1.55-1.34,1.22-.89,2.75-1.45,4.25-1.21,2.84,.46,3.55,3.61,3.58,6.05Z"/><line class="cls-21" x1="65.64" y1="71.47" x2="64.58" y2="76.04"/><line class="cls-21" x1="73.83" y1="70.57" x2="72.77" y2="75.14"/><path class="cls-41" d="M73.87,75.66l-.29,1.32c-.01,.05-.03,.1-.04,.15-.01,.04-.03,.07-.05,.11-.19,.39-.58,.67-1.03,.69l-.45,.03-10.85,.7-.67,.04-12.7-3.03s-.07-.02-.11-.03c-.54-.17-.94-.62-1.05-1.15,0-.04-.02-.08-.02-.12-.02-.11-.02-.23,0-.35l.02-.15c.1-.9,.98-1.53,1.88-1.33l12.56,2.7,3.73-.14,8.06-.31h.28c.48-.03,.84,.4,.74,.86Z"/><g><path class="cls-24" d="M48.09,74.81s-5.35,10.59-6.58,20.45"/><line class="cls-24" x1="61.24" y1="77.93" x2="59.23" y2="98.33"/><line class="cls-24" x1="71.94" y1="77.6" x2="75.73" y2="95.93"/></g></g><path class="cls-42" d="M70.8,48.97c-1.24,1.74-2.65,4.31-3.6,7.86-1.81,6.72-3.23,13.77-3.59,15.59-.03-.03-.06-.06-.09-.09,.38-1.92,1.79-8.89,3.58-15.53,.85-3.17,2.06-5.56,3.2-7.28,.16-.19,.33-.37,.51-.55Z"/><path class="cls-42" d="M73.54,77.13s-.03,.07-.05,.11l-12.58,.63h-.02l-12.82-3.03-1.43-.34s-.02-.08-.02-.12l14.29,3.38,12.63-.64Z"/></g></g><g><g><path class="cls-42" d="M7.28,60.2l-1.66,5.05S.67,59.97,.94,54.47c0-.04,0-.09,0-.14,0-.04,0-.07,0-.11,.43-5.59,2.47-11.29,2.47-11.29l3.86,17.27Z"/><g><g><g><polygon class="cls-38" points="20.53 87.49 20.94 90.69 23.67 90.6 23.88 87.46 20.53 87.49"/><g><path class="cls-43" d="M30.08,93.79c-.01,.07-.03,.14-.05,.21-.01,.04-.03,.08-.04,.12-.16,.4-.52,.69-1.65,.77-1.42,.1-1.99,.24-3.09,.39-.91,.13-4.37,.73-4.59-.12v-.02s-.02-.07-.03-.11c-.1-.58-.08-1.93-.05-3.01,0-.04,0-.08,0-.12,.02-.81,.06-1.44,.06-1.44,0,0,.04-.24,.22-.41,.14-.14,.38-.22,.75-.03,.64,.32,1.15,.55,1.44,.59h0c.07,.01,.13,.01,.17,0h0c.22-.08,.12-.54,.45-.54,0,0,.01,0,.02,0,.17,.03,.59,.32,1.19,.67,.08,.04,.16,.09,.24,.14h0c.29,.16,.61,.33,.96,.49,.04,.02,.08,.04,.12,.05,.27,.12,.56,.23,.87,.32,.09,.03,.18,.05,.27,.08,.01,0,.03,0,.04,.01,1.98,.51,2.8,1.38,2.68,1.95Z"/><path class="cls-31" d="M30.02,94s-.03,.08-.04,.12c-2.76,.78-5.61,1.13-8.47,1.06-.29,0-.57-.02-.86-.03,0-.03-.02-.07-.02-.11,2.55,.15,5.09-.05,7.58-.59h0s.04,0,.06-.01c.59-.13,1.17-.27,1.75-.44Z"/><path class="cls-31" d="M22.83,95.06h-.11c.01-.69-.11-1.38-.36-2.02-.13-.33-.26-.56-.42-.75-.2-.23-.46-.38-.71-.41-.22-.03-.46,.03-.66,.15,0-.04,0-.08,0-.12,.21-.12,.45-.17,.67-.14,.28,.04,.56,.2,.78,.45,.17,.19,.31,.44,.44,.78,.25,.65,.37,1.36,.36,2.06Z"/><path class="cls-31" d="M28.27,94.43v.02h-.06l-.05-.02c.19-1-.25-2.09-1.07-2.69,.09,.03,.18,.05,.27,.08,.72,.64,1.08,1.66,.91,2.61Z"/><path class="cls-31" d="M25.39,91.7s-.02,.06-.05,.06h0s-.05-.02-.05-.05c-.02-.35-.16-.69-.39-.95,.08,.04,.16,.09,.24,.14h0c.15,.24,.24,.52,.26,.81Z"/><path class="cls-31" d="M26.27,91.72s-.02,.05-.05,.06h0s-.05-.02-.05-.05c0-.12-.03-.24-.06-.35,.04,.02,.08,.04,.12,.05,.03,.1,.04,.2,.04,.29Z"/></g></g><path class="cls-35" d="M18.15,72.04s-.12,11.07,1.96,17.59l4.34-.25,1.69-18.21-7.99,.87Z"/></g><g><polygon class="cls-38" points="26.53 87.7 26.94 90.9 29.67 90.8 29.88 87.67 26.53 87.7"/><g><path class="cls-37" d="M36.08,93.99c-.01,.07-.03,.14-.05,.21-.01,.04-.03,.08-.04,.12-.16,.4-.52,.69-1.65,.77-1.42,.1-1.99,.24-3.09,.39-.91,.13-4.37,.73-4.59-.12v-.02s-.02-.07-.03-.11c-.1-.58-.08-1.93-.05-3.01,0-.04,0-.08,0-.12,.02-.81,.06-1.44,.06-1.44,0,0,.04-.24,.22-.41,.14-.14,.38-.22,.75-.03,.64,.32,1.15,.55,1.44,.59h0c.07,.01,.13,.01,.17,0h0c.22-.08,.12-.54,.45-.54,0,0,.01,0,.02,0,.17,.03,.59,.32,1.19,.67,.08,.04,.16,.09,.24,.14h0c.29,.16,.61,.33,.96,.49,.04,.02,.08,.04,.12,.05,.27,.12,.56,.23,.87,.32,.09,.03,.18,.05,.27,.08,.01,0,.03,0,.04,.01,1.98,.51,2.8,1.38,2.68,1.95Z"/><path class="cls-31" d="M36.03,94.21s-.03,.08-.04,.12c-2.76,.78-5.61,1.13-8.47,1.06-.29,0-.57-.02-.86-.03,0-.03-.02-.07-.02-.11,2.55,.15,5.09-.05,7.58-.59h0s.04,0,.06-.01c.59-.13,1.17-.27,1.75-.44Z"/><path class="cls-31" d="M28.83,95.27h-.11c.01-.69-.11-1.38-.36-2.02-.13-.33-.26-.56-.42-.75-.2-.23-.46-.38-.71-.41-.22-.03-.46,.03-.66,.15,0-.04,0-.08,0-.12,.21-.12,.45-.17,.67-.14,.28,.04,.56,.2,.78,.45,.17,.19,.31,.44,.44,.78,.25,.65,.37,1.36,.36,2.06Z"/><path class="cls-31" d="M34.27,94.64v.02h-.06l-.05-.02c.19-1-.25-2.09-1.07-2.69,.09,.03,.18,.05,.27,.08,.72,.64,1.08,1.66,.91,2.61Z"/><path class="cls-31" d="M31.39,91.91s-.02,.06-.05,.06h0s-.05-.02-.05-.05c-.02-.35-.16-.69-.39-.95,.08,.04,.16,.09,.24,.14h0c.15,.24,.24,.52,.26,.81Z"/><path class="cls-31" d="M32.27,91.93s-.02,.05-.05,.06h0s-.05-.02-.05-.05c0-.12-.03-.24-.06-.35,.04,.02,.08,.04,.12,.05,.03,.1,.04,.2,.04,.29Z"/></g></g><path class="cls-35" d="M30.27,88.79l-4.15,.26c-2.66-10.03-1.11-16.49-1.11-16.49,0,0-.36-.06-3.29,.74-2.93,.8-8.82,.58-10.78,.67-.04,0-.08,0-.12,0-.04,0-.09,0-.13,0-1.43,.06-3.06,.04-4.51-1.41-.03-.02-.05-.05-.08-.08-.46-.49-.91-1.12-1.33-1.95-.75-1.51-.73-3.48-.45-5.26,0-.04,.01-.07,.02-.11,.4-2.41,1.26-4.43,1.26-4.43l10.27-.4,3.11,2.84s8.32,1.83,10.84,2.73c2.49,.88,3.04,1.55,3.17,4.83,.14,3.28-2.71,18.05-2.71,18.05Z"/><g><path class="cls-18" d="M4.95,62.26c4.11,1.23,8.64,.99,12.6-.66"/><path class="cls-41" d="M10.81,73.98s-.09,0-.13,0c-2.21-2.58-3.22-6.19-2.65-9.54,0-.03,.03-.05,.06-.04,.03,0,.05,.03,.04,.06-.57,3.35,.45,6.95,2.68,9.52Z"/><path class="cls-41" d="M7.12,65.54s-.02-.05-.05-.05l-2.74-.31s-.01,.07-.02,.11l2.7,.31,.3,5.15-1.23,1.75s.05,.05,.08,.08l1.25-1.78s0-.02,0-.03l-.31-5.21Z"/><path class="cls-41" d="M15.77,70.05l-.71-5s-.03-.05-.06-.05l-5.66,.73s-.03,0-.04,.02c0,.01-.01,.03,0,.04l.88,5.44s.01,.03,.03,.04l3.2,1.61s.01,0,.02,0c.02,0,.03,0,.04-.02l2.29-2.78s.02-.03,.01-.04Zm-2.36,2.72l-3.13-1.58-.87-5.36,5.55-.72,.7,4.93-2.25,2.73Z"/><g><path class="cls-18" d="M21.29,73.61c-.43,5.26-.35,10.56,.26,15.8"/><g><path class="cls-18" d="M18.14,73.82l6.6-.49s-.53,6.53,.15,10.08c.67,3.55,1.24,5.63,1.24,5.63"/><path class="cls-18" d="M25.26,71.79l-.55,1.55c.53-.05,1.02-.08,1.55-.13"/><path class="cls-17" d="M18.06,62.24c.37,1.11,.3,2.3,.43,3.46,.12,1.16,.5,2.39,1.47,3.05,.64,.44,1.45,.55,2.22,.65l3.76,.49c.7,.09,1.44,.19,2.01,.61,1.05,.76,1.17,2.25,1.13,3.55-.15,4.95-1.34,9.91-.67,14.81"/></g></g></g></g><g><path class="cls-42" d="M17.97,42.97l-1.82,17.23s-7.27,2.73-10.57,.83c0,0-3.6-16.02-2.16-18.1,1.43-2.07,7.87-3.72,14.55,.04Z"/><path class="cls-42" d="M20.61,64.27c-1.41,.25-3.68-.02-4.74-3.87,0-.02,0-.03-.01-.05-.03-.09-.05-.19-.07-.29-.33-1.44-.41-3.51-.36-5.74,0-.37,.02-.74,.04-1.11,.13-3.2,.5-6.58,.78-8.86,0-.07,.02-.14,.03-.21,.19-1.54,.34-2.53,.34-2.53l1.42,.98,.05,.04s.01,.01,.04,.04c.23,.26,1.52,1.94,2.45,8.21,.32,2.15,.57,4.41,.76,6.42,0,.04,0,.08,.01,.12,.22,2.27,.36,4.23,.43,5.37,.05,.72-.45,1.36-1.16,1.49Z"/><path class="cls-39" d="M8.29,28.02c-.94,1.14-1.41,2.6-1.63,4.05-.15,.96-.21,1.99-.82,2.74-.66,.81-1.85,1.14-2.32,2.08-.47,.94-.02,2.1-.24,3.13-.13,.6-.49,1.13-.83,1.64-.34,.51-.69,1.05-.79,1.66-.1,.61,.1,1.31,.64,1.62,.67,.38,1.51,0,2.28,.05,.94,.05,1.76,.73,2.7,.77,.71,.02,1.37-.32,2.07-.39,.98-.1,1.91,.34,2.86,.58,.76,.19,1.58,.25,2.32-.01,.74-.26,1.38-.9,1.47-1.68,.05-.4-.05-.81,.06-1.2,.18-.63,.81-.99,1.27-1.46,.68-.71,.98-1.77,.76-2.73-.23-1-.98-1.95-.73-2.94,.18-.7,.81-1.18,1.22-1.77,.64-.93,.72-2.22,.18-3.22-.43-.79-1.18-1.37-1.62-2.16-.32-.57-.46-1.24-.88-1.74-.45-.52-1.15-.78-1.83-.82-.59-.04-1.17,.12-1.76,.09-.44-.02-.85-.11-1.3-.06-1.21,.14-2.32,.85-3.09,1.78Z"/><g><path class="cls-41" d="M15.86,60.4s-.05-.02-.05-.05l-.78-12.5s.02-.05,.05-.06c.03,0,.05,.02,.06,.05l.78,12.5s-.02,.05-.05,.06h0Z"/><path class="cls-41" d="M15.32,51.51s-.04-.02-.05-.04l-.67-2.2s0-.06,.04-.07c.03,0,.06,0,.07,.04l.67,2.2s0,.06-.04,.07c0,0-.01,0-.02,0Z"/><path class="cls-41" d="M18.94,64.21s-.04-.01-.05-.03c-.91-1.88-.7-4.27,.52-5.96,.28-.38,.54-.63,.82-.79,.37-.21,.79-.26,1.13-.13,.03,.01,.04,.04,.03,.07-.01,.03-.04,.04-.07,.03-.31-.12-.7-.07-1.04,.12-.27,.16-.52,.4-.79,.76-1.2,1.66-1.41,4.01-.51,5.85,.01,.03,0,.06-.02,.07,0,0-.02,0-.02,0Z"/><path class="cls-41" d="M18.12,42.65c-.74,.41-1.38,.99-1.87,1.68-.27,.39-.5,.81-.67,1.25,0,.02-.03,.04-.05,.04,0,0-.01,0-.02,0-.03,0-.04-.04-.03-.07,.19-.51,.46-.99,.79-1.43,.47-.62,1.07-1.15,1.76-1.54l.05,.04s.01,.01,.04,.04Z"/></g><g><path class="cls-41" d="M5.59,60.97s-.04-.02-.05-.04c-1.43-4.57-2.06-9.32-1.88-14.11,0-.03,.03-.05,.05-.05h0s.05,.03,.05,.06c-.19,4.78,.44,9.51,1.87,14.07,0,.03,0,.06-.04,.07,0,0-.01,0-.02,0Z"/><path class="cls-41" d="M3.79,51.44s-.04-.01-.05-.04c-.33-1.03-.54-2.11-.63-3.19,0-.03,.02-.06,.05-.06,.03,0,.06,.02,.06,.05,.08,1.07,.29,2.14,.62,3.17,0,.03,0,.06-.03,.07,0,0-.01,0-.02,0Z"/><path class="cls-41" d="M2.42,60.23s-.03,.04-.05,.04h-.02s-.04-.04-.03-.07c.39-1.06,.43-2.24,.11-3.33-.27-.92-.8-1.75-1.5-2.39,0-.04,0-.09,0-.14,.75,.67,1.31,1.54,1.59,2.5,.33,1.11,.29,2.31-.11,3.4Z"/></g></g></g><line class="cls-28" x1="9.36" y1="74.29" x2="8.16" y2="91.51"/><g><g><g><line class="cls-22" x1="2.58" y1="68.7" x2="2.81" y2="73.5"/><line class="cls-22" x1="14.87" y1="68.65" x2="15.1" y2="73.45"/></g><g><path class="cls-41" d="M17.61,67.95c.02,.84-.56,1.55-1.34,1.74-.03,0-.07,.02-.11,.02-.08,.02-.16,.02-.24,.03l-15.08,.65c-.94,.04-1.75-.67-1.83-1.61-.24-3-.67-9.5-.42-15.4,.34-8,3.09-11.06,8.18-11.81,2.39-.35,4.47,.3,6.1,1.51h0c.19,.15,.38,.3,.55,.46,1.53,1.34,2.59,3.2,3.04,5.13,.77,3.27,1.06,14.89,1.14,19.3Z"/><path class="cls-42" d="M16.27,69.69s-.07,.02-.11,.02c.34-6.34,.65-12.89-.28-19.28-.31-2.13-.83-4.57-2.23-6.47-.23-.32-.49-.62-.77-.89,.19,.14,.38,.3,.55,.45,.11,.12,.2,.25,.3,.38,1.42,1.93,1.94,4.38,2.25,6.52,.94,6.39,.63,12.93,.29,19.27Z"/></g></g><g><line class="cls-28" x1="2.16" y1="75.66" x2="-1.24" y2="98.03"/><line class="cls-28" x1="16.06" y1="75.26" x2="16.73" y2="98.05"/><line class="cls-28" x1="25.4" y1="74.15" x2="29.09" y2="96.94"/><g><path class="cls-41" d="M26.88,73.95s-.04,.08-.07,.11c-.21,.32-.55,.54-.95,.59l-10.26,1.13-14.14-.1c-.52,0-.99-.23-1.31-.6-.03-.03-.06-.07-.09-.11-.22-.29-.35-.66-.35-1.05v-.05c.03-.97,.83-1.74,1.8-1.72l14.56,.27,9.52-.76c.73-.06,1.36,.49,1.41,1.22l.02,.38c.02,.25-.04,.49-.14,.69Z"/><path class="cls-42" d="M26.88,73.95s-.04,.08-.07,.11l-10.98,1.05-15.69-.03s-.06-.07-.09-.11l15.77,.03,11.05-1.05Z"/></g></g></g></g><g><path class="cls-59" d="M90.62,104.82h-8.63l-17.63-27.73H-7.1l-3.32-5.23-4.04-6.36-.02-.03-.49-.78-1.42-2.23-.12-.2V8.49c-.05,.1,61.66,.07,61.66,.07l.02,.05,.14,.38,.81,2.25,8.18,22.59,.81,2.25v.04l.81,2.2,5.64,10.81,.21,.41,7.91,15.16,.41,.78,.02,.03,3.32,6.36,2.73,5.23,14.47,27.73Z"/><path class="cls-58" d="M126.36,77.09h-50.22l14.47,27.73h-8.63l-17.63-27.73-3.32-5.23-4.04-6.36-.02-.03-.5-.78-1.37-2.15V8.76c-.02,.05,15.67,.09,31.2,.11,.14,0,.27,0,.41,0,15.04,.02,29.78,.03,29.78,.03l.29,.79,.81,2.19,.96,2.59,.07,.18,1.58,4.25,.07,.18,1.61,4.32,.07,.18,.75,2.02,.18,.48,3.47,9.33v41.67Z"/></g><g><g><path class="cls-40" d="M109.3,75.34c.03,.22-.27,.33-.38,.14-.99-1.67-3.1-5.26-4.18-7.23-1.44-2.62-6.55-12.13-4.33-13.83,2.23-1.7,6.16,7.8,7.08,11.21,.71,2.62,1.49,7.57,1.81,9.71Z"/><g><path class="cls-37" d="M93.16,77.59c-.6,2.05,.09,3.6,1.83,2.94,1.74-.66,1.31-4.06,6-5.15,0,0-4.36-.66-7.7,2.16l-.13,.04Z"/><path class="cls-40" d="M109.62,78.45s-.03-.03-.05-.04h0c-2.39-1.68-5.26-2.69-8.17-2.78-.45-.01-.89,0-1.34,.02-2.45,.15-4.86,.89-6.96,2.17-.03,.02-.07,.04-.1,.06,.26-1.21,.9-2.02,1.86-2.8,1.54-1.25,3.48-1.99,5.45-2.12,.31-.02,.61-.03,.92-.02,.61,.02,1.23,.09,1.83,.23,1.68,.39,3.24,1.25,4.49,2.43h0c.85,.8,1.55,1.76,2.05,2.81,0,0,0,.02,.02,.03Z"/></g></g><g><path class="cls-35" d="M-4.61,68.2c1.96-3,4.28-5.8,7.06-7.95,.62-.48,1.28-.93,2-1.12,.72-.19,1.53-.07,1.99,.49,.66,.78,.41,2.08-.01,3.13-1.09,2.69-3.1,4.9-5.18,6.88-1.77,1.69-3.63,3.26-5.57,4.71-.98,.73-1.97,1.43-2.99,2.1-.72,.48-1.97,1.58-2.77,1.66,.09-.53,.58-1.16,.83-1.64,.48-.94,.96-1.88,1.46-2.81,.99-1.86,2.03-3.69,3.18-5.45Z"/><path class="cls-8" d="M-9.92,78.15c3.93-6.68,9.03-12.65,14.92-17.46"/></g></g></g></g></g></g></svg>