<?xml version="1.0" encoding="UTF-8"?><svg id="Layer_2" xmlns="http://www.w3.org/2000/svg" xmlns:xlink="http://www.w3.org/1999/xlink" viewBox="0 0 100 100"><defs><style>.cls-1{fill:none;}.cls-2{clip-path:url(#clippath);}.cls-3{fill:#fa634b;}.cls-4{fill:#f2836d;}.cls-5{fill:#eae6e4;}.cls-6{fill:#fff;}.cls-7{fill:#fff3dd;}.cls-8{fill:#ffa982;}.cls-9{fill:#b7b6b6;}.cls-10{fill:#66643b;}.cls-11{fill:#cc8b70;}.cls-12{fill:#c96b59;}.cls-13{fill:#9c6f43;}.cls-14{fill:#2e2e47;}.cls-15{fill:#774237;}.cls-16{fill:#515032;}</style><clipPath id="clippath"><circle class="cls-1" cx="49.84" cy="50.55" r="49.45"/></clipPath></defs><g class="cls-2"><g><rect class="cls-7" x="-2.46" y="1.11" width="102.02" height="98.06"/><g><g><path class="cls-10" d="M85.5,89.79s1.23-33.01,.53-38.97c-.71-5.96-1.85-11.85-.57-18.14,1.28-6.29,6.81-16.01,6.81-16.01,0,0,3.66,12.18,4.86,21.07,1.2,8.89-3.35,22.11-3.9,28.3-.55,6.19-3.43,23.75-3.43,23.75h-4.3Z"/><g><path class="cls-16" d="M84.93,36.8c1.15-.06,2.88-.08,4.29,.22,2.33,.49,2.26,.43,4.34,.3,1.13-.07,2.55,.28,3.6,.62,0-.06-.02-.13-.02-.19-.17-1.25-.39-2.56-.64-3.9-.97,.06-1.77,.3-3.5,0-2.2-.36-1.38-.49-5.16-1.03-1.03-.15-1.81-.14-2.4-.05-.27,1.36-.43,2.7-.51,4.03Z"/><path class="cls-16" d="M92.49,48.03c-1.7,0-1.82-.73-3.77-1.22-1.26-.32-2.5-.22-3.21-.12,.17,1.38,.36,2.75,.53,4.13,.03,.21,.05,.46,.07,.74,.81,.18,1.9,.45,2.87,.78,1.82,.61,1.45,0,3.11-.06,.89-.03,2.42,.58,3.65,1.15,.35-1.71,.69-3.46,.96-5.2-1.45-.1-3.27-.21-4.2-.21Z"/><path class="cls-16" d="M92.74,64.69s-2.01-.61-3.52-1.16c-.83-.3-2.07-.34-3.01-.32-.03,2.07-.07,4.25-.11,6.43,1.2-.05,2.99-.13,4.03-.21,.87-.06,1.87,.32,2.63,.71,.21-1.61,.37-3.02,.47-4.1,.03-.37,.08-.77,.14-1.2l-.63-.16Z"/><path class="cls-16" d="M91.78,77.13c-.29-.1-.65-.21-1.05-.33-1.05-.3-2.77-.49-3.33-.72-.28-.12-.9-.16-1.45-.18-.06,2.17-.12,4.23-.18,6.07,.78,.08,1.84,.16,2.95,.13,.97-.03,1.7,.29,2.21,.65,.27-1.75,.57-3.68,.85-5.62Z"/></g></g><g><path class="cls-10" d="M78.84,89.79s-3.43-14.78-2.87-25.75c.55-10.97,1.77-29.71,1.77-29.71,0,0,5.7,2.36,8.8,32.79l-.34,22.68h-7.36Z"/><g><path class="cls-16" d="M79.11,80.08c-1.12,0-1.68,.34-1.96,.69,.15,.99,.31,1.92,.46,2.79,.77-.12,1.87-.28,2.94-.38,1.34-.13,4.15,.19,5.74,.39l.05-3.66c-.93,.05-2.14,.11-3.08,.17-1.81,.12-1.89,0-4.15,0Z"/><path class="cls-16" d="M84.9,69.7c-.44-.05-5.27,.96-7.26,1.26-.66,.1-1.16,.45-1.53,.86,.09,1.21,.2,2.42,.33,3.6l2.23-.93,7.76-.32,.07-4.74c-.66,.15-1.38,.29-1.6,.27Z"/><path class="cls-16" d="M80.47,61.29c1.31-.55,1.54-.91,3.09-.97,.69-.03,1.52,.07,2.2,.16-.1-.75-.2-1.47-.3-2.18-.05-.02-.1-.05-.15-.08-.85-.44-1.25-.65-2.79-1.34-1.54-.69-1.09,.51-2.13,1.67-1.04,1.16-1.69,.06-2.7-.24-.33-.1-.86,.02-1.42,.22-.06,.99-.11,1.96-.16,2.9,1.44,.11,3.55,.2,4.37-.14Z"/><path class="cls-16" d="M81.3,50.28c.7-.12,2.08,.37,2.93,.72-.3-1.5-.6-2.86-.9-4.11-.65,.07-1.58,.14-2.04,.1-.76-.06-2.31-.61-2.93-.49-.3,.06-.9,.55-1.45,1.04-.07,1.2-.15,2.43-.22,3.67,.67-.05,1.43-.12,1.72-.15,.56-.06,1.84-.61,2.89-.79Z"/></g></g><g><path class="cls-10" d="M97.77,89.79s4.21-11.98,4.82-20.87c.61-8.89,1.45-24.08,1.45-24.08,0,0-4.85,1.91-10.31,26.57l-1.92,18.38h5.96Z"/><g><path class="cls-16" d="M98.49,81.92c.91,0,1.33,.28,1.52,.56-.22,.8-.43,1.56-.64,2.26-.61-.1-1.49-.22-2.35-.31-1.08-.1-3.38,.15-4.69,.32l.31-2.97c.75,.04,1.72,.09,2.48,.14,1.46,.1,1.53,0,3.36,0Z"/><path class="cls-16" d="M94.8,73.51c.36-.04,4.18,.78,5.76,1.02,.53,.08,.9,.36,1.15,.7-.19,.98-.4,1.96-.62,2.91l-1.71-.75-6.25-.26,.4-3.84c.52,.12,1.09,.23,1.27,.22Z"/><path class="cls-16" d="M99.2,66.69c-1.01-.44-1.16-.74-2.41-.79-.56-.02-1.24,.05-1.8,.13,.15-.61,.3-1.19,.45-1.76,.04-.02,.09-.04,.13-.06,.73-.35,1.08-.52,2.39-1.09s.83,.41,1.56,1.35c.73,.94,1.36,.05,2.21-.2,.27-.08,.69,.02,1.13,.18-.05,.8-.1,1.59-.15,2.35-1.18,.09-2.89,.17-3.53-.11Z"/><path class="cls-16" d="M99.6,57.77c-.55-.1-1.72,.3-2.45,.58,.38-1.21,.76-2.32,1.13-3.33,.52,.05,1.26,.12,1.65,.08,.62-.05,1.93-.49,2.42-.39,.23,.05,.68,.44,1.08,.84-.06,.97-.12,1.97-.18,2.97-.53-.04-1.15-.1-1.38-.12-.45-.05-1.43-.49-2.27-.64Z"/></g></g><path class="cls-13" d="M77.24,88.61h21.89s2.39,11.44-4.02,17.8h-12.65s-7.07-4.26-5.21-17.8Z"/></g><g><path class="cls-11" d="M36.87,37.98s-.94,16.01,1.95,18.19c2.89,2.18,3.26-6.36,3.31-9.78s-.28-7.09-1.03-7.78c-.75-.69-4.22-.64-4.22-.64Z"/><g><path class="cls-14" d="M42.37,10.82s1.34,3.28,.94,5.05c-.4,1.78-1.57,2.95-2.16,2.87-.59-.08-3.14-8.14,1.22-7.92Z"/><path class="cls-15" d="M42.4,10.49s.92,1.72,2.04,2.99c1.12,1.27,1.4-.6,3.93,1,1.44,.91,.7,3.92-.38,4.26,0,0,.23,2.6-2.85,3.9s-5.72,1.51-5.72,1.51c0,0-2.49,1.78-4.47,.89-1.98-.89-2.26-3.9-1.64-4.94,.62-1.04,1.39-3.34,1.27-4.63s3.62-8.09,7.82-4.98Z"/><path class="cls-11" d="M42.11,25.25c-2.08,.45-2.89,.35-3.61-.22,.38-.71,.9-1.38,1.19-2.24,.27-.83,.23-1.23-.06-1.89-.2-.45-.28-1-.28-1.02-.38-2.27,2.17-3.61,2.17-3.61,0,0,1.62,4.27,2.5,4.54,.76,.24,1.89,3.6-1.89,4.43Z"/><path class="cls-14" d="M39.63,20.9c.19,.43,.27,.76,.23,1.17,.17-.11,.38-.25,.64-.46,.93-.74,1.55-3.4,1.55-3.4l-2.64,2c.05,.2,.12,.46,.22,.69Z"/><path class="cls-11" d="M42.23,15.97s.47-.16,.68-.72c.17-.44-.28-1.38-.73-1.52-.45-.14-.83,.06-.93,.08-.1,.02-.64-1.73-1.64-2.45-1-.71-2.42-1.14-3.95-.24s-1.88,2.15-2.07,3.08c-.18,.93,.46,2.33,.74,3.01,.27,.68,.22,.96,.27,1.37,.13,.95,.31,1.58,1.02,2.38s2.14,1.22,3.66,.44c1.52-.79,3.61-2.75,2.94-5.44Z"/><path class="cls-14" d="M36.83,18.2c-.18,0-.36-.04-.49-.14-.13-.1-.27-.3-.16-.67,.09-.3,.15-.75-.07-1.25h0s-.13-.51-.45-.65c-.14-.06-.29-.05-.47,.04-.46,.2-.96,.47-1.02,.59-.02,.05-.08,.07-.13,.05-.05-.02-.07-.08-.05-.13,.12-.25,.95-.61,1.12-.68,.22-.11,.44-.13,.63-.04,.38,.17,.53,.68,.55,.76,.24,.55,.17,1.05,.07,1.38-.06,.21-.03,.37,.09,.46,.21,.16,.63,.11,.8,0,.05-.03,.06-.05,.06-.06-.01-.05,.02-.1,.07-.12,.05-.01,.1,.02,.12,.07,.01,.06,.01,.17-.14,.27-.12,.08-.33,.13-.53,.13Z"/><path class="cls-14" d="M36.7,14.64s-.07-.02-.09-.05c-.02-.05,0-.11,.04-.13,.72-.36,1.42-.36,1.45-.36,.05,0,.1,.04,.1,.1,0,.05-.04,.1-.1,.1h0s-.69,0-1.36,.34c-.01,0-.03,.01-.04,.01Z"/><path class="cls-6" d="M36.87,19.19s.24,.52,.76,.37c.52-.15,.62-1.02,.62-1.02l-1.39,.65Z"/><path class="cls-14" d="M37.91,15.61c-.18,.09-.29,.26-.25,.41,.03,.14,.17,.45,.37,.42,.82-.12,.23-.82,.17-.85-.07-.04-.16-.04-.29,.02Z"/><path class="cls-14" d="M37.47,16.3s-.09-.03-.1-.08c-.02-.1-.05-.43,.43-.66,.44-.2,.74-.26,.76-.27,.05,0,.1,.02,.11,.08s-.02,.1-.08,.11c0,0-.29,.06-.71,.25-.35,.16-.34,.38-.32,.44,.01,.05-.02,.1-.08,.12h-.02Z"/><path class="cls-14" d="M35.17,16.89c.14-.08,.31-.06,.41,.06,.09,.11,.28,.4,.17,.53-.42,.53-.71-.32-.72-.38,0-.08,.03-.14,.14-.2Z"/><path class="cls-14" d="M34.84,17.44s-.02,0-.03,0c-.05-.02-.08-.07-.07-.12,0-.02,.07-.24,.42-.45,.35-.21,.72-.17,.81-.08,.04,.04,.03,.1,0,.14-.04,.03-.09,.03-.13,0-.05-.02-.3-.05-.57,.11-.28,.17-.34,.34-.34,.34-.01,.04-.05,.07-.09,.07Zm1-.52h0Zm-.01-.01h0Z"/><path class="cls-12" d="M38.34,16.59s1.13-.46,1.5-.12c.37,.34-.88,.84-1.54,.83s-.25-.61,.04-.71Z"/><path class="cls-12" d="M34.61,18.56s.94-.78,1.4-.57-.58,1.07-1.21,1.26c-.63,.19-.42-.5-.18-.68Z"/><path class="cls-15" d="M35.73,13.76s-1.71,2.91-1.71,2.91c0,0-1.54-1.39-1.71-2.43-.08-.49,.01-.74,.55-1.42,.45-.57,1.55-1.89,2.39-2.05,1.84-.37,4.37,1.28,5.21,2.26,1.17,1.36,.8,3.4,.8,3.4,0,0-1.39-1.47-1.91-1.92,0,0-1.23,.09-2.13-.06-.76-.13-1.5-.7-1.5-.7Z"/><path class="cls-15" d="M39.66,13.51s1.03,.58,1.74,.51c.72-.07,1.5-.44,1.5-.44,0,0,.01-3.93-1.97-5.16s-3.26-.56-3.26-.56c0,0-.66-.26-1.81,0-1.14,.27-3.44,3.94-2.78,5.79s2.17-1.87,6.56-.14Z"/></g><path class="cls-5" d="M36.92,26.8s-3.4,9.4-2.48,10.45c.92,1.05,5.4,4.04,6.65,3.29,1.25-.75-4.17-13.74-4.17-13.74Z"/><path class="cls-5" d="M45.92,21.15c1.21,.16,2.68,.19,3.06,.3,3.89,1.11,5.3,9.62,7.65,14.59-1-.06-3.18-.23-4.39-.56-1.48-.41-5.7-10.82-6.32-14.33Z"/><path class="cls-5" d="M37.75,25.42c.42-.68,.8-1.15,1.13-1.55,.32-.38,.59-.7,.8-1.07,0,0,.34,1.8,1.44,1.48,2.08-.61,2.88-3.45,2.88-3.45,.1,.09,1.59,.26,1.91,.33l1.39,13.4-7.19,3.15s-1.15-9.15-2.35-12.3Z"/><path class="cls-3" d="M64.76,57.18c-.23-3.79-4.4-12.98-4.7-13.69-.31-.85-.94-2.58-.94-2.58h0c-.35-.91-1.74-3.26-2.5-4.86-1-.06-3.18-.23-4.39-.56-1.48-.41-5.06-10.75-5.69-14.26-.51-.19-1.38-.21-1.69-.25l.48,11.43-5.47,2.18s-1.59-7.06-1.44-10.15c-.13,.22-1.28,1.76-1.5,2.37-.43,1.02,.13,2.9,.36,4.13,.52,2.81,.9,6.12,1.77,8.36,.05,.12,2.03,9.1,1.9,9.82-3.4,18.49-7.24,75.12-7.24,75.12,0,0,3.49,1.29,7.05,1.28,3.18-.01,6.88-.33,8.3-1.3l1.85-37.1c1.77,16.76,3.75,35.87,3.96,36.44,.38,1.02,3.82,2.1,6.17,2.61,2.35,.51,5.47-.09,8.27-.67,1.47-.3-4.12-61.38-4.55-68.33Z"/><g><path class="cls-11" d="M33.42,66.3s-1.06,1.34-.75,1.65c.31,.31,.63-.32,.63-.32,0,0,.06,.32,.21,.41s.43-.33,.43-.33c0,0,.02,.27,.29,.17s1.21-1.94,1.24-2.21c.03-.27-1.33-.11-2.04,.63Z"/><path class="cls-11" d="M39.36,63.15s-4.52,1.3-5.04,1.64c-.51,.33-2.34,1.64-2.04,2.01s2.28-1.01,2.73-.96c.44,.05,.85,.29,.76,.76-.09,.47-.83,.92-.75,1.42,.08,.5,.51,.48,.78,.05s1.2-1.11,2.35-1.39c1.15-.29,2.02-.87,2.54-1.72,1.15-1.91-.98-1.88-1.32-1.8Z"/></g><path class="cls-14" d="M50.91,87.22c-.05,0-.1-.04-.1-.09,0-.11-.55-11.22-2.1-17.48-.01-.05,.02-.11,.07-.12,.05-.01,.11,.02,.12,.07,1.56,6.28,2.1,17.41,2.11,17.52,0,.05-.04,.1-.09,.1h0Z"/><path class="cls-14" d="M57.26,36.98s3.16,8.57,0,16.61c-2.47,6.29-9.51,11.63-9.51,11.63l6.68-27.03,2.83-1.21Z"/><g><g><g><rect class="cls-8" x="68.64" y="78.8" width="2.09" height="62.26"/><polygon class="cls-12" points="70.73 141.06 96.24 130.91 96.24 68.65 70.73 78.8 70.73 141.06"/></g><polygon class="cls-12" points="-5.37 141.06 20.15 130.91 20.15 68.65 -5.37 78.8 -5.37 141.06"/><path class="cls-9" d="M76.84,80.34H-18.79c-.48,0-.79-1.86-.37-2l27.92-8.05c.19-.07,.4-.1,.62-.1l95.9-1.45c.48,0,.39,1.83-.03,1.97l-27.79,9.53c-.19,.07-.4,.1-.62,.1Z"/><path class="cls-5" d="M76.84,78.8H-18.79c-.48,0-.65-.38-.24-.52l27.79-9.53c.19-.07,.4-.1,.62-.1H105.02c.48,0,.65,.38,.24,.52l-27.79,9.53c-.19,.07-.4,.1-.62,.1Z"/><path class="cls-6" d="M64.95,76.53H3.08c-.31,0-.42-.25-.15-.34l17.98-6.16c.12-.04,.26-.06,.4-.06h61.87c.31,0,.42,.25,.15,.34l-17.98,6.16c-.12,.04-.26,.06-.4,.06Z"/></g><g><path class="cls-4" d="M34.95,67.31s-3.99,1.2-5.06,1.45c-1.07,.25-5.66,.14-5.82,.64-.23,.71,2.1,1.29,4.65,1.4s6.4-1.32,6.68-1.67c.28-.35,.68-1.89-.44-1.83Z"/><path class="cls-8" d="M37.26,66.38s4.56-.03,5.84-.47,2.38-.78,4.18-.44c1.91,.36,2.66,1.99,2.66,1.99l2.92,.23s.19-1.15,.59-1.8c.59-.96,1.49-1.6,1.75-2.05,.44-.75,2.9-1.33,3.29-1.11s.75,.47,.75,.75-2.52,.72-2.43,1.19c.08,.47-.75,3.84-1.13,5.75-.39,1.91-6.31,2.07-7.58,2.1s-8.33,.49-10.96-.25c-3.46-.97-4.2-5.53,.14-5.89Z"/><path class="cls-8" d="M44.51,66.8s.58-1.22,2.99-1.08c2.41,.14,4.92,3.49,4.92,3.49,0,0,9.18,.08,9.79,1.22s-7.08,1.44-9.46,1.85c-2.38,.41-8.07,.22-8.81-1.05-.75-1.27-.2-4.04,.57-4.43Z"/><path class="cls-8" d="M60.93,70.03s.83-.5,1.1-.4c.27,.1,1.07,.65,1.44,.77,.37,.12,.8,.19,.86,.41,.06,.22-.24,.47-.64,.49-.4,.01-1.94-.28-2.52-.27-.58,.01-.73-1.01-.24-1.01Z"/><path class="cls-8" d="M35.76,67.69s-2.72,1.83-3.36,2.01c-.64,.19-6.22,.6-7.12,1.31-.89,.71,3.96,2.06,8.07,1.64s5.56-1.87,5.93-2.89c.37-1.02-1.95-3.55-3.53-2.08Z"/><path class="cls-8" d="M26.25,70.71s-1.3-.41-1.7-.32c-.4,.09-1.81,.63-1.67,.77l.19,.09s-.12,.11-.12,.22,.24,.11,.24,.11c0,0-.09,.2,.02,.24,.11,.04,.51-.1,.51-.1,0,0-.09,.15,.01,.2,.1,.05,.9-.2,1.11-.21,.21-.01,1.39,.39,1.68,.29,.28-.1,.34-.98-.27-1.29Z"/><path class="cls-8" d="M36.72,65.78s.88,.59,.88,.68c0,.84-2.4,2.13-2.82,1.77-.18-.16-.18-.42-.26-.63-.11-.27-.26-.48-.17-.73,.15-.44,2.16-1.25,2.36-1.09Z"/><g><path class="cls-8" d="M37.82,64.94s.49-.01,.66-.65c.36-1.33-.69-1.4-.81-1.41s.6-2.08-.22-3.15c-.82-1.07-2.2-1.98-4.09-1.52-1.89,.46-2.68,1.67-3.17,2.6-.49,.92-.18,1.93-.11,2.74,.07,.81-.19,1.14-.25,1.6-.18,1.22,.41,2.6,2.79,2.74,3.14,.19,4.89-1.71,5.19-2.95Z"/><path class="cls-14" d="M30.93,64.97s.28,.95,.83,.93c.29-.01,.86-.37,1.19-.71l-2.02-.22Z"/><path class="cls-14" d="M32.21,64.61s-.08-.02-.09-.06c-.04-.09-.09-.15-.15-.17-.16-.05-.37,.09-.37,.09-.04,.03-.11,.02-.14-.02-.03-.04-.02-.11,.02-.14,.01,0,.29-.2,.54-.12,.13,.04,.22,.14,.28,.29,.02,.05,0,.11-.06,.13-.01,0-.02,0-.03,0Z"/><path class="cls-4" d="M30.82,64.67c.03,.25-.24,.48-.6,.53s-.68-.12-.71-.36c-.03-.25,.24-.48,.6-.53,.36-.05,.68,.12,.71,.36Z"/><path class="cls-4" d="M34.59,65.16c-.06,.24-.39,.37-.74,.28-.35-.08-.6-.35-.54-.59,.06-.24,.39-.37,.74-.28s.6,.35,.54,.59Z"/><path class="cls-14" d="M34.69,59.2c-.71,0-1.91-.12-2.19-.93-.24-.69,0-1.1,.18-1.29,.25-.27,.58-.36,.79-.31,.05,.01,.08,.07,.07,.12-.01,.05-.07,.08-.12,.07-.15-.04-.41,.05-.6,.25-.24,.26-.29,.65-.14,1.09,.34,1,2.5,.78,2.52,.78,.05,0,.1,.03,.11,.09,0,.05-.03,.1-.09,.11-.03,0-.24,.02-.54,.02Z"/><path class="cls-14" d="M34.24,58.67h0s-.47,0-.74-.29c-.13-.14-.19-.33-.18-.55,.03-.55,.44-.81,.71-.81,.19,0,.32,.11,.33,.28,0,.05-.04,.1-.09,.11-.05,0-.1-.04-.11-.09,0-.07-.05-.1-.14-.1-.19,0-.49,.2-.52,.63,0,.17,.03,.3,.13,.4,.21,.22,.6,.23,.6,.23,.05,0,.1,.04,.1,.1,0,.05-.04,.1-.1,.1Z"/><path class="cls-14" d="M33.59,63.62c0,.21,.09,.38,.21,.38s.21-.17,.21-.38c0-.21-.09-.38-.21-.38-.12,0-.21,.17-.21,.38Z"/><path class="cls-14" d="M30.6,63.61c0,.21,.09,.38,.21,.38,.12,0,.21-.17,.21-.38,0-.21-.09-.38-.21-.38-.12,0-.21,.17-.21,.38Z"/><path class="cls-4" d="M31.51,65.73c.14-.06,.45-.16,.63-.15,.09,0,.2,.03,.28,.05-.24,.16-.49,.27-.66,.28-.13,0-.25-.05-.35-.13,.03-.01,.06-.03,.1-.05Z"/></g><path class="cls-4" d="M25.55,69.14s-1.16-.47-1.76-.29c-.6,.18-1.29,.96-1.03,1.05,.26,.09,.75-.42,1.06-.35,.3,.07-.54,.24-.5,.41,.04,.18,.15,.13,.32,.06,.17-.07,.53-.09,1-.09s.91,.23,1.09,0c.17-.24,.21-.74-.17-.79Z"/><path class="cls-14" d="M45.02,66.05s-.07-.02-.09-.06c-.02-.05,0-.11,.05-.13,.05-.02,1.25-.54,3.25-.18,.05,0,.09,.06,.08,.11,0,.05-.06,.09-.11,.08-1.94-.34-3.12,.16-3.14,.17-.01,0-.03,0-.04,0Z"/></g></g><g><path class="cls-11" d="M49.05,38.27c.58,3.48,1.15,6.15,1.15,6.15,0,0-7.59,21.69-4.29,22.26,2.87,.5,8.13-8.44,10.72-17.23,.87-2.97,.9-7.03-.32-11.82-2.92,1.72-5.66,1.22-7.26,.63Z"/><path class="cls-5" d="M58.56,38.11c-1.88-7.37-7.16-14.9-8.14-15.82-.81-.76-3.1-.69-3.24,1.36-.23,3.28,.76,11.09,1.44,15.18,1.6,.59,7.02,1,9.94-.72Z"/></g><path class="cls-14" d="M53.53,45.21s-.02,0-.03-.01c-1.27-1.25-3.26-.73-3.28-.73-.03,0-.05,0-.06-.03,0-.03,0-.05,.03-.06,.02,0,2.06-.54,3.38,.75,.02,.02,.02,.05,0,.07,0,0-.02,.01-.03,.01Z"/><path class="cls-11" d="M45.32,64.51s-1.15,.17-1.79,.59c-.64,.41-3.32,.27-3.08,.78s2.07,.02,2.28,.29c.21,.28-3.53,3.65-3.32,3.77,.2,.12,2.18-1.51,2.33-1.3,.15,.22-2.3,2.04-2.1,2.32s2.66-1.61,2.72-1.55c.06,.06-1.79,2.08-1.61,2.25,.18,.17,2.54-2.1,2.71-2.01,.17,.09-1.24,1.7-.87,1.84,.37,.14,2.2-2.34,2.66-2.61,.46-.27,1.8-2.1,1.58-3.05-.23-.95-.97-1.65-1.52-1.32Z"/><path class="cls-11" d="M36.85,48.38s.58,8.44,1.07,11.51c.49,3.07,.98,5.91,2.14,5.58,2.45-.7,1.89-13.58,1.11-17.02s-3.98-3.29-4.31-.07Z"/></g></g></g></svg>