<?xml version="1.0" encoding="UTF-8"?><svg id="Layer_2" xmlns="http://www.w3.org/2000/svg" viewBox="0 0 100 100"><defs><style>.cls-1{fill:#6b6b6b;}.cls-2{fill:#adcdc9;}.cls-3{fill:#dedecb;}</style></defs><circle class="cls-2" cx="49.84" cy="50.55" r="49.45"/><path class="cls-3" d="M49.84,1.11V100c27.31,0,49.45-22.14,49.45-49.45S77.15,1.11,49.84,1.11Z"/><path class="cls-1" d="M59.13,41.69c.56-.17,1.05-.12,1.61-.4,.77-.38,1.53-1.3,2.28-.74,.11-.15,.2-.31,.26-.45-.22-.14-.51-.26-.79-.33-.76,.58-2.42,.46-3.36,.31-1.05-.17-2.26-.75-3.27-1.36,.03,.58,.17,1.18,.23,1.71,.05,.48,.04,.99,.06,1.5,.32-.05,.67-.05,.89,.03,.52,.17,.82,.72,1.42,.66,0-.46,.08-.75,.66-.92Zm17.98-2.94c-.19,.28-.57,.39-.79,.63,.12,.21,.21,.55,0,.68-.22,.13-.48,0-.66-.16,0,.22,0,.33-.25,.43-.09,.03-.17,.05-.26,.04-.12,.57-.4,1.19-.54,1.61-.21,.66-.5,1.78-1.23,2.1-.78,.34-2.03-.02-2.75-.28-.78-.28-.97-.72-1.01-1.33-.89-.36-1.79-.83-2.62-1.3-.13,.66-.41,1.31-1,1.73-.56,.4-1.16,.57-1.7,.92,.1,.56,.13,1.17,.18,1.67,.08,.74,.43,1.95-.16,2.58-.54,.58-1.65,.63-2.37,.87-.78,.25-1.7,.64-2.3,.12-.81,.8-2.31,.91-3.64,.78,.09,.21,.17,.44,.25,.67,.47,.26,.99,.66,1.35,.88,.84,.5,1.23,.87,1.38,1.66l6,3.88s1.81,.91,2.39,3.71l3.47,14.65s.58,1.68-1.01,2.17l-1.39,.49c.72,.33,1.49,.63,2.2,1.01,.5,.27,1.07,.27,1.58,.43,.22,.07,.42,.18,.64,.29,.28,.13,.5,.1,.8,.18,.26,.06,.51,.29,.33,.59-.13,.24-.52,.31-.76,.35-.44,.07-1.23,.17-1.63-.15-.51,.48-2.59,.18-3.22,.15-1.22-.05-2.45,0-3.65-.07-1.3-.08-3.18-.18-2.77-1.82-.26-.38-.2-.94-.23-1.58-.04-.77,.05-1.54,0-2.31-.04-.77-.32-1.33-.36-2.1-.02-.34,.11-.8,.21-1.23-.22-.35-.47-.69-.63-1.02-.23-.47-.33-1.01-.52-1.46-.31-.72-.88-1.3-1.12-2.01-.49-.13-.96-.3-1.25-.66-.38-.47-.53-1.21-.8-1.74-.2-.4-.64-1.23-1.16-1.83-.67-.25-1.51-.4-2.11-.74-.79-.45-1.38-.93-1.96-1.51-1.16-.12-2.29-.62-3.28-1.24-1.15,1.61-4.48,6.29-6.1,8.46-.11,.55-.17,1.08-.28,1.63-.19,.92-.54,1.91-1.12,2.72-1.04,1.44-2.84,2.79-4.17,4.02-.3,.27-.59,.55-.89,.83-.87,1.42-1.89,2.86-2.78,4.28-.39,.62-1.03,2.53-1.75,2.77-.78,.26-2-1.26-2.48-1.72-.47-.44-.75-.94-1.28-1.26-.19,.13-.35,.3-.5,.48,.03,.17,.05,.45,.11,.59,.09,.25,.23,.41,.4,.62,.21,.26,.25,.42,.35,.71,.09,.26,.23,.29,.41,.52,.75,.98-1.73,1.4-1.78,.11,0,.33-.01,.7-.33,.84-.35,.16-.64,.07-.81-.15-.2,.26-.69,.1-.86-.21-.34,.31-.78,.15-.9-.27-.13,.09-.32,.21-.53,.12-.21-.09-.35-.43-.43-.65-.18-.52-.23-.99-.23-1.57s.15-.87,.55-1.29c.31-.33,.67-.59,.92-.96,.03-.05,.07-.1,.11-.16-.31-1.09,.86-1.5,1.33-2.33,.25-.45,1.21-2.08,1.73-2.02,1.23-2.48,4.07-5.81,4.07-5.81,1.55-2.04,3.61-3.21,4.49-3.65-.01-.46-.18-.83,.16-1.23,.14-.17,.46-.26,.66-.4-.14-.41-.23-.78-.1-1.3,.13-.53,.27-1.05,.35-1.56,.09-.56,.13-1.11,.23-1.67,.03-.19,.1-.37,.17-.54-.8-1.02-.65-4.02-.53-5.41-.41-1.47-.12-3.02,.12-3.91-.14-2.51,1.68-6.4,1.68-6.4,1.74-4.06,2.32-8.83,2.32-8.83,.18-2.81,2.35-5.39,3.13-6.23,.07-.85,.42-1.03,1.13-1.63,.4-.35,.45-1.58,.92-1.79-.19-.51-.18-1.09-.41-1.61-.27-.59-.78-1.05-1.05-1.65-.58-1.27-.22-3.14,.12-4.4,.58-2.14,3.63-2.1,5.52-2.36,1.02-.15,2.08-.59,2.93,.21,.71,.67,.53,1.56-.05,2.15,.68,.44,1.16,1.74,1.29,2.33,.06,.24,.12,.51,.04,.76-.07,.24-.26,.42-.29,.67-.05,.52,.35,.85,.66,1.22,.23,.27,.51,.55,.21,.85-.11,.1-.39,.24-.63,.32-.02,.07-.03,.15-.02,.21,.02,.2,.18,.29,.22,.45,.05,.23-.11,.45-.32,.55l.03,.05c.18,0,.21,.38,.06,.52-.23,.23-.39-.05-.5,.32-.14,.49,.25,.92-.26,1.29-.42,.3-.94,.06-1.4,0-.22-.02-.53-.11-.72,.04-.09,.08-.15,.25-.19,.42,.7-.06,1.45,0,1.86,.46,.23,.27,.38,.66,.52,1.05,.88,.19,1.49,.33,2.23,1.04,.46,.45,1.02,.91,1.53,1.38,.49,.11,1,.16,1.45,.36,.62,.27,1.12,.75,1.74,1.05,.73,.35,1.33,.17,2.17,.28,.85,.11,.96,.5,1.36,1.07,.98,.02,1.91-.07,2.85,.17,.95,.25,1.96,.78,2.96,.91,.46-.29,1.34,.12,1.8,.28,.41,.15,1.37,.09,1.77,.38,.39-.6,.96-.95,1.67-1.35,.25-.14,.37-.28,.68-.12,.19,.09,.41,.35,.3,.59-.12,.27-.52,.27-.72,.47,.05,.5,.65,.84,1.04,1.12,.22,.16,.53,.36,.52,.66,0,.15-.1,.29-.22,.44,.26,.25,.34,.72,.14,1Z"/></svg>