<?xml version="1.0" encoding="UTF-8"?><svg xmlns="http://www.w3.org/2000/svg" xmlns:xlink="http://www.w3.org/1999/xlink" viewBox="0 0 100 100"><defs><style>.cls-1{fill:none;}.cls-2{clip-path:url(#clippath);}.cls-3,.cls-4{fill:#006bad;}.cls-5{fill:#eba05a;}.cls-6,.cls-7{fill:#fff;}.cls-8,.cls-9{fill:#d8d5ca;}.cls-10,.cls-11{fill:#d8717f;}.cls-12{fill:#070707;}.cls-13{fill:#0d0d0d;}.cls-14{fill:#0a0a0a;}.cls-11,.cls-9,.cls-7,.cls-15,.cls-4,.cls-16{mix-blend-mode:multiply;}.cls-15{fill:#e8c31e;}.cls-17{isolation:isolate;}</style><clipPath id="clippath"><circle class="cls-1" cx="50" cy="50" r="50.25"/></clipPath></defs><g class="cls-17"><g id="Layer_2"><g class="cls-2"><g><path class="cls-7" d="M66.42,10.13l10.52,3.63c.43-.49,3.74-4.24,4.26-4.66,.62-.5,.91-.31,4.41,2,1.2,.79,2.26,.99,3.13,.58,1.11-.52,1.6-1.89,1.65-2.3,.03-.24,.01-.52,0-.77-.02-.39-.03-.67,.09-.8,.04-.04,.09-.07,.15-.07,1-.07,1.05-.79,1.07-1.06,0-.03,0-.05,0-.06,0-.05-.09-.22-.15-.35-.17-.35-.28-.59-.22-.75,.02-.05,.06-.09,.12-.11,.52-.15,.5-.72,.5-.82-.08-.17-.37-.82-.19-1.07,.04-.05,.11-.11,.24-.1,.63,.03,1.1-.28,1.24-.81,.11-.42-.03-.86-.33-1.02-.76-.38-1.4-1.15-1.87-1.93h-21.29c.26,.84,.57,1.7,.94,2.56,1.07,2.5-3.47,7.12-4.28,7.92Z"/><rect class="cls-7" x="61.08" y="76.55" width="33.2" height="24.47"/><g class="cls-16"><path class="cls-3" d="M89.62-.34c.79,3.5,3.32,6.56,5.01,6.98,.25,.06,1.81-.14,1.71,.34-.02,.12-1.59,11.61-1.59,11.61l6.52-3.2V-.34h-11.65Z"/></g><g class="cls-16"><path class="cls-3" d="M37.39,.44c-.05-.18-.16-.47-.28-.79H19.63c.44,.29,1.14,.74,.88,.99-.08,.08-4.85,4.79-4.85,4.79l9.41,3.98,3.6-2.02c1.01,.75,1.05,.76,1.31,.86,.49,.21,1.64,.75,2.67,.44,1.03-.31,1.04-1.16,1.05-1.42,0-.26,.04-.96,.22-1.11,.11-.1,.2-.03,.37-.43,.17-.4-.16-.87-.16-.87,0,0,.44-.14,.71-.39,.27-.26,.74-1.31,.74-1.31,0,0,.05-.16,.3-.14,.24,.02,.66,.33,1.3,.29,.5-.03,.6-.39,.56-.76-.1-.73-.24-1.74-.35-2.11Z"/></g><path class="cls-9" d="M32.93,.7c-.09,.31-.05,.57,.11,.75,.2,.22,.57,.32,1.01,.26,.2-.03,.43-.04,.56,.25,.11,.24-.08,.45-.26,.66-.13,.15-.27,.31-.27,.46,0,.25,.26,.41,.5,.55,.19,.11,.35,.21,.35,.36,0,.18-.22,.22-.48,.26-.32,.06-.56,.12-.56,.28,0,.23,.15,.47,.3,.7,.15,.22,.28,.43,.28,.65,0,.09-.03,.24-.07,.44-.11,.57-.29,1.52,.07,2.05,.13,.19,.33,.31,.59,.36,.83,.14,1.57-.12,2.17-.34,.44-.16,.79-.28,1.06-.21,.58,.17,2.87,3.1,3.24,3.58h9.49c-.66-.72-3.39-3.79-3.18-5.42,.04-.33,.2-.59,.48-.76,1.01-.63,3.14-2.95,4.26-5.9h-18.59c-.11,.1-.21,.19-.31,.27-.37,.32-.67,.57-.74,.77Z"/><g class="cls-16"><path class="cls-6" d="M66.47,10.72c3.63,1.21,6.06,4.99,5.31,9.06-.04,.49,1.93,2.92,3.87,3.2,.84,.14,1.2,1.83-.28,2.25-.46,.11,.39,.98,.39,.98,0,0,.32,.7-.25,1.09-.21,.18,.63,.81,.67,.98,.03,.18,.39,1.09-.74,1.55-.28,.11,.21,.88,.35,1.55,.14,.67,0,4.43-4.18,3.3-4.18-1.12-4.39-1.16-4.78-.56-.39,.6-2.64,5.91-2.64,5.91l-11.53-.14s3.63-6.84,1.69-9.03c-10.89-12.3-4.09-25.54,12.12-20.13Z"/></g><path class="cls-7" d="M72.82,59.56c-2.86-.7-7.92-8.39-4.48-13.94,3.44-5.55,12.23-7.58,16.5-3.38,0,0,2.34,3.65,2.6,4.22,.22,.47-.17,1.28-.17,1.28,0,0,2.44,2.28,4.33,3.15,.28,.32,.41,.71-.03,1.05-.56,.43-1.14,.42-1.37,.55-.24,.13-.18,.31-.18,.31,0,0,.33,1.22,.25,1.62-.08,.4-1.03,1.01-1.03,1.01,0,0,1.45,.43,1.5,1.51,.06,1.46,.48,2.52-.27,3.45-.75,.92-2.7,.66-4.1,.6l-4.43,7-8.97,4.4s1.68-12.32,1.71-12.45c.1-.52-1.57-.3-1.84-.37Z"/><path class="cls-15" d="M87.01,3.35c5.19-1.16,11.9,1.77,12.54,9.84,.09,.79-.77,.54-.82,.97-.25,2.04,3.29,6.55,.08,5.76-.68-.16-.97-.33-1.11-.21-.24,.25,.58,.76,.48,1.1-.1,.36-.62,.5-.67,.78-.05,.32,.51,.76,.38,1.2-.14,.5-1,0-.78,2.18,.15,1.39-1.08,2.13-1.97,1.98-.89-.14-3.28-1.78-3.8-2.07-1.44-.84-4.61,3.63-4.61,3.63l-10.55-2.93s6.86-4.56,6.28-7.14c-.34-1.5-5.24-12.89,4.54-15.08Z"/><path class="cls-4" d="M42.1,1.93c-3.46,1.15-5.77,4.75-5.06,8.63,.03,.47-1.84,2.78-3.68,3.05-.8,.13-1.14,1.74,.27,2.14,.44,.1-.37,.94-.37,.94,0,0-.3,.67,.23,1.04,.2,.17-.6,.77-.64,.94-.03,.17-.37,1.04,.7,1.47,.27,.1-.2,.84-.33,1.47-.13,.64,0,4.22,3.98,3.15,3.98-1.07,4.18-1.1,4.55-.54,.37,.57,2.51,5.62,2.51,5.62l10.98-.13s-3.46-6.51-1.61-8.6c10.37-11.71,3.9-24.32-11.54-19.17Z"/><path class="cls-4" d="M52.41,72.18c-3.46,1.15-5.77,4.75-5.06,8.63,.03,.47-1.84,2.78-3.68,3.05-.8,.13-1.14,1.74,.27,2.14,.44,.1-.37,.94-.37,.94,0,0-.3,.67,.23,1.04,.2,.17-.6,.77-.64,.94-.03,.17-.37,1.04,.7,1.47,.27,.1-.2,.84-.33,1.47-.13,.64,0,4.22,3.98,3.15,3.98-1.07,4.18-1.1,4.55-.54,.37,.57,2.51,5.62,2.51,5.62l10.98-.13s-3.46-6.51-1.61-8.6c10.37-11.71,3.9-24.32-11.54-19.17Z"/><path class="cls-7" d="M37.78,34.85c3.37,2.52,4.59,7.29,2.4,11.28-.21,.5,1.01,3.71,2.92,4.67,.83,.44,.61,2.32-1.07,2.25-.51-.05,.06,1.16,.06,1.16,0,0,.09,.84-.63,1.05-.28,.11,.38,1.06,.36,1.26-.02,.2,.03,1.27-1.3,1.36-.33,.01-.08,.99-.17,1.73-.08,.74-1.53,4.61-5.5,2-3.97-2.62-4.18-2.73-4.79-2.24-.61,.49-4.79,5.24-4.79,5.24l-11.96-4.13s6.15-5.87,4.88-8.83c-7.1-16.58,4.57-28.02,19.59-16.79Z"/><g class="cls-16"><path class="cls-5" d="M46.35,50.35c-5.94-3-14.98-1.51-18.23,8.09-.35,.94,.76,.89,.7,1.43-.32,2.55-6,6.93-1.86,6.96,.87,.02,1.28-.1,1.41,.09,.21,.37-.93,.75-.92,1.18,.01,.46,.6,.8,.57,1.15-.03,.4-.85,.77-.83,1.34,.02,.65,1.22,.3,.27,2.88-.6,1.65,.66,2.91,1.78,3.01,1.12,.1,4.53-1.15,5.25-1.35,2-.57,4.48,5.81,4.48,5.81l13.69-.33s-6.93-7.63-5.43-10.59c.87-1.72,10.3-14.03-.88-19.68Z"/></g><g class="cls-16"><path class="cls-5" d="M79.91,50c-5.94-3-14.98-1.51-18.23,8.09-.35,.94,.76,.89,.7,1.43-.32,2.55-6,6.93-1.86,6.96,.87,.02,1.28-.1,1.41,.09,.21,.37-.93,.75-.92,1.18,.01,.46,.6,.8,.57,1.15-.03,.4-.85,.77-.83,1.34,.02,.65,1.22,.3,.27,2.88-.6,1.65,.66,2.91,1.78,3.01,1.12,.1,4.53-1.15,5.25-1.35,2-.57,4.48,5.81,4.48,5.81l13.69-.33s-6.93-7.63-5.43-10.59c.87-1.72,10.3-14.03-.88-19.68Z"/></g><g class="cls-16"><path class="cls-8" d="M36.77,17.15c-6.54,.7-9.57,8.54-7.8,12.13,1.03,2.28,2.87,2.09,3.03,2.72,.57,2.22-.33,4.03-.11,4.64,.35,.8,1.1,.7,1.65,.1,.16-.17,.28-.24,.49-.14,.34,.17,.01,.88,.25,1.19,.31,.4,1.07-.01,1.23,.18,.15,.19-.74,.74-.47,1.07,.31,.39,1.05,.37,1.3,.68,.27,.34,1.06,2.57,2.35,1.86,1.29-.71,1.61-2.21,2.17-2.44,.56-.23,4.76,.77,4.76,.77l7.58-6.1s-6.85-.92-6.11-3.03c.94-2.69,.54-14.79-10.31-13.62Z"/></g><g class="cls-16"><path class="cls-8" d="M19.77,42.49c-2.89,.96-4.82,3.97-4.23,7.21,.03,.39-1.54,2.32-3.08,2.55-.67,.11-.95,1.46,.22,1.79,.36,.08-.31,.78-.31,.78,0,0-.25,.56,.2,.87,.17,.14-.5,.64-.53,.78-.03,.14-.31,.87,.59,1.23,.22,.08-.17,.7-.28,1.23-.11,.53,0,3.53,3.33,2.63,3.33-.9,3.5-.92,3.81-.45,.31,.48,2.1,4.7,2.1,4.7l9.18-.11s-2.89-5.44-1.34-7.19c8.67-9.79,3.26-20.33-9.65-16.03Z"/></g><path class="cls-15" d="M27.44,2.65c5.06-1.13,11.61,1.72,12.24,9.6,.08,.78-.75,.53-.8,.95-.24,1.99,3.21,6.39,.08,5.62-.66-.15-.95-.32-1.08-.2-.23,.24,.56,.75,.47,1.07-.1,.35-.6,.49-.65,.76-.05,.31,.49,.74,.37,1.17-.14,.49-.98,0-.76,2.13,.14,1.36-1.06,2.07-1.92,1.93-.87-.14-3.2-1.73-3.71-2.02-1.41-.82-4.5,3.54-4.5,3.54l-10.29-2.86s6.7-4.45,6.13-6.97c-.33-1.46-5.11-12.58,4.43-14.71Z"/><g class="cls-16"><path class="cls-10" d="M12.73,15.61c4.24-5.34,12.78-3.66,14.94-.12,1.43,2.16,.25,3.67,.7,4.16,1.62,1.73,3.71,1.94,4.13,2.47,.51,.75,0,1.35-.82,1.5-.24,.04-.37,.11-.39,.35-.03,.39,.76,.5,.9,.88,.18,.5-.6,.94-.52,1.17,.08,.24,1.06-.24,1.2,.18,.17,.48-.26,1.13-.12,1.52,.15,.43,1.67,2.36,.33,3.09-1.33,.73-2.83,.19-3.34,.55-.51,.36-5.7,9.37-5.7,9.37l-5.8-1.51s2.99-6.51,.73-7.03c-2.88-.66-13.26-7.71-6.23-16.58Z"/></g><g class="cls-16"><path class="cls-6" d="M21.34,7.04c.07-.41,1.43-2.63-.17-7.38H1.26C0,4.32,.65,8.43,2.54,9.97c.25,.21-.93,2.15-1.31,2.66-.09,.12,3.05,13.19,3.05,13.19l7.8-7.33c1.48,.77,2.87,1.43,3.23,1.52,.69,.17,2.29,.64,3.57,.02,1.28-.61,.68-1.95,.64-2.29-.05-.34,.09-1.17,.14-1.36,.05-.19,.42-.23,.56-.8,.14-.56-.79-1.06-.79-1.06,0,0,1.38-.18,1.68-.57,.3-.39-.1-1.5-.1-1.5,0,0,1.86,.13,2.5-.81,.56-.82-2.35-3.58-2.17-4.61Z"/></g><path class="cls-9" d="M11.17,38.65c-.66-.72-3.39-3.79-3.18-5.42,.04-.33,.2-.59,.48-.76,1.41-.87,4.95-5,4.99-9.55,.02-2.98-1.49-5.47-4.48-7.39-2.42-1.55-5.5-1.75-8.45-.53-.21,.08-.41,.18-.61,.27v21.2c.77,.89,1.56,1.9,1.77,2.17H11.17Z"/><g class="cls-16"><path class="cls-3" d="M8.59,2.78s.89-.56,.96-.94c.08-.38-.23-1.51-.23-1.51,0,0-.05-.17,.17-.29,.19-.11,.62-.11,1.07-.37H-.09V15.28l1.62-.83L5.91,7.96c1.3,.05,3.12,.3,3.82-.56,.7-.86,.3-1.85,.25-3.21-.04-1.01-1.4-1.41-1.4-1.41Z"/></g><path class="cls-11" d="M.01,55.87h.03c.19-.09,.26-.12,1.08-.73l.05-.03,.05,.03,3.05,1.71,7.92-3.34-4.07-4.02c-.05-.05-.08-.12-.07-.19,.02-.24,.38-.49,.81-.77,.12-.08,.24-.16,.27-.19,.72-.8,1.11-3.24,.53-5.94-.34-1.58-1.3-4.41-3.87-5.55-1.76-.78-3.87-.9-5.87-.41v19.49h.02l.08-.04Z"/><g class="cls-16"><path class="cls-5" d="M19.28,28.6c3.06,1.02,5.1,4.2,4.48,7.64-.03,.41,1.63,2.46,3.26,2.7,.71,.12,1.01,1.54-.24,1.9-.39,.09,.33,.83,.33,.83,0,0,.27,.59-.21,.92-.18,.15,.53,.68,.56,.83,.03,.15,.33,.92-.62,1.3-.24,.09,.18,.74,.3,1.3,.12,.56,0,3.73-3.52,2.78-3.52-.95-3.7-.98-4.03-.47-.33,.5-2.22,4.98-2.22,4.98l-9.71-.12s3.06-5.76,1.42-7.61C-.12,35.21,5.61,24.05,19.28,28.6Z"/></g><path class="cls-15" d="M12.41,67.45c-2.47,1.02-10.33-1.93-10.77-7.86-.44-5.93,4.94-12.14,10.33-11.34,0,0,3.68,1.43,4.18,1.71,.41,.23,.56,1.03,.56,1.03,0,0,3.02,.37,4.87,0,.37,.09,.68,.3,.54,.79-.18,.62-.61,.92-.72,1.14-.1,.22,.03,.33,.03,.33,0,0,.9,.72,1.05,1.06s-.22,1.3-.22,1.3c0,0,1.3-.47,1.91,.31,.82,1.04,1.7,1.6,1.65,2.68-.06,1.08-1.63,1.93-2.69,2.64l.49,7.53-6.2,.06s-3.42-1.98-3.46-2.08c-.2-.44-1.32,.62-1.55,.71Z"/><g class="cls-16"><path class="cls-10" d="M11.68,66.4c2.99-.16-1.26-3.14-1.58-4.97-.07-.39,.74-.39,.45-1.06-2.13-5.45-6.74-7.04-10.64-6.26v23.05l3.59-.11s1.57-4.71,3.04-4.36c.53,.12,3.03,.9,3.83,.8,.8-.11,1.68-1.07,1.18-2.24-.77-1.83,.11-1.62,.1-2.09,0-.42-.61-.65-.65-.94-.03-.26,.38-.52,.37-.86,0-.31-.85-.54-.71-.82,.08-.15,.38-.07,1.01-.12Z"/></g><g class="cls-16"><path class="cls-10" d="M6.04,76.28c5.54-3.55,12.81,.65,13.68,4.56,.63,2.42-.92,3.43-.66,4.02,.94,2.09,2.78,2.94,3,3.54,.24,.84-.42,1.23-1.22,1.11-.23-.03-.37-.01-.47,.2-.15,.35,.54,.69,.55,1.08,0,.51-.84,.67-.84,.91s1.04,.11,1.04,.54c0,.49-.59,.95-.59,1.34,0,.43,.78,2.67-.66,2.92-1.45,.25-2.64-.71-3.22-.54-.58,.17-3.22,3.58-3.22,3.58H3.68s4.76-5.01,2.86-6.19c-2.42-1.51-9.7-11.18-.51-17.08Z"/></g><path class="cls-9" d="M10.02,96.55c-.43-.84-2.72-5.52-1.27-7.16,4.17-4.71,5.36-10.04,3.02-13.58-1.02-1.55-2.66-2.61-4.72-3.05-2.05-.44-4.51-.26-7.14,.52v20.78c.49,1.13,1.01,2.34,1.13,2.61l8.98-.11Z"/><path class="cls-11" d="M52.55,2.72l.03,.05-.02,.05s-.79,1.89-.97,2.53c-.11,.39-.26,1.46-.38,2.29-.03,.24,0,.43,.11,.54,.08,.1,.22,.15,.4,.17,.44,.03,.79-.11,1.04-.21,.14-.05,.26-.1,.36-.11,.35-.03,.44,.22,.44,.22,.14,.31,.56,1.18,.78,1.39,.27,.26,.73,.4,.73,.4l.15,.05-.09,.13s-.33,.47-.17,.85c.12,.29,.19,.32,.26,.35,.04,.02,.08,.04,.12,.08,.22,.19,.27,.89,.27,1.3,0,.28,.02,1.14,1.06,1.45,1.02,.3,2.18-.19,2.74-.43l.1-.04h.03c.24-.12,.33-.15,1.37-.93l.06-.04,.06,.04,3.89,2.18,10.08-4.26-5.18-5.11c-.07-.07-.1-.15-.09-.24,.03-.3,.48-.62,1.03-.99,.15-.1,.3-.2,.34-.24,.63-.7,1.06-2.39,1.03-4.49h-20.19c.07,.98,.13,1.82,.17,2.03,.08,.47,.42,1.03,.42,1.03Z"/><g class="cls-16"><path class="cls-8" d="M59.07,27.31c5.24-2.98,13.49-2.02,16.85,6.56,.36,.84-.65,.84-.57,1.33,.4,2.3,5.73,6.03,1.99,6.24-.79,.05-1.17-.04-1.27,.14-.18,.35,.88,.64,.89,1.03,0,.42-.5,.75-.46,1.07,.05,.36,.8,.66,.81,1.18,.01,.59-1.09,.33-.12,2.63,.62,1.47-.47,2.67-1.48,2.81-1.01,.14-4.15-.85-4.81-1-1.84-.43-3.81,5.47-3.81,5.47l-9.56,.3s3.09-7.23,1.6-9.85c-.86-1.52-9.93-12.29-.05-17.91Z"/></g><path class="cls-15" d="M72.13,47.48c-3.04-4.2-9.84-6.4-15.53-.91-.58,.53,.21,.89-.03,1.24-1.13,1.65-6.64,2.66-3.78,4.16,.6,.32,.93,.39,.94,.57,.01,.34-.92,.19-1.06,.49-.16,.32,.13,.77-.02,1-.17,.27-.86,.23-1.06,.63-.22,.46,.74,.65-.84,2.09-1.01,.93-.58,2.26,.16,2.72,.74,.47,3.55,.82,4.12,.94,1.59,.32,1.03,5.63,1.03,5.63l9.61,4.67s-2.07-7.77,.02-9.28c1.22-.88,12.16-6.04,6.42-13.96Z"/><path class="cls-7" d="M52.7,81.11c-2.84,1.57-12.69-.9-14.04-7.96-1.35-7.07,4.27-15.27,10.86-15.06,0,0,4.62,1.21,5.26,1.48,.52,.22,.82,1.17,.82,1.17,0,0,3.68,.03,5.86-.68,.46,.05,.86,.27,.76,.87-.13,.77-.61,1.19-.7,1.47-.09,.28,.08,.39,.08,.39,0,0,1.18,.74,1.41,1.13,.23,.39-.09,1.59-.09,1.59,0,0,1.5-.74,2.34,.11,1.13,1.14,2.27,1.69,2.35,3,.08,1.31-1.7,2.55-2.87,3.55l1.62,8.99-7.45,.92s-4.38-1.91-4.45-2.03c-.3-.5-1.5,.93-1.76,1.07Z"/><g class="cls-16"><path class="cls-10" d="M34.14,70.29c6.69-2.19,13.08,4.12,12.93,8.4,0,2.68-1.88,3.3-1.76,3.98,.41,2.41,2.09,3.79,2.15,4.48,.02,.94-.76,1.16-1.56,.82-.23-.1-.38-.11-.54,.08-.25,.32,.37,.86,.27,1.27-.13,.53-1.05,.46-1.12,.71-.06,.25,1.05,.39,.93,.84-.13,.51-.86,.82-.97,1.23-.12,.45,.09,2.98-1.47,2.85-1.57-.13-2.54-1.45-3.19-1.43-.65,.02-4.3,2.84-4.3,2.84l-10.07-2.62s6.27-3.9,4.62-5.63c-2.1-2.21-7.03-14.18,4.07-17.81Z"/></g><g class="cls-16"><path class="cls-3" d="M36.5,99.47s.32-.52,.4-.98c.09-.55,.37-5.35,.37-5.35-1.04-5.3-8.62-8.27-14-5.89-5.39,2.37-5.7,11.57-3.93,13.54,.04,.05,.15,.12,.3,.22h17.48c-.27-.71-.62-1.54-.62-1.54Z"/></g><path class="cls-9" d="M53.3,97.37c.02-2.98-1.49-5.47-4.48-7.39-2.42-1.55-5.5-1.75-8.45-.53-2.62,1.08-4.66,3.1-5.09,5.04-.4,1.53,.1,2.49,.43,3.13,.2,.38,.34,.66,.23,.9-.52,1.15-1.29,1.92-1.94,2.49h18.59c.43-1.14,.71-2.37,.72-3.64Z"/><path class="cls-7" d="M14.04,94.22c-4.12-1.21-8.81-.59-12.25,1.63-.75,.48-1.37,1.04-1.87,1.64v3.52H21.07c-.22-.64-.48-1.32-.82-2.05-.98-2.14-3.24-3.87-6.22-4.74Z"/><g class="cls-16"><path class="cls-3" d="M10.55,101.01c.07-.04,.15-.09,.22-.15,.41-.32,.29-.68,.03-.98-1.76-.81-4.04-2.93-4.04-2.93,0,0,.36-.76,.16-1.19-.24-.53-2.43-3.93-2.43-3.93-1.22-1.2-2.83-1.85-4.58-2.03v11.21H10.55Z"/></g><g class="cls-16"><path class="cls-5" d="M69.02,3.71c-6.57,1.04-13.03,7.54-10.05,17.22,.27,.96,1.14,.28,1.4,.75,1.23,2.25-.81,9.13,2.56,6.73,.72-.5,.98-.83,1.2-.75,.39,.18-.32,1.16-.06,1.5,.28,.37,.95,.3,1.14,.6,.21,.34-.24,1.12,.11,1.57,.39,.52,1.17-.47,1.91,2.18,.47,1.69,2.24,1.97,3.21,1.4,.97-.58,3-3.58,3.47-4.16,1.29-1.64,7.04,2.09,7.04,2.09l10.92-8.27s-10.08-2.14-10.6-5.42c-.3-1.9,.15-17.4-12.23-15.45Z"/></g><path class="cls-4" d="M99.94,42.34c.24-.29,1.33-2.8,1.33-2.8l-1.22-19.45s-.61-.31-.94-.45c-3.39-1.44-8.05-1.53-13.7,.35-4.17,1.39-6.95,5.72-6.09,10.39,.04,.56-2.22,3.35-4.43,3.67-.97,.16-1.37,2.1,.32,2.58,.52,.12-.44,1.13-.44,1.13,0,0-.36,.81,.28,1.25,.24,.2-.73,.93-.77,1.13-.04,.2-.44,1.25,.85,1.77,.32,.12-.24,1.01-.4,1.77-.16,.77,0,5.08,4.8,3.79,4.8-1.29,5.04-1.33,5.48-.64,.44,.69,3.02,6.77,3.02,6.77l13.22-.16s-4.17-7.84-1.93-10.36c.22-.25,.43-.49,.63-.74Z"/><path class="cls-15" d="M100.16,47.67c-5.37-3.74-13.78-2.04-16.04,3.52,0,0-.71,4.29-.72,4.91-.01,.52,.67,1.11,.67,1.11,0,0-1.34,3.06-2.74,4.61-.13,.4-.09,.81,.44,.95,.69,.18,1.21-.07,1.48-.04,.27,.03,.29,.22,.29,.22,0,0,.18,1.26,.42,1.59,.24,.34,1.35,.52,1.35,.52,0,0-1.17,.97-.78,1.98,.53,1.37,.56,2.51,1.62,3.06,1.05,.55,2.75-.47,4.01-1.07l6.86,4.68,2.08-3.44s1.47-22.33,1.06-22.61Z"/><path class="cls-11" d="M99.22,85.21c2.35-2.62,1.93-14.83-5.22-17.97-7.15-3.15-17.21,.79-18.58,7.82,0,0,.37,6.37,.49,7.1,.1,.61,.53,1.3,.53,1.3,0,0-.96,2.29-1.18,3.09-.14,.49-.33,1.83-.46,2.8-.06,.5,.08,.97,.74,1.01,.85,.05,1.4-.35,1.73-.39,.32-.03,.39,.19,.39,.19,0,0,.62,1.39,.98,1.73,.35,.34,.94,.52,.94,.52,0,0-.44,.62-.22,1.16,.23,.54,.35,.44,.5,.57,.23,.2,.28,1.12,.29,1.47,0,.35,.03,1.48,1.39,1.89,1.36,.41,2.89-.31,3.54-.58,.34-.14,.4-.15,1.74-1.15l4.78,2.68,8.52-2.77s-2.35-8.76-2.46-8.86c-.46-.44,1.34-1.36,1.57-1.6Z"/><path class="cls-9" d="M96.78,20.05c-.4,1.53,.1,2.49,.43,3.13,.2,.38,.34,.66,.23,.9-.61,1.34-1.56,2.16-2.26,2.76-.37,.32-.67,.57-.74,.77-.09,.31-.05,.57,.11,.75,.2,.22,.57,.32,1.01,.26,.2-.03,.43-.04,.56,.25,.11,.24-.08,.45-.26,.66-.13,.15-.27,.31-.27,.46,0,.25,.26,.41,.5,.55,.19,.11,.35,.21,.35,.36,0,.18-.22,.22-.48,.26-.32,.06-.56,.12-.56,.28,0,.23,.15,.47,.3,.7,.15,.22,.28,.43,.28,.65,0,.09-.03,.24-.07,.44-.11,.57-.29,1.52,.07,2.05,.13,.19,.33,.31,.59,.36,.83,.14,1.57-.12,2.17-.34,.44-.16,.79-.28,1.06-.21,.26,.07,.85,.7,1.47,1.41V15.28c-2.32,1.12-4.09,2.98-4.49,4.77Z"/><path class="cls-9" d="M65.09,88.59c-2.38-1.36-4.93-9.57-.42-13.65,4.52-4.08,12.92-3.63,15.66,1.23,0,0,1.16,3.88,1.24,4.45,.07,.47-.48,1.1-.48,1.1,0,0,1.6,2.67,3.07,3.94,.17,.36,.18,.74-.3,.93-.61,.25-1.13,.08-1.37,.14-.25,.06-.25,.23-.25,.23,0,0-.02,1.18-.2,1.52-.18,.34-1.19,.64-1.19,.64,0,0,1.19,.76,.95,1.74-.33,1.32-.22,2.38-1.13,3.02-.91,.63-2.59-.11-3.83-.52l-5.78,5.13-9.18,1.63s4.69-10.61,4.75-10.72c.23-.44-1.33-.68-1.55-.8Z"/><path class="cls-11" d="M71.8,97.95c-.44-2.02-1.65-5.62-4.93-7.06-3.11-1.37-7.09-1.16-10.37,.55-2.61,1.36-4.3,3.42-4.77,5.79,.01,.18,.13,2.17,.24,3.78h20.19c-.01-.95-.12-1.99-.36-3.07Z"/><path class="cls-4" d="M99.07,37.26c-2.03,1.06-3.35,2.66-3.71,4.51,.01,.22,.24,4.08,.32,4.53,.06,.37,.33,.8,.33,.8l.02,.04-.02,.04s-.61,1.47-.75,1.97c-.09,.3-.21,1.13-.29,1.78-.02,.19,0,.33,.08,.42,.06,.08,.17,.12,.31,.13,.34,.02,.61-.08,.81-.16,.11-.04,.2-.08,.28-.09,.27-.03,.34,.17,.34,.17,.11,.24,.43,.91,.61,1.08,.21,.2,.57,.31,.57,.31l.11,.04-.07,.1s-.25,.37-.13,.66c.09,.22,.15,.25,.2,.28,.03,.01,.06,.03,.09,.06,.17,.15,.21,.7,.21,1.01,0,.22,.02,.88,.83,1.12,.75,.22,1.6-.11,2.05-.3v-19.32c-.76,.19-1.5,.46-2.2,.83Z"/><g class="cls-16"><path class="cls-10" d="M98.47,55.13c-7.88,4.48-.65,13.07,.04,14.28,1.18,2.09-1.28,7.86-1.28,7.86l4.04-.12v-23.05c-1,.2-1.95,.55-2.8,1.03Z"/></g><path class="cls-9" d="M100.53,73.5c-2.94,.98-4.73,4.04-4.17,7.12h0c.03,.45-1.57,2.42-3.15,2.65-.27,.04-.49,.34-.51,.69-.03,.44,.25,.79,.74,.93,.12,.03,.15,.1,.17,.14,.07,.23-.29,.64-.42,.77-.03,.08-.18,.5,.18,.75,.04,.03,.06,.07,.06,.12,0,.14-.14,.3-.36,.52-.08,.08-.19,.19-.2,.23,0,.01,0,.03-.01,.05-.06,.21-.2,.78,.55,1.08,.05,.02,.08,.05,.1,.1,.06,.13-.02,.35-.14,.64-.07,.19-.15,.4-.19,.59-.07,.33-.04,1.5,.68,2.18,.56,.53,1.42,.65,2.54,.35,3.28-.88,3.55-.95,3.9-.41,.14,.21,.55,1.13,.98,2.1v-20.83c-.24,.07-.49,.15-.74,.23Z"/><g class="cls-16"><path class="cls-3" d="M101.27,89.79c-3.96-.41-8.59,1.6-10.82,5.19-1.17,1.88-1.28,4.03-.83,6.03h11.65v-11.22Z"/></g><path class="cls-4" d="M44.72,35.3c-3.46,1.15-5.77,4.75-5.06,8.63,.03,.47-1.84,2.78-3.68,3.05-.8,.13-1.14,1.74,.27,2.14,.44,.1-.37,.94-.37,.94,0,0-.3,.67,.23,1.04,.2,.17-.6,.77-.64,.94-.03,.17-.37,1.04,.7,1.47,.27,.1-.2,.84-.33,1.47-.13,.64,0,4.22,3.98,3.15,3.98-1.07,4.18-1.1,4.55-.54,.37,.57,2.51,5.62,2.51,5.62l10.98-.13s-3.46-6.51-1.61-8.6c10.37-11.71,3.9-24.32-11.54-19.17Z"/><path class="cls-4" d="M77.4,63.26c-3.46,1.15-5.77,4.75-5.06,8.63,.03,.47-1.84,2.78-3.68,3.05-.8,.13-1.14,1.74,.27,2.14,.44,.1-.37,.94-.37,.94,0,0-.3,.67,.23,1.04,.2,.17-.6,.77-.64,.94-.03,.17-.37,1.04,.7,1.47,.27,.1-.2,.84-.33,1.47-.13,.64,0,4.22,3.98,3.15,3.98-1.07,4.18-1.1,4.55-.54,.37,.57,2.51,5.62,2.51,5.62l10.98-.13s-3.46-6.51-1.61-8.6c10.37-11.71,3.9-24.32-11.54-19.17Z"/><path class="cls-11" d="M59.09,38.12c1.7-1.89,1.39-10.7-3.77-12.97-5.16-2.27-12.42,.57-13.41,5.64,0,0,.27,4.59,.36,5.12,.07,.44,.38,.94,.38,.94,0,0-.69,1.65-.85,2.23-.1,.35-.24,1.32-.33,2.02-.04,.36,.06,.7,.53,.73,.61,.04,1.01-.26,1.25-.28,.23-.02,.29,.13,.29,.13,0,0,.45,1.01,.71,1.25,.26,.25,.68,.38,.68,.38,0,0-.32,.45-.16,.84,.16,.39,.25,.32,.36,.41,.17,.15,.2,.81,.21,1.06,0,.25,.02,1.07,1,1.36,.98,.29,2.08-.22,2.55-.42,.24-.1,.29-.11,1.25-.83l3.45,1.93,9.01-3.81s-4.56-4.51-4.64-4.58c-.33-.32,.97-.98,1.13-1.16Z"/><g><path class="cls-13" d="M66.31,10.25l.04-.04-.05-.02v.05Z"/><path class="cls-13" d="M66.27,10.08v.05l.05-.04-.05-.02Z"/><polygon class="cls-13" points="91.53 5.59 91.54 5.59 91.54 5.58 91.53 5.59"/><path class="cls-13" d="M66.24,10.17l.06,.02v-.06l-.06,.04Z"/><path class="cls-13" d="M91.97,4.56v0Z"/><path class="cls-13" d="M66.32,10.09l-.04,.04v.06l.06,.02s.05-.05,.08-.08l-.11-.04Z"/><path class="cls-13" d="M70.71,2.21c-.37-.86-.68-1.71-.94-2.56h-.11c.26,.85,.58,1.71,.96,2.6,1.06,2.47-3.63,7.19-4.3,7.84l.11,.04c.81-.8,5.36-5.41,4.28-7.92Z"/><path class="cls-13" d="M77,13.79l-.06-.02-.04,.05,.11-.03Z"/><path class="cls-13" d="M93.01,1.41c-.69-.35-1.28-1.04-1.72-1.75h-.24c.47,.78,1.11,1.55,1.87,1.93,.3,.16,.44,.6,.33,1.02-.14,.53-.61,.84-1.24,.81-.13-.01-.2,.05-.24,.1-.17,.25,.12,.9,.19,1.07v0c0,.1,.02,.67-.5,.82-.06,.02-.1,.06-.12,.11-.06,.15,.05,.4,.22,.75,.06,.13,.15,.3,.15,.35,0,.02,0,.04,0,.06-.02,.27-.07,1-1.07,1.06-.06,0-.11,.03-.15,.07-.12,.13-.11,.41-.09,.8,.01,.25,.03,.52,0,.77-.05,.41-.54,1.78-1.65,2.3-.87,.41-1.92,.21-3.13-.58-3.5-2.31-3.79-2.5-4.41-2-.52,.42-3.83,4.17-4.26,4.66l.06,.02-.11,.03,.04-.05-10.52-3.63s-.06,.06-.08,.08l-.04,.04v-.05l-.07-.02,.04-.04v-.05l.04,.02c.67-.65,5.36-5.37,4.3-7.84-.38-.88-.7-1.75-.96-2.6h-.1c.27,.87,.59,1.75,.97,2.64,1.1,2.56-4.3,7.76-4.36,7.81l-.12,.11,.15,.05,10.73,3.71,.06,.02,.04-.05s3.75-4.26,4.28-4.69c.49-.39,.64-.32,4.18,2.01,1.27,.83,2.38,1.04,3.32,.6,1.2-.56,1.71-2,1.77-2.46,.03-.26,.02-.55,0-.8-.01-.28-.03-.59,.04-.66,0,0,0,0,.02,0,.78-.05,1.21-.47,1.26-1.25,0-.02,0-.04,0-.06,.01-.09-.05-.22-.17-.46-.08-.17-.25-.51-.21-.59h0c.56-.16,.66-.75,.63-1.04v-.03c-.17-.34-.3-.78-.23-.88,0,0,.01-.02,.06-.02,.87,.04,1.31-.47,1.45-.96,.14-.52-.04-1.04-.43-1.25Z"/></g><g><path class="cls-12" d="M51.22,11.74h-.08l.06,.06,.03-.06Z"/><path class="cls-12" d="M51.15,11.88l.03-.06h-.08l.06,.06Z"/><polygon class="cls-12" points="34.74 3.97 34.74 3.97 34.74 3.97 34.74 3.97"/><path class="cls-12" d="M51.22,11.82l-.03-.03v.03h.03Z"/><path class="cls-12" d="M51.1,11.82h.08v-.03l-.04-.06h-.12l.08,.09Z"/><path class="cls-12" d="M48.01,6.34c.04-.28,.17-.49,.4-.63,1.04-.65,3.22-3.03,4.35-6.05h-.1c-1.11,2.93-3.2,5.29-4.3,5.98-1.76,1.09,2.17,5.44,2.78,6.1h.08l-.03,.06,.03,.03h-.04l-.03,.06-.06-.06-.08-.09h-9.49l.03,.03-.07-.03h.04c-.37-.48-2.66-3.41-3.24-3.58-.27-.08-.62,.05-1.06,.21-.6,.21-1.34,.48-2.17,.34-.26-.05-.46-.16-.59-.36-.36-.52-.18-1.48-.07-2.05,.04-.19,.07-.35,.07-.44,0-.21-.14-.42-.28-.65-.15-.23-.3-.46-.3-.7,0-.16,.24-.22,.56-.28,.26-.05,.48-.09,.48-.26,0-.15-.16-.24-.35-.36-.23-.14-.5-.3-.5-.55,0-.15,.14-.3,.27-.46,.18-.21,.37-.42,.26-.66-.13-.29-.36-.28-.56-.25-.44,.06-.81-.03-1.01-.26-.16-.18-.2-.44-.11-.75,.07-.19,.36-.45,.74-.77,.1-.09,.21-.18,.31-.27h-.27c-.06,.05-.11,.1-.16,.14-.41,.35-.7,.6-.79,.85-.13,.47,0,.76,.15,.92,.24,.27,.66,.39,1.17,.31,.23-.03,.31,0,.38,.15,.06,.14-.08,.3-.24,.48-.15,.18-.31,.36-.32,.57,0,.35,.33,.55,.58,.7,.1,.06,.26,.15,.26,.2h0s-.22,.07-.34,.09c-.31,.06-.71,.13-.7,.45,0,.29,.18,.56,.33,.79,.13,.2,.26,.39,.26,.55,0,.07-.03,.23-.06,.4-.11,.6-.31,1.6,.09,2.18,.16,.23,.4,.37,.71,.43,.87,.15,1.64-.12,2.26-.34,.4-.14,.74-.26,.95-.2,.41,.12,2.12,2.19,3.18,3.55l.03,.03h9.98l-.14-.15s-3.49-3.7-3.27-5.42Z"/><path class="cls-12" d="M41.55,11.77l-.03-.03h-.04l.07,.03Z"/><path class="cls-12" d="M48.31,5.56c-.27,.17-.44,.43-.48,.76-.21,1.63,2.52,4.7,3.18,5.42h.12c-.61-.66-4.53-5.01-2.78-6.1,1.1-.68,3.2-3.05,4.3-5.98h-.09c-1.12,2.95-3.25,5.27-4.26,5.9Z"/></g><path class="cls-13" d="M72.84,59.48c-1.53-.37-3.59-2.76-4.68-5.44-.73-1.79-1.67-5.26,.26-8.37,1.82-2.94,5.28-5.05,9.01-5.49,2.98-.36,5.59,.4,7.35,2.13v-.02s2.33,3.65,2.58,4.2c.2,.43-.17,1.2-.17,1.21l-.03,.06,.05,.04s2.47,2.3,4.35,3.16l-.03-.02c.17,.19,.25,.37,.23,.54-.01,.14-.1,.27-.25,.38-.36,.28-.73,.37-1,.43-.15,.04-.27,.06-.36,.11-.29,.16-.23,.4-.23,.41,.09,.33,.31,1.27,.25,1.58-.06,.3-.74,.79-1,.95l-.16,.1,.18,.05s1.39,.42,1.43,1.43c.01,.39,.05,.74,.09,1.08,.1,.93,.19,1.66-.34,2.31-.62,.76-2.11,.68-3.42,.6-.21-.01-.41-.02-.6-.03h-.05l-.03,.04-4.43,7,.04-.03-8.97,4.4,.12,.09c.02-.12,1.68-12.28,1.71-12.45,.02-.09,0-.17-.06-.24-.19-.23-.75-.24-1.41-.22-.19,0-.37,0-.43,0Zm1.73,.44c-.02,.13-1.64,11.95-1.71,12.46l-.02,.16,.15-.07,8.97-4.4h.02v-.03l4.45-7-.08,.04c.19,0,.39,.02,.6,.03,1.36,.08,2.9,.16,3.57-.67,.57-.71,.48-1.51,.38-2.44-.04-.34-.08-.69-.09-1.07-.04-1.13-1.5-1.57-1.56-1.59l.02,.16c.1-.06,.98-.64,1.07-1.06,.09-.42-.24-1.61-.25-1.66,0-.01-.02-.12,.14-.21,.07-.04,.18-.06,.31-.09,.29-.07,.68-.16,1.07-.46,.19-.15,.3-.32,.31-.5,.02-.21-.07-.44-.27-.67h-.01l-.02-.02c-1.86-.85-4.28-3.11-4.31-3.13h-.01l.03,.1s.4-.86,.17-1.35c-.26-.57-2.51-4.08-2.61-4.23h0v-.02c-1.78-1.74-4.51-2.53-7.5-2.18-3.79,.45-7.29,2.59-9.14,5.58-1.97,3.18-1.02,6.71-.27,8.53,1.13,2.77,3.2,5.15,4.8,5.54,.08,.02,.25,.02,.48,.01,.42,0,1.12-.02,1.27,.16,.02,.03,.03,.05,.02,.09Z"/><path class="cls-14" d="M87.03,3.43c2.87-.64,5.97,0,8.31,1.72,1.69,1.25,3.78,3.66,4.13,8.04,.04,.4-.17,.48-.41,.58-.18,.07-.38,.15-.41,.38-.1,.79,.35,1.9,.77,2.98,.43,1.09,.88,2.22,.54,2.62-.17,.2-.55,.22-1.12,.08-.23-.05-.42-.11-.56-.15-.32-.1-.5-.15-.63-.03-.18,.19,.02,.44,.2,.67,.13,.17,.29,.36,.26,.47-.04,.16-.19,.27-.34,.39-.16,.12-.3,.24-.33,.41-.03,.17,.08,.35,.19,.54,.13,.22,.26,.44,.2,.65-.03,.11-.12,.16-.23,.23-.3,.17-.71,.4-.55,1.98,.08,.72-.23,1.18-.5,1.43-.37,.35-.91,.53-1.37,.45-.68-.11-2.31-1.15-3.19-1.7-.26-.16-.46-.29-.58-.36-1.49-.87-4.6,3.47-4.73,3.65l.09-.03-10.55-2.93,.02,.16c.28-.19,6.9-4.62,6.31-7.24-.04-.16-.12-.42-.24-.79-.7-2.18-2.34-7.28-.3-10.85,.96-1.68,2.65-2.81,5.01-3.34Zm-4.64,15.01c.56,2.5-6.17,7.01-6.24,7.05l-.16,.11,.18,.05,10.55,2.93,.06,.02,.04-.05s3.14-4.39,4.5-3.6c.11,.06,.31,.19,.57,.35,.95,.6,2.55,1.61,3.26,1.73,.51,.08,1.11-.11,1.52-.5,.42-.4,.62-.96,.55-1.58-.15-1.47,.19-1.66,.46-1.81,.13-.07,.26-.15,.31-.33,.08-.28-.08-.55-.22-.78-.1-.16-.18-.32-.17-.43,.02-.1,.14-.2,.27-.3,.16-.12,.34-.27,.4-.48,.06-.2-.12-.42-.29-.63-.14-.17-.29-.36-.22-.43,.05-.05,.21,0,.45,.07,.15,.04,.34,.1,.57,.16,.65,.16,1.08,.12,1.3-.14,.42-.48-.01-1.55-.51-2.8-.42-1.06-.85-2.15-.76-2.89,.01-.12,.12-.17,.3-.24,.25-.1,.58-.23,.52-.76-.35-4.44-2.48-6.89-4.2-8.16-2.37-1.75-5.53-2.41-8.45-1.75-2.41,.54-4.14,1.69-5.13,3.42-2.08,3.64-.42,8.79,.29,10.99,.11,.35,.2,.62,.23,.77Z"/><path class="cls-13" d="M37.71,34.94c1.63,1.22,2.79,3.01,3.24,5.02,.47,2.07,.16,4.24-.87,6.11h0c-.23,.58,1.01,3.83,2.98,4.82,.33,.18,.49,.66,.36,1.13-.16,.59-.68,.93-1.38,.9-.14-.01-.22,.05-.27,.11-.2,.28,.15,1.05,.22,1.21v-.04s.06,.75-.56,.93c-.07,.03-.11,.07-.13,.13-.07,.17,.05,.44,.24,.83,.07,.14,.16,.34,.16,.39,0,.02,0,.04,0,.07-.02,.3-.08,1.11-1.19,1.19-.06,0-.12,.03-.17,.08-.14,.15-.12,.46-.1,.9,.01,.27,.03,.58,0,.86-.05,.46-.61,1.99-1.84,2.57-.97,.45-2.15,.24-3.49-.65-3.91-2.58-4.23-2.79-4.92-2.23-.61,.49-4.63,5.06-4.8,5.25l.12-.03-11.96-4.13,.04,.19c.25-.24,6.19-5.96,4.91-8.95-3.42-7.98-2.65-15.48,1.95-19.1,2.02-1.59,4.61-2.26,7.5-1.95,3.13,.34,6.58,1.86,9.97,4.39Zm-19.62,16.74c1.22,2.86-4.79,8.65-4.86,8.7l-.13,.13,.17,.06,11.96,4.13,.07,.02,.05-.06s4.18-4.75,4.77-5.23c.54-.44,.72-.35,4.66,2.24,1.41,.93,2.66,1.15,3.7,.67,1.34-.62,1.91-2.23,1.97-2.74,.03-.29,.02-.61,0-.89-.01-.31-.03-.66,.04-.74,0,0,0,0,.02,0,.87-.06,1.35-.53,1.4-1.39,0-.03,0-.05,0-.06,.01-.1-.05-.25-.19-.51-.09-.19-.28-.57-.24-.66h0c.63-.18,.74-.84,.7-1.16v-.04c-.19-.38-.34-.86-.25-.98,0,0,.02-.02,.07-.02,.97,.04,1.46-.52,1.61-1.07,.16-.58-.05-1.16-.48-1.39-1.86-.93-3.05-4.11-2.87-4.53h0c1.05-1.91,1.37-4.14,.89-6.26-.47-2.07-1.65-3.9-3.32-5.15-3.42-2.56-6.9-4.09-10.08-4.43-2.95-.32-5.6,.37-7.67,1.99-4.68,3.69-5.47,11.29-2.02,19.36Z"/><path class="cls-12" d="M46.39,50.27c-3.33-1.68-7.36-1.86-10.77-.46-2.47,1.01-5.79,3.33-7.58,8.61-.23,.61,.13,.87,.39,1.05,.2,.14,.32,.23,.3,.4-.12,.94-.98,2.13-1.82,3.29-.98,1.35-1.82,2.52-1.47,3.22,.19,.36,.68,.54,1.51,.55,.3,0,.54,0,.74-.01,.34-.01,.54-.02,.59,.06,.07,.13-.17,.31-.4,.48-.27,.2-.54,.4-.53,.65,0,.27,.18,.49,.33,.69,.13,.16,.25,.32,.24,.46-.01,.15-.17,.31-.34,.48-.24,.24-.5,.51-.5,.87,0,.23,.14,.36,.27,.48,.29,.27,.65,.61,0,2.37-.27,.72-.2,1.46,.19,2.06,.37,.59,1.03,1.01,1.67,1.06,.89,.08,3.13-.66,4.47-1.09,.36-.12,.65-.21,.81-.26,1.91-.54,4.36,5.7,4.38,5.76h0l.03,.06h.05l13.69-.33h.19l-.13-.15c-.07-.08-6.87-7.62-5.41-10.49,.09-.18,.28-.48,.52-.87,1.53-2.45,5.12-8.19,3.72-13.23-.67-2.39-2.4-4.31-5.16-5.71Zm.77,19.72c-1.51,2.98,5.16,10.38,5.44,10.69l.06-.15-13.69,.33,.08,.06c-.1-.26-2.53-6.45-4.59-5.86-.16,.04-.45,.14-.81,.26-1.24,.41-3.55,1.16-4.4,1.09-.59-.05-1.19-.44-1.54-.98-.36-.56-.42-1.24-.17-1.91,.68-1.86,.26-2.26-.05-2.55-.12-.12-.21-.2-.22-.36,0-.28,.22-.52,.45-.74,.19-.19,.37-.38,.39-.59,.02-.21-.12-.39-.27-.58-.14-.18-.29-.37-.29-.58,0-.16,.24-.34,.46-.51,.29-.22,.6-.45,.45-.71-.11-.17-.34-.16-.75-.15-.2,0-.44,.02-.73,.01-.75,0-1.21-.16-1.36-.45-.3-.6,.55-1.78,1.46-3.04,.85-1.17,1.72-2.39,1.85-3.37,.03-.27-.17-.42-.37-.56-.26-.19-.51-.36-.33-.85,1.77-5.22,5.04-7.5,7.48-8.5,3.36-1.38,7.33-1.2,10.62,.46,2.71,1.37,4.42,3.25,5.07,5.6,1.38,4.97-2.18,10.66-3.7,13.09-.25,.4-.44,.7-.53,.88Z"/><path class="cls-12" d="M79.95,49.92c-3.33-1.68-7.36-1.86-10.77-.46-2.47,1.01-5.79,3.33-7.58,8.61-.23,.61,.13,.87,.39,1.05,.2,.14,.32,.23,.3,.4-.12,.94-.98,2.13-1.82,3.29-.98,1.35-1.82,2.52-1.47,3.22,.19,.36,.68,.54,1.51,.55,.3,0,.54,0,.74-.01,.34-.01,.54-.02,.59,.06,.07,.13-.17,.31-.4,.48-.27,.2-.54,.4-.53,.65,0,.27,.18,.49,.33,.69,.13,.16,.25,.32,.24,.46-.01,.15-.17,.31-.34,.48-.24,.24-.5,.51-.5,.87,0,.23,.14,.36,.27,.48,.29,.27,.65,.61,0,2.37-.27,.72-.2,1.46,.19,2.06,.37,.59,1.03,1.01,1.67,1.06,.89,.08,3.13-.66,4.47-1.09,.36-.12,.65-.21,.81-.26,1.91-.54,4.36,5.7,4.38,5.76h0l.03,.06h.05l13.69-.33h.19l-.13-.15c-.07-.08-6.87-7.62-5.41-10.49,.09-.18,.28-.48,.52-.87,1.53-2.45,5.12-8.19,3.72-13.23-.67-2.39-2.4-4.31-5.16-5.71Zm.77,19.72c-1.51,2.98,5.16,10.38,5.44,10.69l.06-.15-13.69,.33,.08,.06c-.1-.26-2.53-6.45-4.59-5.86-.16,.04-.45,.14-.81,.26-1.24,.41-3.55,1.16-4.4,1.09-.59-.05-1.19-.44-1.54-.98-.36-.56-.42-1.24-.17-1.91,.68-1.86,.26-2.26-.05-2.55-.12-.12-.21-.2-.22-.36,0-.28,.22-.52,.45-.74,.19-.19,.37-.38,.39-.59,.02-.21-.12-.39-.27-.58-.14-.18-.29-.37-.29-.58,0-.16,.24-.34,.46-.51,.29-.22,.6-.45,.45-.71-.11-.17-.34-.16-.75-.15-.19,0-.44,.02-.73,.01-.75,0-1.21-.16-1.36-.45-.3-.6,.55-1.78,1.46-3.04,.85-1.17,1.72-2.39,1.85-3.37,.03-.27-.17-.42-.37-.56-.26-.19-.51-.36-.33-.85,1.77-5.22,5.04-7.5,7.48-8.5,3.36-1.38,7.33-1.2,10.62,.46,2.71,1.37,4.42,3.25,5.07,5.6,1.38,4.97-2.18,10.66-3.7,13.09-.25,.4-.44,.7-.53,.88Z"/><path class="cls-12" d="M38.47,16.93c-2.91-.36-5.83,.83-8,3.25-1.92,2.15-2.9,4.92-2.44,6.91,.32,1.61,1.22,2.29,1.81,2.73,.3,.23,.52,.39,.53,.58,.04,1.43-.46,2.57-.82,3.39-.21,.49-.37,.85-.34,1.11,.09,.48,.34,.68,.53,.76,.33,.14,.77,.06,1.19-.23,.19-.13,.28-.14,.4-.03,.11,.1,.06,.31,0,.53-.06,.23-.13,.46-.04,.65,.15,.32,.54,.36,.83,.38,.12,.01,.31,.03,.33,.07h0s-.17,.16-.26,.23c-.26,.19-.58,.42-.44,.71,.12,.26,.4,.42,.64,.57,.21,.12,.4,.24,.47,.38,.03,.07,.07,.22,.12,.39,.16,.59,.42,1.57,1.03,1.92,.24,.14,.52,.17,.82,.08,.85-.24,1.43-.82,1.89-1.29,.29-.3,.55-.56,.77-.59,.42-.07,2.86,1.05,4.4,1.82l.04,.02,.04-.02,8.77-4.23,.18-.09-.19-.07s-4.75-1.81-5.3-3.46c-.09-.27-.06-.51,.08-.74,.9-1.42,2.33-6.76,.36-10.93-1.3-2.75-3.79-4.37-7.38-4.81Zm6.88,15.65c-.17,.27-.21,.57-.1,.89,.58,1.73,5.21,3.5,5.41,3.57v-.16l-8.78,4.23h.08c-.4-.2-3.9-1.94-4.51-1.84-.27,.05-.53,.31-.86,.64-.45,.45-1,1.02-1.81,1.25-.26,.07-.48,.05-.69-.06-.55-.31-.8-1.25-.95-1.81-.05-.19-.09-.34-.13-.42-.09-.19-.31-.32-.54-.46-.23-.14-.48-.28-.58-.5-.07-.15,.12-.3,.38-.49,.21-.15,.39-.29,.32-.45-.06-.13-.25-.15-.47-.17-.27-.02-.58-.05-.68-.28-.06-.13,0-.33,.05-.53,.07-.27,.15-.54-.05-.71-.24-.2-.44-.1-.61,.02-.36,.25-.75,.32-1.02,.21-.22-.09-.37-.31-.42-.63-.02-.21,.13-.56,.33-1.01,.37-.84,.87-2,.83-3.47,0-.27-.25-.46-.6-.71-.57-.43-1.43-1.08-1.74-2.63-.45-1.93,.51-4.65,2.4-6.75,2.13-2.38,4.99-3.54,7.85-3.19,3.53,.43,5.97,2.01,7.24,4.71,1.95,4.11,.54,9.36-.35,10.76Z"/><path class="cls-12" d="M19.74,42.4c-3.02,1.01-4.86,4.15-4.29,7.31h0c.02,.32-1.51,2.23-3,2.44-.36,.06-.63,.42-.65,.85-.02,.41,.19,.91,.87,1.11,.04,0,.04,.02,.04,.02,.03,.1-.18,.39-.39,.62h0v.02c-.11,.22-.19,.7,.22,.98,0,0-.01-.01-.01-.01,0,.07-.21,.29-.31,.39-.15,.16-.23,.24-.25,.32v.04c-.17,.61,.05,1.05,.64,1.29,0,0,0,0,0,0,.03,.07-.06,.31-.14,.51-.07,.19-.16,.41-.2,.62-.08,.37-.05,1.61,.73,2.34,.61,.58,1.52,.71,2.71,.39,3.3-.89,3.44-.91,3.71-.48,.3,.46,2.07,4.65,2.09,4.69l.02,.05h.06l9.18-.11h.14l-.07-.13c-.03-.05-2.85-5.41-1.36-7.09,4.23-4.77,5.42-10.19,3.03-13.8-1.05-1.59-2.72-2.67-4.83-3.12-2.27-.49-5.01-.23-7.95,.75Zm9.61,16.05c-1.57,1.77,1.21,7.07,1.33,7.29l.08-.13-9.18,.11,.08,.05c-.07-.17-1.8-4.24-2.11-4.71-.35-.54-.62-.47-3.9,.41-1.12,.3-1.98,.18-2.54-.35-.72-.68-.75-1.85-.68-2.18,.04-.19,.12-.4,.19-.59,.11-.3,.2-.51,.14-.64-.02-.05-.06-.08-.1-.1-.75-.3-.6-.87-.55-1.08,0-.02,0-.04,.01-.05h0s.12-.15,.2-.23c.22-.23,.37-.39,.36-.52,0-.05-.02-.09-.06-.12-.39-.27-.18-.74-.17-.76l-.02,.02c.12-.12,.5-.55,.43-.79-.01-.04-.05-.12-.17-.14-.48-.14-.76-.49-.74-.93,.02-.35,.24-.65,.51-.69,1.58-.23,3.18-2.2,3.15-2.64h0c-.56-3.09,1.23-6.14,4.17-7.12,2.91-.97,5.63-1.23,7.86-.75,2.06,.44,3.69,1.5,4.72,3.05,2.34,3.54,1.15,8.87-3.02,13.58Z"/><path class="cls-14" d="M26.05,2.61c2.8-.63,5.83,0,8.1,1.68,1.65,1.22,3.69,3.57,4.03,7.84,.04,.39-.16,.47-.4,.56-.17,.07-.37,.14-.4,.37-.09,.77,.34,1.86,.76,2.91,.42,1.07,.86,2.17,.52,2.55-.17,.19-.53,.22-1.09,.08-.22-.05-.41-.11-.55-.15-.31-.09-.49-.14-.61-.03-.18,.19,.02,.43,.2,.65,.13,.16,.28,.35,.25,.46-.04,.15-.19,.27-.33,.38-.15,.12-.3,.23-.32,.4-.03,.17,.07,.34,.18,.53,.12,.21,.25,.43,.19,.63-.03,.11-.1,.15-.22,.22-.29,.16-.7,.39-.54,1.94,.07,.7-.23,1.15-.49,1.4-.36,.34-.89,.52-1.33,.44-.66-.11-2.26-1.12-3.12-1.66-.25-.16-.45-.29-.56-.35-1.46-.85-4.49,3.38-4.62,3.56l.09-.03-10.29-2.86,.03,.16c.28-.18,6.74-4.51,6.16-7.06-.04-.16-.12-.41-.23-.77-.68-2.13-2.29-7.1-.3-10.59,.94-1.64,2.58-2.74,4.89-3.25Zm-4.53,14.65c.55,2.44-6.02,6.84-6.09,6.88l-.16,.11,.18,.05,10.29,2.86,.06,.02,.04-.05s3.06-4.28,4.39-3.51c.11,.06,.31,.19,.56,.35,.93,.59,2.49,1.57,3.18,1.69,.5,.08,1.08-.11,1.48-.49,.41-.39,.6-.94,.54-1.54-.15-1.43,.18-1.62,.45-1.77,.13-.07,.26-.14,.31-.32,.08-.28-.08-.54-.21-.77-.09-.16-.18-.31-.16-.41,.02-.1,.13-.19,.26-.29,.16-.12,.33-.26,.39-.47,.05-.2-.12-.41-.28-.61-.13-.16-.28-.35-.21-.42,.05-.04,.2,0,.44,.07,.15,.04,.33,.1,.56,.15,.64,.16,1.05,.11,1.27-.13,.41-.47-.01-1.52-.49-2.73-.41-1.03-.83-2.1-.74-2.82,.01-.12,.11-.16,.29-.23,.24-.09,.57-.22,.51-.74-.34-4.34-2.42-6.73-4.1-7.97-2.32-1.71-5.4-2.35-8.25-1.71-2.35,.53-4.04,1.65-5,3.34-2.03,3.55-.41,8.58,.28,10.73,.11,.34,.19,.6,.23,.75Z"/><path class="cls-13" d="M12.8,15.67c1.85-2.34,4.81-3.56,8.11-3.36,2.93,.18,5.61,1.48,6.69,3.23,.9,1.37,.74,2.48,.63,3.21-.06,.44-.11,.76,.08,.96,1.04,1.11,2.25,1.6,3.14,1.95,.47,.19,.85,.34,.99,.51,.19,.27,.23,.54,.14,.77-.12,.29-.46,.51-.91,.59-.21,.04-.43,.11-.46,.43-.02,.27,.23,.41,.48,.56,.18,.11,.37,.21,.42,.36,.09,.25-.12,.49-.3,.71-.15,.17-.27,.32-.22,.46,.06,.17,.29,.14,.56,.1,.33-.05,.59-.08,.65,.08,.08,.23,0,.52-.06,.79-.07,.27-.13,.52-.06,.73,.03,.09,.11,.23,.21,.41,.3,.52,.8,1.4,.62,2.03-.07,.23-.22,.41-.46,.55-.76,.42-1.59,.41-2.24,.4-.49,0-.87-.01-1.1,.15-.51,.36-5.2,8.47-5.73,9.4l.1-.04-5.8-1.51,.06,.12c.09-.2,2.22-4.88,1.39-6.57-.15-.31-.39-.5-.72-.58-1.67-.39-6.54-3.24-8.09-7.69-1.02-2.92-.38-5.86,1.91-8.75Zm6.14,16.61c.28,.06,.47,.22,.6,.49,.8,1.62-1.37,6.37-1.39,6.42l-.04,.09,.1,.03,5.8,1.51,.06,.02,.03-.06c1.44-2.5,5.27-9.05,5.68-9.34,.19-.13,.56-.13,1-.12,.68,0,1.53,.02,2.33-.42,.28-.16,.47-.38,.55-.65,.2-.7-.33-1.62-.64-2.16-.09-.16-.17-.3-.2-.38-.05-.16,0-.39,.07-.63,.07-.29,.16-.61,.06-.89-.1-.31-.51-.25-.84-.2-.12,.02-.33,.05-.37,.02h0s.1-.19,.19-.29c.19-.23,.46-.54,.33-.88-.07-.2-.29-.33-.5-.45-.21-.12-.41-.23-.39-.39,.01-.17,.09-.23,.32-.27,.52-.1,.89-.35,1.04-.7,.08-.2,.12-.53-.16-.94-.17-.21-.54-.36-1.06-.57-.87-.35-2.06-.82-3.08-1.91-.13-.14-.09-.42-.03-.81,.11-.76,.28-1.91-.66-3.33-1.1-1.8-3.84-3.13-6.82-3.31-3.36-.21-6.37,1.04-8.26,3.43-2.33,2.94-2.98,5.94-1.94,8.92,1.58,4.51,6.52,7.41,8.22,7.8Z"/><path class="cls-13" d="M99,37.28c.72-.38,1.49-.66,2.27-.85v-.18c-.81,.19-1.6,.48-2.35,.87-2.07,1.08-3.47,2.79-3.84,4.68h0v.02c.01,.17,.24,4.13,.32,4.6,.06,.34,.26,.71,.33,.83-.1,.24-.62,1.49-.75,1.97-.09,.31-.21,1.16-.3,1.82-.03,.24,.01,.43,.12,.56,.1,.12,.24,.18,.44,.19,.38,.02,.68-.09,.89-.17,.1-.04,.18-.07,.24-.07,.13-.01,.16,.06,.16,.06,.02,.04,.42,.92,.65,1.15,.17,.16,.41,.27,.54,.32-.08,.15-.21,.46-.09,.74,.11,.26,.19,.32,.29,.37,.02,.01,.04,.02,.05,.03,.08,.07,.15,.44,.16,.89,.01,.68,.34,1.12,.96,1.3,.81,.24,1.69-.1,2.18-.31v-.19c-.45,.19-1.34,.56-2.13,.33-.82-.24-.83-.91-.84-1.14,0-.32-.04-.87-.21-1.02-.03-.03-.07-.05-.09-.06-.05-.03-.11-.05-.2-.28-.13-.3,.13-.66,.13-.67l.07-.1-.12-.04s-.36-.11-.58-.32c-.18-.17-.5-.85-.61-1.09,0,0-.07-.2-.34-.17-.08,0-.17,.04-.28,.09-.2,.08-.47,.18-.82,.16-.14,0-.25-.05-.31-.13-.08-.09-.11-.24-.08-.43,.09-.65,.21-1.49,.3-1.8,.14-.5,.76-1.97,.76-1.99l.02-.04-.02-.04s-.27-.44-.33-.81c-.08-.45-.3-4.34-.32-4.57,.37-1.86,1.7-3.48,3.75-4.55Z"/><path class="cls-13" d="M22.53,9.21c-.58-.84-1.18-1.71-1.1-2.16,0-.05,.04-.13,.08-.24,.28-.75,1.15-3.01-.25-7.15h-.18l.02,.03c1.38,4.09,.57,6.25,.26,7.06-.05,.13-.08,.21-.09,.27-.09,.52,.5,1.38,1.13,2.29,.62,.89,1.31,1.9,1.05,2.29-.61,.89-2.4,.77-2.42,.77h-.13l.04,.12c.1,.3,.33,1.13,.11,1.42-.22,.3-1.24,.49-1.62,.53l-.27,.04,.24,.13s.87,.47,.75,.96c-.08,.33-.24,.46-.38,.57-.09,.07-.16,.13-.19,.23-.04,.18-.19,1.03-.14,1.39,0,.06,.03,.13,.05,.22,.14,.52,.39,1.49-.64,1.98-1.18,.56-2.67,.18-3.38,0l-.13-.03c-.35-.09-1.76-.75-3.21-1.51l-.06-.03-.05,.04-7.69,7.22c-.87-3.6-2.98-12.46-3.02-12.99,.17-.25,1.65-2.45,1.28-2.75C.66,8.32,.14,4.12,1.34-.32l.13-.02h-.3C-.04,4.16,.5,8.41,2.48,10.03c.13,.2-.85,1.91-1.32,2.54-.04,.06-.08,.11,1.48,6.71l1.56,6.55,.03,.15,.11-.1,7.76-7.28c1.46,.77,2.83,1.41,3.19,1.5l.13,.03c.74,.19,2.27,.58,3.5-.01,1.16-.55,.87-1.66,.73-2.19-.02-.08-.04-.15-.05-.2-.04-.32,.09-1.12,.14-1.32,0-.04,.06-.08,.13-.13,.14-.11,.34-.28,.44-.66,.11-.45-.35-.83-.63-1.03,.42-.07,1.26-.25,1.5-.57,.27-.35,.05-1.15-.04-1.46,.44,.01,1.88-.01,2.45-.85,.33-.48-.34-1.45-1.05-2.48Z"/><g><path class="cls-12" d="M11.31,38.79l.03-.06h-.08l.06,.06Z"/><path class="cls-12" d="M11.37,38.65h-.08l.06,.06,.03-.06Z"/><path class="cls-12" d="M11.37,38.73l-.03-.03v.03h.03Z"/><path class="cls-12" d="M8.16,33.25c.04-.28,.17-.49,.4-.63,1.43-.89,5.04-5.08,5.07-9.69,.02-3.05-1.51-5.58-4.56-7.54-2.47-1.59-5.61-1.79-8.62-.55-.18,.08-.36,.16-.54,.24v.2c.2-.1,.4-.19,.61-.27,2.95-1.22,6.03-1.02,8.45,.53,2.99,1.92,4.5,4.41,4.48,7.39-.03,4.55-3.58,8.67-4.99,9.55-.28,.17-.44,.43-.48,.76-.21,1.63,2.52,4.7,3.18,5.42h.2l-.03,.06,.03,.03h-.04l-.03,.06-.06-.06H1.64s-.87-1.13-1.73-2.12v.13c.57,.66,1.18,1.42,1.66,2.04l.03,.03H11.58l-.14-.15s-3.49-3.7-3.27-5.42Z"/><path class="cls-12" d="M11.25,38.73h.08v-.03l-.04-.06h-.12s.06,.06,.08,.09Z"/><path class="cls-12" d="M1.68,38.65l.03,.03-.07-.03h.04c-.21-.26-1-1.28-1.77-2.17v.14c.85,.99,1.73,2.12,1.73,2.12H11.25s-.05-.05-.08-.09H1.68Z"/><path class="cls-12" d="M1.71,38.68l-.03-.03h-.04l.07,.03Z"/></g><g><polygon class="cls-13" points="12.28 53.59 12.29 53.55 12.25 53.57 12.28 53.59"/><path class="cls-13" d="M12.31,53.45h-.03l.03,.04v-.04Z"/><path class="cls-13" d="M1.13,55.29l.05,.03,.05-.03h-.09Z"/><path class="cls-13" d="M12.34,53.53l-.04-.04v.06l.04-.02Z"/><path class="cls-13" d="M12.4,53.47l-4.16-4.11s-.02-.04-.02-.05c.02-.17,.48-.48,.73-.64,.16-.11,.26-.17,.3-.22,.85-.95,1.1-3.62,.57-6.09-.35-1.62-1.33-4.5-3.97-5.67-1.78-.79-3.91-.92-5.94-.43v.18c2-.49,4.11-.36,5.87,.41,2.57,1.13,3.53,3.96,3.87,5.55,.58,2.7,.19,5.14-.53,5.94-.03,.03-.15,.11-.27,.19-.43,.28-.79,.54-.81,.77,0,.07,.02,.14,.07,.19l4.07,4.02,.09-.04h.03v.03l.03,.04-.05,.02v.04l-.03-.03-7.99,3.37-3.09-1.73c-.87,.65-.91,.65-1.12,.74l-.14,.06v.09l.09-.04,.08-.03h.03c.2-.1,.27-.13,1.07-.72l-.05-.03h.09l-.05,.03,3.04,1.7,.04,.02,.04-.02,8.08-3.41,.12-.05-.09-.09Z"/><polygon class="cls-13" points="4.31 56.87 4.27 56.85 4.23 56.86 4.31 56.87"/><path class="cls-13" d="M4.27,56.85l.04,.02h-.08l.04-.02-3.05-1.71-.05-.03-.05,.03c-.82,.61-.89,.64-1.08,.72H.01l-.08,.05h-.02v.1l.14-.06c.22-.09,.26-.1,1.12-.74l3.09,1.73,7.99-3.37-.07-.07-7.92,3.34Z"/><path class="cls-13" d="M12.25,53.57h.03v-.1l-.1,.04,.07,.07Z"/></g><path class="cls-12" d="M17.58,27.92c3.11,1.04,5.01,4.28,4.42,7.54h0c-.03,.48,1.66,2.55,3.33,2.8,.29,.05,.52,.36,.54,.74,.03,.47-.27,.84-.79,.99-.11,.03-.15,.09-.17,.15-.07,.25,.33,.7,.45,.83l-.02-.02s.23,.53-.18,.81c-.04,.04-.06,.08-.07,.12,0,.14,.15,.31,.38,.55,.08,.09,.2,.21,.21,.25h0s0,.03,.01,.05c.06,.23,.21,.83-.58,1.15-.05,.02-.08,.05-.11,.1-.06,.14,.02,.37,.14,.68,.08,.2,.16,.42,.2,.62,.07,.35,.04,1.59-.72,2.31-.6,.57-1.5,.69-2.7,.37-3.47-.93-3.75-1.01-4.12-.44-.33,.5-2.15,4.81-2.23,4.99l.08-.05-9.71-.12,.08,.13c.13-.24,3.07-5.84,1.41-7.71-4.42-4.99-5.67-10.63-3.2-14.38,1.09-1.64,2.81-2.76,5-3.23,2.37-.51,5.24-.24,8.32,.79ZM7.33,44.86c1.58,1.78-1.4,7.46-1.43,7.51l-.07,.13h.14l9.71,.12h.06l.02-.05s1.9-4.47,2.21-4.96c.29-.45,.44-.43,3.93,.51,1.25,.34,2.22,.2,2.86-.41,.82-.78,.85-2.09,.77-2.48-.05-.22-.13-.45-.21-.65-.08-.21-.18-.47-.15-.54,0,0,0,0,0,0,.63-.25,.86-.71,.69-1.36,0-.02,0-.03-.01-.04-.02-.08-.1-.17-.26-.33-.11-.11-.34-.35-.33-.42h0c.42-.28,.33-.79,.23-1.02h0v-.02c-.23-.23-.45-.55-.42-.66,0,0,0-.02,.04-.03,.71-.2,.94-.74,.92-1.17-.03-.46-.31-.84-.69-.9-1.58-.23-3.21-2.25-3.19-2.6h0c.3-1.65,0-3.35-.87-4.77-.84-1.39-2.14-2.44-3.67-2.95-3.11-1.04-6.02-1.31-8.41-.79-2.23,.48-3.99,1.62-5.1,3.3-2.52,3.82-1.26,9.55,3.21,14.6Z"/><path class="cls-14" d="M12.38,67.37c-1.16,.48-3.86,.05-6.36-1.49-1.5-.92-4.05-2.97-4.3-6.29-.23-3.14,1.18-6.54,3.69-8.87,2-1.86,4.32-2.7,6.54-2.37h-.02s3.68,1.43,4.17,1.7c.37,.21,.52,.97,.52,.97v.06h.08s3.05,.37,4.9,0h-.04c.23,.05,.38,.14,.45,.27,.06,.11,.07,.24,.02,.41-.11,.4-.34,.66-.51,.85-.09,.1-.16,.19-.2,.28-.13,.28,.05,.43,.06,.44,.24,.2,.91,.77,1.03,1.03,.11,.25-.12,.97-.22,1.23l-.07,.18,.18-.06s1.25-.43,1.81,.28c.22,.28,.44,.51,.65,.74,.57,.62,1.02,1.12,.98,1.88-.05,.89-1.19,1.62-2.19,2.27-.16,.1-.31,.2-.46,.3l-.04,.03v.05l.49,7.53,.09-.09-6.2,.06h.04c-1.32-.75-3.32-1.93-3.44-2.05,0,0,0,0,.01,.02-.04-.08-.1-.13-.17-.15-.26-.07-.68,.23-1.16,.59-.14,.11-.27,.2-.32,.23Zm1.5-.6s.06,.13,3.5,2.12h.04l6.2-.04h.09v-.09l-.49-7.53-.04,.08c.14-.1,.3-.2,.46-.3,1.04-.67,2.22-1.43,2.27-2.41,.04-.83-.45-1.38-1.03-2.01-.21-.23-.42-.46-.64-.73-.64-.81-1.95-.36-2.01-.34l.11,.11c.04-.1,.38-1,.22-1.36-.16-.36-1.04-1.06-1.08-1.09,0,0-.08-.07,0-.22,.03-.06,.1-.14,.18-.24,.18-.2,.42-.48,.54-.92,.06-.21,.05-.4-.04-.55-.1-.17-.29-.29-.56-.35h-.04c-1.82,.37-4.82,0-4.85,0l.08,.07s-.16-.85-.6-1.09c-.5-.28-4.04-1.65-4.19-1.71h-.02c-2.24-.34-4.68,.54-6.69,2.41-2.55,2.37-3.98,5.82-3.74,9.01,.25,3.4,2.85,5.49,4.38,6.43,2.32,1.43,5.12,2.08,6.51,1.5,.07-.03,.18-.11,.36-.25,.3-.23,.81-.61,1.02-.56,.03,0,.04,.02,.06,.05Z"/><path class="cls-12" d="M1.43,83.74c.03,4.61,3.64,8.8,5.07,9.69,.23,.14,.36,.35,.4,.63,.22,1.73-3.24,5.39-3.27,5.42l-.14,.15H13.46l.03-.03c1.05-1.36,2.77-3.43,3.18-3.55,.21-.06,.55,.06,.95,.2,.62,.22,1.39,.5,2.26,.34,.31-.05,.55-.2,.71-.43,.4-.58,.21-1.58,.09-2.18-.03-.18-.06-.33-.06-.4,0-.16,.12-.35,.26-.55,.16-.24,.33-.51,.33-.79,0-.32-.39-.39-.7-.45-.12-.02-.31-.06-.34-.1h0s.16-.14,.26-.2c.25-.15,.59-.35,.58-.7,0-.21-.16-.39-.32-.57-.15-.17-.3-.34-.24-.48,.07-.15,.15-.18,.38-.15,.5,.07,.93-.04,1.17-.31,.14-.16,.28-.44,.15-.92-.09-.24-.38-.5-.79-.85-.68-.59-1.62-1.4-2.21-2.7-.08-.17,.05-.41,.22-.75,.34-.66,.85-1.66,.44-3.25-.44-1.99-2.53-4.06-5.2-5.16-3-1.24-6.14-1.04-8.62,.55-3.05,1.96-4.58,4.49-4.56,7.54Zm.17,0c-.02-2.98,1.49-5.47,4.48-7.39,2.42-1.55,5.5-1.75,8.45-.53,2.62,1.08,4.66,3.1,5.09,5.04,.4,1.53-.1,2.49-.43,3.13-.2,.38-.34,.66-.23,.9,.61,1.34,1.56,2.16,2.26,2.76,.37,.32,.67,.57,.74,.77,.09,.31,.05,.57-.11,.75-.2,.22-.57,.32-1.01,.26-.2-.03-.43-.04-.56,.25-.11,.24,.08,.45,.26,.66,.13,.15,.27,.31,.27,.46,0,.25-.26,.41-.5,.55-.19,.11-.35,.21-.35,.36,0,.18,.22,.22,.48,.26,.32,.06,.56,.12,.56,.28,0,.23-.15,.47-.3,.7-.15,.22-.28,.43-.28,.65,0,.09,.03,.24,.07,.44,.11,.57,.29,1.52-.07,2.05-.13,.19-.33,.31-.59,.36-.83,.14-1.57-.12-2.17-.34-.44-.16-.79-.28-1.06-.21-.59,.17-2.99,3.26-3.27,3.61l.07-.03H3.68l.06,.15c.15-.15,3.55-3.76,3.32-5.57-.04-.33-.2-.59-.48-.76-1.41-.87-4.95-5-4.99-9.55Z"/><g><path class="cls-12" d="M10.08,96.68l.02-.04h-.04l.02,.04Z"/><path class="cls-12" d="M10.16,96.55h-.04l.02,.04,.02-.04Z"/><path class="cls-12" d="M10.16,96.64l-.02-.05-.03,.05h.05Z"/><path class="cls-12" d="M1.06,96.71l-.02-.05h-.06l.08,.05Z"/><path class="cls-12" d="M10.06,96.64h.04l.03-.05-.02-.04h-.1l.04,.09Z"/><path class="cls-12" d="M8.88,89.5c4.23-4.77,5.42-10.19,3.03-13.8-1.05-1.59-2.72-2.67-4.83-3.12-2.06-.44-4.53-.27-7.18,.51v.18c2.64-.78,5.09-.96,7.14-.52,2.06,.44,3.69,1.5,4.72,3.05,2.34,3.54,1.15,8.87-3.02,13.58-1.46,1.65,.83,6.32,1.27,7.16h.14l-.02,.04,.02,.05h-.05l-.02,.04-.02-.04-9.08,.11s-.53-1.26-1.07-2.48v.22c.5,1.15,.98,2.27,.99,2.3l.02,.05h.06l9.18-.11h.14l-.07-.13c-.03-.05-2.85-5.41-1.36-7.09Z"/><path class="cls-12" d="M1.04,96.66l.02,.05-.08-.05h.06c-.12-.27-.63-1.48-1.13-2.61v.22c.53,1.22,1.07,2.48,1.07,2.48l9.08-.11-.04-.09-8.98,.11Z"/></g><g><path class="cls-6" d="M20.81,59.15c-6.86-1.06-15.35,3.35-15.47,13.92-.04,1.04,1.05,.64,1.15,1.2,.5,2.63-3.72,8.82,.4,7.5,.87-.27,1.24-.52,1.43-.36,.33,.3-.68,1.05-.54,1.47,.16,.45,.85,.6,.94,.96,.1,.41-.59,1.03-.39,1.6,.23,.64,1.31-.09,1.2,2.77-.07,1.83,1.6,2.67,2.74,2.41,1.14-.26,4.12-2.6,4.77-3.03,1.8-1.22,6.33,4.32,6.33,4.32l13.48-4.75s-9.34-5.34-8.81-8.76c.31-1.99,5.69-17.25-7.23-19.24Z"/><path class="cls-13" d="M23.34,58.23c-3.8-.85-7.92,0-11.01,2.28-2.24,1.65-5.01,4.84-5.47,10.64-.07,.67,.34,.83,.67,.96,.24,.09,.38,.16,.41,.33,.12,.98-.45,2.41-1,3.79-.64,1.62-1.2,3.02-.67,3.63,.28,.32,.82,.38,1.67,.17,.3-.07,.55-.14,.75-.2,.34-.1,.54-.16,.62-.09,.11,.11-.09,.36-.29,.6-.22,.27-.44,.55-.37,.79,.07,.27,.31,.45,.51,.61,.17,.13,.33,.26,.36,.41,.03,.15-.09,.36-.22,.57-.18,.3-.38,.65-.28,1,.06,.23,.23,.33,.4,.42,.36,.2,.82,.46,.61,2.39-.08,.8,.17,1.52,.72,2.04,.53,.5,1.3,.75,1.96,.65,.92-.15,3-1.47,4.25-2.25,.34-.21,.6-.38,.75-.46,1.79-1.04,5.87,4.65,5.91,4.71l.04,.05,.06-.02,13.77-3.83,.18-.05-.16-.11c-.09-.06-8.9-5.96-8.16-9.24,.05-.2,.16-.56,.31-1.01,.92-2.87,3.09-9.59,.38-14.33-1.29-2.25-3.53-3.75-6.67-4.45Zm5.82,19.75c-.77,3.4,7.87,9.18,8.23,9.42l.02-.16-13.77,3.83,.09,.03c-.17-.24-4.21-5.88-6.14-4.76-.15,.08-.42,.25-.75,.47-1.15,.73-3.29,2.08-4.18,2.23-.61,.1-1.32-.14-1.81-.6-.5-.48-.74-1.15-.66-1.89,.21-2.05-.32-2.35-.7-2.57-.16-.09-.27-.15-.31-.31-.08-.29,.09-.58,.26-.87,.14-.24,.28-.48,.24-.69-.04-.21-.22-.36-.42-.51-.19-.15-.39-.31-.45-.52-.04-.16,.16-.41,.34-.64,.24-.3,.49-.6,.27-.83-.16-.15-.38-.08-.79,.04-.2,.06-.44,.13-.74,.2-.76,.19-1.26,.15-1.49-.11-.46-.53,.1-1.95,.7-3.45,.56-1.4,1.13-2.85,1.01-3.88-.03-.28-.28-.38-.52-.47-.32-.12-.61-.24-.56-.78,.45-5.73,3.19-8.88,5.4-10.52,3.05-2.25,7.11-3.09,10.87-2.25,3.09,.69,5.3,2.16,6.56,4.37,2.67,4.67,.52,11.34-.39,14.19-.15,.47-.26,.82-.31,1.03Z"/></g><path class="cls-13" d="M59.17,38.19c.95-1.06,1.23-4.04,.64-6.8-.39-1.8-1.48-5.03-4.43-6.33-2.78-1.23-6.33-1.04-9.26,.49-2.31,1.21-3.87,3.11-4.29,5.22h0v.02c.01,.19,.27,4.6,.36,5.13,.08,.45,.38,.95,.4,.97v-.09c-.04,.07-.7,1.66-.86,2.24-.1,.35-.24,1.3-.33,2.03-.03,.27,.02,.48,.14,.63,.11,.13,.27,.2,.49,.21,.43,.03,.76-.1,1-.19,.11-.04,.2-.08,.26-.08,.15-.01,.18,.06,.18,.07,.02,.05,.46,1.03,.73,1.29,.27,.26,.7,.39,.72,.4l-.05-.15s-.35,.5-.17,.93c.12,.29,.22,.36,.32,.41,.02,.01,.04,.02,.06,.04,.09,.08,.16,.49,.17,.99,.02,.76,.38,1.24,1.07,1.45,.96,.29,2.02-.17,2.53-.39l.09-.04h.03c.23-.11,.31-.14,1.25-.84h-.11l3.45,1.94,.04,.02,.04-.02,9.01-3.81,.13-.06-.1-.1-4.64-4.58s-.02-.04-.02-.06c.02-.19,.54-.54,.82-.72,.18-.12,.29-.19,.34-.25Zm-1.27,1.16l4.64,4.58,.03-.16-9.01,3.81h.09l-3.45-1.93-.06-.03-.05,.04c-.92,.68-.99,.71-1.2,.8h-.03l-.09,.05c-.49,.21-1.51,.64-2.4,.38-.91-.27-.93-1.02-.93-1.27,0-.35-.05-.97-.24-1.14-.04-.03-.07-.05-.1-.07-.06-.03-.12-.06-.23-.31-.14-.33,.14-.74,.15-.74l.08-.11-.13-.04s-.41-.13-.64-.35c-.2-.19-.56-.95-.69-1.22,0,0-.08-.22-.38-.19-.09,0-.19,.05-.31,.1-.22,.09-.53,.21-.92,.18-.16,0-.28-.06-.35-.14-.09-.1-.12-.26-.09-.48,.1-.73,.23-1.66,.33-2,.16-.56,.84-2.2,.85-2.22l.02-.05-.03-.04s-.3-.49-.37-.9c-.09-.52-.35-5.07-.36-5.11v.02c.41-2.08,1.89-3.89,4.18-5.09,2.88-1.5,6.36-1.69,9.09-.48,2.87,1.27,3.94,4.42,4.32,6.19,.65,3.01,.21,5.73-.59,6.63-.03,.04-.17,.13-.3,.21-.48,.32-.88,.6-.91,.86,0,.08,.02,.16,.08,.21Z"/><g><path class="cls-13" d="M75.17,10.67l-.04,.02,.03,.03v-.05Z"/><polygon class="cls-13" points="75.13 10.85 75.14 10.8 75.1 10.82 75.13 10.85"/><path class="cls-13" d="M60.94,13.01l.06,.04,.06-.04h-.12Z"/><path class="cls-13" d="M75.29,10.69l-5.3-5.23s-.03-.05-.03-.06c.02-.22,.61-.61,.93-.82,.21-.14,.33-.22,.39-.28,.73-.81,1.11-2.6,1.08-4.64h-.11c.03,2.06-.37,3.81-1.05,4.57-.18,.2-1.66,.96-1.29,1.32,.08,.08,4.54,4.49,5.21,5.14l.04-.02v.05l.04,.05-.07,.03v.05l-.04-.03-10.17,4.3-3.94-2.2c-1.11,.82-1.15,.83-1.43,.94-.54,.23-1.79,.81-2.91,.48-1.12-.33-1.14-1.27-1.14-1.55,0-.29-.04-1.04-.24-1.21-.12-.11-.22-.03-.41-.47-.14-.32,.02-.69,.12-.86-.02,0-.06-.02-.11-.04-.11,.19-.27,.58-.12,.94,.14,.33,.25,.41,.37,.47,.03,.01,.05,.02,.07,.04,.11,.09,.19,.56,.2,1.13,.02,.86,.43,1.42,1.22,1.66,1.1,.33,2.31-.19,2.89-.44l.1-.04h.03c.26-.12,.35-.16,1.36-.91l-.06-.04h.12l-.06,.04,3.87,2.17,.05,.03,.05-.02,10.28-4.34,.15-.06-.12-.12Z"/><path class="cls-13" d="M54.96,10.12l.03,.1s.04-.07,.04-.07c0,0-.03,0-.08-.03Z"/><path class="cls-13" d="M54.99,10.22l-.03-.1h-.03s-.03,.04-.06,.09c.05,.02,.08,.03,.11,.04l.02-.03Z"/><path class="cls-13" d="M52.35,2.74l-.02,.05,.03,.05v-.1Z"/><polygon class="cls-13" points="64.98 15.02 64.93 14.99 64.88 15.02 64.98 15.02"/><path class="cls-13" d="M75.21,10.77l-.05-.05-.02,.08,.07-.03Z"/><path class="cls-13" d="M54.99,10.22l-.02,.03h.03v-.03Z"/><path class="cls-13" d="M71.12,4.15s-.19,.15-.34,.24c-.55,.36-1,.69-1.03,.99,0,.09,.02,.18,.09,.24l5.18,5.11,.11-.05c-.67-.66-5.13-5.06-5.21-5.14-.37-.37,1.11-1.12,1.29-1.32,.68-.76,1.08-2.51,1.05-4.57h-.11c.03,2.1-.4,3.79-1.03,4.49Z"/><path class="cls-13" d="M75.02,10.74l-10.08,4.26,.05,.03h-.1l.05-.03-3.89-2.18-.06-.04-.06,.04c-1.05,.78-1.13,.82-1.37,.92h-.03l-.1,.06c-.56,.24-1.72,.74-2.74,.43-1.04-.31-1.06-1.16-1.06-1.45,0-.4-.05-1.1-.27-1.3-.04-.04-.08-.06-.12-.08-.07-.03-.14-.07-.26-.35-.16-.38,.16-.84,.17-.85l.09-.13-.15-.05s-.46-.15-.73-.4c-.23-.22-.64-1.08-.78-1.39,0,0-.09-.25-.44-.22-.1,.01-.22,.06-.36,.11-.25,.1-.6,.23-1.04,.21-.18-.01-.31-.07-.4-.17-.1-.12-.13-.3-.11-.54,.11-.83,.27-1.9,.38-2.29,.18-.64,.96-2.51,.97-2.53l.02-.05-.03-.05s-.34-.56-.42-1.03c-.04-.22-.1-1.06-.17-2.03h-.22c.07,.99,.13,1.84,.17,2.07,.07,.43,.33,.91,.42,1.06l.02-.05v.1l-.02-.05c-.13,.31-.79,1.9-.96,2.5-.11,.4-.27,1.48-.38,2.32-.04,.31,.02,.55,.16,.72,.12,.15,.31,.23,.55,.24,.49,.03,.86-.12,1.14-.22,.12-.05,.23-.09,.3-.1,.17-.02,.21,.07,.21,.08,.02,.05,.53,1.18,.83,1.47,.21,.21,.52,.34,.69,.41,.02-.04,.04-.08,.06-.1l.02-.03v.04c.06,.02,.09,.03,.09,.03,0,0-.02,.03-.04,.07v.04h-.02c-.1,.16-.26,.52-.12,.85,.19,.44,.29,.36,.41,.47,.19,.17,.23,.93,.24,1.21,0,.29,.02,1.22,1.14,1.55,1.12,.33,2.38-.25,2.91-.48,.28-.12,.33-.12,1.43-.94l3.94,2.2,10.17-4.3-.09-.08Z"/><path class="cls-13" d="M75.1,10.82l.04-.02,.02-.08-.03-.03-.11,.05,.09,.08Z"/><path class="cls-13" d="M54.93,10.11h.03v-.03l-.03,.03Z"/></g><path class="cls-12" d="M60.99,27.38c2.9-1.65,6.48-1.98,9.57-.88,2.25,.8,5.32,2.73,7.15,7.39,.18,.43-.03,.6-.26,.78-.17,.13-.36,.28-.31,.53,.16,.89,1,1.95,1.82,2.98,.87,1.1,1.7,2.13,1.45,2.69-.12,.27-.53,.43-1.2,.47-.27,.02-.49,.02-.67,.02-.38,0-.58,0-.68,.17-.13,.26,.16,.45,.44,.64,.2,.14,.44,.3,.44,.44,0,.19-.12,.37-.24,.54-.13,.18-.25,.35-.22,.54,.02,.19,.2,.35,.38,.52,.21,.19,.43,.4,.43,.65,0,.14-.07,.22-.18,.33-.27,.28-.64,.67,.06,2.33,.25,.6,.23,1.22-.07,1.74-.29,.51-.82,.88-1.34,.95-.77,.1-2.89-.48-4.03-.8-.33-.09-.6-.17-.74-.2-1.89-.45-3.83,5.29-3.91,5.53l.08-.06-9.56,.3,.08,.12c.13-.3,3.09-7.3,1.6-9.93-.09-.16-.27-.42-.52-.78-1.48-2.14-4.95-7.16-3.91-11.72,.49-2.15,1.95-3.93,4.34-5.29Zm-.07,17.88c1.45,2.55-1.58,9.7-1.61,9.77v-.02l-.09,.14h.17l9.56-.3h.06l.02-.06c.02-.06,1.96-5.82,3.7-5.41,.14,.03,.4,.1,.74,.2,1.23,.34,3.3,.91,4.1,.8,.58-.08,1.15-.49,1.47-1.04,.33-.57,.36-1.24,.08-1.89-.65-1.56-.35-1.88-.1-2.14,.11-.12,.23-.24,.23-.46,0-.33-.26-.56-.49-.77-.16-.15-.31-.29-.32-.42-.02-.12,.09-.27,.19-.42,.13-.19,.28-.4,.27-.64,0-.23-.26-.41-.51-.58-.22-.15-.44-.3-.38-.41,.04-.07,.23-.07,.52-.08,.18,0,.4,0,.68-.02,.75-.04,1.2-.23,1.35-.57,.29-.65-.52-1.68-1.47-2.87-.8-1.01-1.64-2.06-1.78-2.9-.02-.14,.08-.23,.25-.37,.23-.18,.55-.43,.31-.98-1.85-4.72-4.96-6.68-7.25-7.49-3.14-1.11-6.78-.78-9.72,.89-2.43,1.38-3.92,3.2-4.42,5.4-1.06,4.64,2.44,9.7,3.93,11.86,.23,.34,.42,.61,.51,.76Z"/><path class="cls-14" d="M72.8,53.21c-.81,3.93-5.31,6.6-7.23,7.74-.32,.19-.55,.33-.68,.42-2.12,1.53-.14,9.05-.06,9.37l.12-.1-9.61-4.67,.05,.09c.02-.22,.55-5.4-1.1-5.73-.13-.03-.36-.06-.65-.11-1-.16-2.87-.46-3.44-.82-.38-.24-.66-.72-.71-1.22-.03-.36,.04-.89,.56-1.37,1.15-1.05,.99-1.49,.88-1.81-.05-.13-.07-.21-.02-.31,.09-.19,.33-.27,.56-.35,.21-.07,.4-.13,.49-.28,.09-.14,.06-.32,.02-.51-.03-.18-.07-.36,0-.5,.05-.1,.28-.14,.49-.18,.28-.05,.59-.1,.58-.36-.02-.17-.18-.24-.48-.38-.14-.06-.31-.14-.51-.25-.51-.27-.77-.53-.77-.78,0-.51,1.06-1.05,2.08-1.57,1.01-.51,2.05-1.04,2.49-1.68,.13-.19,.03-.38-.05-.54-.12-.23-.22-.42,.07-.69,3.08-2.98,6.17-3.39,8.21-3.21,2.82,.25,5.5,1.78,7.19,4.11,1.39,1.91,1.89,3.82,1.51,5.68Zm-7.14,7.89c1.94-1.15,6.48-3.85,7.31-7.85,.39-1.9-.12-3.86-1.54-5.81-1.71-2.36-4.45-3.93-7.31-4.18-2.08-.18-5.21,.23-8.34,3.26-.39,.35-.23,.67-.11,.89,.09,.17,.13,.27,.07,.36-.41,.6-1.44,1.12-2.43,1.62-1.17,.59-2.18,1.1-2.18,1.72,0,.33,.28,.63,.86,.94,.21,.11,.38,.19,.52,.26,.22,.1,.37,.17,.38,.24,0,.1-.23,.14-.44,.17-.26,.04-.53,.09-.62,.27-.09,.19-.05,.41-.02,.61,.03,.16,.06,.3,0,.39-.06,.09-.22,.15-.4,.2-.25,.08-.54,.18-.67,.44-.08,.17-.03,.31,.01,.45,.1,.29,.23,.65-.83,1.62-.45,.41-.67,.95-.61,1.51,.05,.55,.36,1.08,.79,1.35,.59,.38,2.41,.67,3.5,.84,.29,.05,.52,.08,.65,.11,1.5,.3,.97,5.49,.96,5.54v.06l.05,.03,9.61,4.67,.17,.08-.05-.18c-.02-.08-2.03-7.73,0-9.19,.12-.09,.37-.23,.67-.41Z"/><path class="cls-13" d="M52.76,82.92c-1.52,.84-4.97,.44-7.86-.91-1.93-.91-5.28-3.02-6.04-6.99-.71-3.75,.52-8.03,3.21-11.19,2.15-2.51,4.83-3.85,7.55-3.76h-.02s4.62,1.21,5.24,1.47c.48,.2,.76,1.1,.76,1.11l.02,.07h.07s3.72,.02,5.89-.68h-.04c.28,.04,.48,.12,.59,.27,.09,.12,.12,.29,.09,.5-.08,.49-.32,.84-.49,1.1-.1,.14-.17,.25-.21,.36-.12,.35,.12,.5,.13,.5,.32,.2,1.2,.8,1.38,1.1,.17,.29-.01,1.19-.1,1.52v-.02l-.13,.26,.27-.13s1.45-.7,2.23,.09c.3,.3,.59,.56,.88,.81,.77,.67,1.39,1.21,1.45,2.13,.07,1.08-1.2,2.12-2.33,3.04-.18,.15-.35,.29-.51,.43l-.04,.04v.05l1.63,8.99,.08-.11-7.45,.92h.05c-1.69-.73-4.27-1.88-4.42-2,0,0,0,0,.01,.02-.05-.08-.13-.14-.22-.15-.32-.04-.78,.37-1.31,.87-.15,.15-.3,.28-.36,.32Zm1.73-.94c.06,.1,1.57,.79,4.5,2.07h.05l7.45-.91h.1l-.02-.11-1.62-8.99-.03,.09c.16-.14,.33-.28,.51-.42,1.16-.95,2.47-2.03,2.4-3.2-.06-1-.73-1.59-1.51-2.26-.28-.25-.57-.5-.87-.8-.88-.88-2.38-.16-2.45-.13l.13,.11c.03-.13,.32-1.25,.08-1.66-.24-.4-1.39-1.13-1.44-1.16-.01,0-.11-.08-.05-.28,.03-.08,.1-.19,.18-.31,.18-.27,.43-.64,.52-1.17,.04-.26,0-.48-.12-.64-.14-.19-.38-.3-.72-.34h-.04c-2.14,.7-5.79,.68-5.83,.68l.09,.07s-.31-.99-.87-1.23c-.63-.26-5.08-1.43-5.27-1.48h-.02c-2.74-.09-5.54,1.3-7.7,3.82-2.73,3.19-3.98,7.54-3.26,11.34,.77,4.05,4.18,6.2,6.14,7.12,2.98,1.4,6.43,1.79,8.03,.91,.08-.05,.21-.17,.4-.35,.34-.32,.9-.85,1.15-.82,.04,0,.06,.02,.09,.06Z"/><path class="cls-13" d="M35.39,70.37c2.93-.96,6.17-.33,8.9,1.72,2.42,1.82,3.99,4.47,3.92,6.59,0,1.7-.77,2.56-1.28,3.13-.3,.34-.52,.59-.48,.87,.27,1.55,1.03,2.66,1.59,3.46,.3,.43,.54,.78,.56,1,0,.34-.1,.6-.32,.74-.27,.18-.68,.18-1.12,0-.2-.08-.43-.15-.64,.11-.17,.22-.04,.49,.1,.75,.1,.2,.2,.4,.16,.55-.07,.27-.38,.36-.66,.44-.22,.06-.41,.12-.45,.27-.05,.18,.17,.28,.42,.4,.32,.15,.55,.27,.51,.44-.06,.25-.29,.45-.5,.64-.21,.19-.41,.37-.47,.59-.02,.09-.04,.26-.05,.47-.04,.62-.11,1.66-.62,2.1-.19,.17-.42,.23-.71,.21-.9-.07-1.6-.55-2.16-.93-.41-.28-.74-.5-1.03-.5-.66,.02-3.97,2.57-4.35,2.86l.08-.02-10.07-2.62,.02,.16c.19-.12,4.68-2.93,4.93-4.86,.05-.35-.05-.66-.29-.91-1.22-1.28-3.78-6.51-2.59-11.23,.78-3.09,3.01-5.26,6.63-6.44Zm-4.16,17.79c.2,.21,.28,.46,.24,.76-.24,1.85-4.8,4.71-4.85,4.74l-.17,.11,.2,.05,10.07,2.62h.04l.03-.02c1.01-.78,3.74-2.81,4.25-2.82,.24,0,.56,.21,.93,.47,.58,.39,1.3,.89,2.25,.96,.33,.03,.62-.06,.84-.25,.57-.49,.64-1.58,.68-2.22,.01-.19,.02-.36,.04-.44,.04-.17,.22-.33,.41-.5,.24-.21,.48-.43,.56-.73,.09-.32-.3-.5-.6-.65-.12-.05-.32-.15-.33-.2h0c.01-.05,.2-.1,.33-.14,.29-.08,.7-.2,.79-.57,.05-.22-.06-.45-.17-.67-.11-.22-.22-.43-.12-.56,.11-.14,.21-.15,.43-.05,.5,.21,.97,.21,1.29,0,.19-.13,.4-.38,.4-.9-.02-.28-.26-.62-.59-1.09-.55-.79-1.3-1.88-1.56-3.39-.03-.2,.16-.42,.43-.72,.53-.59,1.33-1.48,1.33-3.24,.08-2.17-1.52-4.88-3.99-6.73-2.77-2.09-6.08-2.73-9.06-1.75-3.68,1.2-5.95,3.41-6.74,6.57-1.21,4.78,1.4,10.08,2.64,11.39Z"/><path class="cls-12" d="M48.91,89.84c-2.47-1.59-5.61-1.79-8.61-.55-2.67,1.1-4.75,3.17-5.2,5.16-.41,1.59,.1,2.59,.44,3.25,.17,.34,.3,.58,.22,.75-.54,1.21-1.38,1.99-2.05,2.56h.27c.65-.57,1.42-1.34,1.94-2.49,.11-.25-.03-.52-.23-.9-.33-.64-.82-1.6-.43-3.13,.43-1.94,2.48-3.96,5.09-5.04,2.95-1.22,6.03-1.02,8.45,.53,2.99,1.92,4.5,4.41,4.48,7.39,0,1.27-.29,2.5-.72,3.64h.18c.43-1.14,.71-2.37,.71-3.64,.02-3.04-1.51-5.58-4.56-7.54Z"/><g><path class="cls-1" d="M1.79,95.85c-.4,.26-.72,.46-.97,.61-.33,.28-.63,.58-.9,.9v.13c.51-.6,1.12-1.16,1.87-1.64Z"/><path class="cls-13" d="M.81,96.46c-.17,.11-.3,.19-.4,.24-.18,.17-.34,.34-.5,.52v.14c.27-.32,.57-.62,.9-.9Z"/><path class="cls-13" d="M.41,96.71c.07-.07,.15-.14,.23-.21-.47,.32-.55,.4-.23,.21Z"/><path class="cls-13" d="M20.41,98.89c-1-2.19-3.31-3.95-6.33-4.83-4.17-1.22-8.92-.59-12.4,1.65-.38,.25-.73,.51-1.05,.79,.25-.17,.62-.41,1.1-.72-.33,.21-.64,.44-.92,.69,.25-.15,.57-.36,.97-.61,3.44-2.21,8.13-2.83,12.25-1.63,2.97,.87,5.24,2.6,6.22,4.74,.33,.73,.6,1.41,.82,2.05h.18c-.22-.66-.5-1.36-.84-2.12Z"/><path class="cls-13" d="M1.74,95.78c-.48,.31-.84,.55-1.1,.72-.08,.07-.15,.14-.23,.21,.1-.06,.23-.14,.4-.24,.29-.24,.59-.47,.92-.69Z"/></g><path class="cls-12" d="M67.34,.41c-3.69,.58-7.05,2.8-9,5.92-1.41,2.27-2.76,6.09-1.12,11.41,.17,.63,.61,.63,.94,.62,.24,0,.4,0,.47,.15,.45,.83,.45,2.3,.45,3.73,0,1.67,0,3.11,.69,3.47,.36,.19,.87,.04,1.55-.44,.25-.17,.44-.32,.59-.44,.26-.21,.42-.33,.52-.3,.13,.06,.04,.35-.05,.63-.1,.32-.2,.64-.05,.84,.16,.21,.43,.29,.67,.36,.2,.06,.39,.12,.46,.23,.08,.13,.04,.35,0,.59-.05,.33-.11,.71,.11,1,.14,.18,.32,.21,.5,.23,.4,.05,.89,.12,1.39,1.91,.21,.74,.69,1.3,1.36,1.56,.65,.26,1.42,.21,1.98-.12,.77-.46,2.16-2.36,2.99-3.5,.23-.31,.4-.55,.5-.68,1.23-1.56,6.86,2.07,6.92,2.11l.05,.03,.05-.04,10.92-8.27,.15-.12-.19-.04c-.1-.02-10.03-2.17-10.53-5.35-.03-.2-.05-.55-.08-1.01-.19-2.88-.63-9.64-4.72-12.9-1.94-1.55-4.47-2.09-7.52-1.61Zm12.15,15.55c.52,3.3,10.25,5.4,10.66,5.49l-.03-.16-10.92,8.27h.1c-.24-.16-5.83-3.76-7.15-2.08-.1,.13-.28,.37-.51,.69-.77,1.05-2.2,3.02-2.94,3.46-.51,.3-1.22,.34-1.82,.1-.62-.25-1.06-.76-1.26-1.45-.53-1.91-1.11-1.98-1.54-2.04-.17-.02-.29-.04-.39-.16-.17-.23-.12-.55-.07-.86,.04-.27,.08-.52-.03-.7-.11-.18-.33-.24-.56-.31-.22-.07-.45-.13-.58-.3-.1-.13,0-.42,.08-.68,.11-.35,.22-.71-.05-.84-.19-.08-.37,.06-.7,.32-.15,.12-.34,.27-.59,.44-.61,.44-1.07,.58-1.37,.43-.6-.31-.6-1.77-.6-3.31,0-1.45,0-2.94-.47-3.81-.13-.24-.38-.24-.63-.24-.32,0-.63,0-.77-.5-1.62-5.27-.3-9.04,1.1-11.27,1.92-3.08,5.24-5.27,8.88-5.84,3-.47,5.48,.06,7.38,1.58,4.03,3.22,4.47,9.92,4.66,12.78,.03,.48,.05,.82,.09,1.02Z"/><path class="cls-14" d="M101.08,47.59c-2.9-1.81-6.82-2.19-10.22-.99-2.82,.99-4.92,2.95-5.76,5.38h0v.02c-.02,.18-.49,4.33-.47,4.96,.01,.55,.73,1.12,.76,1.15l-.03-.11s-1.19,3.13-2.48,4.72v.02l-.02,.02c-.08,.3-.06,.54,.05,.73,.1,.16,.27,.27,.51,.32,.48,.1,.88,0,1.17-.06,.13-.03,.25-.06,.32-.05,.18,0,.21,.11,.22,.12,0,.05,.25,1.27,.51,1.61,.27,.35,1.32,.47,1.44,.48l-.05-.17s-1.16,1.09-.7,2.13c.15,.35,.27,.68,.39,1,.32,.88,.59,1.64,1.43,2.03,.98,.45,2.32-.31,3.51-.98,.18-.1,.36-.2,.53-.29h-.1l7.09,4.32,.09,.05,.05-.09,1.9-3.54v-.04c.01-.06,.09-5.66,.12-11.22,.06-11.31-.14-11.43-.25-11.5Zm-.05,22.67l-1.9,3.54,.13-.04-7.09-4.32-.05-.03-.05,.03c-.17,.09-.34,.19-.53,.3-1.15,.65-2.45,1.38-3.34,.97-.76-.35-1.01-1.04-1.33-1.92-.12-.32-.24-.66-.39-1.01-.41-.92,.64-1.9,.65-1.91l.16-.14-.21-.02c-.3-.03-1.12-.17-1.31-.41-.2-.25-.41-1.19-.48-1.53,0,0-.05-.26-.4-.28-.1,0-.23,.02-.37,.06-.27,.06-.64,.15-1.09,.06-.18-.04-.32-.12-.39-.23-.08-.14-.09-.33-.03-.58l-.02,.04c1.31-1.61,2.5-4.74,2.51-4.77l.02-.07-.05-.04s-.67-.54-.69-1c-.02-.61,.47-4.89,.47-4.93v.02c.82-2.37,2.88-4.29,5.64-5.26,3.34-1.18,7.2-.8,10.05,.98-.01,0-.02-.02-.02-.02,.28,.52,.19,13.78,.06,22.57v-.04Z"/><path class="cls-13" d="M99.06,83.76c1.32-1.47,1.7-5.61,.88-9.42-.54-2.5-2.05-6.97-6.15-8.77-3.86-1.7-8.77-1.44-12.83,.68-3.2,1.67-5.37,4.31-5.94,7.24v.03c.01,.26,.37,6.38,.49,7.12,.11,.63,.53,1.32,.55,1.35v-.12c-.05,.09-.97,2.31-1.2,3.1-.14,.49-.33,1.8-.46,2.82-.04,.38,.02,.67,.19,.87,.15,.18,.38,.28,.67,.3,.6,.04,1.05-.14,1.38-.27,.15-.06,.28-.11,.36-.12,.2-.02,.25,.08,.25,.1,.03,.07,.64,1.43,1.01,1.79,.37,.36,.97,.55,1,.55l-.07-.21s-.49,.69-.23,1.29c.17,.41,.3,.49,.45,.57,.03,.02,.06,.03,.08,.05,.13,.11,.23,.68,.24,1.37,.02,1.05,.52,1.73,1.49,2.01,1.33,.4,2.8-.23,3.51-.54l.12-.05,.04-.02c.32-.13,.43-.18,1.73-1.15h-.15l4.78,2.69,.06,.03,.06-.03,8.52-2.77,.19-.08-.14-.14-2.46-8.86s-.03-.06-.03-.08c.03-.27,.75-.74,1.13-1,.25-.17,.4-.27,.47-.34Zm-1.76,1.61l2.46,8.86,.04-.22-8.52,2.77h.12l-4.78-2.67-.08-.04-.07,.05c-1.27,.95-1.37,.99-1.67,1.11l-.04,.02-.12,.05c-.68,.29-2.09,.89-3.33,.53-1.26-.38-1.29-1.41-1.29-1.76,0-.49-.07-1.34-.33-1.57-.05-.05-.1-.07-.14-.09-.08-.04-.17-.08-.32-.43-.19-.46,.2-1.02,.2-1.03l.11-.15-.18-.05s-.56-.18-.89-.49c-.28-.26-.78-1.31-.95-1.69,0,0-.11-.31-.53-.26-.13,.01-.27,.07-.44,.13-.31,.12-.73,.28-1.27,.25-.22-.01-.38-.08-.48-.2-.12-.14-.16-.37-.13-.66,.13-1.01,.32-2.31,.46-2.78,.22-.78,1.17-3.05,1.18-3.07l.03-.06-.04-.06s-.41-.68-.51-1.25c-.12-.72-.49-7.02-.49-7.09v.03c.56-2.89,2.62-5.39,5.8-7.05,3.99-2.08,8.81-2.34,12.59-.67,3.98,1.75,5.46,6.13,5.99,8.58,.9,4.17,.29,7.95-.82,9.18-.05,.05-.24,.18-.42,.3-.67,.44-1.22,.83-1.26,1.2-.01,.11,.03,.22,.11,.3Z"/><g><path class="cls-12" d="M99.77,35.15c-.58-.17-1.77,.8-3.22,.54-1.45-.25-.66-2.49-.66-2.92,0-.4-.59-.85-.59-1.34,0-.43,1.04-.3,1.04-.54s-.85-.39-.84-.91c0-.39,.7-.73,.55-1.08-.09-.21-.24-.23-.47-.2-.8,.12-1.45-.27-1.22-1.11,.22-.61,2.06-1.46,3-3.54,.26-.59-1.28-1.59-.66-4.02,.41-1.82,2.2-3.71,4.57-4.85v-.1c-2.4,1.14-4.24,3.07-4.66,4.92-.41,1.59,.1,2.59,.44,3.25,.17,.34,.3,.58,.22,.75-.59,1.31-1.53,2.11-2.21,2.7-.41,.35-.7,.6-.79,.85-.13,.47,0,.76,.15,.92,.24,.27,.66,.39,1.17,.31,.23-.03,.31,0,.38,.15,.06,.14-.08,.3-.24,.48-.15,.18-.31,.36-.32,.57,0,.35,.33,.56,.58,.7,.1,.06,.26,.15,.26,.2h0s-.22,.07-.34,.09c-.31,.06-.71,.13-.7,.45,0,.29,.18,.56,.33,.79,.13,.2,.26,.39,.26,.55,0,.07-.03,.23-.06,.4-.11,.6-.31,1.6,.09,2.18,.16,.23,.4,.37,.71,.43,.87,.15,1.64-.12,2.26-.34,.4-.14,.74-.26,.95-.2,.22,.06,.84,.71,1.52,1.51v-.13c-.63-.73-1.25-1.39-1.5-1.46Z"/><polygon class="cls-12" points="96.26 30.88 96.25 30.88 96.25 30.89 96.26 30.88"/><path class="cls-12" d="M96.7,20.03c-.63,2.42,.92,3.43,.66,4.02-.94,2.09-2.78,2.94-3,3.54-.24,.84,.42,1.23,1.22,1.11,.23-.03,.37-.01,.47,.2,.15,.35-.54,.69-.55,1.08,0,.51,.84,.67,.84,.91s-1.04,.11-1.04,.54c0,.49,.59,.95,.59,1.34,0,.43-.78,2.67,.66,2.92,1.45,.25,2.64-.71,3.22-.54,.25,.07,.87,.73,1.5,1.46v-.14c-.62-.71-1.21-1.34-1.47-1.41-.27-.08-.62,.05-1.06,.21-.6,.21-1.34,.48-2.17,.34-.26-.05-.46-.16-.59-.36-.36-.52-.18-1.48-.07-2.05,.04-.19,.07-.35,.07-.44,0-.21-.14-.42-.28-.65-.15-.23-.3-.46-.3-.7,0-.16,.24-.22,.56-.28,.26-.05,.48-.09,.48-.26,0-.15-.16-.24-.35-.36-.23-.14-.5-.3-.5-.55,0-.15,.14-.3,.27-.46,.18-.21,.37-.42,.26-.66-.13-.29-.36-.28-.56-.25-.44,.06-.81-.03-1.01-.26-.16-.18-.2-.44-.11-.75,.07-.19,.36-.45,.74-.77,.7-.6,1.65-1.42,2.26-2.76,.11-.25-.03-.52-.23-.9-.33-.64-.82-1.6-.43-3.13,.4-1.79,2.17-3.64,4.49-4.77v-.1c-2.37,1.13-4.17,3.02-4.57,4.85Z"/></g><path class="cls-12" d="M63.2,88.97c-1.25-.3-3.23-2.28-4.37-5.07-.68-1.67-1.56-4.9,.24-7.8,1.7-2.74,4.92-4.71,8.4-5.12,2.78-.33,5.21,.37,6.85,1.98v-.02s2.17,3.4,2.41,3.92c.18,.39-.16,1.11-.16,1.12h0l-.02,.06,.04,.04s2.31,2.14,4.06,2.95l-.03-.02c.16,.18,.23,.35,.21,.5-.01,.13-.09,.25-.23,.35-.33,.26-.68,.34-.93,.4-.13,.03-.25,.06-.33,.1-.28,.15-.22,.38-.21,.39,.08,.31,.29,1.18,.23,1.47-.06,.28-.69,.73-.93,.88l-.16,.1,.18,.05s1.3,.39,1.33,1.33c.01,.36,.05,.69,.09,1.01,.1,.86,.17,1.54-.32,2.15-.57,.71-2.02,.63-3.19,.56-.2-.01-.38-.02-.56-.03h-.05l-.03,.04-4.14,6.53,.04-.03-8.37,4.11,.12-.26c.02-.11,1.56-11.1,1.59-11.26,.02-.08,0-.16-.05-.22-.18-.21-.7-.22-1.32-.21-.18,0-.35,0-.4,0Zm1.61,.41c-.02,.12-1.53,11.15-1.6,11.62l.16-.34,8.33-3.68h.02v-.03l4.15-6.53-.08,.04c.18,0,.36,.02,.56,.03,1.27,.07,2.7,.15,3.34-.62,.54-.66,.45-1.41,.36-2.28-.04-.31-.07-.64-.08-.99-.04-1.06-1.4-1.47-1.46-1.49l.02,.16c.09-.06,.92-.6,1-1,.08-.39-.22-1.51-.23-1.55,0-.01-.02-.11,.13-.19,.06-.03,.17-.06,.29-.09,.27-.06,.64-.15,1-.43,.18-.14,.28-.3,.3-.47,.02-.2-.07-.41-.25-.63h-.01l-.02-.02c-1.73-.8-3.99-2.9-4.02-2.92l.02,.1s.38-.8,.16-1.27c-.24-.53-2.34-3.8-2.43-3.94h0v-.02c-1.69-1.65-4.17-2.37-7-2.03-3.53,.42-6.8,2.42-8.53,5.2-1.84,2.97-.95,6.26-.25,7.96,1.06,2.58,2.99,4.81,4.49,5.17,.07,.02,.21,.02,.45,.01,.39,0,1.04-.02,1.18,.15,.02,.02,.02,.05,.02,.08Z"/><g><path class="cls-13" d="M51.72,97.24h0v0Z"/><path class="cls-13" d="M72.01,97.9c-.44-2.06-1.69-5.73-5.06-7.22-3.17-1.4-7.22-1.19-10.56,.56-2.64,1.38-4.42,3.55-4.89,5.96h0v.03c0,.13,.13,2.14,.24,3.79h.22c-.11-1.62-.23-3.61-.24-3.78h0v0c.47-2.37,2.17-4.43,4.78-5.79,3.28-1.71,7.25-1.92,10.37-.55,3.28,1.44,4.5,5.04,4.93,7.06,.23,1.07,.34,2.11,.36,3.07h.21c-.01-1.01-.13-2.07-.35-3.11Z"/></g><g><path class="cls-13" d="M99.19,56.13c-.87-.26-.89-.99-.89-1.21,0-.22-.03-.81-.18-.94-.09-.08-.17-.02-.32-.37-.11-.25,.02-.54,.09-.67-.02,0-.05-.02-.08-.03-.08,.15-.21,.45-.09,.73,.11,.26,.19,.32,.29,.36,.02,.01,.04,.02,.05,.03,.08,.07,.14,.43,.15,.88,.01,.67,.33,1.11,.95,1.29,.77,.23,1.61-.08,2.1-.28v-.09c-.48,.2-1.32,.52-2.08,.29Z"/><path class="cls-13" d="M97.88,52.85l.03,.08s.03-.06,.03-.06c0,0-.02,0-.06-.02Z"/><path class="cls-13" d="M95.85,47.1l-.02,.04,.02,.04v-.08Z"/><path class="cls-13" d="M97.9,52.93l-.03-.08h-.02s-.03,.03-.04,.07c.04,.01,.06,.02,.08,.03v-.02Z"/><path class="cls-13" d="M97.33,52.54c-.23-.22-.63-1.11-.63-1.11,0,0-.05-.14-.25-.12-.21,.02-.56,.28-1.11,.25-.42-.03-.51-.33-.47-.65,.08-.62,.21-1.48,.3-1.79,.14-.51,.76-1.98,.76-1.98,0,0-.27-.44-.34-.83-.08-.47-.32-4.55-.32-4.55,.53-2.7,3.06-4.69,6-5.42v-.09c-.78,.19-1.55,.47-2.28,.85-2.05,1.07-3.44,2.76-3.81,4.64h0v.02c.01,.17,.24,4.09,.32,4.56,.06,.34,.26,.71,.33,.83l.02-.04v.08l-.02-.04c-.1,.24-.61,1.48-.74,1.95-.09,.31-.21,1.15-.3,1.8-.03,.24,.01,.43,.12,.56,.1,.11,.24,.18,.43,.19,.38,.02,.67-.09,.89-.17,.1-.04,.18-.07,.23-.07,.13-.01,.16,.05,.16,.06,.02,.04,.41,.92,.65,1.14,.17,.16,.4,.27,.54,.32,.02-.03,.03-.06,.04-.08-.12-.05-.36-.15-.52-.3Z"/><path class="cls-13" d="M97.9,52.93v.02h0v-.02Z"/><path class="cls-13" d="M97.85,52.84h.02v-.02l-.02,.02Z"/><path class="cls-13" d="M95.36,41.77h0v0Z"/><path class="cls-13" d="M95.27,41.76s.24,4.08,.32,4.55c.07,.39,.34,.83,.34,.83,0,0-.61,1.47-.76,1.98-.09,.31-.21,1.17-.3,1.79-.04,.32,.05,.62,.47,.65,.54,.03,.9-.23,1.11-.25,.21-.02,.25,.12,.25,.12,0,0,.4,.89,.63,1.11,.16,.16,.4,.26,.52,.3v-.02l.02,.03s.06,.02,.06,.02c0,0-.01,.02-.03,.06v.03h-.01c-.07,.13-.2,.41-.09,.66,.15,.34,.22,.28,.32,.37,.15,.13,.18,.72,.18,.94,0,.22,.02,.95,.89,1.21,.76,.23,1.6-.09,2.08-.29v-.09c-.46,.19-1.3,.53-2.05,.3-.81-.24-.82-.91-.83-1.12,0-.31-.04-.86-.21-1.01-.03-.03-.06-.04-.09-.06-.05-.03-.11-.05-.2-.28-.12-.29,.13-.66,.13-.66l.07-.1-.11-.04s-.36-.11-.57-.31c-.18-.17-.5-.84-.61-1.08,0,0-.07-.2-.34-.17-.08,0-.17,.04-.28,.09-.2,.08-.47,.18-.81,.16-.14,0-.24-.05-.31-.13-.08-.09-.1-.23-.08-.42,.09-.64,.21-1.48,.29-1.78,.14-.5,.75-1.95,.75-1.97l.02-.04-.02-.04s-.27-.44-.33-.8c-.08-.45-.3-4.3-.32-4.53h0c.37-1.85,1.68-3.45,3.71-4.51,.7-.37,1.44-.64,2.2-.83v-.09c-2.93,.72-5.47,2.71-6,5.42Z"/></g><g><polygon class="cls-12" points="96.19 80.64 96.19 80.64 96.19 80.65 96.19 80.64"/><polygon class="cls-12" points="93.06 85.68 93.05 85.69 93.05 85.69 93.06 85.68"/><path class="cls-12" d="M93.25,86.68h.01s-.01,0-.01,0Z"/><path class="cls-12" d="M93.17,85.81h.01v0Z"/><polygon class="cls-12" points="92.86 87.42 92.86 87.42 92.86 87.42 92.86 87.42"/><path class="cls-12" d="M100.47,73.33c-3.02,1.01-4.86,4.15-4.29,7.3h0c.02,.33-1.51,2.24-3,2.45-.35,.06-.63,.42-.65,.85-.02,.41,.19,.91,.87,1.11,.04,0,.04,.02,.04,.02,.03,.09-.18,.39-.38,.61h-.01v.03c-.11,.21-.18,.69,.2,.97h0s0,0,.01,0h-.01c0,.06-.21,.28-.31,.38-.15,.16-.23,.24-.25,.32v.04c-.17,.61,.05,1.05,.64,1.29,0,0,0,0,0,0,.03,.07-.06,.31-.14,.51-.07,.19-.16,.41-.2,.62-.08,.37-.05,1.61,.73,2.34,.61,.58,1.52,.71,2.71,.39,3.3-.89,3.44-.91,3.71-.48,.15,.23,.65,1.35,1.12,2.44v-.44c-.43-.97-.84-1.88-.98-2.1-.35-.54-.62-.47-3.9,.41-1.12,.3-1.98,.18-2.54-.35-.72-.68-.75-1.85-.68-2.18,.04-.19,.12-.4,.19-.59,.11-.3,.2-.51,.14-.64-.02-.05-.06-.08-.1-.1-.75-.3-.6-.87-.55-1.08,0-.02,0-.04,.01-.05h0s.12-.15,.2-.23c.22-.23,.37-.39,.36-.52,0-.05-.02-.09-.06-.12-.36-.25-.21-.67-.18-.75h0c.13-.14,.49-.54,.42-.77-.01-.04-.05-.12-.17-.14-.48-.14-.76-.49-.74-.93,.02-.35,.24-.65,.51-.69,1.58-.23,3.18-2.2,3.15-2.64h0c-.56-3.09,1.23-6.14,4.17-7.12,.25-.08,.49-.16,.74-.23v-.18c-.26,.08-.53,.16-.79,.25Z"/></g></g></g></g></g></svg>