<?xml version="1.0" encoding="UTF-8"?><svg id="Layer_2" xmlns="http://www.w3.org/2000/svg" xmlns:xlink="http://www.w3.org/1999/xlink" viewBox="0 0 100 100"><defs><style>.cls-1{fill:none;}.cls-2{clip-path:url(#clippath);}.cls-3{fill:#ff97ff;}.cls-4{fill:#ff7cff;}.cls-5{fill:#d3478e;}.cls-6{fill:#e2d8d6;}.cls-7{fill:#1f1a24;}.cls-8{fill:#0e090e;}.cls-9{fill:#34323f;}.cls-10{fill:#1d000e;}.cls-10,.cls-11{opacity:.2;}.cls-11{fill:#fff;}</style><clipPath id="clippath"><path class="cls-1" d="M74.36,49.49c1.92-8.81,2.27-19.41,2.27-19.41,0,0-10.28,4.86-17.68,10.33-3.1-8.66-8.93-18.43-8.93-18.43,0,0-6,9.61-9.26,18.22-7.37-5.38-17.39-10.11-17.39-10.11,0,0,.35,10.6,2.27,19.41-8.91-.53-19.22,.65-19.22,.65,0,0,11.86,17.75,19.85,21.36,7.99,3.6,23.72-1.7,23.72-1.7v-.03h.03v.03s15.72,5.31,23.71,1.7c7.99-3.6,19.85-21.36,19.85-21.36,0,0-10.3-1.19-19.22-.65Z"/></clipPath></defs><circle class="cls-6" cx="49.42" cy="50.58" r="49.42"/><g><g><path class="cls-5" d="M23.37,30.08s.7,21.34,5.58,28.62c4.88,7.28,21.05,11.08,21.05,11.08,0,0,2.21-16.13-2.68-23.41-4.88-7.28-23.96-16.29-23.96-16.29Z"/><path class="cls-3" d="M35.36,51.34c-7.99-3.6-28.94-1.19-28.94-1.19,0,0,11.86,17.75,19.85,21.36,7.99,3.6,23.72-1.7,23.72-1.7,0,0-6.64-14.86-14.63-18.47Z"/><path class="cls-5" d="M52.68,46.37c-4.88,7.28-2.68,23.41-2.68,23.41,0,0,16.17-3.8,21.05-11.08,4.88-7.28,5.58-28.62,5.58-28.62,0,0-19.07,9.01-23.96,16.29Z"/><path class="cls-3" d="M64.64,51.34c-7.99,3.6-14.63,18.47-14.63,18.47,0,0,15.74,5.31,23.72,1.7,7.99-3.6,19.85-21.36,19.85-21.36,0,0-20.96-2.42-28.94,1.19Z"/><path class="cls-4" d="M38.71,48.85c0,8.76,11.31,20.93,11.31,20.93,0,0,10.82-12.16,10.82-20.93s-10.82-26.87-10.82-26.87c0,0-11.31,18.11-11.31,26.87Z"/><g class="cls-2"><rect class="cls-10" x="4.95" y="21.09" width="45" height="66.35"/></g></g><g><g><g><path class="cls-8" d="M32.27,17.71c-.28-.48-.89-.64-1.37-.37-.48,.28-.65,.89-.37,1.38l22.44,38.61c.28,.48,.89,.64,1.38,.36,.48-.28,.64-.9,.36-1.38L32.27,17.71Z"/><path class="cls-8" d="M29.04,14.44c-1.2,.7-1.61,2.23-.91,3.43s2.24,1.61,3.44,.91c1.2-.7,1.61-2.24,.91-3.44-.7-1.2-2.23-1.61-3.44-.91Z"/><rect class="cls-8" x="62.14" y="55.53" width=".5" height="32.02" transform="translate(-27.5 41.03) rotate(-30.16)"/></g><path class="cls-11" d="M32.52,18.6c-.07-.12-.23-.16-.35-.09-.12,.07-.16,.22-.09,.35l21.75,37.36c.07,.12,.23,.16,.35,.09,.12-.07,.16-.23,.09-.35L32.52,18.6Z"/><circle class="cls-11" cx="30.61" cy="15.94" r="1.44"/></g><g><g><path class="cls-7" d="M68.38,17.1c-.48-.27-1.1-.11-1.38,.37l-22.22,38.74c-.28,.48-.11,1.1,.37,1.37,.48,.27,1.1,.11,1.37-.37l22.22-38.74c.28-.48,.11-1.1-.37-1.37Z"/><path class="cls-7" d="M69.96,14.04c-1.21-.69-2.74-.28-3.43,.93-.69,1.2-.28,2.74,.93,3.43,1.21,.69,2.74,.27,3.43-.93,.69-1.2,.27-2.74-.93-3.43Z"/><rect class="cls-7" x="21.18" y="71.23" width="32.02" height=".5" transform="translate(-43.32 68.26) rotate(-60.22)"/></g><path class="cls-11" d="M66.8,18.66l-21.55,37.48c-.07,.12-.03,.28,.09,.34,.12,.07,.28,.03,.35-.09l21.55-37.48c.07-.12,.03-.28-.09-.34-.12-.07-.28-.03-.35,.09Z"/><circle class="cls-11" cx="68.71" cy="15.53" r="1.44"/></g><g><g><path class="cls-9" d="M49.73,12.38c-.55,0-1.01,.45-1,1.01l.13,44.66c0,.55,.45,1,1.01,1,.55,0,1-.46,1-1.01l-.13-44.66c0-.55-.45-1-1.01-1Z"/><path class="cls-9" d="M49.57,8.93c-1.39,0-2.51,1.13-2.5,2.52,0,1.39,1.13,2.51,2.52,2.51,1.39,0,2.51-1.13,2.51-2.52,0-1.39-1.13-2.51-2.52-2.51Z"/><rect class="cls-9" x="49.65" y="59.05" width=".5" height="32.02" transform="translate(-.21 .14) rotate(-.16)"/></g><path class="cls-11" d="M50.26,14.1c-.14,0-.25,.11-.25,.25V57.58c0,.14,.11,.25,.25,.25s.25-.11,.25-.25V14.35c0-.14-.11-.25-.25-.25Z"/><circle class="cls-11" cx="50.16" cy="10.94" r="1.44"/></g></g></g></svg>