<?xml version="1.0" encoding="UTF-8"?><svg id="Layer_2" xmlns="http://www.w3.org/2000/svg" xmlns:xlink="http://www.w3.org/1999/xlink" viewBox="0 0 100 100"><defs><style>.cls-1{fill:none;}.cls-2{clip-path:url(#clippath);}.cls-3{fill:#eae5ec;}.cls-4{fill:#728b4d;}.cls-5{fill:#8bc43f;}.cls-6{fill:#e2d8d6;}.cls-7{fill:#9a8692;}.cls-8{fill:#5b794d;}.cls-9{clip-path:url(#clippath-1);}.cls-10{clip-path:url(#clippath-2);}.cls-11{fill:#400000;}.cls-11,.cls-12{opacity:.2;}.cls-12{fill:#fff;}</style><clipPath id="clippath"><path class="cls-1" d="M40.75,38.21c.91-.95,2.34-2.36,3.69-3.3,2.21-1.53,8.27-3.59,8.27-3.59,0,0-4.09-1.24-7.57-.47-.17-1.03-3.51-1.9-4.93-2.22v-.22c1.45-.22,4.95-.82,4.95-1.52,0-.46-1.51-1.32-2.95-2.04,.36-.31,.72-.61,1.08-.86,1.68-1.16,6.27-2.73,6.27-2.73,0,0-5.21-1.59-7.86,.62-.75,.63-1.22,1.33-1.53,2.02-.36-.16-.59-.25-.59-.25,0,0-.16,.07-.42,.18-.3-.66-.77-1.34-1.49-1.94-2.65-2.21-7.86-.62-7.86-.62,0,0,4.59,1.57,6.27,2.73,.34,.23,.68,.51,1.01,.8-1.48,.73-3.08,1.62-3.08,2.1,0,.74,3.85,1.36,5.15,1.55v.15c-1.24,.27-4.84,1.16-5.11,2.22-3.43-.69-7.38,.51-7.38,.51,0,0,6.05,2.06,8.27,3.59,1.34,.93,2.75,2.31,3.66,3.26-2.03,.4-6.48,1.42-6.48,2.62,0,1.33,5.48,4.52,7.05,5.41v5.23c0,.29,.24,.53,.52,.53s.53-.23,.53-.53v-5.34c1.79-1.02,6.85-4.02,6.85-5.3,0-1.17-4.21-2.17-6.31-2.59Z"/></clipPath><clipPath id="clippath-1"><path class="cls-1" d="M70.21,40.72H21.05s-.93,6.36,0,12.09c.91,5.63,2.72,12.1,9.05,15.59h-.11c-1.47,0-2.66,1.37-2.66,3.05v3.03c0,1.69,1.19,3.61,2.66,3.61h30.82c1.47,0,2.66-1.92,2.66-3.61v-3.03c0-1.57-1.04-2.86-2.38-3.02,6.38-3.48,8.2-9.98,9.11-15.62,.92-5.73,0-12.09,0-12.09Z"/></clipPath><clipPath id="clippath-2"><path class="cls-1" d="M78.76,72.7s-7.17-4.49-9.88-4.49c-.95,0-1.83,.55-2.58,1.27,.1-.26,.16-.53,.16-.8,0-2.22-3.67-8.09-3.67-8.09,0,0-3.67,5.87-3.67,8.09,0,.28,.06,.54,.16,.8-.75-.71-1.64-1.27-2.58-1.27-2.71,0-9.88,4.49-9.88,4.49,0,0,7.17,4.49,9.88,4.49,.95,0,1.83-.55,2.58-1.27-.1,.26-.16,.53-.16,.8,0,2.22,3.67,8.09,3.67,8.09,0,0,3.67-5.87,3.67-8.09,0-.27-.06-.54-.16-.8,.75,.71,1.64,1.27,2.58,1.27,2.71,0,9.88-4.49,9.88-4.49Zm-17.9,1.24c.46-.7,.72-1.24,.72-1.24,0,0-.27-.54-.72-1.24,.94,.76,1.91,1.24,1.91,1.24,0,0,.97-.48,1.92-1.24-.46,.7-.73,1.24-.73,1.24,0,0,.27,.54,.73,1.24-.94-.77-1.92-1.24-1.92-1.24,0,0-.97,.48-1.91,1.24Z"/></clipPath></defs><circle class="cls-6" cx="50" cy="50" r="50"/><g><g><path class="cls-5" d="M22.08,20.97c-.15,.06-.23,.23-.17,.39l11.67,29.98c.06,.15,.23,.23,.39,.17,.15-.06,.23-.23,.17-.39l-11.67-29.98c-.06-.15-.23-.23-.39-.17Z"/><path class="cls-5" d="M26.12,25.02c-.91,1.42-1.55,2.63-1.43,2.71,.13,.08,.97-1,1.88-2.42,.91-1.42,1.55-2.63,1.43-2.71-.13-.08-.97,1-1.88,2.42Z"/><path class="cls-5" d="M26.07,26.45c-.84,.54-1.46,1.08-1.37,1.21,.08,.13,.83-.21,1.67-.75,.84-.54,1.46-1.08,1.37-1.21-.08-.13-.83,.21-1.67,.75Z"/><path class="cls-4" d="M21.85,26.68c-1.63-.43-2.98-.65-3.02-.51-.04,.15,1.25,.61,2.89,1.04,1.63,.43,2.99,.65,3.02,.51,.04-.15-1.25-.61-2.89-1.04Z"/><path class="cls-4" d="M22.85,27.7c-.98,.17-1.76,.43-1.73,.58,.02,.15,.84,.13,1.83-.04,.98-.17,1.76-.43,1.73-.58-.03-.15-.84-.13-1.83,.04Z"/><path class="cls-5" d="M27.54,28.84c-.91,1.42-1.55,2.63-1.43,2.71,.13,.08,.97-1,1.89-2.42,.91-1.42,1.55-2.63,1.43-2.71-.13-.08-.97,1-1.89,2.42Z"/><path class="cls-5" d="M27.49,30.26c-.84,.54-1.46,1.08-1.37,1.21,.08,.13,.83-.21,1.67-.75,.84-.54,1.45-1.08,1.37-1.21-.08-.13-.83,.21-1.67,.75Z"/><path class="cls-5" d="M26.48,27.73c-.15,0-.32,.79-.38,1.79-.06,1,.01,1.81,.16,1.82,.15,0,.32-.79,.38-1.79,.06-1-.01-1.81-.16-1.82Z"/><path class="cls-5" d="M29.3,34.97c-.15,0-.32,.79-.38,1.79-.06,1,.01,1.81,.16,1.82,.15,.01,.32-.79,.38-1.79,.06-1-.01-1.81-.16-1.82Z"/><path class="cls-5" d="M24.73,32.32c-.1,.11,.39,.76,1.11,1.45,.72,.69,1.39,1.17,1.49,1.06,.1-.11-.39-.76-1.11-1.45-.72-.69-1.39-1.17-1.49-1.06Z"/><path class="cls-5" d="M22.82,26.08c-.07,.07,.27,.52,.76,.99,.49,.47,.94,.8,1.02,.72,.07-.07-.27-.52-.76-.99-.49-.47-.94-.79-1.02-.72Z"/><path class="cls-4" d="M23.27,30.5c-1.63-.43-2.98-.65-3.02-.51-.04,.15,1.25,.61,2.89,1.04,1.63,.43,2.99,.65,3.02,.51,.04-.15-1.25-.61-2.89-1.04Z"/><path class="cls-4" d="M24.28,31.51c-.98,.17-1.76,.43-1.73,.58,.03,.15,.84,.13,1.83-.04,.98-.17,1.76-.43,1.73-.58-.03-.15-.84-.13-1.83,.04Z"/><path class="cls-5" d="M28.9,32.39c-.91,1.42-1.55,2.63-1.43,2.72,.13,.08,.97-1,1.89-2.42,.91-1.42,1.55-2.63,1.42-2.71-.13-.08-.97,1-1.88,2.42Z"/><path class="cls-5" d="M28.85,33.82c-.84,.54-1.46,1.08-1.37,1.21,.08,.13,.83-.21,1.67-.75,.84-.54,1.45-1.08,1.37-1.21-.08-.13-.83,.21-1.67,.75Z"/><path class="cls-4" d="M24.63,34.06c-1.63-.43-2.98-.65-3.02-.51-.04,.15,1.25,.61,2.89,1.04,1.63,.43,2.98,.65,3.02,.51,.04-.15-1.25-.61-2.89-1.04Z"/><path class="cls-4" d="M25.63,35.07c-.98,.17-1.76,.43-1.73,.58,.03,.15,.84,.13,1.83-.04,.98-.17,1.76-.43,1.73-.58-.03-.15-.84-.13-1.83,.04Z"/><path class="cls-5" d="M30.41,36.06c-.91,1.42-1.55,2.63-1.43,2.71,.13,.08,.97-1,1.88-2.42,.91-1.42,1.55-2.63,1.43-2.71-.13-.08-.97,1-1.88,2.42Z"/><path class="cls-5" d="M30.36,37.49c-.84,.54-1.45,1.08-1.37,1.21,.08,.13,.83-.21,1.67-.75,.84-.54,1.45-1.08,1.37-1.21-.08-.13-.83,.21-1.67,.75Z"/><path class="cls-4" d="M26.14,37.72c-1.63-.43-2.99-.65-3.02-.51-.04,.15,1.25,.61,2.89,1.04,1.63,.43,2.99,.65,3.02,.51,.04-.15-1.25-.61-2.89-1.04Z"/><path class="cls-4" d="M27.14,38.74c-.98,.17-1.76,.43-1.73,.58,.03,.15,.84,.13,1.83-.04,.98-.17,1.76-.43,1.73-.58-.03-.15-.84-.13-1.83,.04Z"/><path class="cls-5" d="M31.67,39.44c-.91,1.42-1.55,2.63-1.43,2.71,.13,.08,.97-1,1.89-2.42,.91-1.42,1.55-2.63,1.43-2.71-.13-.08-.97,1-1.89,2.42Z"/><path class="cls-5" d="M31.62,40.87c-.84,.54-1.45,1.08-1.37,1.21,.08,.13,.83-.21,1.67-.75,.84-.54,1.45-1.08,1.37-1.21-.08-.13-.83,.21-1.67,.75Z"/><path class="cls-4" d="M27.4,41.1c-1.63-.43-2.98-.65-3.02-.51-.04,.15,1.25,.61,2.89,1.04,1.63,.43,2.99,.65,3.02,.51,.04-.14-1.25-.61-2.89-1.03Z"/><path class="cls-4" d="M28.4,42.12c-.98,.17-1.76,.43-1.73,.58,.03,.15,.84,.13,1.83-.04,.98-.17,1.76-.43,1.73-.58-.03-.15-.84-.13-1.83,.04Z"/><path class="cls-5" d="M33.18,43.48c-.91,1.42-1.55,2.63-1.43,2.71,.13,.08,.97-1,1.88-2.42,.91-1.42,1.55-2.63,1.43-2.71-.13-.08-.97,1-1.88,2.42Z"/><path class="cls-5" d="M33.13,44.91c-.84,.54-1.45,1.08-1.37,1.21,.08,.13,.83-.21,1.67-.75,.84-.54,1.45-1.08,1.37-1.21-.08-.13-.83,.21-1.67,.75Z"/><path class="cls-4" d="M28.92,45.15c-1.63-.43-2.99-.65-3.02-.51-.04,.15,1.25,.61,2.89,1.04,1.63,.43,2.99,.65,3.02,.51,.04-.15-1.25-.61-2.89-1.04Z"/><path class="cls-4" d="M29.92,46.16c-.98,.17-1.76,.43-1.73,.58,.03,.15,.84,.13,1.83-.04,.98-.17,1.76-.43,1.73-.58-.03-.15-.84-.13-1.83,.04Z"/><path class="cls-5" d="M19.85,15.18c-.14,.05,.29,1.5,.96,3.22,.67,1.72,1.33,3.08,1.47,3.02,.14-.05-.29-1.5-.96-3.22-.67-1.73-1.33-3.08-1.47-3.02Z"/><path class="cls-5" d="M21.79,15.45c-.15,.01-.13,1.39,.04,3.06,.17,1.68,.43,3.03,.58,3.01,.15-.02,.13-1.39-.04-3.07-.17-1.68-.43-3.03-.58-3.01Z"/><path class="cls-5" d="M24.73,21.47c-.91,1.42-1.55,2.63-1.43,2.71,.13,.08,.97-1,1.88-2.42,.91-1.42,1.55-2.63,1.43-2.71-.13-.08-.97,1-1.88,2.42Z"/><path class="cls-5" d="M24.68,22.89c-.84,.54-1.46,1.08-1.37,1.21,.08,.13,.83-.21,1.67-.75,.84-.54,1.45-1.08,1.37-1.21-.08-.13-.83,.21-1.67,.75Z"/><path class="cls-4" d="M20.87,20.59c-.91-.42-1.69-.65-1.75-.52-.06,.14,.62,.59,1.52,1.01,.9,.42,1.69,.65,1.75,.52,.06-.14-.62-.59-1.52-1.01Z"/><path class="cls-4" d="M20.46,23.13c-1.63-.43-2.99-.65-3.02-.51-.04,.15,1.25,.61,2.89,1.04,1.63,.43,2.99,.65,3.02,.51,.04-.15-1.25-.61-2.89-1.04Z"/><path class="cls-4" d="M21.46,24.14c-.98,.17-1.76,.43-1.73,.58,.03,.15,.84,.13,1.83-.04,.98-.17,1.76-.43,1.73-.58-.03-.15-.84-.13-1.83,.04Z"/><path class="cls-5" d="M23.64,20.37c-.15,0-.32,.79-.38,1.79-.06,1,.01,1.81,.16,1.82,.15,.01,.32-.79,.38-1.79,.06-1-.01-1.81-.16-1.82Z"/></g><g><path class="cls-7" d="M73.98,18.45c-2.67,.64-3.94,4.71-8.27,7.89-4.33,3.18-10.44,6.36-13.74,7.64-3.31,1.27-24.18,17.82-24.62,19.22s.32,6.74,1.97,8.4c1.65,1.65,5.73,4.58,8.27,4.07,2.54-.51,22.91-17.69,24.31-20.11,1.4-2.42,6.01-7.76,8.73-10.05,2.72-2.29,8.32-2.8,10.1-4.71,1.78-1.91,3.05-4.96,0-8.91-1.79-2.32-4.07-4.07-6.75-3.44Z"/><path class="cls-12" d="M75.23,19.66c-1.39,0-2.51,1.12-2.51,2.51s1.12,2.51,2.51,2.51,2.51-1.12,2.51-2.51-1.12-2.51-2.51-2.51Z"/></g><g><path class="cls-8" d="M39.59,23.64s-5.57,2.35-5.57,3.24,5.57,1.61,5.57,1.61c0,0,5.57-.72,5.57-1.61s-5.57-3.24-5.57-3.24Z"/><path class="cls-5" d="M41.7,21.88c-2.65,2.21-1.92,5.39-1.92,5.39,0,0,1.84-2.12,3.51-3.28,1.68-1.16,6.27-2.73,6.27-2.73,0,0-5.21-1.59-7.86,.62Z"/><path class="cls-5" d="M37.67,21.88c-2.65-2.21-7.86-.62-7.86-.62,0,0,4.59,1.57,6.27,2.73,1.68,1.16,3.51,3.28,3.51,3.28,0,0,.72-3.18-1.92-5.39Z"/><path class="cls-8" d="M42.34,32.13c-3.49,2.91-2.54,7.1-2.54,7.1,0,0,2.42-2.79,4.63-4.32,2.21-1.53,8.27-3.59,8.27-3.59,0,0-6.87-2.1-10.37,.82Z"/><path class="cls-8" d="M37.03,32.13c-3.49-2.91-10.36-.82-10.36-.82,0,0,6.05,2.06,8.27,3.59,2.21,1.53,4.63,4.32,4.63,4.32,0,0,.96-4.19-2.54-7.1Z"/><path class="cls-4" d="M39.69,26.5c-.29,0-.52,.23-.52,.52v24.41c0,.29,.24,.53,.52,.53s.53-.23,.53-.53V27.03c0-.29-.24-.52-.53-.52Z"/><path class="cls-5" d="M39.59,28.49s-5.57,1.09-5.57,2.44,5.57,4.9,5.57,4.9c0,0,5.57-3.56,5.57-4.9s-5.57-2.44-5.57-2.44Z"/><path class="cls-5" d="M39.59,37.99s-7.47,1.26-7.47,2.81,7.47,5.65,7.47,5.65c0,0,7.47-4.1,7.47-5.65s-7.47-2.81-7.47-2.81Z"/></g><g class="cls-2"><rect class="cls-11" x="25.89" y="20.37" width="13.8" height="39.96"/></g><g><path class="cls-3" d="M60.82,68.4H30c-1.47,0-2.66,1.37-2.66,3.05v3.03c0,1.69,1.19,3.61,2.66,3.61h30.82c1.47,0,2.66-1.92,2.66-3.61v-3.03c0-1.69-1.19-3.05-2.66-3.05Z"/><g><path class="cls-3" d="M45.63,40.72H21.05s-.93,6.36,0,12.09c.92,5.73,2.77,12.34,9.38,15.78,6.61,3.44,15.2,2.8,15.2,2.8,0,0,8.59,.64,15.2-2.8,6.61-3.44,8.46-10.05,9.38-15.78,.92-5.73,0-12.09,0-12.09h-24.58Z"/><g class="cls-9"><rect class="cls-11" x="17.43" y="39.59" width="28.77" height="43.71"/></g></g></g><g><path class="cls-4" d="M63.97,72.7s2.2,4.49,4.91,4.49,9.88-4.49,9.88-4.49c0,0-7.17-4.49-9.88-4.49s-4.91,4.49-4.91,4.49Z"/><path class="cls-4" d="M56.67,68.22c-2.71,0-9.88,4.49-9.88,4.49,0,0,7.17,4.49,9.88,4.49s4.91-4.49,4.91-4.49c0,0-2.2-4.49-4.91-4.49Z"/><path class="cls-5" d="M62.78,72.7s-3.67,1.8-3.67,4.02,3.67,8.09,3.67,8.09c0,0,3.67-5.87,3.67-8.09s-3.67-4.02-3.67-4.02Z"/><path class="cls-5" d="M59.1,68.68c0,2.22,3.67,4.02,3.67,4.02,0,0,3.67-1.8,3.67-4.02s-3.67-8.09-3.67-8.09c0,0-3.67,5.87-3.67,8.09Z"/></g><g class="cls-10"><rect class="cls-11" x="45.16" y="57.21" width="17.62" height="30.38"/></g></g></svg>