<?xml version="1.0" encoding="UTF-8"?><svg id="Layer_2" xmlns="http://www.w3.org/2000/svg" xmlns:xlink="http://www.w3.org/1999/xlink" viewBox="0 0 100 100"><defs><style>.cls-1{fill:none;}.cls-2{clip-path:url(#clippath);}.cls-3{fill:#eae5ec;}.cls-4{fill:#f4f1b3;}.cls-5,.cls-6,.cls-7{fill:#fff;}.cls-8{fill:#ffecbd;}.cls-9,.cls-10{fill:#f69021;}.cls-11{fill:#ffd3a6;}.cls-12{fill:#9f9c95;}.cls-13{fill:#b84024;}.cls-14{fill:#c06521;}.cls-15{fill:#e2d8d6;}.cls-16{fill:#34323f;}.cls-17{clip-path:url(#clippath-1);}.cls-18{fill:#1d000e;}.cls-18,.cls-10,.cls-6{opacity:.2;}.cls-7{opacity:.5;}</style><clipPath id="clippath"><path class="cls-1" d="M46.42,22.51h4.07V6.14H29.06V22.51h4.07c-3.95,0-7.14,2.81-7.14,6.28v50.44c0,3.47,3.2,6.29,7.14,6.29h13.29c3.94,0,7.14-2.81,7.14-6.29V28.79c0-3.47-3.2-6.28-7.14-6.28Z"/></clipPath><clipPath id="clippath-1"><path class="cls-1" d="M74.87,46.61h-.29v-2.89h2.01v-11.36h-2.01c0-.81-.64-1.45-1.43-1.49v-8.13c0-1.14-1.42-2.07-3.17-2.07s-3.17,.93-3.17,2.07v8.13c-.8,.04-1.43,.68-1.43,1.49h-2.01v11.36h2.01v2.89h-.29c-2.91,0-5.26,1.76-5.26,3.93v31.59c0,2.17,2.36,3.94,5.26,3.94h9.79c2.91,0,5.26-1.76,5.26-3.94v-31.59c0-2.17-2.36-3.93-5.26-3.93Z"/></clipPath></defs><circle class="cls-15" cx="50" cy="50" r="50"/><g><g><path class="cls-5" d="M50.72,85.39c-2,0-3.61,1.62-3.61,3.61s1.62,3.62,3.61,3.62,3.62-1.62,3.62-3.62-1.62-3.61-3.62-3.61Z"/><path class="cls-4" d="M50.85,85.77c-1.72,0-3.11,1.39-3.11,3.11s1.39,3.11,3.11,3.11,3.11-1.39,3.11-3.11-1.39-3.11-3.11-3.11Z"/><path class="cls-5" d="M51.8,86.5c-.71,0-1.28,.57-1.28,1.28s.57,1.28,1.28,1.28,1.28-.57,1.28-1.28-.57-1.28-1.28-1.28Z"/></g><g><path class="cls-9" d="M46.42,22.51h-13.29c-3.95,0-7.14,2.81-7.14,6.28v50.44c0,3.47,3.2,6.29,7.14,6.29h13.29c3.94,0,7.14-2.81,7.14-6.29V28.79c0-3.47-3.2-6.28-7.14-6.28Z"/><rect class="cls-12" x="29.06" y="6.14" width="21.43" height="16.37"/><rect class="cls-8" x="25.98" y="37.1" width="27.58" height="32.56"/><rect class="cls-16" x="25.98" y="37.1" width="27.58" height="16.91"/><path class="cls-3" d="M48.73,7.84c-.25,0-.46,.2-.46,.46v11.91c0,.25,.2,.46,.46,.46s.46-.2,.46-.46V8.3c0-.25-.21-.46-.46-.46Z"/><path class="cls-3" d="M46.16,7.84c-.25,0-.45,.2-.45,.46v11.91c0,.25,.2,.46,.45,.46s.46-.2,.46-.46V8.3c0-.25-.21-.46-.46-.46Z"/><path class="cls-3" d="M43.6,7.84c-.25,0-.46,.2-.46,.46v11.91c0,.25,.2,.46,.46,.46s.46-.2,.46-.46V8.3c0-.25-.21-.46-.46-.46Z"/><path class="cls-3" d="M41.03,7.84c-.25,0-.46,.2-.46,.46v11.91c0,.25,.2,.46,.46,.46s.46-.2,.46-.46V8.3c0-.25-.21-.46-.46-.46Z"/><path class="cls-3" d="M38.46,7.84c-.25,0-.46,.2-.46,.46v11.91c0,.25,.2,.46,.46,.46s.46-.2,.46-.46V8.3c0-.25-.21-.46-.46-.46Z"/><path class="cls-3" d="M35.9,7.84c-.25,0-.46,.2-.46,.46v11.91c0,.25,.2,.46,.46,.46s.46-.2,.46-.46V8.3c0-.25-.21-.46-.46-.46Z"/><path class="cls-3" d="M33.33,7.84c-.25,0-.45,.2-.45,.46v11.91c0,.25,.2,.46,.45,.46s.46-.2,.46-.46V8.3c0-.25-.21-.46-.46-.46Z"/><path class="cls-3" d="M30.76,7.84c-.25,0-.46,.2-.46,.46v11.91c0,.25,.2,.46,.46,.46s.46-.2,.46-.46V8.3c0-.25-.21-.46-.46-.46Z"/><path class="cls-6" d="M48.73,27.38c-1.68,0-3.05,1.37-3.05,3.05v48.56c0,1.68,1.37,3.05,3.05,3.05s3.05-1.37,3.05-3.05V30.43c0-1.68-1.37-3.05-3.05-3.05Z"/><g class="cls-2"><rect class="cls-18" x="21.56" y="4.25" width="18.21" height="82.8"/></g></g><g><path class="cls-13" d="M74.87,46.61h-9.79c-2.91,0-5.26,1.76-5.26,3.93v31.59c0,2.17,2.36,3.94,5.26,3.94h9.79c2.91,0,5.26-1.76,5.26-3.94v-31.59c0-2.17-2.36-3.93-5.26-3.93Z"/><rect class="cls-11" x="59.81" y="51.95" width="20.32" height="27.79"/><path class="cls-9" d="M69.97,20.68c-1.75,0-3.17,.93-3.17,2.07v12.44c0,1.14,1.42,2.07,3.17,2.07s3.17-.93,3.17-2.07v-12.44c0-1.14-1.42-2.07-3.17-2.07Z"/><path class="cls-9" d="M73.07,30.87h-6.21c-.83,0-1.5,.67-1.5,1.5s.67,1.5,1.5,1.5h6.21c.83,0,1.5-.67,1.5-1.5s-.67-1.5-1.5-1.5Z"/><rect class="cls-13" x="65.36" y="43.73" width="9.21" height="2.89"/><rect class="cls-14" x="63.35" y="32.37" width="13.24" height="11.36"/><path class="cls-6" d="M76.59,48.63c-1.1,0-1.99,.89-1.99,1.99v31.69c0,1.1,.89,1.99,1.99,1.99s1.99-.89,1.99-1.99v-31.69c0-1.1-.89-1.99-1.99-1.99Z"/><path class="cls-10" d="M74.09,33.38c-.68,0-1.23,.55-1.23,1.23v6.81c0,.68,.55,1.23,1.23,1.23s1.23-.55,1.23-1.23v-6.81c0-.68-.55-1.23-1.23-1.23Z"/><path class="cls-7" d="M71.48,21.58c-.33,0-.59,.27-.59,.59v8.1c0,.33,.27,.59,.59,.59s.59-.27,.59-.59v-8.1c0-.33-.27-.59-.59-.59Z"/><path class="cls-7" d="M73.22,31.32c-.35,0-.63,.15-.63,.34s.28,.34,.63,.34,.63-.15,.63-.34-.28-.34-.63-.34Z"/><g class="cls-17"><rect class="cls-18" x="57.98" y="19.3" width="11.98" height="69.67"/></g></g><g><path class="cls-5" d="M41.15,81.43c-2,0-3.61,1.62-3.61,3.61s1.62,3.62,3.61,3.62,3.62-1.62,3.62-3.62-1.62-3.61-3.62-3.61Z"/><path class="cls-4" d="M41.28,81.81c-1.72,0-3.11,1.39-3.11,3.11s1.39,3.11,3.11,3.11,3.11-1.39,3.11-3.11-1.39-3.11-3.11-3.11Z"/><path class="cls-5" d="M42.23,82.53c-.71,0-1.28,.57-1.28,1.28s.57,1.28,1.28,1.28,1.28-.57,1.28-1.28-.57-1.28-1.28-1.28Z"/></g><g><path class="cls-5" d="M30.57,85.44c-2,0-3.61,1.62-3.61,3.61s1.62,3.62,3.61,3.62,3.62-1.62,3.62-3.62-1.62-3.61-3.62-3.61Z"/><path class="cls-4" d="M30.69,85.82c-1.72,0-3.11,1.39-3.11,3.11s1.39,3.11,3.11,3.11,3.11-1.39,3.11-3.11-1.39-3.11-3.11-3.11Z"/><path class="cls-5" d="M31.64,86.54c-.71,0-1.28,.57-1.28,1.28s.57,1.28,1.28,1.28,1.28-.57,1.28-1.28-.57-1.28-1.28-1.28Z"/></g><g><path class="cls-5" d="M21.46,81.3c-2,0-3.61,1.62-3.61,3.61s1.62,3.62,3.61,3.62,3.62-1.62,3.62-3.62-1.62-3.61-3.62-3.61Z"/><path class="cls-4" d="M21.59,81.68c-1.72,0-3.11,1.39-3.11,3.11s1.39,3.11,3.11,3.11,3.11-1.39,3.11-3.11-1.39-3.11-3.11-3.11Z"/><path class="cls-5" d="M22.54,82.4c-.71,0-1.28,.57-1.28,1.28s.57,1.28,1.28,1.28,1.28-.57,1.28-1.28-.57-1.28-1.28-1.28Z"/></g><g><path class="cls-5" d="M69.19,81.48c-2,0-3.61,1.62-3.61,3.61s1.62,3.62,3.61,3.62,3.62-1.62,3.62-3.62-1.62-3.61-3.62-3.61Z"/><path class="cls-4" d="M69.32,81.86c-1.72,0-3.11,1.39-3.11,3.11s1.39,3.11,3.11,3.11,3.11-1.39,3.11-3.11-1.39-3.11-3.11-3.11Z"/><path class="cls-5" d="M70.27,82.58c-.71,0-1.28,.57-1.28,1.28s.57,1.28,1.28,1.28,1.28-.57,1.28-1.28-.57-1.28-1.28-1.28Z"/></g></g></svg>