<?xml version="1.0" encoding="UTF-8"?><svg id="Layer_2" xmlns="http://www.w3.org/2000/svg" xmlns:xlink="http://www.w3.org/1999/xlink" viewBox="0 0 100 100"><defs><style>.cls-1{fill:none;}.cls-2{clip-path:url(#clippath);}.cls-3{fill:#fff1bd;}.cls-4{fill:#fff;}.cls-5{fill:#fff172;}.cls-6{fill:#745b63;}.cls-7{fill:#997b7d;}.cls-8{fill:#806167;}.cls-9{fill:#ab97a9;}.cls-10{fill:#d0b8c5;}.cls-11{fill:#e2d8d6;}.cls-12{fill:#9a8692;}.cls-13{fill:#34323f;}.cls-14{clip-path:url(#clippath-1);}.cls-15{fill:#1d000e;opacity:.2;}</style><clipPath id="clippath"><polygon class="cls-1" points="63.28 73.8 23.72 73.8 18.73 45.81 68.15 45.81 63.28 73.8"/></clipPath><clipPath id="clippath-1"><path class="cls-1" d="M37.5,41.77c-1.82-1.5-2.27-3.12-2.49-5.38-.38-3.88,1.5-8.22,1.05-11.54-.65-4.81-3.62-6.35-7.07-6.47-.24,0-.48,0-.71,.03-.18-.02-.37-.03-.56-.03-3.44-.12-5.94,3.56-5.94,6.89s3.56,12.23,3.09,16.03c-.47,3.8-6.18,4.51-6.18,4.51h49.48s-27.69-1.57-30.68-4.04Z"/></clipPath></defs><circle class="cls-11" cx="50" cy="50" r="50"/><g><g><path class="cls-6" d="M79.38,25.09L45.12,63.78c-.76,.86-.68,2.16,.18,2.92,.86,.76,2.17,.68,2.93-.18L82.49,27.84c.76-.86,.68-2.17-.18-2.92-.86-.76-2.17-.68-2.92,.18Z"/><path class="cls-7" d="M79.72,25.61l-16.29,18.63c-.23,.26-.2,.66,.06,.88,.26,.23,.66,.2,.88-.06l16.29-18.63c.23-.26,.2-.66-.06-.88-.26-.23-.66-.2-.88,.06Z"/><g><path class="cls-9" d="M33.74,36.39c-.38-3.88,1.5-8.22,1.05-11.54-.65-4.81-3.62-6.35-7.07-6.47-3.44-.12-5.94,3.56-5.94,6.89s3.56,12.23,3.09,16.03c-.47,3.8-6.18,4.51-6.18,4.51h48.21s-27.69-1.57-30.68-4.04c-1.82-1.5-2.27-3.12-2.49-5.38Z"/><path class="cls-6" d="M35.01,36.39c-.38-3.88,1.5-8.22,1.05-11.54-.65-4.81-3.62-6.35-7.07-6.47-3.44-.12-5.94,3.56-5.94,6.89s3.56,12.23,3.09,16.03c-.47,3.8-5.13,4.51-5.13,4.51h47.17s-27.69-1.57-30.68-4.04c-1.82-1.5-2.27-3.12-2.49-5.38Z"/><polygon class="cls-10" points="23.72 73.8 63.28 73.8 68.15 45.81 18.73 45.81 23.72 73.8"/><polygon class="cls-7" points="18.73 45.81 23.72 73.8 31.51 73.8 29.65 45.81 18.73 45.81"/><polygon class="cls-7" points="40.16 73.8 49.11 73.8 50.09 45.81 40.16 45.81 40.16 73.8"/><polygon class="cls-7" points="56.38 73.8 63.28 73.8 68.15 45.81 59.11 45.81 56.38 73.8"/><g class="cls-2"><rect class="cls-15" x="18.34" y="45.28" width="26.78" height="30.14"/></g><path class="cls-13" d="M29.88,22.72c-.71,0-1.29,.75-1.29,1.67s.58,1.67,1.29,1.67,1.29-.75,1.29-1.67-.58-1.67-1.29-1.67Z"/><g class="cls-14"><polygon class="cls-15" points="16.99 16.29 16.09 46.73 31.51 47.75 29.51 15.74 16.99 16.29"/></g></g></g><g><path class="cls-12" d="M27.03,69.14c-5.55,0-10.04,2.29-10.04,5.11s4.5,3.77,10.04,3.77,10.04-.95,10.04-3.77-4.5-5.11-10.04-5.11Z"/><path class="cls-8" d="M26.77,76.29c-4.67,0-8.6-.67-9.72-2.57-.04,.18-.06,.35-.06,.54,0,2.82,4.5,3.77,10.04,3.77s10.04-.95,10.04-3.77c0-.44-.11-.87-.31-1.27-.47,2.46-4.77,3.31-10,3.31Z"/></g><g><path class="cls-12" d="M65.86,71.58c-5.55,0-10.04,2.29-10.04,5.11s4.5,3.77,10.04,3.77,10.04-.95,10.04-3.77-4.5-5.11-10.04-5.11Z"/><path class="cls-8" d="M65.59,78.73c-4.67,0-8.6-.67-9.72-2.57-.04,.18-.06,.35-.06,.54,0,2.82,4.5,3.77,10.04,3.77s10.04-.95,10.04-3.77c0-.44-.11-.87-.31-1.27-.47,2.46-4.77,3.31-10,3.31Z"/></g><g><path class="cls-12" d="M41.92,74.02c-4.75,0-8.6,1.96-8.6,4.38s3.85,3.23,8.6,3.23,8.6-.81,8.6-3.23-3.85-4.38-8.6-4.38Z"/><path class="cls-8" d="M41.62,79.69c-3.83,0-7.07-.53-8.18-2-.07,.23-.11,.47-.11,.71,0,2.42,3.85,3.23,8.6,3.23s8.6-.81,8.6-3.23c0-.46-.14-.9-.4-1.31-.62,1.93-4.19,2.61-8.5,2.61Z"/></g><g><path class="cls-12" d="M65.86,68.24c-4.86,0-8.8,2-8.8,4.48s3.94,3.31,8.8,3.31,8.8-.83,8.8-3.31-3.94-4.48-8.8-4.48Z"/><path class="cls-8" d="M65.59,74.29c-4.01,0-7.39-.57-8.45-2.16-.05,.19-.08,.39-.08,.59,0,2.47,3.94,3.31,8.8,3.31s8.8-.83,8.8-3.31c0-.42-.12-.83-.33-1.22-.52,2.07-4.23,2.79-8.73,2.79Z"/></g><g><path class="cls-12" d="M65.85,65.43c-3.51,0-6.35,1.45-6.35,3.23s2.84,2.39,6.35,2.39,6.35-.6,6.35-2.39-2.84-3.23-6.35-3.23Z"/><path class="cls-8" d="M65.63,69.62c-2.83,0-5.22-.39-6.05-1.48-.05,.17-.08,.34-.08,.52,0,1.79,2.84,2.39,6.35,2.39s6.35-.6,6.35-2.39c0-.34-.1-.66-.29-.97-.46,1.43-3.09,1.92-6.28,1.92Z"/></g><g><g><path class="cls-4" d="M53.43,67.22c-1.4,0-2.54,1.03-2.54,3.34s1.69,4.19,2.54,4.19c.75,0,2.54-1.87,2.54-4.19s-1.14-3.34-2.54-3.34Z"/><path class="cls-3" d="M53.43,69.19c-1.03,0-1.87,.76-1.87,2.46s1.25,3.09,1.87,3.09c.55,0,1.87-1.38,1.87-3.09s-.84-2.46-1.87-2.46Z"/><path class="cls-5" d="M53.43,71.26c-.65,0-1.18,.48-1.18,1.54s.78,1.94,1.18,1.94c.35,0,1.17-.87,1.17-1.94s-.53-1.54-1.17-1.54Z"/></g><g><path class="cls-4" d="M50.12,71.25c-2.2-.71-3.53,.05-3.96,1.38-.43,1.33,.19,2.73,2.39,3.45,2.2,.71,4.5-.32,4.76-1.12,.23-.72-1-2.99-3.19-3.71Z"/><path class="cls-3" d="M50.95,72.23c-1.62-.53-2.6,.04-2.92,1.02-.32,.98,.14,2.02,1.76,2.54,1.62,.53,3.32-.23,3.51-.83,.17-.53-.74-2.21-2.36-2.73Z"/><path class="cls-5" d="M51.83,73.25c-1.02-.33-1.63,.02-1.83,.64-.2,.62,.09,1.26,1.1,1.59,1.02,.33,2.08-.15,2.2-.52,.11-.33-.46-1.38-1.48-1.71Z"/></g><g><path class="cls-4" d="M48.92,76.68c-1.36,1.87-1.04,3.37,.09,4.19,1.14,.82,2.66,.66,4.02-1.21,1.36-1.87,1.09-4.38,.4-4.88-.61-.44-3.15,.02-4.51,1.89Z"/><path class="cls-3" d="M50.11,76.18c-1,1.38-.77,2.48,.07,3.09,.84,.61,1.96,.49,2.96-.89,1-1.38,.8-3.23,.3-3.6-.45-.33-2.33,.02-3.33,1.4Z"/><path class="cls-5" d="M51.35,75.66c-.63,.87-.48,1.56,.04,1.94,.52,.38,1.23,.31,1.86-.56,.63-.86,.5-2.03,.19-2.26-.28-.2-1.46,.01-2.09,.88Z"/></g><g><path class="cls-4" d="M53.44,74.72c-.61,.44-.95,3.01,.4,4.88,1.36,1.87,2.88,2.03,4.02,1.21,1.13-.83,1.45-2.32,.09-4.19-1.36-1.87-3.83-2.39-4.51-1.89Z"/><path class="cls-3" d="M53.44,74.72c-.45,.32-.7,2.22,.3,3.6,1,1.38,2.12,1.5,2.96,.89,.84-.61,1.07-1.71,.07-3.09-1-1.38-2.82-1.76-3.33-1.4Z"/><path class="cls-5" d="M53.44,74.72c-.28,.2-.44,1.39,.19,2.26,.63,.87,1.33,.94,1.86,.56,.52-.38,.67-1.07,.04-1.94-.63-.86-1.77-1.1-2.09-.87Z"/></g><g><path class="cls-4" d="M56.67,71.1c-2.2,.71-3.46,2.9-3.19,3.71,.23,.72,2.57,1.84,4.76,1.12,2.2-.71,2.82-2.11,2.39-3.45-.43-1.33-1.76-2.1-3.96-1.38Z"/><path class="cls-3" d="M55.83,72.07c-1.62,.53-2.55,2.14-2.36,2.73,.17,.53,1.89,1.35,3.51,.83,1.62-.53,2.08-1.56,1.76-2.54-.32-.98-1.3-1.55-2.92-1.02Z"/><path class="cls-5" d="M54.96,73.09c-1.02,.33-1.6,1.34-1.48,1.72,.11,.33,1.19,.85,2.2,.52,1.02-.33,1.31-.98,1.11-1.59-.2-.62-.81-.97-1.83-.64Z"/></g></g><g><g><path class="cls-4" d="M62.29,60.85c-1.01,0-1.83,.74-1.83,2.41s1.22,3.02,1.83,3.02c.54,0,1.83-1.35,1.83-3.02s-.82-2.41-1.83-2.41Z"/><path class="cls-3" d="M62.29,62.28c-.75,0-1.35,.55-1.35,1.78s.9,2.23,1.35,2.23c.4,0,1.35-1,1.35-2.23s-.61-1.78-1.35-1.78Z"/><path class="cls-5" d="M62.29,63.77c-.47,0-.85,.34-.85,1.11s.57,1.4,.85,1.4c.25,0,.85-.63,.85-1.4s-.38-1.11-.85-1.11Z"/></g><g><path class="cls-4" d="M59.9,63.77c-1.59-.52-2.55,.04-2.86,1-.31,.96,.14,1.97,1.73,2.49,1.59,.52,3.25-.23,3.44-.81,.17-.52-.72-2.16-2.31-2.68Z"/><path class="cls-3" d="M60.5,64.47c-1.17-.38-1.88,.03-2.11,.74-.23,.71,.1,1.46,1.27,1.84,1.17,.38,2.4-.17,2.54-.6,.12-.38-.53-1.59-1.7-1.97Z"/><path class="cls-5" d="M61.14,65.21c-.73-.24-1.18,.02-1.32,.46-.15,.45,.06,.91,.8,1.15,.73,.24,1.5-.11,1.59-.38,.08-.24-.33-1-1.07-1.24Z"/></g><g><path class="cls-4" d="M59.04,67.68c-.98,1.35-.75,2.43,.07,3.03,.82,.59,1.92,.48,2.9-.87,.98-1.35,.79-3.16,.29-3.52-.44-.32-2.28,.02-3.26,1.37Z"/><path class="cls-3" d="M59.89,67.33c-.72,.99-.56,1.79,.05,2.23,.6,.44,1.42,.35,2.14-.64,.72-1,.58-2.33,.22-2.6-.32-.24-1.68,.01-2.4,1.01Z"/><path class="cls-5" d="M60.79,66.95c-.45,.62-.35,1.12,.03,1.4,.38,.28,.89,.22,1.34-.4,.45-.62,.36-1.46,.13-1.63-.2-.15-1.05,0-1.51,.63Z"/></g><g><path class="cls-4" d="M62.3,66.27c-.44,.32-.69,2.17,.29,3.52,.98,1.35,2.08,1.47,2.9,.87,.82-.6,1.05-1.68,.07-3.03-.98-1.35-2.76-1.73-3.26-1.37Z"/><path class="cls-3" d="M62.3,66.27c-.32,.23-.51,1.6,.22,2.6,.72,1,1.53,1.08,2.14,.64,.6-.44,.77-1.24,.05-2.23-.72-1-2.04-1.27-2.4-1.01Z"/><path class="cls-5" d="M62.3,66.27c-.2,.15-.32,1,.13,1.63,.45,.62,.96,.68,1.34,.4,.38-.27,.48-.78,.03-1.4-.45-.62-1.28-.8-1.51-.63Z"/></g><g><path class="cls-4" d="M64.63,63.66c-1.59,.52-2.5,2.1-2.31,2.68,.17,.52,1.85,1.32,3.44,.81,1.59-.52,2.04-1.52,1.73-2.49-.31-.96-1.27-1.52-2.86-1Z"/><path class="cls-3" d="M64.03,64.36c-1.17,.38-1.84,1.55-1.7,1.97,.12,.38,1.37,.98,2.54,.6,1.17-.38,1.5-1.12,1.27-1.83-.23-.71-.94-1.12-2.11-.74Z"/><path class="cls-5" d="M63.39,65.09c-.73,.24-1.15,.97-1.07,1.24,.08,.24,.86,.61,1.59,.37,.73-.24,.94-.71,.8-1.15-.14-.45-.59-.7-1.32-.46Z"/></g></g></g></svg>