<?xml version="1.0" encoding="UTF-8"?><svg xmlns="http://www.w3.org/2000/svg" xmlns:xlink="http://www.w3.org/1999/xlink" viewBox="0 0 100 100"><defs><style>.cls-1{fill:none;}.cls-2{clip-path:url(#clippath);}.cls-3,.cls-4,.cls-5{fill:#f98b49;}.cls-6{fill:#ffa065;}.cls-7{fill:#ffc048;}.cls-8{fill:#ffbd97;}.cls-9{fill:#dc8a00;}.cls-10{fill:#e2d8d6;}.cls-11{fill:#2a120c;}.cls-12,.cls-13,.cls-4,.cls-5{mix-blend-mode:multiply;}.cls-13{fill:#f68373;}.cls-13,.cls-4{opacity:.3;}.cls-5{opacity:.5;}.cls-14{fill:url(#Degradado_sin_nombre_3);}.cls-15{isolation:isolate;}</style><clipPath id="clippath"><circle class="cls-1" cx="50" cy="50" r="49.76" transform="translate(-7.56 91.08) rotate(-80.51)"/></clipPath><linearGradient id="Degradado_sin_nombre_3" x1="49.98" y1="73.61" x2="49.98" y2="44.62" gradientTransform="translate(-.69 -.15) rotate(-.21)" gradientUnits="userSpaceOnUse"><stop offset=".6" stop-color="#f98b49"/><stop offset="1" stop-color="#d85b21"/></linearGradient></defs><g class="cls-15"><g id="Layer_2"><g class="cls-2"><circle class="cls-10" cx="50" cy="50" r="49.76" transform="translate(-7.56 91.08) rotate(-80.51)"/><path class="cls-11" d="M95.22,74.52c-2.35-3.96-.26-4.6-1.04-8.76-.45-2.42-5.76-3.29-3.82-9.5,1.94-6.22-1.1-9.24-4.47-12.26-3.37-3.02-.15-6.87-3.64-10.2-3.49-3.33-6.02-2.05-6.88-3.89-.85-1.84,.03-5.13-1.65-7.55-1.68-2.42-4.11-2.03-4.43-4.19-.33-2.16-.91-5.29-4.36-5.86-2.84-.47-2.49-2.19-2.68-3.66-.43-3.33-2.82-4.7-5.57-4.38-2.75,.32-3.89,.57-4.89-.57-1-1.13-3.48-2.37-7.07-1.38-2.57,.71-4.24,3.04-4.69,5.66-2.86,.21-6.07,.8-7.98,2.27-4.04,3.11-.86,10.38-3.25,12.55-2.38,2.17-10.7,5.63-10.21,13.57,.49,7.94,1.6,13.46-2.57,14.38-4.17,.93-9.16,4.11-9.07,9.74,.09,5.63,3.29,7.04,2.24,11.1-1.05,4.06-5.37,5.14-6.66,11.08-1.09,5.06,1.08,8.72,5.86,10.09,.26,.2,6.3,1.45,7.24,3.25,.98,1.88-.62,7.44,2.89,10.06,3.5,2.62,10.52-.94,12.66,2.79,2.31,4.02,6.49,7.08,13.21,5.66,7.77-1.64,6.05-6.83,12.3-6.16s10.36,2.45,14.44,.83c4.08-1.62,4.8-9.23,8.29-10.99,2.33-1.17,6.48,1.15,10.01-.39,2.27-.59,4.18-3.33,4.32-5.82,.21-3.67-2.98-5.64,.75-7.38,4.98-2.33,3.09-6.14,.74-10.1Z"/><g><g><path class="cls-9" d="M12.41,82.14s2.79,3.82,7.51,6.13c4.72,2.32,11.5,.54,11.5,.54,0,0-9.42-7.65-13.1-7.57-3.68,.09-5.9,.9-5.9,.9Z"/><path class="cls-6" d="M18.41,79.54s-3.02,36.23-2.08,44.61c0,0,11.52,.66,12.09,0,.57-.66,2.17-35.75,3.45-39.65s-13.46-4.95-13.46-4.95Z"/><path class="cls-7" d="M41.14,55.77s-14.9,2.45-17.93,5.2c-1.63,1.48-4.17,6.21-7.06,13.38-2.32,5.76-4.33,7.84-3.58,7.83,9.58-.02,16.62,6.46,18.7,6.12,2.08-.34,11.55-29.15,9.87-32.53Z"/></g><g><path class="cls-9" d="M87.88,82.14s-2.79,3.82-7.51,6.13c-4.72,2.32-11.5,.54-11.5,.54,0,0,9.42-7.65,13.1-7.57,3.68,.09,5.9,.9,5.9,.9Z"/><path class="cls-6" d="M81.88,79.54s3.02,36.23,2.08,44.61c0,0-11.52,.66-12.09,0-.57-.66-2.17-35.75-3.45-39.65-1.28-3.9,13.46-4.95,13.46-4.95Z"/><path class="cls-7" d="M59.15,55.77s14.9,2.45,17.93,5.2c1.63,1.48,4.17,6.21,7.06,13.38,2.32,5.76,4.33,7.84,3.58,7.83-9.58-.02-16.62,6.46-18.7,6.12-2.08-.34-11.55-29.15-9.87-32.53Z"/></g></g><path class="cls-7" d="M72.71,107.58c-1.44-10.69,0-32.84,0-32.84l-6.34-12.4h-31.34l-6.34,12.4s1.44,22.15,0,32.84c-1.44,10.69-4.01,15.36-3.83,16.86,.19,1.57,18.08,2.1,32.86,.73,7.66-.71,15.18,.73,17.69-.64,0,0-1.27-6.26-2.71-16.95Z"/><g><path class="cls-14" d="M59.68,55.76s-3.91-.61-4.56-1.63c-1.39-2.17-.51-13.6-.51-13.6l-5.34-.15-5.34,.19s.51,11.19-.41,13.6c-.42,1.1-3.99,1.61-3.99,1.61-4.46,2.13,.06,16.19,9.68,18.86,.06,.02,.12,.03,.18,.05,.06-.02,.12-.03,.18-.05,9.6-2.74,14.28-16.81,10.1-18.88Z"/><path class="cls-5" d="M54.95,53.61c-.85-3.77-.33-13.07-.33-13.07l-5.34-.17-5.34,.21s.33,6.39,.13,10.93c2.5,1.15,6.16,2.09,10.89,2.1Z"/><path class="cls-3" d="M64.25,23.69c-.57-8.84-4.92-11.56-7.65-13.02-2.86-1.54-5.18-1.81-7.22-1.67-2.04-.13-4.36,.17-7.21,1.72-2.72,1.49-7.05,4.24-7.56,13.08-.86,14.98,5.88,26.09,14.91,26.05,9.04-.03,15.69-11.19,14.72-26.16Z"/><g><path class="cls-3" d="M34.49,27.66s-4.26,.43-4.41,4.11c-.16,3.77,5.89,3.41,5.89,3.41l-1.47-7.52Z"/><g class="cls-12"><path class="cls-13" d="M35.06,28.93s-3.49,.14-3.87,3.6c0,0,2.48-2.29,4.57-1.21l-.7-2.38Z"/></g></g><path class="cls-11" d="M50.83,38.03c.33-.01,.7-.08,.94-.28,.18-.16,.27-.38,.26-.64-.03-.78-.66-1.01-1.08-1.16-.18-.06-.37-.14-.41-.21-.13-.25-.19-2.06-.21-3.15,0-.09-.08-.17-.17-.17-.11,0-.17,.08-.17,.17,0,.48,.04,2.9,.24,3.29,.1,.2,.33,.28,.6,.38,.41,.15,.84,.31,.86,.86,0,.16-.04,.28-.15,.37-.33,.28-1.12,.21-1.4,.15-.09-.02-.18,.04-.2,.13-.02,.09,.04,.18,.13,.2,.03,0,.36,.07,.75,.05Z"/><g><g><path class="cls-11" d="M60.84,29.46c.26-.29-3.21-1.85-5.75-1.08-2.25,.68,1.89,1.06,3.99,1.21,2.1,.15,1.76-.13,1.76-.13Z"/><path class="cls-11" d="M38.07,30.13c-.32-.26,2.68-2.84,5.34-2.57,2.35,.24-1.59,1.64-3.6,2.3-2.01,.66-1.74,.27-1.74,.27Z"/></g><g><path class="cls-11" d="M40.09,32.78c.4,.5,.86,.87,1.35,1.06,.25,.09,.5,.16,.76,.16,.28,.01,.56,.02,.83,0,.53-.05,.99-.21,1.38-.58,.4-.36,.69-.89,1.02-1.44,.03,.64-.08,1.31-.49,1.9-.19,.3-.48,.54-.8,.72-.33,.18-.69,.27-1.03,.3-.35,.03-.68,0-1.02-.05-.35-.06-.7-.19-.99-.39-.59-.39-.97-1.03-1.02-1.67Z"/><path class="cls-11" d="M53.61,32.36c.4,.5,.86,.87,1.35,1.06,.25,.09,.5,.16,.76,.16,.28,.01,.56,.02,.83,0,.53-.05,.99-.21,1.38-.58,.4-.36,.69-.89,1.02-1.44,.03,.64-.08,1.31-.49,1.9-.19,.3-.48,.54-.8,.72-.33,.18-.69,.27-1.03,.3-.35,.03-.68,0-1.02-.05-.35-.06-.7-.19-.99-.39-.59-.39-.97-1.03-1.02-1.67Z"/></g></g><path class="cls-11" d="M45.39,41.61s1.42,1.5,4.17,1.51c3.25,0,4.05-1.54,4.05-1.54"/><path class="cls-11" d="M47.05,8.35s-5.18,2.12-5.17,5.62c.01,3.5,.11,4.79-3.87,6.88-3.97,2.09-1.04,6.14-3.08,7.23-2.04,1.09-4.08,.58-4.08,.58,0,0,1.65-21.47,16.2-20.31Z"/><path class="cls-11" d="M35.12,33.82c0,.41-.33,.75-.74,.75-.41,0-.75-.33-.75-.74,0-.41,.33-.75,.74-.75,.41,0,.75,.33,.75,.74Z"/><path class="cls-4" d="M50.7,74.03c-.06-.02-.12-.03-.18-.05-9-2.5-13.53-14.97-10.43-18.31-.33,.06-.55,.09-.55,.09-4.46,2.13,.06,16.19,9.68,18.86,.06,.02,.12,.03,.18,.05,.06-.02,.12-.03,.18-.05,1-.28,1.94-.7,2.82-1.2-.49,.21-1,.4-1.52,.55-.06,.02-.12,.03-.18,.05Z"/><path class="cls-5" d="M64.25,23.69c-.18-2.75-.72-4.91-1.47-6.62-1.79-2.62-3.54-4.47-5.08-5.78-.38-.23-.75-.44-1.1-.62-2.86-1.54-5.18-1.81-7.22-1.67-1.01-.06-2.08-.02-3.25,.22-1.73,2.15-2.84,6.82,.32,9.31,3.77,2.97,8.09,1.49,10.08,1.83,1.99,.33,2.6,3.27,1.33,4.46-1.27,1.19-.39,4.44,2.17,4.94,2.56,.49,3.22,2.07,3.73,3.7,.54-2.99,.73-6.27,.5-9.76Z"/><path class="cls-11" d="M53.48,7.18s-3.01-1.16-5.21,.02-4.51,7.28-.74,10.24c3.77,2.97,8.09,1.49,10.08,1.83,1.99,.33,2.6,3.27,1.33,4.46-1.27,1.19-.39,4.44,2.17,4.94,3.59,.69,3.46,3.53,4.37,5.64,1.02,2.36,10.18,1.72-.06-15.86-5.88-10.1-11.93-11.26-11.93-11.26Z"/></g><g><g><path class="cls-6" d="M75.99,4.39s-8.28,27.03-8.69,27.98c-.41,.95-.63,1.76-1.26,2.12-.63,.36-3.03,1.67-3.88,2.17-.86,.5-1.76,1.04-2.12,2.03-.36,.99-.72,2.08-1.17,2.98-.45,.9-1.22,3.03-1.72,3.84-.5,.81-.9,2.38-1.17,2.85-.14,.23-.05,.59,.25,.83-.88,.82-4.71,4.27-5.22,5.14-.56,.95-.09,2.11,.45,2.15,.54,.05,2.56-1.93,2.56-1.93,0,0-2.31,2.37-2.62,2.8-.42,.59-.41,1.03-.21,1.52,.24,.6,.85,.71,1.12,.51,.27-.2,1.85-1.54,1.85-1.54,0,0-.65,.63-.3,1.36,.35,.72,1.28,.6,1.28,.6,.33-.35,2.68-2.38,2.68-2.38,0,0-.06,.47,.12,.78s.8,.35,.92,.17c.12-.18,2.47-2.64,3.73-3.72,1.26-1.08,2.29-1.99,3.55-2.71,1.26-.72,1.57-.96,2.29-1.81,.72-.84,.48-1.81,1.99-4.34,1.51-2.53,1.75-3.43,2.53-5.84,.78-2.41,1.26-2.59,1.81-3.61,.54-1.02,13.79-27.69,13.79-27.69l-12.56-4.27Z"/><path class="cls-3" d="M60.96,45.52s.4-1.67,.61-2.45c.21-.78,.63-1.54,.84-2.11,.21-.57,.27-.84,.36-.24,.09,.6-1.11,2.83-.72,2.83s1.11-1.14,1.11-.6-1.29,1.44-1.72,2.28c-.42,.84-1.6,4.26-4.25,4.17,0,0,.12,.01,.88-.26,.75-.27,2.28-1.17,2.89-3.63Z"/><path class="cls-3" d="M52.74,55.7c.23-.07,2.93-2.12,3.41-2.55,.48-.42,2.32-1.29,3.1-1.87,.78-.57,2.41-1.54,2.41-1.54,0,0,0-.11-.18,0s-.07-.25-.17-.14c-.1,.11-2.52,1.84-3.72,2.45-1.19,.6-4.86,3.64-4.86,3.64Z"/><path class="cls-3" d="M68.44,48.3s-.5,1.54-1.22,1.76c-.72,.23-2.51,.7-3.37,1.22-.86,.52-4.95,2.85-4.99,2.89s3.34-1.63,3.93-2.01c.59-.38,1.81-1.04,2.76-1.26,.95-.23,1.47-.18,2.06-.7,.59-.52,.94-2.19,.84-1.9Z"/><path class="cls-8" d="M56.15,48.55s.21-.39,.38-.69,.46-1.33,.46-1.33c0,0,.47-.16,1.11,.07s.72,.77,.69,.91c-.02,.14-.49,1.2-1.26,1.27-.77,.07-1.36,0-1.38-.23Z"/><path class="cls-8" d="M51.54,56.33s-.45-.35-.48-.8,1.12-.97,1.21-1.01c.09-.04,.43,.61,.43,.81s.05,.22-.05,.31c-.1,.09-.97,.71-1.11,.69Z"/><path class="cls-8" d="M52.07,59.27c-.16,0-.53-.27-.58-.71s1.12-1.08,1.21-1.13c.09-.05,.46,.53,.48,.74,.01,.21,.07,.22-.03,.31-.1,.09-.93,.8-1.07,.8Z"/><path class="cls-8" d="M54.24,59.03s.01,.56,.81,.66c0,0,.13-.11,.29-.28,.16-.17,.67-.66,.67-.66,0,0-.34-.55-.49-.64-.15-.09-.31-.14-.33-.13-.01,.01-.85,.78-.95,1.05Z"/><path class="cls-8" d="M58.15,58.05s-.01,.17,.21,.25c.22,.08,.41,.07,.41,.07,0,0,.24-.3,.39-.49,.15-.19,.21-.28,.21-.28,0,0-.22-.22-.41-.26-.18-.03-.29-.02-.29-.02,0,0-.52,.61-.52,.72Z"/><path class="cls-3" d="M57.82,57.43s.89-.88,1.04-1.04c.15-.16,1.25-1.05,1.68-1.37,.43-.32,.56-.51,.56-.51,0,0-1.5,1.39-1.74,1.56s-1.54,1.35-1.54,1.35Z"/></g><g><path class="cls-6" d="M24.01,4.39s8.28,27.03,8.69,27.98c.41,.95,.63,1.76,1.26,2.12,.63,.36,3.03,1.67,3.88,2.17,.86,.5,1.76,1.04,2.12,2.03,.36,.99,.72,2.08,1.17,2.98,.45,.9,1.22,3.03,1.72,3.84,.5,.81,.9,2.38,1.17,2.85,.14,.23,.05,.59-.25,.83,.88,.82,4.71,4.27,5.22,5.14,.56,.95,.09,2.11-.45,2.15s-2.56-1.93-2.56-1.93c0,0,2.31,2.37,2.62,2.8,.42,.59,.41,1.03,.21,1.52-.24,.6-.85,.71-1.12,.51-.27-.2-1.85-1.54-1.85-1.54,0,0,.65,.63,.3,1.36-.35,.72-1.28,.6-1.28,.6-.33-.35-2.68-2.38-2.68-2.38,0,0,.06,.47-.12,.78s-.8,.35-.92,.17c-.12-.18-2.47-2.64-3.73-3.72-1.26-1.08-2.29-1.99-3.55-2.71-1.26-.72-1.57-.96-2.29-1.81-.72-.84-.48-1.81-1.99-4.34-1.51-2.53-1.75-3.43-2.53-5.84-.78-2.41-1.26-2.59-1.81-3.61-.54-1.02-13.79-27.69-13.79-27.69l12.56-4.27Z"/><path class="cls-3" d="M39.04,45.52s-.4-1.67-.61-2.45c-.21-.78-.63-1.54-.84-2.11-.21-.57-.27-.84-.36-.24s1.11,2.83,.72,2.83-1.11-1.14-1.11-.6,1.29,1.44,1.72,2.28c.42,.84,1.6,4.26,4.25,4.17,0,0-.12,.01-.88-.26-.75-.27-2.28-1.17-2.89-3.63Z"/><path class="cls-3" d="M47.26,55.7c-.23-.07-2.93-2.12-3.41-2.55-.48-.42-2.32-1.29-3.1-1.87-.78-.57-2.41-1.54-2.41-1.54,0,0,0-.11,.18,0s.07-.25,.17-.14c.1,.11,2.52,1.84,3.72,2.45,1.19,.6,4.86,3.64,4.86,3.64Z"/><path class="cls-3" d="M31.56,48.3s.5,1.54,1.22,1.76c.72,.23,2.51,.7,3.37,1.22,.86,.52,4.95,2.85,4.99,2.89,.05,.05-3.34-1.63-3.93-2.01-.59-.38-1.81-1.04-2.76-1.26-.95-.23-1.47-.18-2.06-.7-.59-.52-.94-2.19-.84-1.9Z"/><path class="cls-8" d="M43.85,48.55s-.21-.39-.38-.69-.46-1.33-.46-1.33c0,0-.47-.16-1.11,.07-.63,.23-.72,.77-.69,.91,.02,.14,.49,1.2,1.26,1.27,.77,.07,1.36,0,1.38-.23Z"/><path class="cls-8" d="M48.46,56.33s.45-.35,.48-.8-1.12-.97-1.21-1.01c-.09-.04-.43,.61-.43,.81s-.05,.22,.05,.31c.1,.09,.97,.71,1.11,.69Z"/><path class="cls-8" d="M47.93,59.27c.16,0,.53-.27,.58-.71,.05-.45-1.12-1.08-1.21-1.13s-.46,.53-.48,.74c-.01,.21-.07,.22,.03,.31,.1,.09,.93,.8,1.07,.8Z"/><path class="cls-8" d="M45.76,59.03s-.01,.56-.81,.66c0,0-.13-.11-.29-.28-.16-.17-.67-.66-.67-.66,0,0,.34-.55,.49-.64,.15-.09,.31-.14,.33-.13,.01,.01,.85,.78,.95,1.05Z"/><path class="cls-8" d="M41.85,58.05s.01,.17-.21,.25c-.22,.08-.41,.07-.41,.07,0,0-.24-.3-.39-.49-.15-.19-.21-.28-.21-.28,0,0,.22-.22,.41-.26,.18-.03,.29-.02,.29-.02,0,0,.52,.61,.52,.72Z"/><path class="cls-3" d="M42.18,57.43s-.89-.88-1.04-1.04c-.15-.16-1.25-1.05-1.68-1.37-.43-.32-.56-.51-.56-.51,0,0,1.5,1.39,1.74,1.56s1.54,1.35,1.54,1.35Z"/></g></g></g></g></g></svg>