<?xml version="1.0" encoding="UTF-8"?><svg id="Layer_2" xmlns="http://www.w3.org/2000/svg" viewBox="0 0 100 100"><defs><style>.cls-1{fill:#f3a380;}.cls-2{fill:#ffab87;}.cls-3{fill:#aebcbc;}.cls-4{fill:#dd9962;}.cls-5{fill:#e2d8d6;}.cls-6{fill:#2a120c;}</style></defs><circle class="cls-5" cx="50" cy="50" r="50"/><g><g><path class="cls-4" d="M37.91,48.69c-3.08-6-5.16-11.49-3.31-16.2,1.85-4.71,11.05-8.86,17.94-6.5,6.9,2.35,13.74,6.67,13.23,19.06-.51,12.55-11.49,19.79-12.67,21.64-1.18,1.85-3.59,12.45-10.65,12.11-7.06-.34-9.42-6.56-7.74-10.6,1.68-4.04,4.37-8.07,4.54-10.93,.17-2.86-1.35-8.58-1.35-8.58Z"/><path class="cls-2" d="M42.23,50.32c-2.52-2.86-6.5-11.83-5.16-15.7,1.35-3.87,5.72-5.78,9.42-5.61,3.7,.17,9.76,2.13,11.77,6.17,2.02,4.04,3.81,11.66,1.46,16.37-2.35,4.71-7.68,12.62-10.71,13.62-3.03,1.01-5.33,1.4-7.57-.5-.91-.77-.17-3.7,1.01-4.88s2.02-2.69,1.68-3.87c-.34-1.18-1.79-2.05-1.68-3.03,.11-1.01-.22-2.58-.22-2.58Z"/><path class="cls-2" d="M59.73,51.55c-.8,1.59-1.94,3.56-3.22,5.5,.5-2.46-.77-10.03-1.63-14.18-.87-4.21-3.9-8.17-5.69-11.2-.75-1.28-1.33-2.07-1.82-2.6,3.71,.41,9.04,2.37,10.9,6.1,2.02,4.04,3.81,11.66,1.46,16.37Z"/><path class="cls-1" d="M50.19,54.36c-.45,3.03-1.46,5.6-3.36,7.51-.93,.93-1.93,2.09-2.73,3.05-.29,.36-.67,.6-1.08,.73-.53-.22-1.06-.53-1.58-.98-.91-.77-.17-3.7,1.01-4.88s2.02-2.69,1.68-3.87c-.34-1.18-1.79-2.05-1.68-3.03,.11-1.01-.22-2.58-.22-2.58-.57-.65-1.21-1.59-1.85-2.73,.75-.26,1.72-.36,2.63,.04,1.8,.78,7.63,3.7,7.18,6.73Z"/><path class="cls-4" d="M56.51,57.05c-1.05,1.6-2.2,3.18-3.32,4.53-.12-.16-.22-.35-.3-.58-.55-1.55,.58-7.01,.2-8.98-.49-2.6-2.66-7.42-3.34-8.41s-2.6-1.61-5.38-1.73c-1.61-.07-4.45-.15-6.57-.2-.3-.93-.55-1.86-.73-2.74,2.59,.38,7.25,.87,7.48,.83,.31-.06,4.58-.37,2.91-3.4-1.34-2.44-4.28-5.51-5.38-6.62,1.43-.57,2.97-.81,4.41-.75,.28,.01,.57,.03,.87,.07,.49,.53,1.07,1.32,1.82,2.6,1.8,3.03,4.82,6.99,5.69,11.2,.85,4.14,2.13,11.71,1.63,14.18Z"/></g><g><path class="cls-3" d="M86.33,19.4c-.2,.23-.52,.27-.73,.09-.21-.18-.22-.51-.03-.74,.2-.23,.52-.27,.73-.09,.21,.18,.22,.51,.03,.74Z"/><rect class="cls-3" x="70.82" y="25.58" width="18.33" height=".92" rx=".28" ry=".28" transform="translate(8.19 69.86) rotate(-49.43)"/><polygon class="cls-3" points="65.13 43.73 64.76 43.41 73.9 32.76 74.26 33.07 65.13 43.73"/></g><g><path class="cls-3" d="M14.34,38.24c.25,.17,.32,.49,.17,.72-.15,.23-.48,.28-.73,.11-.25-.17-.32-.49-.17-.72,.15-.23,.48-.28,.73-.11Z"/><rect class="cls-3" x="21.21" y="34.61" width=".92" height="18.35" rx=".28" ry=".28" transform="translate(-26.76 37.32) rotate(-56.06)"/><rect class="cls-3" x="34.75" y="45.76" width=".48" height="14.03" transform="translate(-28.33 52.26) rotate(-55.99)"/></g><g><path class="cls-3" d="M68.78,91.33c-.24-.18-.29-.51-.12-.73s.5-.25,.74-.07,.29,.51,.12,.73c-.17,.22-.5,.25-.74,.07Z"/><rect class="cls-3" x="61.37" y="76.17" width=".92" height="18.33" rx=".28" ry=".28" transform="translate(-43.5 82.11) rotate(-52.32)"/><polygon class="cls-3" points="54.5 79.99 43.39 71.41 43.69 71.03 54.8 79.6 54.5 79.99"/></g></g><path class="cls-6" d="M43.39,71.99c0,.95-.76,1.72-1.71,1.72-.95,0-1.72-.76-1.72-1.71,0-.95,.76-1.72,1.71-1.72,.95,0,1.72,.76,1.72,1.71Z"/></svg>