<?xml version="1.0" encoding="UTF-8"?><svg xmlns="http://www.w3.org/2000/svg" xmlns:xlink="http://www.w3.org/1999/xlink" viewBox="0 0 100 100"><defs><style>.cls-1{fill:url(#linear-gradient);opacity:.2;}.cls-2{fill:#d7d8ee;}.cls-3{fill:#7ac9d4;}.cls-4,.cls-5{mix-blend-mode:multiply;}.cls-6{fill:url(#linear-gradient-8);}.cls-7{fill:url(#linear-gradient-9);}.cls-8{fill:url(#linear-gradient-3);}.cls-9{fill:url(#linear-gradient-4);}.cls-10{fill:url(#linear-gradient-2);}.cls-11{fill:url(#linear-gradient-6);}.cls-12{fill:url(#linear-gradient-7);}.cls-13{fill:url(#linear-gradient-5);}.cls-14{fill:url(#linear-gradient-14);}.cls-15{fill:url(#linear-gradient-18);}.cls-16{fill:url(#linear-gradient-22);}.cls-17{fill:url(#linear-gradient-20);}.cls-18{fill:url(#linear-gradient-21);}.cls-19{fill:url(#linear-gradient-23);}.cls-20{fill:url(#linear-gradient-15);}.cls-21{fill:url(#linear-gradient-19);}.cls-22{fill:url(#linear-gradient-16);}.cls-23{fill:url(#linear-gradient-17);}.cls-24{fill:url(#linear-gradient-13);}.cls-25{fill:url(#linear-gradient-12);}.cls-26{fill:url(#linear-gradient-10);}.cls-27{fill:url(#linear-gradient-11);}.cls-28{fill:url(#linear-gradient-27);}.cls-29{fill:url(#linear-gradient-24);}.cls-30{fill:url(#linear-gradient-26);}.cls-31{fill:url(#linear-gradient-25);}.cls-32{fill:url(#linear-gradient-28);}.cls-33{fill:url(#linear-gradient-29);}.cls-34{isolation:isolate;}.cls-5{opacity:.5;}</style><linearGradient id="linear-gradient" x1="12.12" y1="50.5" x2="94.06" y2="50.5" gradientTransform="matrix(1, 0, 0, 1, 0, 0)" gradientUnits="userSpaceOnUse"><stop offset="0" stop-color="#50575f"/><stop offset="1" stop-color="#32363b"/></linearGradient><linearGradient id="linear-gradient-2" x1="5.94" y1="51.69" x2="87.92" y2="51.69" gradientTransform="matrix(1, 0, 0, 1, 0, 0)" gradientUnits="userSpaceOnUse"><stop offset="0" stop-color="#25282c"/><stop offset="1" stop-color="#393d42"/></linearGradient><linearGradient id="linear-gradient-3" x1="44.21" y1="48.35" x2="46.7" y2="48.35" xlink:href="#linear-gradient-2"/><linearGradient id="linear-gradient-4" x1="5.94" y1="54.43" x2="9.46" y2="54.43" xlink:href="#linear-gradient-2"/><linearGradient id="linear-gradient-5" x1="5.94" y1="50.45" x2="52.87" y2="50.45" gradientTransform="matrix(1, 0, 0, 1, 0, 0)" gradientUnits="userSpaceOnUse"><stop offset="0" stop-color="#393d42"/><stop offset="1" stop-color="#1d1f22"/></linearGradient><linearGradient id="linear-gradient-6" x1="52.93" y1="47.69" x2="96.17" y2="47.69" gradientTransform="matrix(1, 0, 0, 1, 0, 0)" gradientUnits="userSpaceOnUse"><stop offset="0" stop-color="#1d1f22"/><stop offset="1" stop-color="#393d42"/></linearGradient><linearGradient id="linear-gradient-7" x1="15.35" y1="43.59" x2="87.92" y2="43.59" xlink:href="#linear-gradient"/><linearGradient id="linear-gradient-8" x1="6.15" y1="58.55" x2="52.82" y2="58.55" xlink:href="#linear-gradient-5"/><linearGradient id="linear-gradient-9" x1="12.41" y1="50.88" x2="17.05" y2="50.88" xlink:href="#linear-gradient-5"/><linearGradient id="linear-gradient-10" x1="12.71" y1="51.14" x2="16.75" y2="51.14" gradientTransform="matrix(1, 0, 0, 1, 0, 0)" gradientUnits="userSpaceOnUse"><stop offset="0" stop-color="#d9d9d9"/><stop offset="1" stop-color="#e7e6e6"/></linearGradient><linearGradient id="linear-gradient-11" x1="12.52" y1="50.65" x2="16.62" y2="50.65" gradientTransform="matrix(1, 0, 0, 1, 0, 0)" gradientUnits="userSpaceOnUse"><stop offset="0" stop-color="#e7e6e6"/><stop offset="1" stop-color="#f2f2f2"/></linearGradient><linearGradient id="linear-gradient-12" x1="40.14" y1="67.03" x2="44.77" y2="67.03" xlink:href="#linear-gradient-5"/><linearGradient id="linear-gradient-13" x1="35.52" y1="64.28" x2="40.15" y2="64.28" xlink:href="#linear-gradient-5"/><linearGradient id="linear-gradient-14" x1="40.23" y1="66.91" x2="45.76" y2="66.91" xlink:href="#linear-gradient-11"/><linearGradient id="linear-gradient-15" x1="36.17" y1="51.87" x2="67.11" y2="34.01" gradientTransform="matrix(1, 0, 0, 1, 0, 0)" gradientUnits="userSpaceOnUse"><stop offset="0" stop-color="#c8c7c7"/><stop offset="1" stop-color="#d5d5d4"/></linearGradient><linearGradient id="linear-gradient-16" x1="2504.69" y1="-1262.82" x2="2536.67" y2="-1262.82" gradientTransform="translate(-879.22 2025.63) rotate(-29.69) skewX(30)" xlink:href="#linear-gradient-11"/><linearGradient id="linear-gradient-17" x1="21.61" y1="58.16" x2="34.62" y2="58.16" xlink:href="#linear-gradient-5"/><linearGradient id="linear-gradient-18" x1="21.61" y1="56.33" x2="34.62" y2="56.33" xlink:href="#linear-gradient"/><linearGradient id="linear-gradient-19" x1="35.81" y1="64.53" x2="39.86" y2="64.53" xlink:href="#linear-gradient-10"/><linearGradient id="linear-gradient-20" x1="35.62" y1="64.04" x2="39.72" y2="64.04" xlink:href="#linear-gradient-11"/><linearGradient id="linear-gradient-21" x1="39.96" y1="66.63" x2="44.51" y2="66.63" xlink:href="#linear-gradient-10"/><linearGradient id="linear-gradient-22" x1="14.28" y1="50.31" x2="15.26" y2="50.31" xlink:href="#linear-gradient-5"/><linearGradient id="linear-gradient-23" x1="13.63" y1="50.66" x2="15.32" y2="50.66" xlink:href="#linear-gradient-5"/><linearGradient id="linear-gradient-24" x1="36.65" y1="63.91" x2="38.64" y2="63.91" xlink:href="#linear-gradient-5"/><linearGradient id="linear-gradient-25" x1="39.87" y1="65.48" x2="43.4" y2="65.48" xlink:href="#linear-gradient-11"/><linearGradient id="linear-gradient-26" x1="17.09" y1="53.59" x2="21.72" y2="53.59" xlink:href="#linear-gradient-5"/><linearGradient id="linear-gradient-27" x1="17.18" y1="53.47" x2="22.71" y2="53.47" xlink:href="#linear-gradient-11"/><linearGradient id="linear-gradient-28" x1="16.91" y1="53.2" x2="21.46" y2="53.2" xlink:href="#linear-gradient-10"/><linearGradient id="linear-gradient-29" x1="16.82" y1="52.04" x2="20.34" y2="52.04" xlink:href="#linear-gradient-11"/></defs><g class="cls-34"><g id="Capa_1"><circle class="cls-2" cx="49.58" cy="49.8" r="49.42"/><g id="Chemical_scales"><path class="cls-1" d="M93.72,47.82l-43.01,24.36c-2.43,.97-4.87,1.94-7.3,2.9-17.15-12.22-29.6-21.27-30.6-21.85-.83-.48-.92-1.2-.2-1.62L56.63,26.2c.72-.41,1.97-.36,2.8,.12,0,0,30.82,17.8,34.35,20.35,.2,.14,.3,.38,.28,.63h0c-.02,.23-.15,.42-.34,.53Z"/><g><path class="cls-10" d="M87.44,49.66l-44.03,25.42c-.72,.41-1.97,.36-2.8-.12L6.62,55.34c-.83-.48-.92-1.2-.2-1.62L50.45,28.31c.72-.41,1.97-.36,2.8,.12l33.98,19.62c.83,.48,.92,1.2,.2,1.62Z"/><polygon class="cls-8" points="87.92 48.94 87.92 47.76 85.43 47.76 85.43 48.9 87.92 48.94"/><polygon class="cls-9" points="5.94 54.4 5.94 53.22 9.46 53.22 9.46 55.65 5.94 54.4"/><path class="cls-13" d="M50.45,27.07L6.42,52.48c-.72,.41-.63,1.14,.2,1.62l33.98,19.62c.83,.48,2.08,.53,2.8,.12l9.46-5.46V27.01c-.8-.3-1.8-.29-2.42,.06Z"/><path class="cls-11" d="M82.4,44.01l-29.15-16.83c-.12-.07-.25-.13-.38-.18v41.37l34.57-19.95c.31-.18,.47-.42,.48-.66h0v-4.17l-5.52,.42Z"/><path class="cls-12" d="M87.44,44.27l-34.62,19.99c-.72,.41-1.97,.36-2.8-.12L16.04,44.52c-.83-.48-.92-1.2-.2-1.62L50.45,22.92c.72-.41,1.97-.36,2.8,.12l33.98,19.62c.83,.48,.92,1.2,.2,1.62Z"/><path class="cls-6" d="M6.15,52.7l9.43-9.59c12.42,7.05,24.83,14.1,37.25,21.15l-9.77,9.73L6.15,52.7Z"/><g class="cls-4"><path class="cls-7" d="M16.27,49.08c.96,.55,1.05,1.8,.2,2.8-.85,.99-2.31,1.35-3.27,.8-.96-.55-1.04-1.8-.2-2.8,.85-.99,2.31-1.35,3.27-.8Z"/></g><g class="cls-34"><path class="cls-26" d="M16.56,49.79l-.12-.21-.15,.09c.01,.43-.16,.9-.51,1.32-.75,.88-2.05,1.19-2.89,.7l-.04-.02-.14,.08,.13,.23c.12,.2,.28,.36,.5,.49,.85,.49,2.14,.17,2.89-.7,.56-.65,.66-1.42,.33-1.98Z"/><path class="cls-27" d="M15.93,49.06c.85,.49,.92,1.6,.17,2.47-.75,.88-2.05,1.19-2.89,.7-.85-.49-.92-1.6-.17-2.47,.75-.88,2.05-1.19,2.89-.7Z"/></g><g class="cls-4"><path class="cls-25" d="M43.99,65.23c.96,.55,1.05,1.8,.2,2.8-.85,.99-2.31,1.35-3.27,.8-.96-.55-1.04-1.8-.2-2.8,.85-.99,2.31-1.35,3.27-.8Z"/></g><g class="cls-4"><path class="cls-24" d="M39.37,62.48c.96,.55,1.05,1.8,.2,2.8-.85,.99-2.31,1.35-3.27,.8-.96-.55-1.04-1.8-.2-2.8,.85-.99,2.31-1.35,3.27-.8Z"/></g><path class="cls-14" d="M42.22,64.12c.25-.05,.5-.08,.75-.08,.25,0,.51,.03,.76,.08,.12,.03,.25,.07,.37,.11,.06,.02,.12,.05,.18,.07,.03,.01,.06,.03,.09,.04,.03,.01,.06,.03,.09,.04l.08,.05s.05,.03,.08,.05c.05,.03,.11,.07,.16,.11,.1,.08,.2,.17,.29,.26,.05,.05,.08,.1,.13,.15,.04,.05,.08,.1,.11,.16,.07,.11,.13,.23,.18,.35,.05,.12,.08,.24,.11,.37,.03,.13,.04,.25,.05,.38,0,.25-.02,.51-.08,.75-.03,.12-.07,.24-.11,.35-.05,.11-.1,.23-.16,.33-.23,.43-.55,.81-.92,1.11-.19,.15-.38,.29-.59,.41-.21,.12-.43,.22-.65,.3-.22,.08-.45,.14-.69,.18-.23,.04-.47,.06-.71,.05-.24,0-.47-.04-.7-.1-.23-.06-.45-.16-.65-.28,.21,.11,.43,.19,.66,.24,.23,.05,.46,.07,.69,.06,.23,0,.46-.04,.69-.09,.23-.05,.44-.12,.66-.21,.21-.09,.42-.2,.61-.32,.19-.12,.37-.26,.54-.42,.33-.31,.61-.68,.8-1.08,.05-.1,.09-.2,.12-.31,.03-.11,.06-.21,.08-.32,.04-.22,.05-.43,.04-.65-.01-.11-.03-.21-.06-.31-.03-.1-.06-.2-.11-.3-.04-.09-.1-.19-.16-.27-.03-.04-.06-.08-.1-.12-.04-.04-.07-.08-.11-.11-.07-.07-.16-.14-.24-.2-.04-.03-.09-.06-.13-.08-.02-.01-.04-.03-.07-.04l-.07-.04s-.05-.02-.07-.03c-.02-.01-.05-.02-.07-.03-.05-.02-.1-.04-.15-.05-.1-.03-.2-.06-.31-.08-.21-.04-.42-.05-.64-.04-.21,.01-.43,.05-.64,.1l-.13-.58Z"/><g><path class="cls-20" d="M71.16,42.93s0-.06,0-.09v-1.66h-.22c-.6-2.29-2.41-4.49-5.46-6.24-7.6-4.39-19.96-4.37-27.61,.05-3.03,1.75-4.87,3.93-5.51,6.19h-.26v1.79h0v.06h0c.01,2.87,1.9,5.72,5.67,7.9,7.6,4.39,19.96,4.37,27.61-.05,3.77-2.18,5.69-5.01,5.76-7.85h0v-.1Z"/><ellipse class="cls-22" cx="51.64" cy="41.15" rx="19.53" ry="11.27" transform="translate(-.22 .28) rotate(-.31)"/></g><g><path class="cls-23" d="M34.31,58.52c.37,.21,.41,.7,.08,1.09l-2.49,2.92c-.33,.39-.9,.52-1.27,.31l-8.72-5.03c-.37-.21-.41-.7-.08-1.09l2.49-2.92c.33-.38,.9-.52,1.27-.31l8.72,5.03Z"/><g class="cls-5"><path class="cls-15" d="M34.31,58.52l-8.72-5.03c-.37-.21-.94-.08-1.27,.31l-2.49,2.92c-.21,.25-.27,.54-.19,.77,.04-.11,.1-.23,.19-.33l2.49-2.92c.33-.38,.9-.52,1.27-.31l8.72,5.03c.13,.08,.22,.18,.27,.31,.1-.3,0-.6-.27-.75Z"/></g><g class="cls-34"><path class="cls-21" d="M39.67,63.18l-.12-.21-.15,.09c.01,.43-.16,.9-.51,1.32-.75,.88-2.05,1.19-2.89,.7l-.04-.02-.14,.08,.13,.23c.12,.2,.28,.36,.5,.49,.85,.49,2.14,.17,2.89-.7,.56-.65,.66-1.42,.33-1.98Z"/><path class="cls-17" d="M39.03,62.45c.85,.49,.92,1.6,.17,2.47-.75,.88-2.05,1.19-2.89,.7-.85-.49-.92-1.6-.17-2.47,.75-.88,2.05-1.19,2.89-.7Z"/></g><g class="cls-34"><path class="cls-18" d="M43.2,64.48l1.12,1.38c.33,.56,.23,1.33-.33,1.98-.75,.88-2.05,1.19-2.89,.7-.22-.13-.39-.3-.5-.49l-.64-1.8,3.25-1.78Z"/></g></g><g><path class="cls-3" d="M25.19,57.49l.47-.55h0v-.14l-.17,.04h0l-.07,.08-.4,.47h0c0,.05,0,.09,0,.14h0c.05-.01,.11-.03,.16-.04Z"/><path class="cls-3" d="M26.48,58.24h0l.47-.55v-.14l-.17,.04-.47,.55h0s0,.09,0,.14c.05-.01,.11-.03,.16-.04h0Z"/><path class="cls-3" d="M28.41,57.13h0v-.14l-.54-.31c-.05,.01-.11,.03-.16,.04h0v.14l.54,.31,.16-.04h0Z"/><path class="cls-3" d="M27.73,58.13h0v-.14l-.17,.04-.47,.55s0,.09,0,.14c.05-.01,.11-.03,.16-.04l.47-.55h0Z"/><path class="cls-3" d="M29.04,58.51s0,.09,0,.13h0c.05-.01,.11-.03,.16-.04l.47-.55h0v-.14h0l-.16,.04-.47,.55h0Z"/><path class="cls-3" d="M28.52,59.41l.47-.55h0v-.14h0l-.16,.04-.47,.55s0,.09,0,.13h0c.05,0,.11-.02,.16-.03Z"/><path class="cls-3" d="M29.77,59.31h0v-.14l-.17,.04h0l-.07,.08-.4,.47h0c0,.05,0,.09,0,.14h0c.05-.01,.11-.03,.16-.04l.47-.55h0Z"/><path class="cls-3" d="M31.04,58.71v.07l.54,.31,.16-.04h0v-.14l-.54-.31-.16,.04h0v.07Z"/><path class="cls-3" d="M31.06,60.05h0v-.14l-.17,.04-.47,.55h0c0,.05,0,.09,0,.14h0c.05-.01,.11-.03,.16-.04l.47-.55h0Z"/><path class="cls-3" d="M31.62,59.99v.14h0c.05-.01,.11-.03,.16-.04l.47-.55v-.13h0l-.16,.03-.4,.47-.07,.08Z"/><path class="cls-3" d="M32.33,59.52l.53,.31,.16-.04h0v-.14l-.54-.31-.16,.04h0s0,.09,0,.14Z"/><path class="cls-3" d="M27.01,57.46h0c.05,0,.11-.02,.16-.03l.47-.55h0v-.14l-.17,.04-.47,.55s0,.09,0,.13Z"/><path class="cls-3" d="M31.11,59.7s0,.09,0,.14c.05-.01,.11-.03,.16-.04l.47-.55h0v-.14l-.17,.04-.47,.55Z"/><path class="cls-3" d="M25.73,57.86l-.53-.31c-.05,.01-.11,.03-.16,.04,0,.04,0,.08,0,.13h0l.53,.32,.16-.04h0v-.14Z"/><path class="cls-3" d="M28.52,59.47c-.05,.01-.11,.03-.16,.04,0,.04,0,.09,0,.13h0l.53,.32,.16-.04v-.14l-.54-.31Z"/><path class="cls-3" d="M27.02,58.61l-.53-.31c-.05,.01-.11,.03-.16,.04h0s0,.09,0,.14l.53,.31,.16-.04h0v-.14Z"/><path class="cls-3" d="M29.81,60.22c-.05,.01-.11,.03-.16,.04h0c0,.05,0,.09,0,.14h0l.53,.31,.16-.04v-.14l-.54-.31Z"/><path class="cls-3" d="M31.63,61.27l-.53-.31c-.05,.01-.11,.03-.16,.04,0,.05,0,.09,0,.14l.53,.31,.16-.04h0v-.14Z"/><path class="cls-3" d="M26.49,57.04s0,.09,0,.14c.05-.01,.11-.03,.16-.04l.47-.55v-.14l-.17,.04-.47,.55Z"/><path class="cls-3" d="M30.32,58.4h-.03l-.47,.56s0,.09,0,.14c.05-.01,.11-.03,.16-.04l.47-.55v-.13h0l-.13,.02Z"/><path class="cls-3" d="M33.04,59.99v-.14l-.17,.04-.47,.55h0s0,.09,0,.14c.05-.01,.11-.03,.16-.04l.47-.55h0Z"/><path class="cls-3" d="M26.31,57.22l.12-.03h0v-.14l-.54-.31h0c-.05,.01-.11,.03-.16,.04h0s0,.09,0,.14l.53,.31h.04Z"/><path class="cls-3" d="M27.71,57.8l-.53-.31c-.05,.01-.11,.03-.16,.04h0s0,.09,0,.14l.53,.31,.16-.04h0v-.14Z"/><path class="cls-3" d="M32.33,60.53v-.07l-.31-.18-.23-.13c-.05,.01-.11,.03-.16,.04h0s0,.09,0,.14l.53,.31,.16-.04h0v-.07Z"/><path class="cls-3" d="M30.34,59.45h0s0,.09,0,.14l.53,.31,.16-.04h0v-.14h0l-.53-.31c-.05,.01-.11,.03-.16,.04h0Z"/><path class="cls-3" d="M26.96,56.42l.16-.04h0v-.14h0l-.53-.31c-.05,.01-.11,.03-.16,.04v.14l.54,.31Z"/><path class="cls-3" d="M30.28,58.34l.16-.04h0v-.14l-.54-.31-.16,.04s0,.09,0,.14l.53,.31Z"/><path class="cls-3" d="M32.34,60.66l-.16,.04h0l-.47,.55v.14h0c.05-.01,.11-.03,.16-.04l.44-.51,.03-.04v-.14Z"/><polygon class="cls-3" points="27.72 59.01 27.57 59.18 27.57 59.18 27.57 59.18 27.74 59.28 27.89 59.11 27.89 59.11 27.89 59.11 27.72 59.01"/></g><path class="cls-16" d="M15.22,49.79c.06,.03,.06,.11,.01,.16l-.71,.83c-.05,.06-.14,.08-.19,.05-.06-.03-.06-.11-.01-.16l.71-.83c.05-.06,.14-.08,.19-.05Z"/><path class="cls-19" d="M15.27,50.3s.03,.02,.03,.04c.06,.22-.01,.47-.19,.68-.18,.21-.45,.35-.72,.38-.18,.02-.34-.01-.48-.09-.13-.08-.23-.19-.26-.34-.06-.22,.01-.47,.19-.68,.18-.21,.45-.35,.72-.38,.02,0,.04,0,.06,.01,.02,.01,.04,.04,.03,.07,0,.05-.06,.09-.11,.1-.2,.02-.41,.13-.54,.29-.14,.16-.19,.35-.15,.52,.03,.11,.1,.2,.2,.26s.23,.08,.36,.07c.2-.02,.41-.13,.54-.29,.14-.16,.19-.35,.15-.52-.01-.05,.02-.1,.08-.12,.03-.01,.07-.01,.09,0Z"/><path class="cls-3" d="M25.34,54.33c.14,.08,.15,.26,.03,.4s-.33,.19-.47,.11c-.14-.08-.15-.26-.03-.4,.12-.14,.33-.19,.47-.11Z"/><path class="cls-29" d="M37.84,64.6l-.04-.59,.69-.17s.08-.03,.1-.06c.03-.03,.04-.07,.04-.1,0-.03-.02-.06-.05-.08-.03-.02-.07-.02-.11-.01l-.69,.17-.04-.59s-.02-.06-.05-.08c-.03-.02-.07-.02-.11-.01-.04,0-.08,.03-.1,.06-.03,.03-.04,.07-.04,.1l.04,.59-.69,.17s-.08,.03-.1,.06c-.03,.03-.04,.07-.04,.1,0,.03,.02,.06,.05,.08,.03,.02,.07,.02,.11,.01l.69-.17,.04,.59s.02,.06,.05,.08c.03,.02,.07,.02,.11,.01,.04-.01,.08-.03,.1-.06,.03-.03,.04-.07,.04-.1h0Z"/><path class="cls-31" d="M42.8,64.11c.73,.42,.79,1.37,.15,2.13-.65,.75-1.76,1.02-2.49,.6-.73-.42-.79-1.37-.15-2.13,.65-.75,1.76-1.02,2.49-.6Z"/><g><g class="cls-4"><path class="cls-30" d="M20.94,51.8c.96,.55,1.05,1.8,.2,2.8-.85,.99-2.31,1.35-3.27,.8-.96-.55-1.04-1.8-.2-2.8,.85-.99,2.31-1.35,3.27-.8Z"/></g><path class="cls-28" d="M19.17,50.68c.25-.05,.5-.08,.75-.08,.25,0,.51,.03,.76,.08,.12,.03,.25,.07,.37,.11,.06,.02,.12,.05,.18,.07,.03,.01,.06,.03,.09,.04,.03,.01,.06,.03,.09,.04l.08,.05s.05,.03,.08,.05c.05,.03,.11,.07,.16,.11,.1,.08,.2,.17,.29,.26,.05,.05,.08,.1,.13,.15,.04,.05,.08,.1,.11,.16,.07,.11,.13,.23,.18,.35,.05,.12,.08,.24,.11,.37,.03,.13,.04,.25,.05,.38,0,.25-.02,.51-.08,.75-.03,.12-.07,.24-.11,.35-.05,.11-.1,.23-.16,.33-.23,.43-.55,.81-.92,1.11-.19,.15-.38,.29-.59,.41-.21,.12-.43,.22-.65,.3-.22,.08-.45,.14-.69,.18-.23,.04-.47,.06-.71,.05-.24,0-.47-.04-.7-.1-.23-.06-.45-.16-.65-.28,.21,.11,.43,.19,.66,.24,.23,.05,.46,.07,.69,.06,.23,0,.46-.04,.69-.09,.23-.05,.44-.12,.66-.21,.21-.09,.42-.2,.61-.32,.19-.12,.37-.26,.54-.42,.33-.31,.61-.68,.8-1.08,.05-.1,.09-.2,.12-.31,.03-.11,.06-.21,.08-.32,.04-.22,.05-.43,.04-.65-.01-.11-.03-.21-.06-.31-.03-.1-.06-.2-.11-.3-.04-.09-.1-.19-.16-.27-.03-.04-.06-.08-.1-.12-.04-.04-.07-.08-.11-.11-.07-.07-.16-.14-.24-.2-.04-.03-.09-.06-.13-.08-.02-.01-.04-.03-.07-.04l-.07-.04s-.05-.02-.07-.03c-.02-.01-.05-.02-.07-.03-.05-.02-.1-.04-.15-.05-.1-.03-.2-.06-.31-.08-.21-.04-.42-.05-.64-.04-.21,.01-.43,.05-.64,.1l-.13-.58Z"/><g class="cls-34"><path class="cls-32" d="M20.15,51.05l1.12,1.38c.33,.56,.23,1.33-.33,1.98-.75,.88-2.05,1.19-2.89,.7-.22-.13-.39-.3-.5-.49l-.64-1.8,3.25-1.78Z"/></g><path class="cls-33" d="M19.75,50.68c.73,.42,.79,1.37,.15,2.13-.65,.75-1.76,1.02-2.49,.6-.73-.42-.79-1.37-.15-2.13,.65-.75,1.76-1.02,2.49-.6Z"/></g></g></g></g></g></svg>