<svg id="icon-mouse" xmlns="http://www.w3.org/2000/svg" xmlns:xlink="http://www.w3.org/1999/xlink" width="45.277" height="53.209" viewBox="0 0 45.277 53.209">
  <defs>
    <clipPath id="clip-path">
      <rect id="Retângulo_118" data-name="Retângulo 118" width="45.277" height="53.21" fill="#294667"/>
    </clipPath>
  </defs>
  <g id="Grupo_161" data-name="Grupo 161" clip-path="url(#clip-path)">
    <path id="Caminho_183" data-name="Caminho 183" d="M56.1,48.8a1.014,1.014,0,0,0-.318-.725c-.852-.8-1.7-1.6-2.554-2.393Q50.166,42.81,47.1,39.938l-7.374-6.907q-3.206-3-6.406-6c-1.03-.968-2.048-1.953-3.1-2.9a.335.335,0,0,1-.044-.044,1.124,1.124,0,0,0-1.9.785V55.638c0,1.413-.039,2.833,0,4.24v.061a1.118,1.118,0,0,0,.685,1.019,1.137,1.137,0,0,0,1.213-.228q1.477-1.278,2.961-2.554,2.307-1.989,4.608-3.983.375.868.751,1.735,1.027,2.371,2.059,4.747c.162.367.318.74.479,1.107a1.108,1.108,0,0,0,.667.512,1.306,1.306,0,0,0,.857-.112c1.547-.668,3.095-1.341,4.648-2.009.223-.1.451-.194.673-.295a1.106,1.106,0,0,0,.512-.668,1.307,1.307,0,0,0-.112-.857c-.434-1-.862-2-1.3-2.994q-.942-2.172-1.887-4.35,1.137-.12,2.271-.241l6.2-.651,1.42-.149a1.024,1.024,0,0,0,.8-.318A1.142,1.142,0,0,0,55.9,49.5a.955.955,0,0,0,.207-.644c0-.018,0-.036,0-.054" transform="translate(-10.831 -9.115)" fill="#294667"/>
    <path id="Caminho_184" data-name="Caminho 184" d="M24.074,8.154a2.175,2.175,0,0,0-.306-1.124q-1.128-2.6-2.254-5.2L21.2,1.1A2.232,2.232,0,0,0,19.867.073,2.3,2.3,0,0,0,18.152.3a2.248,2.248,0,0,0-1.024,1.33c-.028.195-.056.4-.078.59a2.288,2.288,0,0,0,.307,1.124q1.127,2.6,2.253,5.2l.318.734a2.233,2.233,0,0,0,1.33,1.024,2.3,2.3,0,0,0,1.714-.223A2.251,2.251,0,0,0,24,8.744c.028-.195.056-.4.078-.59" transform="translate(-6.535 0)" fill="#294667"/>
    <path id="Caminho_185" data-name="Caminho 185" d="M10.237,26.343l-.451-.351a2.276,2.276,0,0,0-1.124-.306l-5.638-.651c-.267-.033-.529-.061-.8-.094A2.223,2.223,0,0,0,0,27.167a2.277,2.277,0,0,0,.651,1.575l.451.35a2.175,2.175,0,0,0,1.124.306l5.638.651c.267.033.529.062.8.095a2.223,2.223,0,0,0,2.226-2.226,2.276,2.276,0,0,0-.651-1.575" transform="translate(0 -9.557)" fill="#294667"/>
    <path id="Caminho_186" data-name="Caminho 186" d="M42,14.121a2.228,2.228,0,0,0,1.714.223c.178-.072.356-.15.534-.223a2.258,2.258,0,0,0,.8-.8q1.8-2.421,3.59-4.836c.173-.228.34-.456.512-.685a2.221,2.221,0,0,0,.223-1.714,2.271,2.271,0,0,0-1.024-1.33,2.228,2.228,0,0,0-1.714-.223c-.178.072-.356.15-.534.223a2.214,2.214,0,0,0-.8.8q-1.795,2.422-3.589,4.837c-.173.228-.34.456-.512.685a2.224,2.224,0,0,0-.222,1.714A2.271,2.271,0,0,0,42,14.121" transform="translate(-15.678 -1.704)" fill="#294667"/>
  </g>
</svg>
