<?xml version="1.0" encoding="UTF-8"?><svg xmlns="http://www.w3.org/2000/svg" xmlns:xlink="http://www.w3.org/1999/xlink" viewBox="0 0 100 100"><defs><style>.cls-1{fill:none;}.cls-2{fill:url(#linear-gradient);}.cls-3{clip-path:url(#clippath);}.cls-4{fill:#c0c1c2;}.cls-5{fill:#dadada;}.cls-6{fill:#120d27;}.cls-7{fill:#95a8b2;}.cls-8{fill:#35276d;}.cls-9{fill:#fff;mix-blend-mode:soft-light;}.cls-10{isolation:isolate;}</style><clipPath id="clippath"><circle class="cls-1" cx="50" cy="50" r="50"/></clipPath><linearGradient id="linear-gradient" x1="0" y1="50" x2="100" y2="50" gradientTransform="matrix(1, 0, 0, 1, 0, 0)" gradientUnits="userSpaceOnUse"><stop offset="0" stop-color="#e7e6e6"/><stop offset="1" stop-color="#f2f2f2"/></linearGradient></defs><g class="cls-10"><g id="Capa_1"><g class="cls-3"><rect class="cls-2" y="0" width="100" height="100"/><polygon class="cls-7" points="5.97 62.9 19.13 15 96.51 28.88 88.98 72.62 5.97 62.9"/><g><rect class="cls-6" x="22.01" y="29.51" width="55.99" height="37.75" rx="1.85" ry="1.85"/><rect class="cls-8" x="23.82" y="31.54" width="52.35" height="33.67"/><path class="cls-5" d="M16.61,70.49c-1.02-.14-1.33-.68-1.33-.68l-1.21-1.73c-.25-.68,.41-.82,.41-.82H85.52s.67,.14,.41,.82l-1.21,1.73s-.32,.54-1.33,.68H16.61Z"/><path class="cls-4" d="M14.31,68.43l.96,1.38s.32,.54,1.33,.68H83.39c1.02-.14,1.33-.68,1.33-.68l.96-1.38H14.31Z"/><path class="cls-9" d="M41.96,29.51H23.86c-1.02,0-1.85,.83-1.85,1.85v34.05c0,1.02,.83,1.85,1.85,1.85h52.29c.58,0,1.09-.26,1.43-.67L41.96,29.51Z"/><rect class="cls-7" x="43.34" y="67.25" width="13.31" height="1.68"/><path class="cls-8" d="M50.67,30.64c0,.37-.3,.67-.67,.67s-.67-.3-.67-.67,.3-.67,.67-.67,.67,.3,.67,.67Z"/></g></g></g></g></svg>