<?xml version="1.0" encoding="UTF-8"?><svg xmlns="http://www.w3.org/2000/svg" xmlns:xlink="http://www.w3.org/1999/xlink" viewBox="0 0 100 100"><defs><style>.cls-1,.cls-2{fill:none;}.cls-3{clip-path:url(#clippath);}.cls-4{fill:#f6e4ed;}.cls-5{fill:#f7e4d3;}.cls-6{fill:#ebb9d4;}.cls-7,.cls-8{fill:#f5cec3;}.cls-9{fill:#231f20;}.cls-10{fill:#86c2ba;}.cls-11{clip-path:url(#clippath-1);}.cls-2{stroke:#854b61;stroke-linecap:round;stroke-linejoin:round;stroke-width:.47px;}.cls-12{fill:url(#linear-gradient);mix-blend-mode:screen;opacity:.49;}.cls-13{isolation:isolate;}.cls-8{opacity:.36;}</style><clipPath id="clippath"><circle class="cls-1" cx="-70" cy="50" r="50.25"/></clipPath><linearGradient id="linear-gradient" x1="-19.73" y1="102.5" x2="-40.56" y2="-14.44" gradientUnits="userSpaceOnUse"><stop offset=".01" stop-color="#f7e4d3" stop-opacity="0"/><stop offset="1" stop-color="#f7e4d3" stop-opacity=".7"/></linearGradient><clipPath id="clippath-1"><rect class="cls-1" x="19.13" y="14.21" width="60.64" height="77.48"/></clipPath></defs><g class="cls-13"><g id="Layer_2"><g class="cls-3"><g><rect class="cls-5" x="-146.26" y=".08" width="152.63" height="101.75"/><g><rect class="cls-8" x="-146.24" y=".08" width="152.61" height="77"/><g><rect class="cls-7" x="-2.41" y="14.47" width="8.78" height=".18"/><rect class="cls-7" x="-2.41" y="18.9" width="8.78" height=".18"/><rect class="cls-7" x="-2.41" y="23.4" width="8.78" height=".18"/><path class="cls-7" d="M2.8,19.03s-.09-.04-.09-.09v-4.38s.04-.09,.09-.09,.09,.04,.09,.09v4.38s-.04,.09-.09,.09Z"/><path class="cls-7" d="M2.8,27.98s-.09-.04-.09-.09v-4.38s.04-.09,.09-.09,.09,.04,.09,.09v4.38s-.04,.09-.09,.09Z"/><path class="cls-7" d="M2.8,27.92s-.09-.04-.09-.09v-4.38s.04-.09,.09-.09,.09,.04,.09,.09v4.38s-.04,.09-.09,.09Z"/></g></g><path class="cls-12" d="M6.36,77.09H-43.85l14.47,27.73h-8.63l-17.63-27.73-3.32-5.23-4.04-6.36-.02-.03-.5-.78-1.37-2.15V8.76c-.02,.05,15.67,.09,31.2,.11,.14,0,.27,0,.41,0,15.04,.02,29.78,.03,29.78,.03l.29,.79,.81,2.19,.96,2.59,.07,.18L.22,18.9l.07,.18,1.61,4.32,.07,.18,.75,2.02,.18,.48,3.47,9.33v41.67Z"/><g><ellipse class="cls-7" cx="-8.29" cy="97.05" rx="9.04" ry="1.48"/><g><path class="cls-10" d="M-6.86,76.83s1.18-4.39,2.29-8.52c1.11-4.13,4-11.27,5.31-11.08,1.31,.2,.26,6.03-.85,9.31-1.11,3.28-6.62,10.55-6.62,10.55"/><g><path class="cls-10" d="M-1,75.68c.38-.15,.78-.29,1.19-.29,.41,0,.84,.12,1.11,.43,.42,.48,.35,1.24,0,1.78-.35,.53-.9,.89-1.44,1.23-.75,.47-7.4,4.96-7.67,4.63-.18-.22,.43-1.39,.54-1.63,.23-.51,.5-1.01,.8-1.49,.61-.98,1.37-1.87,2.23-2.63,.93-.82,2.06-1.62,3.24-2.01Z"/><path class="cls-2" d="M-9.3,88.97s.54-4.23,2.21-6.88c0,0,2.77-4.51,7.03-5.82"/></g></g></g></g></g><circle class="cls-4" cx="49.45" cy="50" r="49.45"/><path class="cls-6" d="M49.45,.55V99.45c27.31,0,49.45-22.14,49.45-49.45S76.76,.55,49.45,.55Z"/><g class="cls-11"><path class="cls-9" d="M77.37,83.47c-.2,.2-.41,.15-.41,.15-.5,0-.73-.9-.73-.9,.64-1.49-1.4-4.61-1.4-4.61-.23-1.02-1.05-1.14-1.4-1.92-.35-.79-.64-.82-2.71-5.39-2.07-4.58-3.59-4.58-3.59-4.58,.03-1.92-1.11-2.33-1.66-2.6-.55-.26-.79-1.84-.93-2.16-.15-.32-.61-.03-.82-.12-.2-.09-1.43-2.68-1.43-2.68-.9-3.41-1.31-2.77-1.31-2.77,.12-.29-.7-4.02-.7-4.02,.23-1.37-1.11-4.05-1.11-4.05,0,0,3.44-1.34,4.52-2.22,1.08-.87,.73-1.11,.73-1.11,.15-.03,.99-.61,.99-.61,.67-.9,1.11-2.16,1.02-2.83-.09-.67-2.13-5.37-2.42-6.01-.29-.64-.82-.96-.82-.96,0-.05,0-.1,0-.15-.06-1.61-.7-2.19-.7-2.19-.64-.44-.87-.17-1.6-1.75-.73-1.57-2.27-1.72-2.95-1.87-.67-.15-1.81-1.08-2.27-1.43-.47-.35-.38-1.6-.38-1.6-.23,.09-1.9-.26-1.9-.26l.06-.64c.64-.55,.5-3.29,.5-3.29,.32-.99-.18-1.34-.18-1.34-.52-2.89-3.15-2.94-3.15-2.94-.47-.52-2.22-.23-3.35,.09-1.14,.32-2.36,1.78-2.36,1.78-1.63,2.19,.09,1.78,.09,1.78,.35,.99,0,1.22,0,1.22-.88,.79,.09,1.11,.09,1.11,0,0,.2-.03-.5,1.4-.7,1.43,.41,.67,.52,.99,.12,.32,0,.85,0,.85l-2.07,.15c-.26-.55-.96-.15-.96-.15-.41-.29-.76-.47-1.55-.38-.79,.09-1.2-.35-1.2-.35-.5-.38-.87-.85-1.69-.9-.82-.06-.79-.44-1.6-.99-.82-.55-2.95-1.6-3.82-2.01-.87-.41-1.37-.96-1.84-1.05-.47-.09-2.8-.85-2.8-.85,0,0-1.9-.9-2.25-1.11-.35-.2-1.92-.67-3.38-1.43-1.46-.76-1.95,0-1.95,0-1.37,1.31-.55,2.16-.55,2.16-.47,.2,.26,.87,.26,.87-.26,.03-.88,.7-.88,.7-.39-.14-1.69,1.03-1.69,1.03-.54-.17-1.61,.72-1.61,.72-.04-.39-.62-.04-.62-.04-.25,.35-.87,.97-.87,.97-1.13,0-2.72,1.22-3.4,1.69-.68,.47-1.05,.19-1.05,.19l.6-.06,.08-.76s.39-.06,.8-.1c.41-.04-.45-2.2-.45-2.2,.41-.21,.08-1.63,.08-1.63,.62-.06,.51-1.79-.45-2.74-.95-.95-3.09-1.69-4.35-1.9-1.26-.21-2.45,1.46-2.45,1.46,0,0,1.56-.89,0,.08-1.55,.97-1.19,3.71-.91,4.61,.27,.89,.47,3.32,.47,3.32,0,0-.21,.06-.37,.16-.16,.1-.49,2.08-.49,2.08-.39,.04-1.3,.97-1.57,1.4-.27,.43-1.46,1.56-1.92,1.85-.47,.29-1.71,1.56-1.71,1.56l-.74,3.51c-.79,1.52-1.78,4.05-2.33,5.28-.55,1.22-.26,2.8,.52,3.79,.79,.99,1.05,.17,2.25,1.55,1.2,1.37,3,2.07,3,2.07l-.03,1.22c-.55,.5-.88,3.56-.88,3.56-.29,.61-1.22,3.62-1.57,4.69-.35,1.08-2.25,5.57-2.25,5.57-.55,.26-1.17,.64-1.55,1.81-.38,1.17-1.66,2.07-1.66,2.07-.2,.73-1.55,1.57-2.27,2.27-.73,.7-2.07,3.59-2.07,3.59,0,0-2.1,4.37-2.57,5.25-.47,.87-1.49,1.92-1.52,2.48-.03,.55-.35,2.42-.35,2.42,0,0-.87,1.11-1.17,2.36-.29,1.25,1.28,1.2,1.28,1.2,0,0-.32-.61,.17,.03,.5,.64,1.28,.7,1.28,.7,.44,.38,1.02,.12,1.02,.12,0,.38,.93,.03,.93,.03-.06,.38,.76,.12,.76,.12-.06,.52,1.17-.09,1.17-.09,3.59,.12,.29-1.22,.29-1.22-.26-.09-2.27-2.13-2.27-2.13,1.11,.73,3.47,.76,3.47,.76,.65,.11,3.06-5.6,3.06-5.6l1.6-1.25s4.78-5.54,6.33-7.23c1.55-1.69,8.08-9.39,8.08-9.39,0,0,4.52,4.05,5.92,5.69,1.4,1.63,1.81,1.17,1.81,1.17-.26,.7,0,3.06,.38,3.76,.38,.7,2.71,6.62,3.06,7.7,.35,1.08,.9,2.13,.9,2.13h1.08c-1.11,2.19,1.25,1.87,2.01,1.84,.76-.03,1.87-.23,1.87-.23,1.28-.09,2.27-.23,2.27-.23,0,0-.52,1.2-.41,1.37,.12,.17,2.65,1.02,2.65,1.02-.82,.41-3.67,1.25-3.73,1.34-.68,1.02,.18,.7,.18,.7-.18,.44,.82,.38,.82,.38-.06,.55,.41,.03,.41,.03-.12,.52,.44,0,.44,0-.06,.23,.64,.15,.64,.15,.18,.44,4.69-.03,7.2,0,2.51,.03,1.46-1.11,1.46-1.11l.12,.03,.32,.09s.5-4.72,.85-6.33c.35-1.6,1.05-6.33,1.05-6.33,0,0,.44-.38,1.02-.85,.58-.47,4.84-6.12,5.66-6.94,.82-.82,3.79-4.55,3.79-4.55,0,0,1.72,2.33,1.78,2.45,.06,.12,4.2,4.52,4.58,5.16,.38,.64,3.88,4.58,4.64,5.57,.76,.99,4,7.14,4,7.14-.06,1.22,.79,2.62,.79,2.62,.44-.5,4.2-.23,4.2-.23,1.2,.12,3.21-.7,3.21-.7-.38,1.28,2.71,1.05,2.89,.47,.17-.58,.2-.29,.73-.7,.53-.41,.09-1.02-.12-.82ZM45.32,49.85s-.06,.32-.67,1.17c-.61,.85-4.55,4.29-4.55,4.29,0,0-4.87,5.66-5.45,6.24-.58,.58-1.49,.87-2.1,3.38l-4.02,16.18-1.49-.35,.82-.64s-3.32-16.82-3.82-17.87c-.5-1.05-2.95-3.35-4.02-4.55-1.08-1.2-4.4-4.11-4.4-4.11,0,0-.27-5.85-1.45-5.64-.04,0-.08,.02-.12,.04,0,0,.23-1.31-1.43-1.11l-.09-.5s.93-4.32,.67-6.91c-.26-2.59-.96-6.71-1.4-7.35,0,0,2.92-2.19,3.99-2.68,1.08-.5,2.54-1.25,3.12-2.3l.58-1.05s.18,.47,1.17-1.2c0,0,.96-.03,1.46-1.31,0,0,1.75-1.25,2.07-1.75,.32-.5,.82-1.11,.7-1.69l1.52,1.66s-.93,3.67,.06,4.23c.99,.55,2.57,1.05,2.57,1.05,0,0,.09,1.08,1.78,1.78,0,0,1.57,.55,1.78,1.81,0,0,9.18,3.38,10.18,3.82,.99,.44,1.22,3.97,1.28,6.18,.06,2.22-.15,5.31,1.69,6.79l-.41,2.39Z"/></g><polygon class="cls-4" points="28.23 83.52 28.52 81.05 28.32 76.73 36.42 35.41 25.72 27.31 24.95 21.79 24.34 20.03 22.08 19.75 19.13 19.75 18.16 21.24 17 83.94 24.34 86.43 28.23 83.52"/></g></g></svg>