<?xml version="1.0" encoding="UTF-8"?><svg id="Capa_1" xmlns="http://www.w3.org/2000/svg" xmlns:xlink="http://www.w3.org/1999/xlink" viewBox="0 0 100 100"><defs><style>.cls-1{fill:url(#linear-gradient);}.cls-2{fill:#8cc055;}.cls-3{fill:#afb0d9;}.cls-4{fill:#d7d8ee;}.cls-5{fill:#2d353c;}.cls-6{fill:#3b4951;}.cls-7{fill:#5e7380;}.cls-8{fill:#7abb53;}.cls-9{fill:#fff;opacity:.4;}</style><linearGradient id="linear-gradient" x1=".28" y1="49.8" x2="99.12" y2="49.8" gradientTransform="matrix(1, 0, 0, 1, 0, 0)" gradientUnits="userSpaceOnUse"><stop offset="0" stop-color="#e7e6e6"/><stop offset="1" stop-color="#f2f2f2"/></linearGradient></defs><circle class="cls-1" cx="49.7" cy="49.8" r="49.42"/><g><path class="cls-6" d="M61.49,92.04c-.95,0-1.98-.31-3.04-.92-3.54-2.04-6.31-6.84-6.31-10.93v-14.88c0-.43,.35-.78,.78-.78s.78,.35,.78,.78v14.88c0,3.52,2.48,7.82,5.53,9.58,1.33,.77,2.54,.92,3.41,.41,.87-.5,1.34-1.62,1.34-3.16v-14.88c0-.43,.35-.78,.78-.78s.78,.35,.78,.78v14.88c0,2.12-.75,3.72-2.12,4.51-.58,.34-1.23,.5-1.93,.5Z"/><polygon class="cls-7" points="52.92 34.83 32.45 23.02 37.97 19.83 58.44 31.65 52.92 34.83"/><polygon class="cls-5" points="50.06 84.13 50.06 54.09 55.58 50.9 55.58 80.94 50.06 84.13"/><g><polygon class="cls-5" points="52.92 55.74 52.92 34.83 58.44 31.64 58.44 52.55 52.92 55.74"/><g><polygon class="cls-6" points="57.35 38.15 54.01 40.08 54.01 39.21 57.35 37.28 57.35 38.15"/><polygon class="cls-6" points="57.35 41.5 54.01 43.42 54.01 42.55 57.35 40.62 57.35 41.5"/><polygon class="cls-6" points="57.35 44.84 54.01 46.76 54.01 45.89 57.35 43.96 57.35 44.84"/><polygon class="cls-6" points="57.35 48.18 54.01 50.1 54.01 49.23 57.35 47.3 57.35 48.18"/></g></g><g><g><path class="cls-3" d="M48.02,22.57v4.45c0,.38-.25,.76-.75,1.05-1.01,.58-2.64,.58-3.64,0-.5-.29-.75-.67-.75-1.05v-4.45h5.15Z"/><path class="cls-4" d="M47.27,23.62c-1.01,.58-2.64,.58-3.64,0s-1.01-1.52,0-2.1c1.01-.58,2.64-.58,3.64,0,1.01,.58,1.01,1.52,0,2.1Z"/></g><g><path class="cls-6" d="M47.13,17.56v4.71c0,.25-.16,.5-.49,.69-.66,.38-1.73,.38-2.39,0-.33-.19-.49-.44-.49-.69v-4.71h3.37Z"/><path class="cls-7" d="M46.64,18.25c-.66,.38-1.73,.38-2.39,0-.66-.38-.66-1,0-1.38,.66-.38,1.73-.38,2.39,0s.66,1,0,1.38Z"/></g></g><g><g><path class="cls-5" d="M67.08,65.72v7.48c0,.31-.2,.62-.62,.86-.83,.48-2.16,.48-2.98,0-.41-.24-.62-.55-.62-.86v-7.48h4.22Z"/><path class="cls-6" d="M67.55,61.41v9.13c0,.38-.25,.76-.75,1.05-1.01,.58-2.64,.58-3.64,0-.5-.29-.75-.67-.75-1.05v-9.13h5.15Z"/><path class="cls-7" d="M66.79,62.46c-1.01,.58-2.64,.58-3.64,0-1.01-.58-1.01-1.52,0-2.1,1.01-.58,2.64-.58,3.64,0,1.01,.58,1.01,1.52,0,2.1Z"/></g><g><path class="cls-8" d="M66.75,39.88v21.3c0,.26-.17,.52-.52,.73-.7,.4-1.82,.4-2.51,0-.35-.2-.52-.46-.52-.73v-21.3h3.55Z"/><path class="cls-2" d="M66.23,40.6c-.69,.4-1.82,.4-2.51,0-.69-.4-.69-1.05,0-1.45,.69-.4,1.82-.4,2.51,0,.69,.4,.69,1.05,0,1.45Z"/></g></g><g><polygon class="cls-6" points="52.92 55.74 32.45 43.92 32.45 23.01 52.92 34.83 52.92 55.74"/><polygon class="cls-6" points="50.06 54.09 35.31 45.57 35.31 75.61 50.06 84.13 50.06 54.09"/><polygon class="cls-4" points="50.49 38.44 50.49 49.33 34.88 40.32 34.88 29.42 50.49 38.44"/><g><path class="cls-8" d="M39.5,29.74c0,.68-.48,.95-1.06,.61-.59-.34-1.06-1.16-1.06-1.84s.48-.95,1.06-.61c.59,.34,1.06,1.16,1.06,1.84Z"/><polygon class="cls-4" points="48 35.32 40.59 31.05 40.59 29.69 48 33.97 48 35.32"/></g><path class="cls-8" d="M38.73,44.59c-1.2-.69-2.18-.13-2.18,1.26s.98,3.08,2.18,3.78c1.21,.7,2.19,.13,2.19-1.26s-.98-3.09-2.19-3.78Zm0,4.41c-.9-.52-1.63-1.78-1.63-2.82s.73-1.47,1.63-.95c.91,.52,1.64,1.79,1.64,2.83s-.73,1.46-1.64,.94Z"/><path class="cls-8" d="M39.43,47.95l-1.39-.81c-.18-.11-.33-.39-.33-.63h0c0-.24,.15-.36,.33-.25l1.39,.81c.18,.11,.33,.39,.33,.63h0c0,.24-.15,.36-.33,.25Z"/><g><polygon class="cls-8" points="43.96 58.45 36.55 54.17 36.55 53.22 43.96 57.5 43.96 58.45"/><polygon class="cls-8" points="42.02 59.5 36.55 56.34 36.55 55.39 42.02 58.55 42.02 59.5"/></g><g><polygon class="cls-8" points="46.39 76.67 38.98 72.39 38.98 71.44 46.39 75.72 46.39 76.67"/><polygon class="cls-8" points="45.42 78.28 39.95 75.13 39.95 74.17 45.42 77.33 45.42 78.28"/></g><path class="cls-8" d="M47.35,72.42l-9.34-5.39c-.77-.45-1.41-1.54-1.41-2.43v-3.67c0-.89,.63-1.26,1.41-.81l9.34,5.39c.77,.45,1.41,1.54,1.41,2.43v3.67c0,.89-.63,1.26-1.41,.81Zm-9.34-11.79c-.53-.3-.95-.06-.95,.55v3.67c0,.61,.43,1.35,.95,1.65l9.34,5.39c.53,.3,.95,.06,.95-.55v-3.67c0-.61-.43-1.35-.95-1.65l-9.34-5.39Z"/><g><g><path class="cls-4" d="M40.11,64.19c0,.24-.17,.33-.37,.21-.2-.12-.37-.41-.37-.64s.17-.33,.37-.21c.2,.12,.37,.41,.37,.64Z"/><polygon class="cls-8" points="40.8 66.18 38.68 64.96 38.68 64.19 40.8 65.41 40.8 66.18"/></g><g><path class="cls-4" d="M46,67.59c0,.24-.17,.33-.37,.21-.2-.12-.37-.41-.37-.64s.17-.33,.37-.21c.2,.12,.37,.41,.37,.64Z"/><polygon class="cls-8" points="46.69 69.59 44.57 68.37 44.57 67.59 46.69 68.81 46.69 69.59"/></g></g><g><g><path class="cls-6" d="M38.72,39.97c.03,.19,.08,.35,.16,.49,.08,.14,.19,.25,.34,.34,.17,.1,.3,.1,.39,.02,.09-.09,.13-.24,.13-.44s-.04-.4-.12-.59c-.08-.19-.21-.34-.39-.44-.08-.05-.16-.08-.22-.09-.11-.02-.19,.02-.24,.11l-.62-.39,.25-2.09,1.92,1.11v.67l-1.43-.82-.13,.81c.11-.02,.19-.02,.25-.02,.1,.01,.22,.06,.36,.15,.29,.17,.54,.42,.76,.77,.22,.35,.32,.74,.32,1.17,0,.37-.1,.65-.31,.82-.21,.17-.52,.14-.93-.1-.33-.19-.61-.45-.82-.78-.21-.33-.33-.69-.36-1.08l.68,.4Z"/><path class="cls-6" d="M40.96,41.51l.73,.42v.83l-.73-.42v-.83Z"/><path class="cls-6" d="M42.29,41.37c.09-.13,.22-.2,.39-.19-.17-.23-.28-.43-.33-.61s-.08-.34-.08-.47c0-.29,.1-.49,.29-.58,.19-.1,.46-.04,.81,.16,.35,.2,.62,.46,.81,.78,.19,.32,.29,.62,.29,.92,0,.13-.03,.26-.08,.38-.05,.12-.16,.19-.33,.2,.17,.21,.3,.43,.39,.67,.09,.23,.13,.46,.13,.69,0,.34-.11,.57-.33,.68s-.52,.06-.91-.17c-.39-.23-.69-.52-.89-.87-.2-.35-.3-.7-.3-1.04,0-.23,.04-.41,.13-.54Zm.71,1.44c.09,.16,.21,.29,.37,.38,.16,.09,.28,.11,.37,.05,.09-.06,.13-.19,.13-.38s-.05-.39-.14-.55c-.09-.16-.21-.28-.37-.37-.15-.09-.28-.11-.37-.05-.09,.05-.14,.18-.14,.39s.04,.38,.13,.54Zm.04-1.81c.08,.14,.19,.25,.33,.33,.14,.08,.25,.1,.33,.05,.08-.05,.11-.15,.11-.29,0-.16-.04-.31-.11-.44-.08-.13-.18-.24-.33-.32-.14-.08-.25-.1-.33-.05-.08,.04-.12,.15-.12,.31,0,.15,.04,.29,.12,.43Z"/><path class="cls-6" d="M45.04,42.96c.09-.13,.22-.2,.39-.19-.17-.23-.28-.43-.33-.61-.05-.18-.08-.34-.08-.47,0-.29,.1-.49,.29-.58,.19-.1,.46-.04,.81,.16,.35,.2,.62,.46,.81,.78s.29,.62,.29,.92c0,.13-.03,.26-.08,.38-.05,.12-.16,.19-.33,.2,.17,.21,.3,.43,.39,.67,.09,.23,.13,.46,.13,.69,0,.34-.11,.57-.33,.68-.22,.11-.52,.06-.91-.17-.39-.23-.69-.52-.89-.87-.2-.35-.3-.7-.3-1.04,0-.23,.04-.41,.13-.54Zm.71,1.44c.09,.16,.21,.29,.37,.38,.16,.09,.28,.11,.37,.05,.09-.06,.13-.19,.13-.38s-.05-.39-.14-.55c-.09-.16-.21-.28-.37-.37-.15-.09-.28-.11-.37-.05s-.14,.18-.14,.39,.04,.38,.13,.54Zm.04-1.81c.08,.14,.19,.25,.33,.33,.14,.08,.25,.1,.33,.05,.08-.05,.11-.15,.11-.29,0-.16-.04-.31-.11-.44-.08-.13-.18-.24-.33-.32-.14-.08-.25-.1-.33-.05-.08,.04-.12,.15-.12,.31,0,.15,.04,.29,.12,.43Z"/></g><g><path class="cls-6" d="M45.21,37.57c.12,.22,.18,.47,.18,.76,0,.31-.06,.5-.18,.59s-.27,.08-.46-.03c-.12-.07-.22-.16-.3-.28-.04-.06-.09-.14-.13-.24v.9l-.39-.22v-2.41l.38,.22v.26c.04-.05,.09-.08,.14-.1,.09-.03,.19,0,.31,.06,.18,.1,.33,.26,.45,.48Zm-.3,.15c-.05-.13-.14-.23-.26-.3-.14-.08-.24-.06-.3,.06-.03,.07-.04,.16-.04,.29,0,.2,.05,.37,.14,.51,.06,.08,.12,.14,.2,.19,.11,.06,.19,.06,.25,0,.06-.06,.09-.18,.09-.34,0-.13-.03-.27-.08-.4Z"/><path class="cls-6" d="M45.7,39.4v-2.34l.42,.24v.89l.79,.46v-.89l.42,.24v2.34l-.42-.24v-1.05l-.79-.46v1.05l-.42-.24Z"/></g></g><polygon class="cls-9" points="50.13 38.23 40.69 43.68 34.88 40.32 34.88 38.63 42.86 34.03 50.13 38.23"/></g><path class="cls-6" d="M53.81,11.46V28.97l-1.56-.9V11.46c0-.87-.26-1.52-.72-1.78-.46-.26-1.15-.17-1.9,.27-1.84,1.06-3.4,3.76-3.4,5.89v1.22c0,.43-.35,.78-.78,.78s-.78-.35-.78-.78v-1.22c0-2.71,1.84-5.89,4.18-7.24,1.26-.73,2.5-.83,3.46-.27,.97,.56,1.5,1.67,1.5,3.13Z"/></g></svg>