<?xml version="1.0" encoding="UTF-8"?><svg xmlns="http://www.w3.org/2000/svg" xmlns:xlink="http://www.w3.org/1999/xlink" viewBox="0 0 100 100"><defs><style>.cls-1{fill:none;}.cls-2{clip-path:url(#clippath);}.cls-3{fill:#f2f2f2;}.cls-4{fill:#ffd1a3;}.cls-5{fill:#adcdc9;}.cls-6{fill:#bebfbd;}.cls-7{fill:#2d2d3d;}.cls-8{fill:#3d311e;}.cls-9{fill:#5d5d5d;}.cls-10{fill:#d9d9d9;}.cls-10,.cls-11{mix-blend-mode:multiply;}.cls-11{fill:#e6e6e6;}.cls-12{fill:#595959;mix-blend-mode:screen;}.cls-13{isolation:isolate;}</style><clipPath id="clippath"><rect class="cls-1" x="75.8" y="19.04" width="7.33" height="40.72" transform="translate(158.92 78.79) rotate(180)"/></clipPath></defs><g class="cls-13"><g id="Layer_2"><circle class="cls-5" cx="50" cy="50" r="49.45"/><g><ellipse class="cls-3" cx="50" cy="58.5" rx="45.19" ry="6.06"/><g><path class="cls-4" d="M14.5,52.92c.33-.93,.75,.06,3.17,.52,2.43,.45,3.02,.31,3.71,.12,.69-.19,.17,.89,2.61-.27,2.44-1.17,4.8-3.8,7.16-5.5,2.36-1.7,5.41-5.1,6.51-5.25s7.08,1.16,10.72,2.64c3.11,1.27,7.01,3.91,8.06,4.64,.55,3.43,.72,5.89,.21,7.74-.97,.3-2.09,.39-3.84,.12-5.15-.78-5.22-4.68-8.04-6.38-2.82-1.71-5.79-3.72-5.79-3.72,0,0-1.42,1.88-3.67,3.82-2.26,1.93-5.76,2.8-8.26,4.21-2.5,1.41-2.31,1.64-2.71,2.77-.39,1.14-1.28,2.69-2,2.29-.72-.4-2.45-1.63-2.44-2.26,.01-.63-.5-.54-1.01-.42-.51,.12-1.14-.35-2.53-1.6-1.4-1.25-2.2-2.53-1.87-3.46Z"/><path class="cls-11" d="M14.5,52.92c.33-.93,.75,.06,3.17,.52,2.43,.45,3.02,.31,3.71,.12,.69-.19,.17,.89,2.61-.27,2.44-1.17,4.8-3.8,7.16-5.5,2.36-1.7,5.41-5.1,6.51-5.25s7.08,1.16,10.72,2.64c3.11,1.27,7.01,3.91,8.06,4.64,.55,3.43,.72,5.89,.21,7.74-.97,.3-2.09,.39-3.84,.12-5.15-.78-5.22-4.68-8.04-6.38-2.82-1.71-5.79-3.72-5.79-3.72,0,0-1.42,1.88-3.67,3.82-2.26,1.93-5.76,2.8-8.26,4.21-2.5,1.41-2.31,1.64-2.71,2.77-.39,1.14-1.28,2.69-2,2.29-.72-.4-2.45-1.63-2.44-2.26,.01-.63-.5-.54-1.01-.42-.51,.12-1.14-.35-2.53-1.6-1.4-1.25-2.2-2.53-1.87-3.46Z"/><path class="cls-6" d="M17.67,53.43c2.43,.45,3.02,.31,3.71,.12,.25-.07,.34,.03,.47,.13,.51,.47,.73,.67,.5,1-.31,.43-.91,.86-.46,1.03,.42,.16,.94,1.29,2.83,1.63-.16,.28-.23,.58-.38,1.02-.39,1.14-1.28,2.69-2,2.29-.72-.4-2.45-1.63-2.44-2.26,.01-.63-.5-.54-1.01-.42-.51,.12-1.14-.35-2.53-1.6-1.4-1.25-2.2-2.53-1.87-3.46s.75,.06,3.17,.52Z"/><path class="cls-10" d="M17.67,53.43c2.43,.45,3.02,.31,3.71,.12,.25-.07,.34,.03,.47,.13,.51,.47,.73,.67,.5,1-.31,.43-.91,.86-.46,1.03,.42,.16,.94,1.29,2.83,1.63-.16,.28-.23,.58-.38,1.02-.39,1.14-1.28,2.69-2,2.29-.72-.4-2.45-1.63-2.44-2.26,.01-.63-.5-.54-1.01-.42-.51,.12-1.14-.35-2.53-1.6-1.4-1.25-2.2-2.53-1.87-3.46s.75,.06,3.17,.52Z"/><path class="cls-4" d="M55.94,49.96s-4.87-3.11-8.57-4.4c-3.7-1.3-9.75-2.31-10.84-2.1-1.09,.21-3.97,3.76-6.24,5.58-2.27,1.82-4.5,4.57-6.88,5.86-2.38,1.29-1.92,.18-2.6,.41s-1.26,.39-3.71,.06c-2.45-.33-2.91-1.3-3.19-.35s.59,2.19,2.04,3.36c1.46,1.18,2.11,1.62,2.61,1.47,.51-.15,1.01-.26,1.03,.37,.02,.63,1.81,1.77,2.55,2.13,.74,.36,1.54-1.24,1.88-2.39,.33-1.15,.13-1.37,2.56-2.91,2.43-1.54,7.59-2.58,9.75-4.62,2.16-2.05,1.76-4,1.76-4,0,0,3.07,3.57,5.97,5.13,2.9,1.56,3.16,4.88,8.35,5.4,5.19,.52,3.49-8.47,3.52-9Z"/><path class="cls-6" d="M13.91,55.01c.28-.95,.75,.03,3.19,.35,2.45,.33,3.03,.16,3.71-.06,.23-.08,.33,0,.46,.09,.43,.4,.63,.66,.85,.87,.34,.32-1.49,1.13-1.09,1.29,.39,.16,1.16,1.09,3.04,1.31,.11,.01,.19,.03,.28,.04-.16,.3-.21,.61-.34,1.06-.33,1.15-1.14,2.75-1.88,2.39-.74-.36-2.53-1.51-2.55-2.13-.02-.63-.52-.52-1.03-.37-.5,.15-1.16-.29-2.61-1.47-1.46-1.18-2.33-2.42-2.04-3.36Z"/><path class="cls-7" d="M18.57,59.84c-.5,.15-1.16-.29-2.61-1.47-1.46-1.18-2.33-2.42-2.04-3.36,0,0,0,0,0-.01,.06,.31,.14,.63,.26,.94,.74,1.88,3.57,3.49,4.43,3.5,.86,.01,.91-.04,1.42,.93,.45,.85,1.46,1.58,2.81,1.79-.23,.2-.47,.29-.7,.18-.74-.36-2.53-1.51-2.55-2.13-.02-.63-.52-.52-1.03-.37Z"/><path class="cls-7" d="M40.72,42.93c2.33,.48,5.44,1.33,7.67,2.24,3.11,1.27,7.01,3.91,8.06,4.64,.47,2.92,.66,5.14,.39,6.88-.03,.05-.05,.09-.08,.14-.25,.41-.61,.72-1.05,.93-.77,.11-1.68,.1-2.89-.09-5.15-.78-5.22-4.68-8.04-6.38-2.08-1.26-4.24-2.68-5.23-3.34,.51-1.84,1-3.8,1.17-5.01Z"/></g><g><g><path class="cls-4" d="M72.65,49.06c-4.78-.1-5.43,2.75-5.03,3.83,.4,1.08,3.69,1.03,4,0,.31-1.03,1.04-3.83,1.04-3.83Z"/><path class="cls-11" d="M72.65,49.06c-4.78-.1-5.43,2.75-5.03,3.83,.4,1.08,3.69,1.03,4,0,.31-1.03,1.04-3.83,1.04-3.83Z"/><path class="cls-4" d="M84.48,41.08c-1.28,.01-2.64,.24-2.94,.35-.3,.11-.21,.61-.67,.67-.46,.06-1.2,.02-1.81-.1-.6-.12-.71,.2-.58,.62s.12,.41-.17,.53c-.29,.12-.25,.14-.24,.28,.02,.14-.33,.14-.32,.32,0,.18-.09,.38-.39,.54-.3,.16-.67,.17-.55,.69,.12,.53,1.21,1.49,1.03,1.99-.26,.74-1.14,1.24-1.14,1.24l2.89,2.76s.67-.49,1.08-.64c.41-.15,3.52-.19,4.38-.66,.86-.47,2.33-1.55,2.74-3.41,.41-1.87-1.48-5.18-3.33-5.17Z"/></g><g class="cls-2"><path class="cls-4" d="M76.8,48.15c-1.78,1.3-3.05,.58-5.93,.45s-4.34,.68-5.83,1.36c-1.49,.68-3.21,.13-4.86,.52-1.65,.39-4.41,.91-5.87,0-1.46-.91-2.27-3.11-6.19-6.22-3.92-3.11-3.99-2.56-5.57-3.37s-5.88-4.91-8.31-6.59-5.14-4.94-5.52-5.56c-.39-.62,.5-.76-.21-1.54s-1.7-1.51-1.83-2.65c-.13-1.13,.86-4.08-.18-4.08s-3.49,2.01-3.65,3.83c-.16,1.81,.81,2.27,.32,3.56-.49,1.3-.16,3.56,.29,3.92,.45,.36,3.11,.1,3.56,.03,.45-.06,.29-1,1.78,1.72,1.49,2.72,3.07,7.09,5.41,8.49,2.34,1.4,3.79,1.17,4.5,2.07s3.92,6.29,5.57,8.1c1.65,1.81,2.37,4.73,4.8,5.61s20.84,1.65,23.37,.75,4.47-5.06,5.28-6.22c.81-1.17,3.18-1.72,3.18-1.72l-4.12-2.46Z"/></g><path class="cls-8" d="M86.72,42.36c-.77-.96-2.23-1.43-2.63-1.53-.4-.1-.55-.21-.55-.21,0,0-.21-.18,.11,.25,.32,.43-.29-.08-.28,.01,.01,.1,.5,.61,.58,1.08s-.02,.79-.15,.68c-.13-.11,.04,.3-.09,.63-.12,.33-.67,.42-.82,.72s-1.1,.5-1.04,.8,.22,.62,.97,.49,.56,.86-.12,1.13-.95,.02-1.1,.92-.7,2.35-.95,2.73c-.25,.38-.13,.82-.13,.82,0,0,.29-.28,.41-.29,.12-.01,3.68,.28,5.38-.72,1.69-1,2.97-3.47,1.39-6.26-.58-1.02-1.09-1.71-1.11-1.55-.02,.15,.13,.29,.13,.29Z"/><path class="cls-9" d="M74.2,47.91c-1.93-.46-4.34-.78-6.02-.15-1.69,.63-1.92,.91-2.6,1.07s-2.94-.06-5.62,.16c-1.18,.1-2,.21-2.55,.23l-.58,6.73c2.83,.27,7.2,.78,10.34,1.09,4.22,.42,6.79,.07,8.67-1.3,2.44-1.77,1.96-6.98-1.64-7.84Z"/><path class="cls-4" d="M76.27,50.14c1.03,1.75,.43,3.77-.93,4.91-1.36,1.15-5.48,2.03-7.58,2.71-2.1,.67-2.1,1.23-4.46,1.23s-5.28-.91-7.36-1.41c-2.08-.5-1.71-.5-3.14-.09-1.43,.41-1.93,.39-3.07,.39s-2.25-.41,0-1.06c2.25-.65,3.37-1.13,4.45-1.07,1.08,.06,4.26-.14,6.75-.68,2.49-.54,2.84-.13,4.42-.76,1.58-.63,3.51-1.69,4.55-2.68,1.04-1,.83-2.25,2.9-2.6,2.06-.35,3.14,.52,3.49,1.1Z"/></g><path class="cls-7" d="M40.06,43.78c2.29,.38,5.18,1.03,7.3,1.77,3.7,1.3,8.57,4.4,8.57,4.4-.02,.25,.28,.12,1.48-.73l3.62,5.77c-3.82,2.04-4.21,4.4-8.62,3.96-5.19-.52-5.45-3.84-8.35-5.4-1.96-1.05-3.99-3.02-5.11-4.19,.55-1.28,1.23-3.35,1.1-5.59Z"/><path class="cls-12" d="M57.6,51.62l.53,1.22s-2.92,1.48-5.06,1.05c-2.14-.43-5.37-4.27-5.37-4.27,0,0,4.09,3.17,5.8,3.17s4.1-1.18,4.1-1.18Z"/></g></g></g></svg>